<svg width="34" height="44" viewBox="0 0 34 44" fill="none" xmlns="http://www.w3.org/2000/svg">
<g filter="url(#filter0_d_447_7558)">
<path d="M15.6797 1.79199C7.51653 1.79199 0.898438 8.36091 0.898438 16.4634C0.898438 22.8082 6.97429 32.2508 11.3351 38.2109C13.5241 41.2025 17.8337 41.2012 20.0216 38.2088C24.3827 32.2441 30.4609 22.795 30.4609 16.4634C30.4609 8.36091 23.8428 1.79199 15.6797 1.79199Z" fill="white"/>
</g>
<circle cx="15.6484" cy="16.542" r="11.75" fill="#FE7F06"/>
<path d="M19.3828 22.167H12.3828C10.5078 22.167 10.5078 21.127 10.5078 20.292V19.792C10.5078 19.312 10.9028 18.917 11.3828 18.917H20.3828C20.8628 18.917 21.2578 19.312 21.2578 19.792V20.292C21.2578 21.127 21.2578 22.167 19.3828 22.167ZM11.3828 19.667C11.3128 19.667 11.2578 19.722 11.2578 19.792V20.292C11.2578 21.112 11.2578 21.417 12.3828 21.417H19.3828C20.5078 21.417 20.5078 21.112 20.5078 20.292V19.792C20.5078 19.722 20.4528 19.667 20.3828 19.667H11.3828Z" fill="white"/>
<path d="M20.2562 19.667H11.5312C11.3263 19.667 11.1562 19.497 11.1562 19.292V17.292C11.1562 15.242 12.6113 13.442 14.6113 13.017C14.9063 12.952 15.2163 12.917 15.5312 12.917H16.2563C16.5763 12.917 16.8862 12.952 17.1812 13.017C19.1812 13.447 20.6312 15.247 20.6312 17.292V19.292C20.6312 19.497 20.4662 19.667 20.2562 19.667ZM11.9062 18.917H19.8812V17.292C19.8812 15.597 18.6812 14.107 17.0212 13.747C16.7762 13.692 16.5213 13.667 16.2563 13.667H15.5312C15.2713 13.667 15.0163 13.692 14.7713 13.747C13.1113 14.102 11.9062 15.592 11.9062 17.292V18.917Z" fill="white"/>
<path d="M14.6934 13.757C14.5284 13.757 14.3784 13.647 14.3334 13.482C14.2934 13.337 14.2734 13.192 14.2734 13.042C14.2734 12.147 15.0034 11.417 15.8984 11.417C16.7934 11.417 17.5234 12.147 17.5234 13.042C17.5234 13.192 17.5034 13.337 17.4634 13.482C17.4134 13.672 17.2234 13.792 17.0234 13.747C16.7784 13.692 16.5234 13.667 16.2584 13.667H15.5334C15.2734 13.667 15.0184 13.692 14.7734 13.747C14.7484 13.752 14.7234 13.757 14.6934 13.757ZM15.5334 12.917H16.2584C16.4284 12.917 16.6034 12.927 16.7684 12.947C16.7234 12.507 16.3484 12.167 15.8984 12.167C15.4484 12.167 15.0784 12.507 15.0284 12.947C15.1984 12.927 15.3634 12.917 15.5334 12.917Z" fill="white"/>
<path d="M17.3984 16.667H14.3984C14.1934 16.667 14.0234 16.497 14.0234 16.292C14.0234 16.087 14.1934 15.917 14.3984 15.917H17.3984C17.6034 15.917 17.7734 16.087 17.7734 16.292C17.7734 16.497 17.6034 16.667 17.3984 16.667Z" fill="white"/>
<defs>
<filter id="filter0_d_447_7558" x="0.00260419" y="0.000325561" width="33.1458" height="42.2454" filterUnits="userSpaceOnUse" color-interpolation-filters="sRGB">
<feFlood flood-opacity="0" result="BackgroundImageFix"/>
<feColorMatrix in="SourceAlpha" type="matrix" values="0 0 0 0 0 0 0 0 0 0 0 0 0 0 0 0 0 0 127 0" result="hardAlpha"/>
<feOffset dx="0.895833"/>
<feGaussianBlur stdDeviation="0.895833"/>
<feColorMatrix type="matrix" values="0 0 0 0 0 0 0 0 0 0 0 0 0 0 0 0 0 0 0.1 0"/>
<feBlend mode="normal" in2="BackgroundImageFix" result="effect1_dropShadow_447_7558"/>
<feBlend mode="normal" in="SourceGraphic" in2="effect1_dropShadow_447_7558" result="shape"/>
</filter>
</defs>
</svg>
