<svg width="34" height="44" viewBox="0 0 34 44" fill="none" xmlns="http://www.w3.org/2000/svg">
<g filter="url(#filter0_d_447_7565)">
<path d="M15.6797 1.79199C7.51653 1.79199 0.898438 8.36091 0.898438 16.4634C0.898438 22.8082 6.97429 32.2508 11.3351 38.2109C13.5241 41.2025 17.8337 41.2012 20.0216 38.2088C24.3827 32.2441 30.4609 22.795 30.4609 16.4634C30.4609 8.36091 23.8428 1.79199 15.6797 1.79199Z" fill="white"/>
</g>
<circle cx="15.6484" cy="16.542" r="11.75" fill="#2653A3"/>
<path d="M15.8966 17.3966C15.8361 17.3966 15.7757 17.3827 15.7198 17.3501L11.6129 14.9734C11.4454 14.8757 11.3896 14.6618 11.4873 14.4943C11.585 14.3269 11.7943 14.2711 11.9664 14.3687L15.8966 16.6432L19.8036 14.3827C19.971 14.285 20.185 14.3455 20.2826 14.5083C20.3803 14.6757 20.3199 14.8897 20.1571 14.9873L16.078 17.3501C16.0175 17.378 15.9571 17.3966 15.8966 17.3966Z" fill="white"/>
<path d="M15.8967 21.6106C15.706 21.6106 15.5478 21.4525 15.5478 21.2618V17.0432C15.5478 16.8525 15.706 16.6943 15.8967 16.6943C16.0874 16.6943 16.2455 16.8525 16.2455 17.0432V21.2618C16.2455 21.4525 16.0874 21.6106 15.8967 21.6106Z" fill="white"/>
<path d="M15.8967 21.792C15.4874 21.792 15.0828 21.7036 14.7618 21.5269L12.2781 20.1455C11.6037 19.7734 11.0781 18.8757 11.0781 18.1036V15.4757C11.0781 14.7036 11.6037 13.8106 12.2781 13.4339L14.7618 12.0571C15.399 11.7036 16.3944 11.7036 17.0316 12.0571L19.5153 13.4385C20.1897 13.8106 20.7153 14.7083 20.7153 15.4804V18.1083C20.7153 18.8804 20.1897 19.7734 19.5153 20.1501L17.0316 21.5269C16.7107 21.7036 16.306 21.792 15.8967 21.792ZM15.8967 12.4897C15.6037 12.4897 15.3153 12.5501 15.1014 12.6664L12.6177 14.0478C12.1711 14.299 11.7758 14.9641 11.7758 15.4804V18.1083C11.7758 18.6199 12.1711 19.2897 12.6177 19.5408L15.1014 20.9222C15.5246 21.1594 16.2688 21.1594 16.6921 20.9222L19.1758 19.5408C19.6223 19.2897 20.0176 18.6246 20.0176 18.1083V15.4804C20.0176 14.9687 19.6223 14.299 19.1758 14.0478L16.6921 12.6664C16.4781 12.5501 16.1897 12.4897 15.8967 12.4897Z" fill="white"/>
<path d="M18.2223 17.7176C18.0316 17.7176 17.8735 17.5595 17.8735 17.3688V15.8711L13.6316 13.4246C13.4642 13.3269 13.4084 13.1129 13.506 12.9502C13.6037 12.7827 13.813 12.7269 13.9805 12.8246L18.3944 15.3734C18.5014 15.4339 18.5712 15.5501 18.5712 15.6757V17.3781C18.5712 17.5595 18.413 17.7176 18.2223 17.7176Z" fill="white"/>
<defs>
<filter id="filter0_d_447_7565" x="0.00260419" y="0.000325561" width="33.1458" height="42.2454" filterUnits="userSpaceOnUse" color-interpolation-filters="sRGB">
<feFlood flood-opacity="0" result="BackgroundImageFix"/>
<feColorMatrix in="SourceAlpha" type="matrix" values="0 0 0 0 0 0 0 0 0 0 0 0 0 0 0 0 0 0 127 0" result="hardAlpha"/>
<feOffset dx="0.895833"/>
<feGaussianBlur stdDeviation="0.895833"/>
<feColorMatrix type="matrix" values="0 0 0 0 0 0 0 0 0 0 0 0 0 0 0 0 0 0 0.1 0"/>
<feBlend mode="normal" in2="BackgroundImageFix" result="effect1_dropShadow_447_7565"/>
<feBlend mode="normal" in="SourceGraphic" in2="effect1_dropShadow_447_7565" result="shape"/>
</filter>
</defs>
</svg>
