<svg width="34" height="44" viewBox="0 0 34 44" fill="none" xmlns="http://www.w3.org/2000/svg">
<g filter="url(#filter0_d_447_7563)">
<path d="M15.6797 1.79199C7.51653 1.79199 0.898438 8.36091 0.898438 16.4634C0.898438 22.8082 6.97429 32.2508 11.3351 38.2109C13.5241 41.2025 17.8337 41.2012 20.0216 38.2088C24.3827 32.2441 30.4609 22.795 30.4609 16.4634C30.4609 8.36091 23.8428 1.79199 15.6797 1.79199Z" fill="white"/>
</g>
<circle cx="15.6484" cy="16.542" r="11.75" fill="#DA0242"/>
<path d="M16.6884 22.1669H13.0034C11.6334 22.1669 10.5234 21.0519 10.5234 19.6869V16.0269C10.5234 14.6569 11.6384 13.5469 13.0034 13.5469H16.6884C18.0584 13.5469 19.1684 14.6619 19.1684 16.0269V19.6869C19.1684 21.0519 18.0534 22.1669 16.6884 22.1669ZM13.0034 14.2969C12.0484 14.2969 11.2734 15.0719 11.2734 16.0269V19.6869C11.2734 20.6419 12.0484 21.4169 13.0034 21.4169H16.6884C17.6434 21.4169 18.4184 20.6419 18.4184 19.6869V16.0269C18.4184 15.0719 17.6434 14.2969 16.6884 14.2969H13.0034V14.2969Z" fill="white"/>
<path d="M12.6484 13.167C12.4434 13.167 12.2734 12.997 12.2734 12.792V11.917C12.2734 11.712 12.4434 11.542 12.6484 11.542C12.8534 11.542 13.0234 11.712 13.0234 11.917V12.792C13.0234 12.997 12.8534 13.167 12.6484 13.167Z" fill="white"/>
<path d="M14.6484 13.167C14.4434 13.167 14.2734 12.997 14.2734 12.792V11.917C14.2734 11.712 14.4434 11.542 14.6484 11.542C14.8534 11.542 15.0234 11.712 15.0234 11.917V12.792C15.0234 12.997 14.8534 13.167 14.6484 13.167Z" fill="white"/>
<path d="M16.6484 13.167C16.4434 13.167 16.2734 12.997 16.2734 12.792V11.917C16.2734 11.712 16.4434 11.542 16.6484 11.542C16.8534 11.542 17.0234 11.712 17.0234 11.917V12.792C17.0234 12.997 16.8534 13.167 16.6484 13.167Z" fill="white"/>
<path d="M18.7969 19.8516C18.5919 19.8516 18.4219 19.6816 18.4219 19.4766V15.2666C18.4219 15.0616 18.5919 14.8916 18.7969 14.8916C20.1669 14.8916 21.2769 16.0066 21.2769 17.3716C21.2769 18.7366 20.1619 19.8516 18.7969 19.8516ZM19.1719 15.6816V19.0616C19.9469 18.8916 20.5269 18.1966 20.5269 17.3716C20.5269 16.5466 19.9469 15.8516 19.1719 15.6816Z" fill="white"/>
<path d="M18.6534 17.167H10.8984C10.6934 17.167 10.5234 16.997 10.5234 16.792C10.5234 16.587 10.6934 16.417 10.8984 16.417H18.6534C18.8584 16.417 19.0284 16.587 19.0284 16.792C19.0284 16.997 18.8584 17.167 18.6534 17.167Z" fill="white"/>
<defs>
<filter id="filter0_d_447_7563" x="0.00260419" y="0.000325561" width="33.1458" height="42.2454" filterUnits="userSpaceOnUse" color-interpolation-filters="sRGB">
<feFlood flood-opacity="0" result="BackgroundImageFix"/>
<feColorMatrix in="SourceAlpha" type="matrix" values="0 0 0 0 0 0 0 0 0 0 0 0 0 0 0 0 0 0 127 0" result="hardAlpha"/>
<feOffset dx="0.895833"/>
<feGaussianBlur stdDeviation="0.895833"/>
<feColorMatrix type="matrix" values="0 0 0 0 0 0 0 0 0 0 0 0 0 0 0 0 0 0 0.1 0"/>
<feBlend mode="normal" in2="BackgroundImageFix" result="effect1_dropShadow_447_7563"/>
<feBlend mode="normal" in="SourceGraphic" in2="effect1_dropShadow_447_7563" result="shape"/>
</filter>
</defs>
</svg>
