<svg width="34" height="44" viewBox="0 0 34 44" fill="none" xmlns="http://www.w3.org/2000/svg">
<g filter="url(#filter0_d_447_7556)">
<path d="M15.6797 1.79199C7.51653 1.79199 0.898438 8.36091 0.898438 16.4634C0.898438 22.8082 6.97429 32.2508 11.3351 38.2109C13.5241 41.2025 17.8337 41.2012 20.0216 38.2088C24.3827 32.2441 30.4609 22.795 30.4609 16.4634C30.4609 8.36091 23.8428 1.79199 15.6797 1.79199Z" fill="white"/>
</g>
<circle cx="15.6484" cy="16.542" r="11.75" fill="#7FC242"/>
<path d="M20.8984 22.167H10.8984C10.6934 22.167 10.5234 21.997 10.5234 21.792C10.5234 21.587 10.6934 21.417 10.8984 21.417H20.8984C21.1034 21.417 21.2734 21.587 21.2734 21.792C21.2734 21.997 21.1034 22.167 20.8984 22.167Z" fill="white"/>
<path d="M11.75 21.7924H11L11.025 15.7773C11.025 15.3523 11.22 14.9573 11.555 14.6973L15.055 11.9723C15.55 11.5873 16.245 11.5873 16.745 11.9723L20.245 14.6923C20.575 14.9523 20.775 15.3573 20.775 15.7773V21.7924H20.025V15.7823C20.025 15.5923 19.935 15.4073 19.785 15.2873L16.285 12.5673C16.06 12.3923 15.745 12.3923 15.515 12.5673L12.015 15.2924C11.865 15.4074 11.775 15.5923 11.775 15.7823L11.75 21.7924Z" fill="white"/>
<path d="M18.3984 22.167H13.3984C13.1934 22.167 13.0234 21.997 13.0234 21.792V17.042C13.0234 16.422 13.5284 15.917 14.1484 15.917H17.6484C18.2684 15.917 18.7734 16.422 18.7734 17.042V21.792C18.7734 21.997 18.6034 22.167 18.3984 22.167ZM13.7734 21.417H18.0234V17.042C18.0234 16.837 17.8534 16.667 17.6484 16.667H14.1484C13.9434 16.667 13.7734 16.837 13.7734 17.042V21.417Z" fill="white"/>
<path d="M14.8984 20.042C14.6934 20.042 14.5234 19.872 14.5234 19.667V18.917C14.5234 18.712 14.6934 18.542 14.8984 18.542C15.1034 18.542 15.2734 18.712 15.2734 18.917V19.667C15.2734 19.872 15.1034 20.042 14.8984 20.042Z" fill="white"/>
<path d="M16.6484 14.917H15.1484C14.9434 14.917 14.7734 14.747 14.7734 14.542C14.7734 14.337 14.9434 14.167 15.1484 14.167H16.6484C16.8534 14.167 17.0234 14.337 17.0234 14.542C17.0234 14.747 16.8534 14.917 16.6484 14.917Z" fill="white"/>
<defs>
<filter id="filter0_d_447_7556" x="0.00260419" y="0.000325561" width="33.1458" height="42.2454" filterUnits="userSpaceOnUse" color-interpolation-filters="sRGB">
<feFlood flood-opacity="0" result="BackgroundImageFix"/>
<feColorMatrix in="SourceAlpha" type="matrix" values="0 0 0 0 0 0 0 0 0 0 0 0 0 0 0 0 0 0 127 0" result="hardAlpha"/>
<feOffset dx="0.895833"/>
<feGaussianBlur stdDeviation="0.895833"/>
<feColorMatrix type="matrix" values="0 0 0 0 0 0 0 0 0 0 0 0 0 0 0 0 0 0 0.1 0"/>
<feBlend mode="normal" in2="BackgroundImageFix" result="effect1_dropShadow_447_7556"/>
<feBlend mode="normal" in="SourceGraphic" in2="effect1_dropShadow_447_7556" result="shape"/>
</filter>
</defs>
</svg>
