<svg width="34" height="44" viewBox="0 0 34 44" fill="none" xmlns="http://www.w3.org/2000/svg">
<g filter="url(#filter0_d_447_7568)">
<path d="M15.6797 1.79199C7.51653 1.79199 0.898438 8.36091 0.898438 16.4634C0.898438 22.8082 6.97429 32.2508 11.3351 38.2109C13.5241 41.2025 17.8337 41.2012 20.0216 38.2088C24.3827 32.2441 30.4609 22.795 30.4609 16.4634C30.4609 8.36091 23.8428 1.79199 15.6797 1.79199Z" fill="white"/>
</g>
<circle cx="15.6484" cy="16.542" r="11.75" fill="#50A1CA"/>
<path d="M17.345 19.9019H12.95C12.69 19.9019 12.445 19.8769 12.225 19.8269C12.11 19.8119 11.97 19.7719 11.825 19.7169C11.16 19.4669 10.375 18.8519 10.375 17.3219V14.7469C10.375 13.1119 11.315 12.1719 12.95 12.1719H17.345C18.725 12.1719 19.615 12.8319 19.855 14.0319C19.9 14.2519 19.92 14.4869 19.92 14.7469V17.3219C19.92 18.9669 18.985 19.9019 17.345 19.9019ZM12.955 12.9319C11.725 12.9319 11.13 13.5269 11.13 14.7569V17.3319C11.13 18.2269 11.445 18.7769 12.09 19.0219C12.19 19.0569 12.285 19.0819 12.375 19.0969C12.565 19.1369 12.75 19.1569 12.955 19.1569H17.35C18.58 19.1569 19.175 18.5619 19.175 17.3319V14.7569C19.175 14.5469 19.16 14.3619 19.125 14.1919C18.955 13.3419 18.375 12.9319 17.35 12.9319H12.955Z" fill="white"/>
<path d="M18.842 21.4022H14.447C14.022 21.4022 13.642 21.3422 13.317 21.2172C12.582 20.9422 12.102 20.3622 11.937 19.5322C11.912 19.4072 11.952 19.2772 12.042 19.1922C12.132 19.1022 12.262 19.0672 12.387 19.0972C12.552 19.1322 12.737 19.1522 12.947 19.1522H17.342C18.572 19.1522 19.167 18.5572 19.167 17.3272V14.7522C19.167 14.5422 19.152 14.3572 19.117 14.1872C19.092 14.0622 19.132 13.9372 19.217 13.8472C19.307 13.7572 19.432 13.7172 19.557 13.7472C20.757 13.9922 21.417 14.8822 21.417 16.2522V18.8272C21.417 20.4672 20.482 21.4022 18.842 21.4022ZM12.857 19.9022C13.017 20.1922 13.257 20.3972 13.587 20.5172C13.827 20.6072 14.117 20.6522 14.452 20.6522H18.847C20.077 20.6522 20.672 20.0572 20.672 18.8272V16.2522C20.672 15.4622 20.427 14.9372 19.922 14.6622C19.922 14.6922 19.922 14.7222 19.922 14.7522V17.3272C19.922 18.9622 18.982 19.9022 17.347 19.9022H12.952C12.917 19.9022 12.887 19.9022 12.857 19.9022Z" fill="white"/>
<path d="M15.1481 17.7367C14.2131 17.7367 13.4531 16.9767 13.4531 16.0417C13.4531 15.1067 14.2131 14.3467 15.1481 14.3467C16.0831 14.3467 16.8431 15.1067 16.8431 16.0417C16.8431 16.9767 16.0831 17.7367 15.1481 17.7367ZM15.1481 15.0967C14.6281 15.0967 14.2031 15.5217 14.2031 16.0417C14.2031 16.5617 14.6281 16.9867 15.1481 16.9867C15.6681 16.9867 16.0931 16.5617 16.0931 16.0417C16.0931 15.5217 15.6681 15.0967 15.1481 15.0967Z" fill="white"/>
<path d="M12.2891 17.5174C12.0841 17.5174 11.9141 17.3474 11.9141 17.1424V14.9424C11.9141 14.7374 12.0841 14.5674 12.2891 14.5674C12.4941 14.5674 12.6641 14.7374 12.6641 14.9424V17.1424C12.6641 17.3474 12.4991 17.5174 12.2891 17.5174Z" fill="white"/>
<path d="M18 17.5174C17.795 17.5174 17.625 17.3474 17.625 17.1424V14.9424C17.625 14.7374 17.795 14.5674 18 14.5674C18.205 14.5674 18.375 14.7374 18.375 14.9424V17.1424C18.375 17.3474 18.21 17.5174 18 17.5174Z" fill="white"/>
<defs>
<filter id="filter0_d_447_7568" x="0.00260419" y="0.000325561" width="33.1458" height="42.2454" filterUnits="userSpaceOnUse" color-interpolation-filters="sRGB">
<feFlood flood-opacity="0" result="BackgroundImageFix"/>
<feColorMatrix in="SourceAlpha" type="matrix" values="0 0 0 0 0 0 0 0 0 0 0 0 0 0 0 0 0 0 127 0" result="hardAlpha"/>
<feOffset dx="0.895833"/>
<feGaussianBlur stdDeviation="0.895833"/>
<feColorMatrix type="matrix" values="0 0 0 0 0 0 0 0 0 0 0 0 0 0 0 0 0 0 0.1 0"/>
<feBlend mode="normal" in2="BackgroundImageFix" result="effect1_dropShadow_447_7568"/>
<feBlend mode="normal" in="SourceGraphic" in2="effect1_dropShadow_447_7568" result="shape"/>
</filter>
</defs>
</svg>
