<svg width="34" height="44" viewBox="0 0 34 44" fill="none" xmlns="http://www.w3.org/2000/svg">
<g filter="url(#filter0_d_447_7570)">
<path d="M15.6797 1.79199C7.51653 1.79199 0.898438 8.36091 0.898438 16.4634C0.898438 22.8082 6.97429 32.2508 11.3351 38.2109C13.5241 41.2025 17.8337 41.2012 20.0216 38.2088C24.3827 32.2441 30.4609 22.795 30.4609 16.4634C30.4609 8.36091 23.8428 1.79199 15.6797 1.79199Z" fill="white"/>
</g>
<circle cx="15.6484" cy="16.542" r="11.75" fill="#3B9B7F"/>
<path d="M20.0872 21.357C19.9872 21.357 19.8922 21.317 19.8222 21.247L16.6322 18.057C16.4872 17.912 16.4872 17.672 16.6322 17.527L20.4972 13.662C20.5922 13.567 20.7372 13.532 20.8672 13.567C20.9972 13.607 21.0972 13.712 21.1272 13.842C21.2222 14.267 21.2722 14.742 21.2722 15.292V18.292C21.2722 19.677 20.9822 20.612 20.3522 21.247C20.2822 21.317 20.1772 21.332 20.0872 21.357ZM17.4272 17.792L20.0572 20.422C20.3722 19.937 20.5222 19.247 20.5222 18.292V15.292C20.5222 15.087 20.5172 14.897 20.5022 14.717L17.4272 17.792Z" fill="white"/>
<path d="M13.0334 22.032C13.0034 22.032 12.9784 22.027 12.9484 22.022C11.2934 21.642 10.5234 20.457 10.5234 18.292V15.292C10.5234 12.577 11.6834 11.417 14.3984 11.417H17.3984C19.5634 11.417 20.7484 12.187 21.1284 13.842C21.1584 13.967 21.1184 14.102 21.0284 14.192L13.2984 21.922C13.2284 21.992 13.1334 22.032 13.0334 22.032ZM14.3984 12.167C12.0934 12.167 11.2734 12.987 11.2734 15.292V18.292C11.2734 20.027 11.7534 20.897 12.9184 21.242L20.3434 13.817C20.0034 12.652 19.1284 12.172 17.3934 12.172H14.3984V12.167Z" fill="white"/>
<path d="M17.3967 22.1667H14.3967C13.8467 22.1667 13.3767 22.1217 12.9467 22.0217C12.8117 21.9917 12.7067 21.8917 12.6717 21.7617C12.6317 21.6317 12.6717 21.4917 12.7667 21.3917L16.6317 17.5267C16.7767 17.3817 17.0167 17.3817 17.1617 17.5267L20.3517 20.7167C20.4217 20.7867 20.4617 20.8817 20.4617 20.9817C20.4617 21.0817 20.4217 21.1767 20.3517 21.2467C19.7167 21.8767 18.7817 22.1667 17.3967 22.1667ZM13.8217 21.3967C14.0017 21.4117 14.1917 21.4167 14.3967 21.4167H17.3967C18.3567 21.4167 19.0417 21.2667 19.5267 20.9517L16.8967 18.3217L13.8217 21.3967Z" fill="white"/>
<path d="M14.4599 17.4465C14.1449 17.4465 13.8299 17.3315 13.5799 17.0965C12.7849 16.3415 12.4649 15.5115 12.6549 14.7015C12.8449 13.8715 13.5699 13.3115 14.4599 13.3115C15.3499 13.3115 16.0749 13.8715 16.2649 14.7015C16.4499 15.5165 16.1299 16.3415 15.3349 17.0965C15.0899 17.3265 14.7749 17.4465 14.4599 17.4465ZM13.3849 14.8665C13.2249 15.5465 13.6849 16.1565 14.0999 16.5515C14.3049 16.7465 14.6199 16.7465 14.8199 16.5515C15.2299 16.1615 15.6899 15.5515 15.5349 14.8665C15.3999 14.2715 14.8699 14.0565 14.4599 14.0565C14.0499 14.0565 13.5249 14.2715 13.3849 14.8665Z" fill="white"/>
<path d="M14.4766 15.5371C14.2016 15.5371 13.9766 15.3121 13.9766 15.0371C13.9766 14.7621 14.1966 14.5371 14.4766 14.5371H14.4816C14.7566 14.5371 14.9816 14.7621 14.9816 15.0371C14.9816 15.3121 14.7516 15.5371 14.4766 15.5371Z" fill="white"/>
<defs>
<filter id="filter0_d_447_7570" x="0.00260419" y="0.000325561" width="33.1458" height="42.2454" filterUnits="userSpaceOnUse" color-interpolation-filters="sRGB">
<feFlood flood-opacity="0" result="BackgroundImageFix"/>
<feColorMatrix in="SourceAlpha" type="matrix" values="0 0 0 0 0 0 0 0 0 0 0 0 0 0 0 0 0 0 127 0" result="hardAlpha"/>
<feOffset dx="0.895833"/>
<feGaussianBlur stdDeviation="0.895833"/>
<feColorMatrix type="matrix" values="0 0 0 0 0 0 0 0 0 0 0 0 0 0 0 0 0 0 0.1 0"/>
<feBlend mode="normal" in2="BackgroundImageFix" result="effect1_dropShadow_447_7570"/>
<feBlend mode="normal" in="SourceGraphic" in2="effect1_dropShadow_447_7570" result="shape"/>
</filter>
</defs>
</svg>
