<svg width="159" height="49" viewBox="0 0 159 49" fill="none" xmlns="http://www.w3.org/2000/svg">
<path d="M65.0368 22.176H61.926C61.8692 21.7735 61.7532 21.416 61.578 21.1035C61.4028 20.7863 61.1779 20.5164 60.9033 20.2939C60.6287 20.0713 60.3114 19.9009 59.9516 19.7825C59.5965 19.6641 59.2106 19.605 58.7939 19.605C58.0411 19.605 57.3853 19.792 56.8266 20.166C56.2679 20.5353 55.8346 21.0751 55.5269 21.7853C55.2191 22.4908 55.0652 23.3478 55.0652 24.3564C55.0652 25.3933 55.2191 26.2645 55.5269 26.97C55.8394 27.6755 56.275 28.2082 56.8337 28.568C57.3924 28.9279 58.0387 29.1078 58.7726 29.1078C59.1845 29.1078 59.5657 29.0533 59.9161 28.9444C60.2712 28.8355 60.5861 28.6769 60.8607 28.4686C61.1353 28.2555 61.3626 27.9975 61.5425 27.6944C61.7272 27.3914 61.855 27.0458 61.926 26.6575L65.0368 26.6717C64.9563 27.3393 64.7551 27.9833 64.4331 28.6035C64.1159 29.2191 63.6874 29.7707 63.1476 30.2584C62.6126 30.7413 61.9734 31.1248 61.23 31.4089C60.4914 31.6883 59.6557 31.828 58.7229 31.828C57.4255 31.828 56.2655 31.5344 55.2428 30.9473C54.2248 30.3602 53.4199 29.5103 52.828 28.3976C52.2409 27.2849 51.9473 25.9378 51.9473 24.3564C51.9473 22.7702 52.2456 21.4208 52.8422 20.3081C53.4388 19.1954 54.2485 18.3478 55.2712 17.7655C56.2939 17.1783 57.4445 16.8848 58.7229 16.8848C59.5657 16.8848 60.3469 17.0032 61.0666 17.2399C61.7911 17.4766 62.4326 17.8223 62.9914 18.2768C63.5501 18.7266 64.0046 19.2782 64.355 19.9317C64.7101 20.5851 64.9374 21.3332 65.0368 22.176ZM71.5142 31.8422C70.411 31.8422 69.4569 31.6078 68.652 31.139C67.8518 30.6656 67.2339 30.0074 66.7983 29.1646C66.3627 28.3171 66.1449 27.3346 66.1449 26.2172C66.1449 25.0903 66.3627 24.1054 66.7983 23.2626C67.2339 22.4151 67.8518 21.7569 68.652 21.2882C69.4569 20.8147 70.411 20.578 71.5142 20.578C72.6174 20.578 73.5692 20.8147 74.3693 21.2882C75.1743 21.7569 75.7945 22.4151 76.2301 23.2626C76.6657 24.1054 76.8835 25.0903 76.8835 26.2172C76.8835 27.3346 76.6657 28.3171 76.2301 29.1646C75.7945 30.0074 75.1743 30.6656 74.3693 31.139C73.5692 31.6078 72.6174 31.8422 71.5142 31.8422ZM71.5284 29.4984C72.0303 29.4984 72.4494 29.3564 72.7855 29.0723C73.1217 28.7835 73.375 28.3905 73.5455 27.8933C73.7207 27.3961 73.8083 26.8303 73.8083 26.1959C73.8083 25.5614 73.7207 24.9956 73.5455 24.4984C73.375 24.0013 73.1217 23.6083 72.7855 23.3194C72.4494 23.0306 72.0303 22.8862 71.5284 22.8862C71.0218 22.8862 70.5957 23.0306 70.25 23.3194C69.9091 23.6083 69.6511 24.0013 69.4759 24.4984C69.3054 24.9956 69.2202 25.5614 69.2202 26.1959C69.2202 26.8303 69.3054 27.3961 69.4759 27.8933C69.6511 28.3905 69.9091 28.7835 70.25 29.0723C70.5957 29.3564 71.0218 29.4984 71.5284 29.4984ZM78.1941 31.6291V29.8251L83.535 23.2129V23.1348H78.3787V20.72H87.1784V22.6873L82.1642 29.1362V29.2143H87.3631V31.6291H78.1941ZM90.9446 35.72C90.561 35.72 90.2012 35.6892 89.865 35.6277C89.5336 35.5709 89.2589 35.4975 89.0411 35.4075L89.723 33.149C90.0781 33.2579 90.3977 33.3171 90.6818 33.3265C90.9706 33.336 91.2192 33.2697 91.4275 33.1277C91.6406 32.9856 91.8134 32.7442 91.946 32.4032L92.1235 31.9416L88.2102 20.72H91.392L93.6505 28.7314H93.7642L96.044 20.72H99.2471L95.0071 32.8081C94.8035 33.3952 94.5265 33.9066 94.1761 34.3422C93.8304 34.7825 93.3925 35.1211 92.8622 35.3578C92.3319 35.5993 91.6927 35.72 90.9446 35.72ZM112.419 17.0836V31.6291H109.762L103.434 22.4743H103.328V31.6291H100.252V17.0836H102.951L109.23 26.2314H109.358V17.0836H112.419ZM119.274 31.8422C118.152 31.8422 117.186 31.6149 116.377 31.1603C115.572 30.7011 114.951 30.0524 114.516 29.2143C114.08 28.3715 113.862 27.3748 113.862 26.2243C113.862 25.1021 114.08 24.1173 114.516 23.2697C114.951 22.4222 115.564 21.7617 116.355 21.2882C117.151 20.8147 118.083 20.578 119.153 20.578C119.873 20.578 120.543 20.694 121.163 20.926C121.788 21.1532 122.333 21.4965 122.797 21.9558C123.266 22.4151 123.63 22.9927 123.891 23.6888C124.151 24.38 124.281 25.1897 124.281 26.1177V26.9487H115.07V25.0737H121.433C121.433 24.6381 121.339 24.2522 121.149 23.916C120.96 23.5799 120.697 23.3171 120.361 23.1277C120.029 22.9336 119.644 22.8365 119.203 22.8365C118.744 22.8365 118.337 22.943 117.982 23.1561C117.631 23.3644 117.357 23.6461 117.158 24.0013C116.959 24.3516 116.857 24.7423 116.852 25.1731V26.9558C116.852 27.4956 116.952 27.962 117.151 28.355C117.354 28.7479 117.641 29.051 118.01 29.264C118.379 29.4771 118.817 29.5836 119.324 29.5836C119.66 29.5836 119.968 29.5363 120.247 29.4416C120.527 29.3469 120.766 29.2049 120.965 29.0155C121.163 28.8261 121.315 28.5941 121.419 28.3194L124.217 28.5041C124.075 29.1764 123.784 29.7636 123.344 30.2655C122.908 30.7626 122.345 31.1509 121.653 31.4302C120.967 31.7049 120.174 31.8422 119.274 31.8422ZM134.732 23.8308L131.963 24.0013C131.915 23.7645 131.813 23.5514 131.657 23.3621C131.501 23.1679 131.295 23.014 131.039 22.9004C130.788 22.782 130.488 22.7229 130.137 22.7229C129.669 22.7229 129.273 22.8223 128.951 23.0211C128.629 23.2153 128.468 23.4757 128.468 23.8024C128.468 24.0628 128.572 24.283 128.781 24.4629C128.989 24.6428 129.347 24.7872 129.853 24.8961L131.828 25.2939C132.888 25.5117 133.679 25.8621 134.2 26.345C134.721 26.828 134.981 27.4624 134.981 28.2484C134.981 28.9634 134.77 29.5907 134.349 30.1305C133.932 30.6703 133.359 31.0917 132.63 31.3947C131.906 31.693 131.07 31.8422 130.123 31.8422C128.679 31.8422 127.528 31.5415 126.671 30.9402C125.819 30.3341 125.32 29.5103 125.173 28.4686L128.149 28.3123C128.239 28.7527 128.456 29.0889 128.802 29.3209C129.148 29.5481 129.59 29.6618 130.13 29.6618C130.66 29.6618 131.087 29.56 131.409 29.3564C131.735 29.148 131.901 28.8805 131.906 28.5538C131.901 28.2792 131.785 28.0543 131.558 27.8791C131.33 27.6992 130.98 27.5619 130.507 27.4672L128.617 27.0907C127.552 26.8777 126.759 26.5084 126.238 25.9828C125.722 25.4572 125.464 24.7872 125.464 23.9729C125.464 23.2721 125.653 22.6684 126.032 22.1618C126.416 21.6551 126.953 21.2645 127.644 20.9899C128.34 20.7153 129.155 20.578 130.088 20.578C131.465 20.578 132.55 20.8692 133.34 21.4515C134.136 22.0339 134.6 22.827 134.732 23.8308ZM142.089 20.72V22.9927H135.519V20.72H142.089ZM137.011 18.1064H140.036V28.2768C140.036 28.5562 140.079 28.774 140.164 28.9302C140.249 29.0818 140.368 29.1883 140.519 29.2498C140.675 29.3114 140.855 29.3422 141.059 29.3422C141.201 29.3422 141.343 29.3303 141.485 29.3067C141.627 29.2782 141.736 29.2569 141.812 29.2427L142.288 31.4942C142.136 31.5415 141.923 31.596 141.648 31.6575C141.374 31.7238 141.04 31.764 140.647 31.7782C139.918 31.8067 139.279 31.7096 138.729 31.4871C138.185 31.2645 137.761 30.9189 137.458 30.4501C137.155 29.9814 137.006 29.3895 137.011 28.6746V18.1064Z" fill="#999999"/>
<path d="M26.7012 20.2805V23.8657H30.2864L36.0131 18.1389L40.9399 23.0656V13.0065C40.9399 11.1497 39.419 9.62891 37.5623 9.62891H27.5032L32.4299 14.5557L26.7031 20.2824L26.7012 20.2805Z" fill="#999999"/>
<path d="M20.5931 23.8676H24.1782V20.2824L18.4514 14.5557L23.3781 9.62891H13.319C11.4623 9.62891 9.94141 11.1497 9.94141 13.0065V23.0656L14.8682 18.1389L20.5949 23.8657L20.5931 23.8676Z" fill="#999999"/>
<path d="M30.2864 26.3906H26.7012V29.9758L32.428 35.7025L27.5013 40.6293H37.5604C39.419 40.6293 40.938 39.1084 40.938 37.2517V27.1926L36.0113 32.1193L30.2845 26.3925L30.2864 26.3906Z" fill="#999999"/>
<path d="M24.1782 29.9758V26.3906H20.593L14.8662 32.1174L9.93945 27.1907V37.2498C9.93945 39.1084 11.4604 40.6274 13.3171 40.6274H23.3762L18.4495 35.7006L24.1763 29.9739L24.1782 29.9758Z" fill="#999999"/>
</svg>
