<svg width="159" height="49" viewBox="0 0 159 49" fill="none" xmlns="http://www.w3.org/2000/svg">
<g clip-path="url(#clip0_130_16389)">
<g clip-path="url(#clip1_130_16389)">
<path d="M52.2031 31.6291V17.0836H57.9417C59.045 17.0836 59.9848 17.2943 60.7613 17.7157C61.5379 18.1324 62.1297 18.7124 62.5369 19.4558C62.9488 20.1944 63.1548 21.0467 63.1548 22.0126C63.1548 22.9785 62.9465 23.8308 62.5298 24.5694C62.1131 25.3081 61.5094 25.8834 60.7187 26.2953C59.9327 26.7072 58.981 26.9132 57.8636 26.9132H54.2059V24.4487H57.3665C57.9583 24.4487 58.446 24.3469 58.8295 24.1433C59.2178 23.935 59.5066 23.6485 59.696 23.2839C59.8901 22.9146 59.9872 22.4908 59.9872 22.0126C59.9872 21.5297 59.8901 21.1083 59.696 20.7484C59.5066 20.3838 59.2178 20.1021 58.8295 19.9032C58.4413 19.6996 57.9488 19.5979 57.3523 19.5979H55.2784V31.6291H52.2031ZM71.4912 26.9842V20.72H74.5168V31.6291H71.612V29.6476H71.4983C71.2521 30.2868 70.8426 30.8005 70.2697 31.1888C69.7015 31.577 69.0078 31.7711 68.1887 31.7711C67.4595 31.7711 66.8179 31.6054 66.264 31.274C65.71 30.9425 65.2768 30.4714 64.9643 29.8606C64.6565 29.2498 64.5002 28.5183 64.4955 27.666V20.72H67.5211V27.1263C67.5258 27.7702 67.6986 28.2792 68.0395 28.6532C68.3804 29.0273 68.8374 29.2143 69.4103 29.2143C69.7749 29.2143 70.1158 29.1315 70.433 28.9657C70.7502 28.7953 71.0059 28.5443 71.2001 28.2129C71.3989 27.8815 71.496 27.4719 71.4912 26.9842ZM76.3369 31.6291V20.72H79.2701V22.6234H79.3838C79.5826 21.9463 79.9165 21.435 80.3852 21.0893C80.854 20.7389 81.3937 20.5638 82.0045 20.5638C82.156 20.5638 82.3194 20.5732 82.4946 20.5922C82.6698 20.6111 82.8237 20.6371 82.9562 20.6703V23.355C82.8142 23.3123 82.6177 23.2745 82.3667 23.2413C82.1158 23.2082 81.8862 23.1916 81.6778 23.1916C81.2327 23.1916 80.835 23.2887 80.4846 23.4828C80.139 23.6722 79.8644 23.9373 79.6608 24.2782C79.4619 24.6192 79.3625 25.0121 79.3625 25.4572V31.6291H76.3369ZM88.3843 31.8422C87.2621 31.8422 86.2962 31.6149 85.4866 31.1603C84.6816 30.7011 84.0614 30.0524 83.6258 29.2143C83.1902 28.3715 82.9724 27.3748 82.9724 26.2243C82.9724 25.1021 83.1902 24.1173 83.6258 23.2697C84.0614 22.4222 84.6745 21.7617 85.4653 21.2882C86.2607 20.8147 87.1935 20.578 88.2635 20.578C88.9832 20.578 89.6532 20.694 90.2735 20.926C90.8985 21.1532 91.443 21.4965 91.907 21.9558C92.3758 22.4151 92.7403 22.9927 93.0008 23.6888C93.2612 24.38 93.3914 25.1897 93.3914 26.1177V26.9487H84.1797V25.0737H90.5434C90.5434 24.6381 90.4487 24.2522 90.2593 23.916C90.0699 23.5799 89.8071 23.3171 89.4709 23.1277C89.1395 22.9336 88.7536 22.8365 88.3133 22.8365C87.854 22.8365 87.4468 22.943 87.0917 23.1561C86.7413 23.3644 86.4667 23.6461 86.2678 24.0013C86.0689 24.3516 85.9671 24.7423 85.9624 25.1731V26.9558C85.9624 27.4956 86.0618 27.962 86.2607 28.355C86.4643 28.7479 86.7508 29.051 87.1201 29.264C87.4894 29.4771 87.9274 29.5836 88.434 29.5836C88.7702 29.5836 89.0779 29.5363 89.3573 29.4416C89.6367 29.3469 89.8758 29.2049 90.0746 29.0155C90.2735 28.8261 90.425 28.5941 90.5292 28.3194L93.3275 28.5041C93.1854 29.1764 92.8942 29.7636 92.4539 30.2655C92.0183 30.7626 91.4548 31.1509 90.7635 31.4302C90.077 31.7049 89.2839 31.8422 88.3843 31.8422ZM104.468 21.7853C104.368 21.4397 104.229 21.1343 104.049 20.8692C103.869 20.5993 103.648 20.372 103.388 20.1873C103.132 19.9979 102.839 19.8535 102.507 19.7541C102.181 19.6547 101.818 19.605 101.421 19.605C100.677 19.605 100.024 19.7896 99.4604 20.1589C98.9017 20.5282 98.4661 21.0657 98.1536 21.7711C97.8411 22.4719 97.6849 23.3289 97.6849 24.3422C97.6849 25.3554 97.8387 26.2172 98.1465 26.9274C98.4543 27.6376 98.8899 28.1798 99.4533 28.5538C100.017 28.9231 100.682 29.1078 101.449 29.1078C102.145 29.1078 102.739 28.9847 103.232 28.7385C103.729 28.4875 104.108 28.1348 104.368 27.6802C104.633 27.2257 104.766 26.6883 104.766 26.068L105.391 26.1603H101.641V23.845H107.728V25.6774C107.728 26.9558 107.458 28.0543 106.918 28.9729C106.378 29.8867 105.635 30.5922 104.688 31.0893C103.741 31.5818 102.657 31.828 101.435 31.828C100.071 31.828 98.8733 31.5273 97.8411 30.926C96.8089 30.3199 96.004 29.4605 95.4263 28.3479C94.8534 27.2304 94.567 25.9047 94.567 24.3706C94.567 23.1916 94.7374 22.1405 95.0783 21.2172C95.424 20.2891 95.9069 19.5032 96.5272 18.8592C97.1474 18.2153 97.8695 17.7252 98.6934 17.389C99.5172 17.0529 100.41 16.8848 101.371 16.8848C102.195 16.8848 102.962 17.0055 103.672 17.247C104.382 17.4837 105.012 17.8199 105.561 18.2555C106.115 18.6911 106.568 19.2096 106.918 19.8109C107.268 20.4075 107.493 21.0657 107.593 21.7853H104.468ZM112.406 17.0836V31.6291H109.381V17.0836H112.406ZM119.159 31.8422C118.056 31.8422 117.102 31.6078 116.297 31.139C115.497 30.6656 114.879 30.0074 114.443 29.1646C114.007 28.3171 113.79 27.3346 113.79 26.2172C113.79 25.0903 114.007 24.1054 114.443 23.2626C114.879 22.4151 115.497 21.7569 116.297 21.2882C117.102 20.8147 118.056 20.578 119.159 20.578C120.262 20.578 121.214 20.8147 122.014 21.2882C122.819 21.7569 123.439 22.4151 123.875 23.2626C124.31 24.1054 124.528 25.0903 124.528 26.2172C124.528 27.3346 124.31 28.3171 123.875 29.1646C123.439 30.0074 122.819 30.6656 122.014 31.139C121.214 31.6078 120.262 31.8422 119.159 31.8422ZM119.173 29.4984C119.675 29.4984 120.094 29.3564 120.43 29.0723C120.766 28.7835 121.02 28.3905 121.19 27.8933C121.365 27.3961 121.453 26.8303 121.453 26.1959C121.453 25.5614 121.365 24.9956 121.19 24.4984C121.02 24.0013 120.766 23.6083 120.43 23.3194C120.094 23.0306 119.675 22.8862 119.173 22.8862C118.667 22.8862 118.24 23.0306 117.895 23.3194C117.554 23.6083 117.296 24.0013 117.121 24.4984C116.95 24.9956 116.865 25.5614 116.865 26.1959C116.865 26.8303 116.95 27.3961 117.121 27.8933C117.296 28.3905 117.554 28.7835 117.895 29.0723C118.24 29.3564 118.667 29.4984 119.173 29.4984ZM127.774 31.6291L124.805 20.72H127.866L129.557 28.0496H129.656L131.418 20.72H134.422L136.212 28.0069H136.304L137.966 20.72H141.02L138.058 31.6291H134.855L132.98 24.7683H132.845L130.97 31.6291H127.774Z" fill="#999999"/>
<path d="M39.5907 36.525C39.3342 36.2685 39.1908 35.9222 39.1908 35.56V28.7352C39.1908 27.9817 38.5807 27.3717 37.8272 27.3717H31.0026C30.6402 27.3717 30.2939 27.2282 30.0374 26.9718L28.6624 25.5967C28.1291 25.0649 28.1291 24.2013 28.6624 23.668L30.0374 22.2915C30.2939 22.0365 30.6402 21.8916 31.0026 21.8916H37.8272C38.5807 21.8916 39.1908 21.2815 39.1908 20.5281V13.7018C39.1908 13.341 39.3342 12.9933 39.5907 12.7383L41.3686 10.9589C41.9018 10.4271 41.9018 9.56351 41.3686 9.03028C40.8368 8.4985 39.9732 8.4985 39.44 9.03028L37.6621 10.8082C37.4056 11.0647 37.0594 11.2081 36.6986 11.2081H36.0392H29.8723C29.1188 11.2081 28.5087 11.8181 28.5087 12.5716V19.3964C28.5087 19.7586 28.3653 20.1049 28.1103 20.3614L26.7337 21.7365C26.202 22.2697 25.3384 22.2697 24.8051 21.7365L23.43 20.3614C23.1736 20.1064 23.0301 19.7586 23.0301 19.3964V12.5716C23.0301 11.8181 22.4201 11.2081 21.6666 11.2081H14.8418C14.481 11.2081 14.1333 11.0647 13.8782 10.8082L12.0989 9.02883C11.5656 8.4956 10.7035 8.4956 10.1703 9.02883C9.63854 9.56061 9.63854 10.4242 10.1703 10.9574L11.9496 12.7368C12.2061 12.9933 12.3495 13.3396 12.3495 13.7018V20.5266C12.3495 21.2801 12.9596 21.8901 13.7131 21.8901H20.5378C20.9001 21.8901 21.2464 22.0336 21.5014 22.29L22.878 23.6666C23.4097 24.1984 23.4097 25.062 22.878 25.5952L21.5014 26.9703C21.2449 27.2268 20.8986 27.3702 20.5378 27.3702H13.7131C12.9596 27.3702 12.3495 27.9802 12.3495 28.7337V34.9007V35.56C12.3495 35.9208 12.2061 36.2685 11.9496 36.5235L10.1718 38.3014C9.63854 38.8347 9.63854 39.6968 10.1718 40.2301C10.7049 40.7618 11.5671 40.7618 12.1003 40.2301L13.8782 38.4507C14.1347 38.1957 14.481 38.0508 14.8418 38.0508H21.668C22.4215 38.0508 23.0316 37.4408 23.0316 36.6873V29.8625C23.0316 29.5017 23.175 29.1539 23.4315 28.8989L24.8067 27.5224C25.3399 26.9906 26.2034 26.9906 26.7352 27.5224L28.1103 28.8975C28.3667 29.1539 28.5103 29.5002 28.5103 29.8625V36.6873C28.5103 37.4393 29.1217 38.0508 29.8737 38.0508H36.0406H36.7C37.0623 38.0508 37.4085 38.1942 37.6635 38.4507L39.443 40.2301C39.9748 40.7618 40.8383 40.7618 41.3715 40.2301C41.9047 39.6968 41.9047 38.8347 41.3715 38.3014L39.5937 36.5235L39.5907 36.525Z" fill="#999999"/>
</g>
</g>
<defs>
<clipPath id="clip0_130_16389">
<rect width="158" height="48" fill="white" transform="translate(0.439453 0.628906)"/>
</clipPath>
<clipPath id="clip1_130_16389">
<rect width="158" height="48" fill="white" transform="translate(0.439453 0.628906)"/>
</clipPath>
</defs>
</svg>
