<svg width="159" height="49" viewBox="0 0 159 49" fill="none" xmlns="http://www.w3.org/2000/svg">
<g clip-path="url(#clip0_130_16396)">
<path d="M52.2031 31.6295V17.084H55.2784V29.094H61.5142V31.6295H52.2031ZM69.8897 26.9846V20.7204H72.9152V31.6295H70.0104V29.648H69.8968C69.6506 30.2872 69.241 30.8009 68.6681 31.1892C68.0999 31.5774 67.4063 31.7715 66.5871 31.7715C65.858 31.7715 65.2164 31.6058 64.6624 31.2744C64.1084 30.9429 63.6752 30.4718 63.3627 29.861C63.0549 29.2502 62.8987 28.5187 62.8939 27.6664V20.7204H65.9195V27.1267C65.9242 27.7706 66.0971 28.2796 66.438 28.6536C66.7789 29.0277 67.2358 29.2147 67.8087 29.2147C68.1733 29.2147 68.5142 29.1319 68.8314 28.9661C69.1487 28.7957 69.4044 28.5447 69.5985 28.2133C69.7974 27.8819 69.8944 27.4723 69.8897 26.9846ZM77.2638 20.7204L79.2666 24.5343L81.3192 20.7204H84.4228L81.2623 26.175L84.5081 31.6295H81.4186L79.2666 27.8582L77.1501 31.6295H74.0251L77.2638 26.175L74.1388 20.7204H77.2638ZM90.2007 31.8426C89.0785 31.8426 88.1126 31.6153 87.303 31.1607C86.498 30.7015 85.8778 30.0528 85.4422 29.2147C85.0066 28.3719 84.7888 27.3752 84.7888 26.2247C84.7888 25.1025 85.0066 24.1177 85.4422 23.2701C85.8778 22.4226 86.4909 21.7621 87.2817 21.2886C88.0771 20.8151 89.0099 20.5784 90.08 20.5784C90.7996 20.5784 91.4696 20.6944 92.0899 20.9264C92.7149 21.1536 93.2594 21.4969 93.7234 21.9562C94.1922 22.4155 94.5568 22.9931 94.8172 23.6892C95.0776 24.3804 95.2078 25.1901 95.2078 26.1181V26.9491H85.9961V25.0741H92.3598C92.3598 24.6385 92.2651 24.2526 92.0757 23.9164C91.8863 23.5803 91.6235 23.3175 91.2873 23.1281C90.9559 22.934 90.57 22.8369 90.1297 22.8369C89.6704 22.8369 89.2632 22.9434 88.9081 23.1565C88.5577 23.3648 88.2831 23.6465 88.0842 24.0017C87.8853 24.352 87.7836 24.7427 87.7788 25.1735V26.9562C87.7788 27.496 87.8782 27.9624 88.0771 28.3554C88.2807 28.7483 88.5672 29.0514 88.9365 29.2644C89.3058 29.4775 89.7438 29.584 90.2504 29.584C90.5866 29.584 90.8943 29.5367 91.1737 29.442C91.4531 29.3473 91.6922 29.2053 91.891 29.0159C92.0899 28.8265 92.2414 28.5945 92.3456 28.3198L95.1439 28.5045C95.0018 29.1768 94.7106 29.764 94.2703 30.2659C93.8347 30.763 93.2712 31.1513 92.58 31.4306C91.8934 31.7053 91.1003 31.8426 90.2007 31.8426ZM99.1461 31.6295H95.8507L100.872 17.084H104.835L109.849 31.6295H106.554L102.91 20.4079H102.797L99.1461 31.6295ZM98.9402 25.9122H106.724V28.3127H98.9402V25.9122ZM117.939 26.9846V20.7204H120.965V31.6295H118.06V29.648H117.946C117.7 30.2872 117.29 30.8009 116.717 31.1892C116.149 31.5774 115.456 31.7715 114.636 31.7715C113.907 31.7715 113.266 31.6058 112.712 31.2744C112.158 30.9429 111.725 30.4718 111.412 29.861C111.104 29.2502 110.948 28.5187 110.943 27.6664V20.7204H113.969V27.1267C113.974 27.7706 114.146 28.2796 114.487 28.6536C114.828 29.0277 115.285 29.2147 115.858 29.2147C116.223 29.2147 116.564 29.1319 116.881 28.9661C117.198 28.7957 117.454 28.5447 117.648 28.2133C117.847 27.8819 117.944 27.4723 117.939 26.9846ZM122.785 31.6295V20.7204H125.718V22.6238H125.832C126.03 21.9467 126.364 21.4354 126.833 21.0897C127.302 20.7393 127.841 20.5642 128.452 20.5642C128.604 20.5642 128.767 20.5736 128.942 20.5926C129.118 20.6115 129.271 20.6375 129.404 20.6707V23.3554C129.262 23.3127 129.065 23.2749 128.814 23.2417C128.564 23.2086 128.334 23.192 128.126 23.192C127.681 23.192 127.283 23.2891 126.932 23.4832C126.587 23.6726 126.312 23.9377 126.109 24.2786C125.91 24.6196 125.81 25.0125 125.81 25.4576V31.6295H122.785ZM133.167 31.8355C132.471 31.8355 131.85 31.7147 131.306 31.4733C130.761 31.227 130.33 30.8648 130.013 30.3866C129.701 29.9036 129.544 29.3023 129.544 28.5826C129.544 27.9766 129.656 27.4676 129.878 27.0556C130.101 26.6437 130.404 26.3123 130.787 26.0613C131.171 25.8104 131.606 25.621 132.094 25.4931C132.587 25.3653 133.103 25.2753 133.642 25.2233C134.277 25.157 134.788 25.0954 135.177 25.0386C135.565 24.977 135.846 24.8871 136.022 24.7687C136.197 24.6503 136.284 24.4751 136.284 24.2431V24.2005C136.284 23.7507 136.142 23.4027 135.858 23.1565C135.579 22.9103 135.181 22.7872 134.665 22.7872C134.121 22.7872 133.687 22.9079 133.365 23.1494C133.043 23.3861 132.83 23.6844 132.726 24.0443L129.928 23.817C130.07 23.1541 130.349 22.5812 130.766 22.0983C131.183 21.6106 131.72 21.2365 132.378 20.9761C133.041 20.7109 133.808 20.5784 134.679 20.5784C135.285 20.5784 135.865 20.6494 136.419 20.7914C136.978 20.9335 137.473 21.1536 137.904 21.4519C138.339 21.7502 138.683 22.1338 138.934 22.6025C139.185 23.0665 139.31 23.6229 139.31 24.2715V31.6295H136.441V30.1167H136.355C136.18 30.4576 135.946 30.7583 135.652 31.0187C135.359 31.2744 135.006 31.4756 134.594 31.6224C134.182 31.7644 133.706 31.8355 133.167 31.8355ZM134.033 29.7474C134.478 29.7474 134.871 29.6598 135.212 29.4846C135.553 29.3047 135.82 29.0632 136.015 28.7602C136.209 28.4572 136.306 28.1139 136.306 27.7304V26.5727C136.211 26.6342 136.081 26.6911 135.915 26.7431C135.754 26.7905 135.572 26.8355 135.368 26.8781C135.165 26.916 134.961 26.9515 134.757 26.9846C134.554 27.013 134.369 27.0391 134.203 27.0627C133.848 27.1148 133.538 27.1977 133.273 27.3113C133.008 27.425 132.802 27.5788 132.655 27.773C132.508 27.9624 132.435 28.1991 132.435 28.4832C132.435 28.8951 132.584 29.21 132.882 29.4278C133.185 29.6409 133.569 29.7474 134.033 29.7474Z" fill="#999999"/>
<path d="M25.1052 20.187C27.9289 20.187 30.2163 17.8996 30.2163 15.0759C30.2163 12.2522 27.9274 9.96484 25.1052 9.96484C22.283 9.96484 19.9941 12.2522 19.9941 15.0759C19.9941 17.8996 22.283 20.187 25.1052 20.187Z" fill="#999999"/>
<path d="M14.8846 19.9688C12.0624 19.9688 9.77344 22.2577 9.77344 25.0798C9.77344 27.902 12.0624 30.191 14.8846 30.191C17.7068 30.191 19.9957 27.902 19.9957 25.0798C19.9957 22.2577 17.7083 19.9688 14.8846 19.9688Z" fill="#999999"/>
<path d="M35.3298 19.9688C32.5061 19.9688 30.2188 22.2577 30.2188 25.0798C30.2188 27.902 32.5061 30.191 35.3298 30.191C38.1535 30.191 40.4409 27.902 40.4409 25.0798C40.4409 22.2577 38.152 19.9688 35.3298 19.9688Z" fill="#999999"/>
<path d="M25.1052 29.9766C22.283 29.9766 19.9941 32.2639 19.9941 35.0876C19.9941 37.9114 22.283 40.1988 25.1052 40.1988C27.9274 40.1988 30.2163 37.9114 30.2163 35.0876C30.2163 32.2639 27.9274 29.9766 25.1052 29.9766Z" fill="#999999"/>
</g>
<defs>
<clipPath id="clip0_130_16396">
<rect width="158" height="48" fill="white" transform="translate(0.439453 0.628906)"/>
</clipPath>
</defs>
</svg>
