<svg width="159" height="49" viewBox="0 0 159 49" fill="none" xmlns="http://www.w3.org/2000/svg">
<g clip-path="url(#clip0_130_16384)">
<path d="M57.3594 31.6284H52.2031V17.0829H57.402C58.865 17.0829 60.1245 17.3741 61.1804 17.9565C62.2362 18.5342 63.0483 19.3651 63.6165 20.4494C64.1894 21.5337 64.4758 22.8311 64.4758 24.3415C64.4758 25.8566 64.1894 27.1587 63.6165 28.2477C63.0483 29.3367 62.2315 30.1724 61.1662 30.7548C60.1056 31.3372 58.8366 31.6284 57.3594 31.6284ZM55.2784 28.9935H57.2315C58.1406 28.9935 58.9053 28.8325 59.5255 28.5105C60.1505 28.1838 60.6193 27.6795 60.9318 26.9977C61.249 26.3112 61.4077 25.4257 61.4077 24.3415C61.4077 23.2667 61.249 22.3883 60.9318 21.7065C60.6193 21.0247 60.1529 20.5228 59.5327 20.2008C58.9124 19.8789 58.1477 19.7179 57.2386 19.7179H55.2784V28.9935ZM66.0971 31.6284V20.7193H69.1226V31.6284H66.0971ZM67.617 19.3131C67.1671 19.3131 66.7813 19.1639 66.4593 18.8656C66.142 18.5626 65.9834 18.2004 65.9834 17.779C65.9834 17.3623 66.142 17.0048 66.4593 16.7065C66.7813 16.4035 67.1671 16.252 67.617 16.252C68.0668 16.252 68.4503 16.4035 68.7675 16.7065C69.0895 17.0048 69.2505 17.3623 69.2505 17.779C69.2505 18.2004 69.0895 18.5626 68.7675 18.8656C68.4503 19.1639 68.0668 19.3131 67.617 19.3131ZM75.8611 35.9466C74.8809 35.9466 74.0405 35.8116 73.3398 35.5418C72.6437 35.2766 72.0898 34.9144 71.6778 34.4551C71.2659 33.9958 70.9984 33.4797 70.8753 32.9068L73.6736 32.5304C73.7588 32.7482 73.8937 32.9518 74.0784 33.1412C74.263 33.3306 74.5069 33.4821 74.8099 33.5957C75.1177 33.7141 75.4917 33.7733 75.9321 33.7733C76.5902 33.7733 77.1324 33.6123 77.5585 33.2903C77.9894 32.9731 78.2048 32.4404 78.2048 31.6923V29.6966H78.077C77.9444 29.9996 77.7455 30.2861 77.4804 30.556C77.2152 30.8258 76.8743 31.046 76.4576 31.2165C76.041 31.3869 75.5438 31.4722 74.9662 31.4722C74.147 31.4722 73.4013 31.2828 72.729 30.904C72.0613 30.5204 71.5287 29.9357 71.1309 29.1497C70.738 28.359 70.5415 27.3599 70.5415 26.1525C70.5415 24.9168 70.7427 23.8846 71.1451 23.056C71.5476 22.2274 72.0826 21.6071 72.7503 21.1952C73.4226 20.7832 74.1589 20.5773 74.9591 20.5773C75.5699 20.5773 76.0812 20.6814 76.4932 20.8898C76.9051 21.0934 77.2365 21.349 77.4875 21.6568C77.7432 21.9598 77.9397 22.2581 78.077 22.5517H78.1906V20.7193H81.1949V31.7349C81.1949 32.663 80.9676 33.4395 80.513 34.0645C80.0585 34.6895 79.4288 35.1582 78.6238 35.4707C77.8237 35.788 76.9027 35.9466 75.8611 35.9466ZM75.925 29.1994C76.4127 29.1994 76.8246 29.0787 77.1608 28.8372C77.5017 28.591 77.7621 28.2406 77.942 27.7861C78.1267 27.3268 78.219 26.7775 78.219 26.1383C78.219 25.4991 78.1291 24.9452 77.9491 24.4764C77.7692 24.0029 77.5088 23.636 77.1679 23.3756C76.827 23.1151 76.4127 22.9849 75.925 22.9849C75.4278 22.9849 75.0088 23.1199 74.6679 23.3898C74.327 23.6549 74.0689 24.0242 73.8937 24.4977C73.7185 24.9712 73.6309 25.5181 73.6309 26.1383C73.6309 26.7681 73.7185 27.3126 73.8937 27.7719C74.0737 28.2264 74.3317 28.5792 74.6679 28.8301C75.0088 29.0763 75.4278 29.1994 75.925 29.1994ZM83.0025 31.6284V20.7193H86.0281V31.6284H83.0025ZM84.5224 19.3131C84.0726 19.3131 83.6867 19.1639 83.3648 18.8656C83.0475 18.5626 82.8889 18.2004 82.8889 17.779C82.8889 17.3623 83.0475 17.0048 83.3648 16.7065C83.6867 16.4035 84.0726 16.252 84.5224 16.252C84.9722 16.252 85.3558 16.4035 85.673 16.7065C85.995 17.0048 86.1559 17.3623 86.1559 17.779C86.1559 18.2004 85.995 18.5626 85.673 18.8656C85.3558 19.1639 84.9722 19.3131 84.5224 19.3131ZM87.9086 17.0829H91.7012L95.7069 26.8557H95.8773L99.883 17.0829H103.676V31.6284H100.693V22.1611H100.572L96.8077 31.5574H94.7765L91.0123 22.1256H90.8915V31.6284H87.9086V17.0829ZM105.553 31.6284V20.7193H108.578V31.6284H105.553ZM107.073 19.3131C106.623 19.3131 106.237 19.1639 105.915 18.8656C105.598 18.5626 105.439 18.2004 105.439 17.779C105.439 17.3623 105.598 17.0048 105.915 16.7065C106.237 16.4035 106.623 16.252 107.073 16.252C107.522 16.252 107.906 16.4035 108.223 16.7065C108.545 17.0048 108.706 17.3623 108.706 17.779C108.706 18.2004 108.545 18.5626 108.223 18.8656C107.906 19.1639 107.522 19.3131 107.073 19.3131ZM113.427 25.3216V31.6284H110.402V20.7193H113.285V22.644H113.413C113.655 22.0096 114.06 21.5077 114.628 21.1383C115.196 20.7643 115.885 20.5773 116.694 20.5773C117.452 20.5773 118.113 20.743 118.676 21.0744C119.239 21.4059 119.677 21.8793 119.99 22.4949C120.302 23.1057 120.459 23.8348 120.459 24.6824V31.6284H117.433V25.2222C117.438 24.5545 117.267 24.0337 116.922 23.6596C116.576 23.2809 116.1 23.0915 115.494 23.0915C115.087 23.0915 114.727 23.1791 114.415 23.3543C114.107 23.5294 113.865 23.7851 113.69 24.1213C113.52 24.4527 113.432 24.8528 113.427 25.3216ZM126.263 31.806C125.435 31.806 124.684 31.5929 124.012 31.1668C123.344 30.7359 122.814 30.1038 122.421 29.2704C122.033 28.4324 121.838 27.4049 121.838 26.1881C121.838 24.9381 122.04 23.8988 122.442 23.0702C122.845 22.2368 123.38 21.6142 124.047 21.2023C124.72 20.7856 125.456 20.5773 126.256 20.5773C126.867 20.5773 127.376 20.6814 127.783 20.8898C128.195 21.0934 128.526 21.349 128.777 21.6568C129.033 21.9598 129.227 22.2581 129.36 22.5517H129.452V17.0829H132.471V31.6284H129.488V29.8812H129.36C129.218 30.1843 129.016 30.4849 128.756 30.7832C128.5 31.0768 128.167 31.3206 127.755 31.5148C127.347 31.7089 126.85 31.806 126.263 31.806ZM127.222 29.3983C127.71 29.3983 128.122 29.2657 128.458 29.0006C128.799 28.7307 129.059 28.3543 129.239 27.8713C129.424 27.3883 129.516 26.8225 129.516 26.1739C129.516 25.5252 129.426 24.9617 129.246 24.4835C129.066 24.0053 128.806 23.636 128.465 23.3756C128.124 23.1151 127.71 22.9849 127.222 22.9849C126.725 22.9849 126.306 23.1199 125.965 23.3898C125.624 23.6596 125.366 24.0337 125.191 24.5119C125.016 24.9901 124.928 25.5441 124.928 26.1739C124.928 26.8083 125.016 27.3694 125.191 27.8571C125.371 28.34 125.629 28.7188 125.965 28.9935C126.306 29.2633 126.725 29.3983 127.222 29.3983ZM143.435 23.8301L140.665 24.0006C140.618 23.7638 140.516 23.5507 140.36 23.3614C140.203 23.1672 139.997 23.0133 139.742 22.8997C139.491 22.7813 139.19 22.7222 138.84 22.7222C138.371 22.7222 137.976 22.8216 137.654 23.0204C137.332 23.2146 137.171 23.475 137.171 23.8017C137.171 24.0621 137.275 24.2823 137.483 24.4622C137.691 24.6421 138.049 24.7865 138.556 24.8954L140.53 25.2932C141.591 25.511 142.381 25.8614 142.902 26.3443C143.423 26.8273 143.683 27.4617 143.683 28.2477C143.683 28.9627 143.473 29.59 143.051 30.1298C142.635 30.6696 142.062 31.091 141.333 31.394C140.608 31.6923 139.772 31.8415 138.825 31.8415C137.381 31.8415 136.231 31.5408 135.374 30.9395C134.521 30.3334 134.022 29.5096 133.875 28.4679L136.851 28.3116C136.941 28.752 137.159 29.0882 137.504 29.3202C137.85 29.5474 138.293 29.6611 138.833 29.6611C139.363 29.6611 139.789 29.5593 140.111 29.3557C140.438 29.1473 140.603 28.8798 140.608 28.5531C140.603 28.2785 140.487 28.0536 140.26 27.8784C140.033 27.6985 139.682 27.5612 139.209 27.4665L137.32 27.09C136.254 26.877 135.461 26.5077 134.94 25.9821C134.424 25.4565 134.166 24.7865 134.166 23.9722C134.166 23.2714 134.356 22.6677 134.735 22.1611C135.118 21.6544 135.655 21.2638 136.347 20.9892C137.043 20.7146 137.857 20.5773 138.79 20.5773C140.168 20.5773 141.252 20.8685 142.043 21.4508C142.838 22.0332 143.302 22.8263 143.435 23.8301Z" fill="#999999"/>
<path d="M40.9395 22.6423H31.4409L38.1568 15.9249L34.6421 12.4102L27.9261 19.1275V9.62891H22.9543V19.1275L16.2369 12.4102L12.7222 15.9249L19.4395 22.6423H9.93945V27.6141H19.4395L12.7222 34.3301L16.2369 37.8462L22.9543 31.1289V40.6289H27.9261V31.1289L34.6421 37.8462L38.1568 34.3301L31.4409 27.6141H40.9395V22.6423Z" fill="#999999"/>
</g>
<defs>
<clipPath id="clip0_130_16384">
<rect width="158" height="48" fill="white" transform="translate(0.439453 0.628906)"/>
</clipPath>
</defs>
</svg>
