<svg width="159" height="49" viewBox="0 0 159 49" fill="none" xmlns="http://www.w3.org/2000/svg">
<g clip-path="url(#clip0_130_16356)">
<g clip-path="url(#clip1_130_16356)">
<path d="M64.3693 17.084V31.6295H61.713L55.3849 22.4747H55.2784V31.6295H52.2031V17.084H54.902L61.1804 26.2318H61.3082V17.084H64.3693ZM71.2249 31.8426C70.1027 31.8426 69.1368 31.6153 68.3272 31.1607C67.5223 30.7015 66.902 30.0528 66.4664 29.2147C66.0308 28.3719 65.813 27.3752 65.813 26.2247C65.813 25.1025 66.0308 24.1177 66.4664 23.2701C66.902 22.4226 67.5152 21.7621 68.3059 21.2886C69.1013 20.8151 70.0341 20.5784 71.1042 20.5784C71.8239 20.5784 72.4938 20.6944 73.1141 20.9264C73.7391 21.1536 74.2836 21.4969 74.7476 21.9562C75.2164 22.4155 75.581 22.9931 75.8414 23.6892C76.1018 24.3804 76.232 25.1901 76.232 26.1181V26.9491H67.0204V25.0741H73.384C73.384 24.6385 73.2893 24.2526 73.0999 23.9164C72.9105 23.5803 72.6477 23.3175 72.3116 23.1281C71.9801 22.934 71.5942 22.8369 71.1539 22.8369C70.6946 22.8369 70.2874 22.9434 69.9323 23.1565C69.5819 23.3648 69.3073 23.6465 69.1084 24.0017C68.9096 24.352 68.8078 24.7427 68.803 25.1735V26.9562C68.803 27.496 68.9025 27.9624 69.1013 28.3554C69.3049 28.7483 69.5914 29.0514 69.9607 29.2644C70.33 29.4775 70.768 29.584 71.2746 29.584C71.6108 29.584 71.9186 29.5367 72.1979 29.442C72.4773 29.3473 72.7164 29.2053 72.9152 29.0159C73.1141 28.8265 73.2656 28.5945 73.3698 28.3198L76.1681 28.5045C76.026 29.1768 75.7349 29.764 75.2945 30.2659C74.8589 30.763 74.2955 31.1513 73.6042 31.4306C72.9176 31.7053 72.1245 31.8426 71.2249 31.8426ZM79.9395 20.7204L81.9424 24.5343L83.9949 20.7204H87.0986L83.9381 26.175L87.1839 31.6295H84.0944L81.9424 27.8582L79.8259 31.6295H76.7009L79.9395 26.175L76.8145 20.7204H79.9395ZM91.3477 31.8355C90.6517 31.8355 90.0314 31.7147 89.4869 31.4733C88.9424 31.227 88.5115 30.8648 88.1943 30.3866C87.8818 29.9036 87.7255 29.3023 87.7255 28.5826C87.7255 27.9766 87.8368 27.4676 88.0594 27.0556C88.2819 26.6437 88.5849 26.3123 88.9684 26.0613C89.352 25.8104 89.7876 25.621 90.2753 25.4931C90.7677 25.3653 91.2838 25.2753 91.8236 25.2233C92.458 25.157 92.9694 25.0954 93.3577 25.0386C93.7459 24.977 94.0276 24.8871 94.2028 24.7687C94.378 24.6503 94.4656 24.4751 94.4656 24.2431V24.2005C94.4656 23.7507 94.3236 23.4027 94.0395 23.1565C93.7601 22.9103 93.3624 22.7872 92.8463 22.7872C92.3018 22.7872 91.8685 22.9079 91.5466 23.1494C91.2246 23.3861 91.0115 23.6844 90.9074 24.0443L88.1091 23.817C88.2511 23.1541 88.5305 22.5812 88.9471 22.0983C89.3638 21.6106 89.9012 21.2365 90.5594 20.9761C91.2222 20.7109 91.9893 20.5784 92.8605 20.5784C93.4666 20.5784 94.0466 20.6494 94.6005 20.7914C95.1593 20.9335 95.6541 21.1536 96.0849 21.4519C96.5205 21.7502 96.8638 22.1338 97.1148 22.6025C97.3657 23.0665 97.4912 23.6229 97.4912 24.2715V31.6295H94.6219V30.1167H94.5366C94.3614 30.4576 94.1271 30.7583 93.8335 31.0187C93.5399 31.2744 93.1872 31.4756 92.7753 31.6224C92.3633 31.7644 91.8875 31.8355 91.3477 31.8355ZM92.2142 29.7474C92.6593 29.7474 93.0523 29.6598 93.3932 29.4846C93.7341 29.3047 94.0016 29.0632 94.1957 28.7602C94.3898 28.4572 94.4869 28.1139 94.4869 27.7304V26.5727C94.3922 26.6342 94.262 26.6911 94.0963 26.7431C93.9353 26.7905 93.753 26.8355 93.5494 26.8781C93.3458 26.916 93.1422 26.9515 92.9386 26.9846C92.735 27.013 92.5504 27.0391 92.3846 27.0627C92.0295 27.1148 91.7194 27.1977 91.4542 27.3113C91.1891 27.425 90.9831 27.5788 90.8363 27.773C90.6896 27.9624 90.6162 28.1991 90.6162 28.4832C90.6162 28.8951 90.7653 29.21 91.0636 29.4278C91.3666 29.6409 91.7502 29.7474 92.2142 29.7474ZM97.8233 19.6196V17.084H109.769V19.6196H105.316V31.6295H102.277V19.6196H97.8233ZM114.47 31.8426C113.347 31.8426 112.381 31.6153 111.572 31.1607C110.767 30.7015 110.147 30.0528 109.711 29.2147C109.275 28.3719 109.058 27.3752 109.058 26.2247C109.058 25.1025 109.275 24.1177 109.711 23.2701C110.147 22.4226 110.76 21.7621 111.551 21.2886C112.346 20.8151 113.279 20.5784 114.349 20.5784C115.068 20.5784 115.738 20.6944 116.359 20.9264C116.984 21.1536 117.528 21.4969 117.992 21.9562C118.461 22.4155 118.826 22.9931 119.086 23.6892C119.346 24.3804 119.477 25.1901 119.477 26.1181V26.9491H110.265V25.0741H116.629C116.629 24.6385 116.534 24.2526 116.345 23.9164C116.155 23.5803 115.892 23.3175 115.556 23.1281C115.225 22.934 114.839 22.8369 114.399 22.8369C113.939 22.8369 113.532 22.9434 113.177 23.1565C112.827 23.3648 112.552 23.6465 112.353 24.0017C112.154 24.352 112.052 24.7427 112.048 25.1735V26.9562C112.048 27.496 112.147 27.9624 112.346 28.3554C112.55 28.7483 112.836 29.0514 113.205 29.2644C113.575 29.4775 114.013 29.584 114.519 29.584C114.855 29.584 115.163 29.5367 115.443 29.442C115.722 29.3473 115.961 29.2053 116.16 29.0159C116.359 28.8265 116.51 28.5945 116.614 28.3198L119.413 28.5045C119.271 29.1768 118.979 29.764 118.539 30.2659C118.104 30.763 117.54 31.1513 116.849 31.4306C116.162 31.7053 115.369 31.8426 114.47 31.8426ZM125.78 31.8426C124.663 31.8426 123.701 31.6058 122.897 31.1323C122.096 30.6541 121.481 29.9912 121.05 29.1437C120.624 28.2962 120.411 27.3208 120.411 26.2176C120.411 25.1001 120.626 24.12 121.057 23.2772C121.493 22.4297 122.111 21.7692 122.911 21.2957C123.711 20.8175 124.663 20.5784 125.766 20.5784C126.718 20.5784 127.551 20.7512 128.266 21.0968C128.981 21.4425 129.547 21.9278 129.963 22.5528C130.38 23.1778 130.61 23.9117 130.652 24.7545H127.797C127.717 24.21 127.504 23.772 127.158 23.4406C126.817 23.1044 126.37 22.9363 125.816 22.9363C125.347 22.9363 124.937 23.0642 124.587 23.3198C124.241 23.5708 123.971 23.9377 123.777 24.4207C123.583 24.9036 123.486 25.4884 123.486 26.175C123.486 26.871 123.581 27.4628 123.77 27.9505C123.964 28.4382 124.236 28.8099 124.587 29.0656C124.937 29.3213 125.347 29.4491 125.816 29.4491C126.161 29.4491 126.471 29.3781 126.746 29.236C127.025 29.094 127.255 28.888 127.435 28.6181C127.62 28.3435 127.74 28.0144 127.797 27.6309H130.652C130.605 28.4643 130.378 29.1982 129.97 29.8326C129.568 30.4624 129.012 30.9548 128.301 31.3099C127.591 31.665 126.751 31.8426 125.78 31.8426ZM135.015 25.3227V31.6295H131.989V17.084H134.93V22.6451H135.058C135.304 22.0012 135.701 21.4969 136.251 21.1323C136.8 20.763 137.489 20.5784 138.317 20.5784C139.075 20.5784 139.736 20.7441 140.299 21.0755C140.867 21.4022 141.308 21.8733 141.62 22.4889C141.937 23.0997 142.094 23.8312 142.089 24.6835V31.6295H139.063V25.2233C139.068 24.5509 138.898 24.0277 138.552 23.6536C138.211 23.2796 137.733 23.0926 137.117 23.0926C136.705 23.0926 136.341 23.1802 136.023 23.3554C135.711 23.5305 135.465 23.7862 135.285 24.1224C135.11 24.4538 135.02 24.8539 135.015 25.3227Z" fill="#999999"/>
<path d="M33.4077 8.62891L37.1373 12.2438L32.1279 17.097C30.4251 18.7482 28.1705 19.5838 25.938 19.581C23.7071 19.5838 21.4509 18.7482 19.7481 17.097L14.7388 12.2438L18.4684 8.62891L23.4777 13.4821C24.1642 14.1443 25.0385 14.4668 25.9366 14.4697C26.8346 14.4668 27.7089 14.1458 28.3953 13.4821L33.4047 8.62891H33.4077ZM41.938 31.3643L36.9287 26.5111C36.2452 25.846 35.9138 24.9989 35.9108 24.1289C35.9138 23.2574 36.2452 22.4103 36.9287 21.7467L41.938 16.8935L38.2084 13.2786L33.199 18.1319C31.4947 19.7816 30.6323 21.9674 30.6352 24.1289C30.6323 26.2904 31.4947 28.4762 33.199 30.1245L38.2084 34.9778L41.9395 31.3643H41.938ZM18.4699 39.6289L23.4792 34.7756C24.1657 34.112 25.0385 33.791 25.938 33.7881C26.836 33.791 27.7104 34.112 28.3968 34.7756L33.4062 39.6289L37.1373 36.014L32.1279 31.1608C30.4251 29.5096 28.1705 28.674 25.938 28.6768C23.7071 28.674 21.4509 29.5096 19.7481 31.1608L14.7388 36.014L18.4699 39.6289ZM9.93945 16.8935L14.9489 21.7467C15.6323 22.4118 15.9637 23.2589 15.9667 24.1289C15.9637 24.9989 15.6323 25.846 14.9489 26.5111L9.93945 31.3643L13.6706 34.9792L18.68 30.1259C20.3843 28.4762 21.2468 26.2918 21.2438 24.1303C21.2468 21.9689 20.3843 19.783 18.68 18.1333L13.6706 13.28L9.93945 16.8949V16.8935Z" fill="#999999"/>
</g>
</g>
<defs>
<clipPath id="clip0_130_16356">
<rect width="158" height="48" fill="white" transform="translate(0.439453 0.628906)"/>
</clipPath>
<clipPath id="clip1_130_16356">
<rect width="158" height="48" fill="white" transform="translate(0.439453 0.628906)"/>
</clipPath>
</defs>
</svg>
