<svg width="159" height="49" viewBox="0 0 159 49" fill="none" xmlns="http://www.w3.org/2000/svg">
<g clip-path="url(#clip0_130_16378)">
<path d="M52.2031 31.6284V17.0829H62.0042V19.6185H55.2784V23.0844H61.5V25.6199H55.2784V29.0929H62.0327V31.6284H52.2031ZM66.8179 25.3216V31.6284H63.7924V20.7193H66.6759V22.644H66.8037C67.0452 22.0096 67.4501 21.5077 68.0182 21.1383C68.5864 20.7643 69.2753 20.5773 70.085 20.5773C70.8426 20.5773 71.5031 20.743 72.0665 21.0744C72.63 21.4059 73.0679 21.8793 73.3804 22.4949C73.6929 23.1057 73.8492 23.8348 73.8492 24.6824V31.6284H70.8236V25.2222C70.8284 24.5545 70.6579 24.0337 70.3123 23.6596C69.9666 23.2809 69.4908 23.0915 68.8847 23.0915C68.4775 23.0915 68.1177 23.1791 67.8052 23.3543C67.4974 23.5294 67.2559 23.7851 67.0807 24.1213C66.9103 24.4527 66.8227 24.8528 66.8179 25.3216ZM80.6054 31.8415C79.4832 31.8415 78.5173 31.6142 77.7076 31.1596C76.9027 30.7004 76.2825 30.0517 75.8469 29.2136C75.4112 28.3708 75.1934 27.3741 75.1934 26.2236C75.1934 25.1014 75.4112 24.1166 75.8469 23.269C76.2825 22.4215 76.8956 21.761 77.6863 21.2875C78.4818 20.814 79.4146 20.5773 80.4846 20.5773C81.2043 20.5773 81.8743 20.6933 82.4946 20.9253C83.1196 21.1525 83.6641 21.4958 84.1281 21.9551C84.5969 22.4144 84.9614 22.992 85.2219 23.6881C85.4823 24.3793 85.6125 25.189 85.6125 26.117V26.948H76.4008V25.073H82.7645C82.7645 24.6374 82.6698 24.2515 82.4804 23.9153C82.291 23.5792 82.0282 23.3164 81.692 23.127C81.3606 22.9329 80.9747 22.8358 80.5344 22.8358C80.0751 22.8358 79.6679 22.9423 79.3128 23.1554C78.9624 23.3637 78.6878 23.6454 78.4889 24.0006C78.29 24.3509 78.1882 24.7416 78.1835 25.1724V26.9551C78.1835 27.4949 78.2829 27.9613 78.4818 28.3543C78.6854 28.7472 78.9719 29.0503 79.3412 29.2633C79.7105 29.4764 80.1485 29.5829 80.6551 29.5829C80.9913 29.5829 81.299 29.5356 81.5784 29.4409C81.8577 29.3462 82.0969 29.2042 82.2957 29.0148C82.4946 28.8254 82.6461 28.5934 82.7503 28.3187L85.5486 28.5034C85.4065 29.1757 85.1153 29.7629 84.675 30.2648C84.2394 30.7619 83.6759 31.1502 82.9846 31.4295C82.2981 31.7042 81.505 31.8415 80.6054 31.8415ZM86.9869 31.6284V20.7193H89.9202V22.6227H90.0338C90.2327 21.9456 90.5665 21.4343 91.0352 21.0886C91.504 20.7382 92.0437 20.5631 92.6545 20.5631C92.806 20.5631 92.9694 20.5725 93.1446 20.5915C93.3198 20.6104 93.4737 20.6364 93.6062 20.6696V23.3543C93.4642 23.3116 93.2677 23.2738 93.0167 23.2406C92.7658 23.2075 92.5362 23.1909 92.3278 23.1909C91.8827 23.1909 91.485 23.288 91.1346 23.4821C90.789 23.6715 90.5144 23.9366 90.3108 24.2775C90.1119 24.6185 90.0125 25.0114 90.0125 25.4565V31.6284H86.9869ZM98.9775 35.9466C97.9974 35.9466 97.1569 35.8116 96.4562 35.5418C95.7601 35.2766 95.2062 34.9144 94.7942 34.4551C94.3823 33.9958 94.1148 33.4797 93.9917 32.9068L96.79 32.5304C96.8752 32.7482 97.0101 32.9518 97.1948 33.1412C97.3795 33.3306 97.6233 33.4821 97.9263 33.5957C98.2341 33.7141 98.6081 33.7733 99.0485 33.7733C99.7066 33.7733 100.249 33.6123 100.675 33.2903C101.106 32.9731 101.321 32.4404 101.321 31.6923V29.6966H101.193C101.061 29.9996 100.862 30.2861 100.597 30.556C100.332 30.8258 99.9907 31.046 99.5741 31.2165C99.1574 31.3869 98.6602 31.4722 98.0826 31.4722C97.2634 31.4722 96.5177 31.2828 95.8454 30.904C95.1777 30.5204 94.6451 29.9357 94.2474 29.1497C93.8544 28.359 93.6579 27.3599 93.6579 26.1525C93.6579 24.9168 93.8591 23.8846 94.2616 23.056C94.664 22.2274 95.1991 21.6071 95.8667 21.1952C96.539 20.7832 97.2753 20.5773 98.0755 20.5773C98.6863 20.5773 99.1976 20.6814 99.6096 20.8898C100.022 21.0934 100.353 21.349 100.604 21.6568C100.86 21.9598 101.056 22.2581 101.193 22.5517H101.307V20.7193H104.311V31.7349C104.311 32.663 104.084 33.4395 103.63 34.0645C103.175 34.6895 102.545 35.1582 101.74 35.4707C100.94 35.788 100.019 35.9466 98.9775 35.9466ZM99.0414 29.1994C99.5291 29.1994 99.941 29.0787 100.277 28.8372C100.618 28.591 100.879 28.2406 101.059 27.7861C101.243 27.3268 101.336 26.7775 101.336 26.1383C101.336 25.4991 101.246 24.9452 101.066 24.4764C100.886 24.0029 100.625 23.636 100.284 23.3756C99.9434 23.1151 99.5291 22.9849 99.0414 22.9849C98.5442 22.9849 98.1252 23.1199 97.7843 23.3898C97.4434 23.6549 97.1853 24.0242 97.0101 24.4977C96.8349 24.9712 96.7474 25.5181 96.7474 26.1383C96.7474 26.7681 96.8349 27.3126 97.0101 27.7719C97.1901 28.2264 97.4481 28.5792 97.7843 28.8301C98.1252 29.0763 98.5442 29.1994 99.0414 29.1994ZM111.091 31.8415C109.968 31.8415 109.003 31.6142 108.193 31.1596C107.388 30.7004 106.768 30.0517 106.332 29.2136C105.897 28.3708 105.679 27.3741 105.679 26.2236C105.679 25.1014 105.897 24.1166 106.332 23.269C106.768 22.4215 107.381 21.761 108.172 21.2875C108.967 20.814 109.9 20.5773 110.97 20.5773C111.69 20.5773 112.36 20.6933 112.98 20.9253C113.605 21.1525 114.149 21.4958 114.613 21.9551C115.082 22.4144 115.447 22.992 115.707 23.6881C115.968 24.3793 116.098 25.189 116.098 26.117V26.948H106.886V25.073H113.25C113.25 24.6374 113.155 24.2515 112.966 23.9153C112.776 23.5792 112.513 23.3164 112.177 23.127C111.846 22.9329 111.46 22.8358 111.02 22.8358C110.56 22.8358 110.153 22.9423 109.798 23.1554C109.448 23.3637 109.173 23.6454 108.974 24.0006C108.775 24.3509 108.673 24.7416 108.669 25.1724V26.9551C108.669 27.4949 108.768 27.9613 108.967 28.3543C109.171 28.7472 109.457 29.0503 109.826 29.2633C110.196 29.4764 110.634 29.5829 111.14 29.5829C111.477 29.5829 111.784 29.5356 112.064 29.4409C112.343 29.3462 112.582 29.2042 112.781 29.0148C112.98 28.8254 113.131 28.5934 113.236 28.3187L116.034 28.5034C115.892 29.1757 115.601 29.7629 115.16 30.2648C114.725 30.7619 114.161 31.1502 113.47 31.4295C112.783 31.7042 111.99 31.8415 111.091 31.8415ZM123.275 20.7193V22.992H116.705V20.7193H123.275ZM118.197 18.1057H121.222V28.2761C121.222 28.5555 121.265 28.7733 121.35 28.9295C121.435 29.0811 121.554 29.1876 121.705 29.2491C121.861 29.3107 122.041 29.3415 122.245 29.3415C122.387 29.3415 122.529 29.3296 122.671 29.306C122.813 29.2775 122.922 29.2562 122.998 29.242L123.474 31.4935C123.322 31.5408 123.109 31.5953 122.834 31.6568C122.56 31.7231 122.226 31.7633 121.833 31.7775C121.104 31.806 120.465 31.7089 119.915 31.4864C119.371 31.2638 118.947 30.9182 118.644 30.4494C118.341 29.9807 118.192 29.3888 118.197 28.6739V18.1057ZM124.646 31.6284V20.7193H127.671V31.6284H124.646ZM126.165 19.3131C125.716 19.3131 125.33 19.1639 125.008 18.8656C124.691 18.5626 124.532 18.2004 124.532 17.779C124.532 17.3623 124.691 17.0048 125.008 16.7065C125.33 16.4035 125.716 16.252 126.165 16.252C126.615 16.252 126.999 16.4035 127.316 16.7065C127.638 17.0048 127.799 17.3623 127.799 17.779C127.799 18.2004 127.638 18.5626 127.316 18.8656C126.999 19.1639 126.615 19.3131 126.165 19.3131ZM132.023 20.7193L134.026 24.5332L136.079 20.7193H139.182L136.022 26.1739L139.268 31.6284H136.178L134.026 27.8571L131.91 31.6284H128.785L132.023 26.1739L128.898 20.7193H132.023Z" fill="#999999"/>
<path d="M23.1788 20.8981C25.603 15.1197 33.9331 13.5922 38.2533 18.1788C42.6143 22.2367 41.4792 30.2057 36.1953 32.8924C36.6921 29.6417 35.595 26.2837 33.3968 23.9884C30.8801 21.2514 26.8062 20.0229 23.1788 20.8967V20.8981ZM34.9185 31.3214C34.9213 27.7595 32.8986 24.5741 29.7816 23.0031C31.1537 30.1147 24.2813 36.8362 17.1477 35.2584C18.6572 38.4588 21.8286 40.5829 25.4982 40.6263C30.6201 40.75 34.988 36.3714 34.9172 31.3214H34.9185ZM23.5803 29.4012C17.7112 28.386 13.6673 22.1687 15.1849 16.3632C9.50355 18.8256 8.11247 27.1725 12.6219 31.3404C16.6822 35.6416 24.4433 34.617 27.2595 29.461C26.0644 29.6526 24.7632 29.6281 23.5817 29.4012H23.5803ZM16.2752 18.8936C16.2752 22.3753 18.2012 25.4955 21.2066 27.1059C19.3745 19.868 26.3203 12.6504 33.6772 14.2527C28.9786 6.06482 16.2548 9.45821 16.2752 18.8949V18.8936Z" fill="#999999"/>
</g>
<defs>
<clipPath id="clip0_130_16378">
<rect width="158" height="48" fill="white" transform="translate(0.439453 0.628906)"/>
</clipPath>
</defs>
</svg>
