<svg width="159" height="49" viewBox="0 0 159 49" fill="none" xmlns="http://www.w3.org/2000/svg">
<g clip-path="url(#clip0_130_16362)">
<g clip-path="url(#clip1_130_16362)">
<path d="M51.0474 31.6284V29.8031L58.3059 19.6185H51.0332V17.0829H62.1695V18.9082L54.9039 29.0929H62.1837V31.6284H51.0474ZM68.8582 31.8415C67.7361 31.8415 66.7702 31.6142 65.9605 31.1596C65.1556 30.7004 64.5353 30.0517 64.0997 29.2136C63.6641 28.3708 63.4463 27.3741 63.4463 26.2236C63.4463 25.1014 63.6641 24.1166 64.0997 23.269C64.5353 22.4215 65.1485 21.761 65.9392 21.2875C66.7346 20.814 67.6674 20.5773 68.7375 20.5773C69.4572 20.5773 70.1272 20.6933 70.7474 20.9253C71.3724 21.1525 71.9169 21.4958 72.3809 21.9551C72.8497 22.4144 73.2143 22.992 73.4747 23.6881C73.7351 24.3793 73.8653 25.189 73.8653 26.117V26.948H64.6537V25.073H71.0173C71.0173 24.6374 70.9226 24.2515 70.7332 23.9153C70.5438 23.5792 70.281 23.3164 69.9449 23.127C69.6134 22.9329 69.2275 22.8358 68.7872 22.8358C68.3279 22.8358 67.9207 22.9423 67.5656 23.1554C67.2152 23.3637 66.9406 23.6454 66.7417 24.0006C66.5429 24.3509 66.4411 24.7416 66.4363 25.1724V26.9551C66.4363 27.4949 66.5358 27.9613 66.7346 28.3543C66.9382 28.7472 67.2247 29.0503 67.594 29.2633C67.9633 29.4764 68.4013 29.5829 68.9079 29.5829C69.2441 29.5829 69.5519 29.5356 69.8312 29.4409C70.1106 29.3462 70.3497 29.2042 70.5486 29.0148C70.7474 28.8254 70.8989 28.5934 71.0031 28.3187L73.8014 28.5034C73.6594 29.1757 73.3682 29.7629 72.9278 30.2648C72.4922 30.7619 71.9288 31.1502 71.2375 31.4295C70.5509 31.7042 69.7578 31.8415 68.8582 31.8415ZM84.3165 23.8301L81.5466 24.0006C81.4992 23.7638 81.3974 23.5507 81.2412 23.3614C81.0849 23.1672 80.879 23.0133 80.6233 22.8997C80.3723 22.7813 80.0717 22.7222 79.7213 22.7222C79.2525 22.7222 78.8572 22.8216 78.5352 23.0204C78.2132 23.2146 78.0523 23.475 78.0523 23.8017C78.0523 24.0621 78.1564 24.2823 78.3648 24.4622C78.5731 24.6421 78.9306 24.7865 79.4372 24.8954L81.4116 25.2932C82.4722 25.511 83.263 25.8614 83.7838 26.3443C84.3046 26.8273 84.565 27.4617 84.565 28.2477C84.565 28.9627 84.3543 29.59 83.9329 30.1298C83.5163 30.6696 82.9434 31.091 82.2142 31.394C81.4898 31.6923 80.6541 31.8415 79.7071 31.8415C78.263 31.8415 77.1124 31.5408 76.2554 30.9395C75.4031 30.3334 74.9036 29.5096 74.7568 28.4679L77.7327 28.3116C77.8226 28.752 78.0404 29.0882 78.3861 29.3202C78.7317 29.5474 79.1744 29.6611 79.7142 29.6611C80.2445 29.6611 80.6706 29.5593 80.9926 29.3557C81.3193 29.1473 81.485 28.8798 81.4898 28.5531C81.485 28.2785 81.369 28.0536 81.1417 27.8784C80.9145 27.6985 80.5641 27.5612 80.0906 27.4665L78.2014 27.09C77.1361 26.877 76.343 26.5077 75.8221 25.9821C75.306 25.4565 75.048 24.7865 75.048 23.9722C75.048 23.2714 75.2374 22.6677 75.6162 22.1611C75.9997 21.6544 76.5371 21.2638 77.2284 20.9892C77.9244 20.7146 78.7388 20.5773 79.6716 20.5773C81.0494 20.5773 82.1337 20.8685 82.9244 21.4508C83.7199 22.0332 84.1839 22.8263 84.3165 23.8301ZM91.6728 20.7193V22.992H85.1032V20.7193H91.6728ZM86.5947 18.1057H89.6202V28.2761C89.6202 28.5555 89.6628 28.7733 89.7481 28.9295C89.8333 29.0811 89.9517 29.1876 90.1032 29.2491C90.2594 29.3107 90.4394 29.3415 90.643 29.3415C90.785 29.3415 90.927 29.3296 91.0691 29.306C91.2111 29.2775 91.32 29.2562 91.3958 29.242L91.8716 31.4935C91.7201 31.5408 91.5071 31.5953 91.2324 31.6568C90.9578 31.7231 90.624 31.7633 90.231 31.7775C89.5019 31.806 88.8626 31.7089 88.3134 31.4864C87.7689 31.2638 87.3451 30.9182 87.0421 30.4494C86.7391 29.9807 86.5899 29.3888 86.5947 28.6739V18.1057ZM94.9116 35.7193C94.528 35.7193 94.1682 35.6885 93.832 35.627C93.5006 35.5702 93.226 35.4968 93.0081 35.4068L93.69 33.1483C94.0451 33.2572 94.3647 33.3164 94.6488 33.3258C94.9376 33.3353 95.1862 33.269 95.3945 33.127C95.6076 32.9849 95.7804 32.7435 95.913 32.4025L96.0905 31.9409L92.1772 20.7193H95.359L97.6175 28.7307H97.7312L100.011 20.7193H103.214L98.9741 32.8074C98.7705 33.3945 98.4935 33.9059 98.1431 34.3415C97.7974 34.7818 97.3595 35.1204 96.8292 35.3571C96.2989 35.5986 95.6597 35.7193 94.9116 35.7193ZM104.219 31.6284V17.0829H110.043C111.113 17.0829 112.005 17.2416 112.72 17.5588C113.435 17.876 113.973 18.3164 114.332 18.8798C114.692 19.4385 114.872 20.0825 114.872 20.8116C114.872 21.3798 114.759 21.8793 114.531 22.3102C114.304 22.7364 113.992 23.0867 113.594 23.3614C113.201 23.6312 112.751 23.823 112.244 23.9366V24.0787C112.798 24.1024 113.317 24.2586 113.8 24.5474C114.287 24.8363 114.683 25.2411 114.986 25.7619C115.289 26.278 115.44 26.8936 115.44 27.6085C115.44 28.3803 115.249 29.0692 114.865 29.6753C114.486 30.2766 113.925 30.7525 113.182 31.1028C112.439 31.4532 111.522 31.6284 110.433 31.6284H104.219ZM107.294 29.1142H109.801C110.658 29.1142 111.283 28.9508 111.676 28.6241C112.069 28.2927 112.266 27.8524 112.266 27.3031C112.266 26.9007 112.169 26.5455 111.975 26.2378C111.78 25.93 111.503 25.6885 111.144 25.5133C110.788 25.3382 110.365 25.2506 109.872 25.2506H107.294V29.1142ZM107.294 23.1696H109.574C109.995 23.1696 110.369 23.0962 110.696 22.9494C111.028 22.7979 111.288 22.5848 111.477 22.3102C111.671 22.0356 111.769 21.7065 111.769 21.323C111.769 20.7974 111.582 20.3737 111.207 20.0517C110.838 19.7297 110.313 19.5687 109.631 19.5687H107.294V23.1696ZM116.785 31.6284V20.7193H119.81V31.6284H116.785ZM118.305 19.3131C117.855 19.3131 117.469 19.1639 117.147 18.8656C116.83 18.5626 116.671 18.2004 116.671 17.779C116.671 17.3623 116.83 17.0048 117.147 16.7065C117.469 16.4035 117.855 16.252 118.305 16.252C118.754 16.252 119.138 16.4035 119.455 16.7065C119.777 17.0048 119.938 17.3623 119.938 17.779C119.938 18.2004 119.777 18.5626 119.455 18.8656C119.138 19.1639 118.754 19.3131 118.305 19.3131ZM127.436 20.7193V22.992H120.867V20.7193H127.436ZM122.358 18.1057H125.384V28.2761C125.384 28.5555 125.427 28.7733 125.512 28.9295C125.597 29.0811 125.715 29.1876 125.867 29.2491C126.023 29.3107 126.203 29.3415 126.407 29.3415C126.549 29.3415 126.691 29.3296 126.833 29.306C126.975 29.2775 127.084 29.2562 127.159 29.242L127.635 31.4935C127.484 31.5408 127.271 31.5953 126.996 31.6568C126.721 31.7231 126.388 31.7633 125.995 31.7775C125.266 31.806 124.626 31.7089 124.077 31.4864C123.533 31.2638 123.109 30.9182 122.806 30.4494C122.503 29.9807 122.354 29.3888 122.358 28.6739V18.1057ZM133.662 31.8415C132.54 31.8415 131.574 31.6142 130.764 31.1596C129.959 30.7004 129.339 30.0517 128.903 29.2136C128.468 28.3708 128.25 27.3741 128.25 26.2236C128.25 25.1014 128.468 24.1166 128.903 23.269C129.339 22.4215 129.952 21.761 130.743 21.2875C131.538 20.814 132.471 20.5773 133.541 20.5773C134.261 20.5773 134.931 20.6933 135.551 20.9253C136.176 21.1525 136.72 21.4958 137.184 21.9551C137.653 22.4144 138.018 22.992 138.278 23.6881C138.539 24.3793 138.669 25.189 138.669 26.117V26.948H129.457V25.073H135.821C135.821 24.6374 135.726 24.2515 135.537 23.9153C135.347 23.5792 135.085 23.3164 134.748 23.127C134.417 22.9329 134.031 22.8358 133.591 22.8358C133.131 22.8358 132.724 22.9423 132.369 23.1554C132.019 23.3637 131.744 23.6454 131.545 24.0006C131.346 24.3509 131.245 24.7416 131.24 25.1724V26.9551C131.24 27.4949 131.339 27.9613 131.538 28.3543C131.742 28.7472 132.028 29.0503 132.398 29.2633C132.767 29.4764 133.205 29.5829 133.711 29.5829C134.048 29.5829 134.355 29.5356 134.635 29.4409C134.914 29.3462 135.153 29.2042 135.352 29.0148C135.551 28.8254 135.702 28.5934 135.807 28.3187L138.605 28.5034C138.463 29.1757 138.172 29.7629 137.731 30.2648C137.296 30.7619 136.732 31.1502 136.041 31.4295C135.354 31.7042 134.561 31.8415 133.662 31.8415Z" fill="#999999"/>
<path d="M29.9395 19.5568V9.62891H19.9395V19.5568H9.93945V29.701H19.9395V39.6289H29.9395V29.701H39.9395V19.5568H29.9395ZM29.9395 29.4847H19.9395V19.7746H29.9395V29.4847Z" fill="#999999"/>
</g>
</g>
<defs>
<clipPath id="clip0_130_16362">
<rect width="158" height="48" fill="white" transform="translate(0.439453 0.628906)"/>
</clipPath>
<clipPath id="clip1_130_16362">
<rect width="158" height="48" fill="white" transform="translate(0.439453 0.628906)"/>
</clipPath>
</defs>
</svg>
