<svg width="228" height="80" viewBox="0 0 228 80" fill="none" xmlns="http://www.w3.org/2000/svg">
<g clip-path="url(#clip0_394_18878)">
<path d="M142.947 14.5252C141.637 10.2045 138.921 6.56407 135.012 3.91919C131.329 1.42697 126.779 0 122.521 0H95.7664C91.5118 0 86.958 1.43029 83.275 3.91919C79.3661 6.56407 76.6504 10.2045 75.3408 14.5252H0V65.4748H81.8624C82.5903 67.0876 83.4877 68.5975 84.5481 69.978C89.6437 76.6284 97.9204 80 109.145 80C120.37 80 128.65 76.6284 133.743 69.978C134.8 68.5975 135.7 67.0876 136.425 65.4748H228V14.5252H142.947ZM225.677 63.1518H134.866C134.215 64.9139 133.267 66.7756 131.894 68.5676C127.264 74.614 119.609 77.677 109.145 77.677C98.6815 77.677 91.0265 74.6107 86.3962 68.5676C85.0234 66.7756 84.0761 64.9139 83.4246 63.1518H2.32677V16.8482H77.1523C79.1699 6.86606 88.7429 2.32298 95.7664 2.32298H122.521C129.548 2.32298 139.117 6.86938 141.135 16.8482H225.677V63.1518Z" fill="white"/>
<path d="M82.4296 50.8905C82.4861 50.5619 82.6224 50.26 82.8118 49.9978C82.7354 49.6892 82.7254 49.3606 82.7952 49.0354L82.9547 48.2987C83.2738 46.8419 83.5497 45.5808 83.5497 44.4459C83.5431 43.8386 82.6257 41.7811 81.8878 40.1251C79.8469 35.5489 76.7589 28.6364 76.7589 20.7847C76.7589 20.2338 76.7855 19.6995 76.8287 19.1719H4.65234V60.8295H82.7021C82.1204 58.5065 82.0141 56.5453 82.0141 55.4435C82.0141 53.9701 82.147 52.5232 82.4296 50.8905Z" fill="white"/>
<path d="M223.351 19.1719H141.459C141.498 19.6962 141.528 20.2305 141.528 20.7847C141.528 28.6364 138.444 35.5522 136.4 40.1251C135.662 41.7778 134.744 43.8353 134.738 44.4459C134.738 45.5841 135.013 46.8419 135.333 48.2987L135.492 49.0288C135.562 49.354 135.552 49.6825 135.475 49.9912C135.665 50.2533 135.801 50.5553 135.858 50.8838C136.14 52.5166 136.273 53.9634 136.273 55.4402C136.273 56.5419 136.167 58.5032 135.585 60.8262H223.351V19.1719Z" fill="white"/>
<path d="M19.0832 55.3539C17.0224 55.3539 15.2706 54.6305 13.828 53.1803C12.3854 51.7301 11.6641 49.9945 11.6641 47.9702V31.0789C11.6641 29.0214 12.3888 27.2725 13.8413 25.8322C15.2906 24.392 17.039 23.6719 19.0832 23.6719C21.1441 23.6719 22.8924 24.3953 24.325 25.8455C25.761 27.2957 26.4757 29.0413 26.4757 31.0822V34.6131H21.6293V30.9826C21.6293 30.2426 21.3667 29.6087 20.8382 29.0811C20.3097 28.5534 19.6748 28.2913 18.9336 28.2913C18.1924 28.2913 17.5608 28.5534 17.0423 29.0811C16.5238 29.6087 16.2645 30.2426 16.2645 30.9826V47.9204C16.2645 48.6605 16.5238 49.291 17.0423 49.8087C17.5608 50.3264 18.1924 50.5852 18.9336 50.5852C19.6748 50.5852 20.3097 50.3264 20.8382 49.8087C21.3667 49.291 21.6293 48.6638 21.6293 47.9237V41.8409H19.0333V37.1485H26.479V47.9636C26.479 50.0211 25.7544 51.7666 24.3018 53.2002C22.8492 54.6371 21.1108 55.3539 19.0832 55.3539Z" fill="#F41E1E"/>
<path d="M34.6887 41.9939L28.4297 23.9941H33.5752L37.0387 35.1046L40.4757 23.9941H45.6445L39.3622 41.9939V54.9594H34.6887V41.9939Z" fill="#F41E1E"/>
<path d="M54.0524 54.9594H49.3789V23.9941H56.0867L60.4444 46.2383L64.6259 23.9941H71.071V54.9594H66.3976V35.5028L62.3423 54.9594H58.583L54.0557 35.5493V54.9594H54.0524Z" fill="#F41E1E"/>
<path d="M152.435 55.3539C150.374 55.3539 148.623 54.6338 147.18 53.1936C145.737 51.7533 145.016 50.0111 145.016 47.9702V31.0789C145.016 29.0214 145.741 27.2725 147.193 25.8322C148.643 24.392 150.391 23.6719 152.435 23.6719C154.496 23.6719 156.244 24.3953 157.677 25.8455C159.113 27.2957 159.828 29.0413 159.828 31.0822V34.6131H154.981V30.9826C154.981 30.2426 154.719 29.6087 154.19 29.0811C153.662 28.5534 153.027 28.2913 152.286 28.2913C151.544 28.2913 150.913 28.5534 150.394 29.0811C149.876 29.6087 149.617 30.2426 149.617 30.9826V47.9204C149.617 48.6605 149.876 49.291 150.394 49.8087C150.913 50.3264 151.544 50.5852 152.286 50.5852C153.027 50.5852 153.662 50.3264 154.19 49.8087C154.719 49.291 154.981 48.6605 154.981 47.9204V43.6495H159.828V47.9702C159.828 50.0277 159.103 51.7733 157.651 53.2069C156.201 54.6372 154.463 55.3539 152.435 55.3539Z" fill="#F41E1E"/>
<path d="M176.397 54.9577H163.66V24.0156H168.333V50.315H176.397V54.9577Z" fill="#F41E1E"/>
<path d="M187.009 55.3034C184.948 55.3034 183.2 54.5866 181.767 53.1563C180.331 51.7227 179.617 49.9871 179.617 47.9462V24.0195H184.194V47.8964C184.194 48.6364 184.456 49.267 184.985 49.7846C185.513 50.3023 186.148 50.5612 186.889 50.5612C187.631 50.5612 188.262 50.3023 188.781 49.7846C189.299 49.267 189.559 48.6364 189.559 47.8964V24.0195H194.432V47.9462C194.432 50.0202 193.707 51.7658 192.254 53.1828C190.802 54.5965 189.053 55.3034 187.009 55.3034Z" fill="#F41E1E"/>
<path d="M198.582 54.9594V23.9941H205.582C207.43 23.9941 209.096 24.4787 210.578 25.451C211.848 26.274 212.755 27.5516 213.3 29.2773C213.596 30.1998 213.746 31.2949 213.746 32.5626C213.746 34.6367 213.194 36.2993 212.091 37.5504C211.628 38.078 211.083 38.4796 210.458 38.7616C211.499 39.1565 212.38 39.9397 213.104 41.1078C213.583 41.8977 213.935 42.9198 214.168 44.1708C214.284 44.8113 214.341 45.5281 214.341 46.318C214.341 48.2759 213.969 49.9385 213.227 51.3057C212.649 52.3743 211.835 53.2305 210.778 53.8743C209.591 54.5977 208.411 54.9594 207.241 54.9594H198.582ZM203.628 36.6378H205.582C207.031 36.6378 208.005 35.9309 208.501 34.5139C208.683 33.9863 208.773 33.3358 208.773 32.5626C208.773 31.2783 208.461 30.306 207.833 29.6489C207.254 29.0416 206.506 28.7363 205.582 28.7363H203.628V36.6378ZM203.628 50.34H205.582C207.164 50.34 208.261 49.5237 208.873 47.8943C209.086 47.3334 209.195 46.693 209.195 45.9695C209.195 44.2406 208.866 42.9828 208.205 42.193C207.61 41.4696 206.736 41.1078 205.582 41.1078H203.628V50.34Z" fill="#F41E1E"/>
<path d="M111.439 60.4759C115.952 59.6591 118.946 55.345 118.128 50.84C117.31 46.3349 112.989 43.345 108.477 44.1618C103.964 44.9785 100.969 49.2927 101.787 53.7977C102.606 58.3027 106.927 61.2927 111.439 60.4759Z" fill="white"/>
<path d="M86.4236 50.441C86.8025 50.441 87.3044 50.2751 87.8362 50.1025C88.9863 49.7242 90.419 49.253 91.7485 50.139C93.5933 51.3669 94.0121 53.1689 94.5007 55.2529C94.9196 57.0416 95.3949 59.0692 96.8674 61.3424C99.5066 65.411 104.323 68.0425 109.146 68.0425C114.405 68.0425 118.955 64.5548 121.458 61.2927C123.183 59.0427 123.619 56.9254 124.004 55.0538C124.4 53.129 124.772 51.3138 126.541 50.1357C127.87 49.2497 129.303 49.7209 130.453 50.0992C130.985 50.2751 131.487 50.4377 131.866 50.4377C132.544 50.4377 133.155 49.7242 133.331 49.4488L133.378 49.4786C132.982 47.6369 132.574 46.0207 132.574 44.4411C132.574 41.3715 139.364 32.0364 139.364 20.7799C139.364 9.5268 129.565 4.47266 122.519 4.47266H95.7639C88.7171 4.47266 78.918 9.52348 78.918 20.7799C78.918 32.0364 85.7089 41.3715 85.7089 44.4411C85.7089 46.024 85.3 47.6402 84.9045 49.482L84.9543 49.4488C85.1338 49.7275 85.7421 50.441 86.4236 50.441ZM109.937 62.109C104.513 62.109 100.099 57.702 100.099 52.2861C100.099 46.8703 104.513 42.4633 109.937 42.4633C115.362 42.4633 119.776 46.8703 119.776 52.2861C119.776 57.702 115.362 62.109 109.937 62.109ZM138.407 20.7833C138.407 27.9712 135.485 34.522 133.551 38.856C132.431 41.3682 131.62 43.1867 131.62 44.4411C131.62 45.6557 129.918 45.5694 128.781 44.0893C127.405 42.2973 122.648 35.5673 122.648 35.5673L129.951 42.6192C129.951 42.6192 137.3 28.8075 137.3 20.9392C137.3 13.0743 130.745 7.65847 130.745 7.65847C134.94 10.0246 138.407 14.3187 138.407 20.7833ZM131.723 18.2114C131.723 18.2114 135.037 25.3097 127.062 34.3262L125.67 33.1282C132.876 25.4027 131.723 18.2114 131.723 18.2114ZM124.709 6.268C124.709 6.268 115.724 7.1806 109.529 7.1806C103.333 7.1806 94.2514 6.268 94.2514 6.268H124.709ZM96.0132 13.4294H122.276C125.031 13.4294 130.476 14.5809 130.476 20.7202C130.476 26.8595 125.095 32.2953 122.662 32.2953C119.012 32.2953 116.386 29.7997 109.146 29.7997C101.91 29.7997 99.2806 32.2953 95.6309 32.2953C93.1978 32.2953 87.8163 26.8595 87.8163 20.7202C87.8163 14.5809 93.2609 13.4294 96.0132 13.4294ZM92.6194 33.1249L91.2266 34.3229C83.2525 25.3064 86.5665 18.2081 86.5665 18.2081C86.5665 18.2081 85.4131 25.4027 92.6194 33.1249ZM84.7416 38.8593C82.8071 34.5253 79.8853 27.9745 79.8853 20.7866C79.8853 14.3187 83.3522 10.0279 87.5537 7.66509C87.5537 7.66509 80.9988 13.0809 80.9988 20.9459C80.9988 28.8108 88.3481 42.6259 88.3481 42.6259L95.6509 35.574C95.6509 35.574 90.8942 42.304 89.5181 44.096C88.3813 45.5761 86.6795 45.6623 86.6795 44.4477C86.6729 43.1867 85.8618 41.3715 84.7416 38.8593Z" fill="white"/>
<path d="M129.973 51.5606C128.843 51.189 128.052 50.9799 127.394 51.4179C126.151 52.2442 125.881 53.5551 125.509 55.367C125.114 57.2984 124.618 59.701 122.677 62.2297C119.948 65.7839 114.962 69.5803 109.145 69.5803C103.817 69.5803 98.492 66.6766 95.5769 62.18C93.9582 59.6844 93.4296 57.4212 93.0042 55.6059C92.5554 53.6911 92.233 52.3106 90.8968 51.4179C90.2387 50.9799 89.4476 51.1922 88.3174 51.5639C87.6958 51.7697 87.051 51.9787 86.4228 51.9787C85.6583 51.9787 85.0267 51.637 84.5614 51.262C84.342 52.5263 84.1758 53.9068 84.1758 55.45C84.1758 60.1822 86.343 75.5304 109.145 75.5304C131.948 75.5304 134.115 60.1822 134.115 55.45C134.115 53.9068 133.949 52.5296 133.729 51.262C133.261 51.6403 132.629 51.9787 131.868 51.9787C131.24 51.9754 130.595 51.7631 129.973 51.5606Z" fill="white"/>
</g>
<defs>
<clipPath id="clip0_394_18878">
<rect width="228" height="80" fill="white"/>
</clipPath>
</defs>
</svg>
