<svg width="222" height="80" viewBox="0 0 222 80" fill="none" xmlns="http://www.w3.org/2000/svg">
<g clip-path="url(#clip0_394_18824)">
<path d="M29.6885 34.4102C29.6885 34.4102 23.8974 41.2229 33.2851 47.7078C26.049 41.6872 29.6885 34.4102 29.6885 34.4102Z" fill="white"/>
<path d="M8.86719 35.7128C20.5394 36.739 25.5379 41.9168 25.5379 41.9168C25.5379 41.9168 21.7539 35.389 8.86719 35.7128Z" fill="white"/>
<path d="M23.1987 7.81544C22.1248 5.71623 23.7572 3.47656 23.7572 3.47656C23.7572 3.47656 21.2501 5.32214 23.1987 7.81544Z" fill="white"/>
<path d="M50.0464 61.2356C43.7593 61.2356 35.8516 45.1872 35.6641 44.9062C35.8516 45.1872 42.1543 62.5428 50.3706 62.5428C56.6343 62.5428 58.868 56.0111 58.868 56.0111C58.868 56.0111 55.5253 61.2356 50.0464 61.2356Z" fill="white"/>
<path d="M37.8618 58.9015C37.8618 58.9015 33.6131 50.6919 34.687 47.0047C35.7062 43.5086 33.0078 38.9941 33.0078 38.9941C33.0078 38.9941 34.7221 43.4618 33.9411 47.0203C32.8633 51.9015 37.8618 58.9015 37.8618 58.9015Z" fill="white"/>
<path d="M49.9839 59.1689C49.9839 58.7241 49.6207 58.3613 49.1756 58.3613C48.7304 58.3613 48.3672 58.7241 48.3672 59.1689C48.3672 59.6137 48.7304 59.9766 49.1756 59.9766C49.6207 59.9766 49.9839 59.6137 49.9839 59.1689Z" fill="white"/>
<path d="M31.0749 56.2887C30.2041 52.4337 32.9416 49.0117 32.9416 49.0117C32.9416 49.0117 29.0833 51.4387 31.0749 56.2887Z" fill="white"/>
<path d="M52.522 71.6846C49.9994 72.6171 47.8516 69.3512 47.8516 69.3512C47.8516 69.3512 49.0661 73.5497 52.6626 72.6639C55.2712 72.0201 57.0987 68.0441 58.7779 68.1378C56.4466 67.8607 55.0447 70.752 52.522 71.6846Z" fill="white"/>
<path d="M54.4805 64.5016C59.1509 65.8556 58.776 62.4492 58.776 62.4492C58.776 62.4492 58.2176 64.5016 54.4805 64.5016Z" fill="white"/>
<path d="M37.3908 61.793C37.3908 61.793 37.2503 69.1637 44.7675 66.924C38.9802 68.1375 37.3908 61.793 37.3908 61.793Z" fill="white"/>
<path d="M59.3385 36.2288C57.8975 36.2288 55.7068 35.0192 55.1991 34.4027C54.9101 34.0555 54.5196 33.7043 54.0627 33.3024C53.395 32.7093 52.5671 31.9719 51.8603 31.0276C50.185 28.7919 50.1381 21.0466 50.1381 21.0466C50.1381 21.0466 49.8257 22.5684 49.6461 24.5154C49.5172 24.5817 49.3727 24.6598 49.2673 24.7144C49.0564 24.8354 48.8963 24.8471 48.8221 24.8197C48.8026 24.8119 48.7479 24.7963 48.6972 24.6637C48.4434 24.0316 47.8732 20.6643 47.9552 19.7356C47.9708 19.5561 47.9982 19.4157 48.0294 19.3103C48.6855 19.7707 49.3688 19.6576 49.4547 19.642C49.65 19.603 49.8219 19.4898 49.9351 19.3259C50.0444 19.162 50.0874 18.9591 50.0444 18.7641C49.2322 14.7724 49.7593 11.6041 51.6103 9.34104C53.8636 6.58632 57.5265 7.84272 59.3346 7.84272C59.3853 7.84272 59.4361 7.84272 59.4869 7.83882V4.36225C59.4361 4.36225 59.3814 4.35834 59.3346 4.35834C57.261 4.35834 53.0591 5.20895 50.4506 8.39678C48.5214 10.7535 47.8185 13.8867 48.3496 17.7184C48.088 17.6169 47.8107 17.6091 47.5452 17.7027C46.9438 17.9212 46.5533 18.6158 46.4635 19.6108C46.362 20.7852 46.9828 24.4101 47.307 25.2255C47.5022 25.7172 47.8654 26.0762 48.3262 26.2361C48.7011 26.3688 49.1189 26.361 49.5329 26.2244C49.4626 28.4017 49.6656 30.7116 50.6536 31.9251C50.6692 31.9407 50.681 31.9563 50.6966 31.9758C50.7512 32.6976 50.8098 33.5365 50.8606 34.4144C48.5566 36.1781 44.4797 37.415 43.8041 37.6101C42.3671 35.8737 40.5981 33.837 38.4034 33.0566C35.2052 31.9173 31.2025 32.9044 30.152 33.201C29.2226 31.648 27.9417 30.1341 26.2743 29.4591C21.9709 27.7227 17.1325 28.1871 15.633 28.3939C17.73 26.162 19.46 22.6269 18.9093 17.137C19.5029 16.0366 20.0887 14.9285 20.4596 14.1716C21.4437 12.1855 22.7246 10.137 23.6501 9.4737C23.8883 9.57515 24.1421 9.65709 24.4155 9.71562C25.7159 9.98484 27.3404 9.75854 28.383 9.55174C28.8673 9.92242 29.6912 10.4258 30.3356 10.3282C31.2259 10.1955 31.7882 9.80926 32.0343 9.36054C32.1241 9.35664 32.21 9.35664 32.292 9.34884C32.5341 9.66099 33.8462 11.2647 35.2247 11.2647C35.3223 11.2647 35.4239 11.2569 35.5215 11.2373C35.8651 11.1788 36.1346 10.9876 36.2986 10.6911C36.7945 9.80536 36.24 8.10414 36.0526 7.58909C36.1346 7.45643 36.1971 7.31597 36.2322 7.1794C37.2124 7.15209 37.2827 6.24296 37.0328 5.46649C36.8102 4.76805 35.1544 0.433062 33.7174 0.0779919C32.8778 -0.128807 31.7883 0.105306 30.8393 0.433063C30.4371 0.335517 29.5858 0.179441 28.7931 0.358927C27.9652 0.546217 21.1313 3.6248 19.7372 4.2569C19.1866 4.44809 18.6594 4.71342 18.2416 5.0958C16.6757 6.51998 12.2981 11.0579 11.0758 12.2557C9.8379 13.4692 3.98029 19.603 2.85954 21.1442C1.73878 22.6854 0.31344 28.6787 0.0830409 29.3537C-0.151263 30.0288 -0.0575585 32.9942 2.65256 36.7946C5.35096 40.5833 13.8952 48.8202 24.9075 50.9545C25.3488 51.6217 25.7081 52.3826 25.9072 53.2488C26.903 57.6033 34.4984 67.8067 34.4984 67.8067C34.4984 67.8067 39.8522 75.1461 39.7273 80H41.3478C41.4728 75.1461 35.7441 67.9315 35.7441 67.9315C35.7441 67.9315 28.3752 57.6735 27.1529 53.3736C25.5948 47.8993 19.9325 47.1541 19.9325 47.1541C19.9325 47.1541 21.8772 47.833 23.5798 49.4093C15.0394 47.4974 7.03016 40.4389 4.33566 36.658C1.62945 32.8576 1.5357 29.8922 1.7661 29.2172C1.91059 28.7958 2.34408 26.8253 2.91812 25.0227C3.23053 27.0945 4.26146 29.9624 7.35427 32.1006C4.527 29.1352 4.19504 24.3203 4.20286 22.1509C5.3197 20.6643 9.26772 15.9625 11.1851 13.7814C13.3719 12.3221 16.3203 10.8901 16.3203 10.8901C16.3203 10.8901 14.6177 11.3349 12.7706 12.0255C14.399 10.176 17.3747 6.64094 18.6868 5.44697C20.2527 4.02279 22.9042 3.81599 22.9042 3.81599C22.9042 3.81599 22.2521 3.78868 21.4008 3.89403C23.9703 2.96148 27.852 1.34611 28.3596 1.15882C28.6525 1.04957 29.3749 0.881786 29.8435 0.831062C29.1601 1.1276 28.6915 1.39293 28.6915 1.39293C28.6915 1.39293 31.6243 0.148235 33.5807 0.819357C34.6233 1.17833 36.3962 5.03728 36.529 5.75522C36.568 5.97763 36.447 6.23514 36.201 6.40683C35.9315 5.69668 34.639 2.74688 34.639 2.74688C34.639 2.74688 35.334 5.30651 35.502 6.00104C35.6464 6.59022 35.748 7.41352 34.6077 7.80761C34.6233 7.65543 34.6077 7.50715 34.5608 7.38229C34.2953 6.68386 32.9715 3.48042 32.9715 3.48042C32.9715 3.48042 33.7174 6.30928 33.9126 7.03113C34.0883 7.67494 33.7603 8.49823 32.1787 8.70113C32.1709 8.63089 32.167 8.56067 32.1475 8.49043C31.9288 7.72957 31.4641 5.42746 31.4641 5.42746C31.4641 5.42746 31.5305 7.21062 31.5461 8.0027C31.5578 8.54896 31.3899 9.04839 31.0658 9.34493C30.687 9.6922 30.1793 9.64928 29.7771 9.53223C28.465 8.67382 29.2383 7.24963 29.2383 7.24963C29.2383 7.24963 28.6681 7.93637 28.6876 8.69723C27.934 8.4124 27.9535 7.66713 27.9535 7.66713C27.9535 7.66713 27.563 8.47873 28.4963 8.98987C27.4575 9.20057 25.8135 9.43078 24.5014 9.15765C22.0842 8.65431 20.9634 6.7658 20.9634 6.7658C20.9634 6.7658 21.5023 8.03391 22.7011 8.93524C21.7717 9.55564 20.4597 11.6431 19.4561 13.6682C18.429 15.744 16.8162 20.9686 16.8162 20.9686C16.8162 20.9686 17.2692 20.157 17.8667 19.0567C18.0893 28.5187 9.80275 31.9563 9.80275 31.9563C9.80275 31.9563 11.7592 31.492 13.864 29.9585C15.5197 29.7166 21.4086 29.0416 25.5831 30.8676C29.6092 32.6313 32.1046 37.7896 32.1046 37.7896C32.1046 37.7896 31.7101 36.299 30.8666 34.551C32.4052 34.1764 35.7285 33.5834 38.4893 34.5666C42.2148 35.8933 44.0424 40.634 46.4205 41.7539C48.131 42.5577 52.3133 41.0515 57.5187 46.0849C57.5695 46.1552 57.6202 46.2254 57.671 46.2956L57.7101 46.2683L57.7491 46.241C54.5118 41.6524 50.7356 41.0788 48.2364 40.7004C47.4085 40.5755 46.7524 40.474 46.3307 40.2555C45.8269 39.9941 45.2412 39.3542 44.5812 38.566C45.7371 38.328 48.9237 37.575 50.9348 36.1547C51.009 38.0627 51.0168 39.959 50.8567 41.1959C51.665 39.046 51.8017 35.4445 51.7978 33.2322C52.2391 33.6887 52.6647 34.0945 53.0552 34.4379C53.4653 34.8007 53.8167 35.1129 54.0315 35.3704C54.8203 36.3264 57.3859 37.7428 59.3228 37.7428C59.3736 37.7428 59.4244 37.7388 59.4751 37.7349V36.2405C59.44 36.2249 59.3892 36.2288 59.3385 36.2288ZM34.2406 8.54896C34.76 8.47482 35.1622 8.33046 35.4668 8.14707C35.705 8.89232 35.9003 9.8873 35.6582 10.3165C35.5996 10.418 35.5254 10.4726 35.4004 10.4921C34.6233 10.6286 33.6744 9.78195 33.1433 9.18497C33.6471 9.0406 34.0024 8.81038 34.2406 8.54896Z" fill="white"/>
<path d="M70.4825 49.7978H64.043V7.0957H82.3774V13.565H70.4825V25.2121H79.1713V31.6814H70.4825V49.7978Z" fill="white"/>
<path d="M93.2481 49.7959H86.8086V7.12891H93.2481V49.7959Z" fill="white"/>
<path d="M105.279 13.5982H98.4297V7.12891H118.537V13.5982H111.723V49.7959H105.283V13.5982H105.279Z" fill="white"/>
<path d="M130.948 7.0957L139.496 35.794V7.0957H145.935V49.7978H139.015L130.155 22.4535V49.7978H123.715V7.0957H130.948Z" fill="white"/>
<path d="M151.691 49.7978V7.0957H170.025V13.565H158.131V25.2121H166.819V31.6814H158.131V43.3285H170.025V49.7978H151.691Z" fill="white"/>
<path d="M195.759 39.1704C195.806 42.1436 195.033 44.6877 193.443 46.7986C192.397 48.2306 190.921 49.2372 189.011 49.8303C187.988 50.1464 186.797 50.3064 185.434 50.3064C182.911 50.3064 180.822 49.6821 179.162 48.4335C177.776 47.4112 176.679 46.0221 175.874 44.2624C175.066 42.5026 174.597 40.4892 174.461 38.2184L180.596 37.7775C180.869 40.263 181.525 42.0656 182.572 43.1854C183.345 44.0283 184.231 44.4301 185.231 44.3833C186.641 44.3365 187.765 43.6459 188.605 42.3036C189.034 41.6442 189.253 40.7039 189.253 39.4748C189.253 37.7033 188.445 35.9397 186.832 34.1916C185.559 32.9899 183.649 31.1833 181.107 28.7719C178.971 26.7039 177.46 24.8545 176.573 23.2157C175.621 21.374 175.144 19.3762 175.144 17.2185C175.144 13.3322 176.448 10.3902 179.065 8.39251C180.678 7.18683 182.677 6.58594 185.063 6.58594C187.359 6.58594 189.323 7.09709 190.96 8.11938C192.233 8.91536 193.26 10.0274 194.045 11.4554C194.83 12.8835 195.298 14.5301 195.458 16.3913L189.288 17.515C189.105 15.767 188.605 14.4053 187.789 13.4298C187.199 12.7274 186.344 12.3763 185.235 12.3763C184.052 12.3763 183.157 12.8991 182.544 13.9409C182.044 14.7798 181.794 15.8255 181.794 17.0741C181.794 19.0251 182.634 21.0111 184.317 23.0323C184.954 23.8049 185.906 24.714 187.18 25.7558C188.679 27.0044 189.667 27.8784 190.144 28.3779C191.733 29.9659 192.959 31.5345 193.826 33.0757C194.236 33.8014 194.564 34.4726 194.814 35.0852C195.419 36.6069 195.736 37.9686 195.759 39.1704Z" fill="white"/>
<path d="M221.489 39.1704C221.536 42.1436 220.763 44.6877 219.174 46.7986C218.127 48.2306 216.651 49.2372 214.741 49.8303C213.718 50.1464 212.527 50.3064 211.164 50.3064C208.642 50.3064 206.553 49.6821 204.893 48.4335C203.507 47.4112 202.409 46.0221 201.605 44.2624C200.796 42.5026 200.328 40.4892 200.191 38.2184L206.326 37.7775C206.599 40.263 207.255 42.0656 208.302 43.1854C209.075 44.0283 209.962 44.4301 210.961 44.3833C212.371 44.3365 213.496 43.6459 214.335 42.3036C214.765 41.6442 214.984 40.7039 214.984 39.4748C214.984 37.7033 214.175 35.9397 212.562 34.1916C211.289 32.9899 209.38 31.1833 206.838 28.7719C204.702 26.7039 203.19 24.8545 202.304 23.2157C201.351 21.374 200.875 19.3762 200.875 17.2185C200.875 13.3322 202.179 10.3902 204.795 8.39251C206.408 7.18683 208.407 6.58594 210.793 6.58594C213.09 6.58594 215.054 7.09709 216.69 8.11938C217.963 8.91536 218.99 10.0274 219.775 11.4554C220.56 12.8835 221.029 14.5301 221.189 16.3913L215.019 17.515C214.835 15.767 214.335 14.4053 213.519 13.4298C212.929 12.7274 212.074 12.3763 210.965 12.3763C209.782 12.3763 208.888 12.8991 208.275 13.9409C207.775 14.7798 207.525 15.8255 207.525 17.0741C207.525 19.0251 208.364 21.0111 210.048 23.0323C210.684 23.8049 211.637 24.714 212.91 25.7558C214.409 27.0044 215.397 27.8784 215.874 28.3779C217.463 29.9659 218.689 31.5345 219.556 33.0757C219.966 33.8014 220.294 34.4726 220.544 35.0852C221.146 36.6069 221.466 37.9686 221.489 39.1704Z" fill="white"/>
<path d="M78.2574 56.1651H67.6396V64.8741H78.2574V61.9126H72.7162V59.4349H81.5924V64.2498C81.5924 65.5257 81.3424 66.3958 80.8426 66.8602C80.3427 67.3206 79.386 67.5508 77.9685 67.5508H67.8661C66.4485 67.5508 65.4879 67.3206 64.992 66.8602C64.4921 66.3997 64.2422 65.5296 64.2422 64.2498V56.8909C64.2422 55.6228 64.4921 54.7605 64.992 54.3C65.4918 53.8396 66.4485 53.6094 67.8661 53.6094H77.9685C79.3743 53.6094 80.331 53.8357 80.8348 54.2844C81.3385 54.737 81.5924 55.5525 81.5924 56.7309V57.1016L78.2574 57.6634V56.1651Z" fill="white"/>
<path d="M90.8766 67.5469V61.2844L83.2539 53.6055H87.8463L92.8252 58.8067L97.8667 53.6055H101.862L94.274 61.2219V67.5508H90.8766V67.5469Z" fill="white"/>
<path d="M105.168 67.5469V53.6055H107.89L114.72 61.8814L121.519 53.6055H124.256V67.5469H121.097V57.9522L114.861 65.873H114.201L107.886 58.1785V67.5469H105.168Z" fill="white"/>
<path d="M155.489 56.1651H146.32V64.8741H155.489V61.9126L158.921 62.6032V64.2459C158.921 65.514 158.668 66.3802 158.164 66.8445C157.66 67.3128 156.692 67.543 155.262 67.543H146.546C145.14 67.543 144.184 67.3128 143.68 66.8523C143.176 66.3919 142.922 65.5218 142.922 64.242V56.8831C142.922 55.615 143.172 54.7526 143.672 54.2922C144.172 53.8318 145.129 53.6016 146.546 53.6016H155.262C156.703 53.6016 157.672 53.8318 158.172 54.2922C158.671 54.7526 158.921 55.6189 158.921 56.8831V58.237L155.489 58.7364V56.1651Z" fill="white"/>
<path d="M164.512 67.5469V53.6055H167.945V64.9404H178.887V67.5469H164.512Z" fill="white"/>
<path d="M186.718 53.6055V64.9404H196.434V53.6055H199.866V64.2459C199.866 65.514 199.612 66.3802 199.101 66.8445C198.589 67.3128 197.621 67.543 196.191 67.543H186.96C185.542 67.543 184.582 67.3128 184.086 66.8523C183.586 66.3919 183.336 65.5218 183.336 64.242V53.6016H186.718V53.6055Z" fill="white"/>
<path d="M206.066 67.5469V53.6055H218.601C219.773 53.6055 220.616 53.8162 221.132 54.2415C221.647 54.6668 221.905 55.3535 221.905 56.3095V57.9834C221.905 58.6155 221.702 59.1383 221.292 59.5441C220.882 59.9538 220.292 60.227 219.519 60.3635C220.304 60.4923 220.913 60.7888 221.347 61.2571C221.78 61.7253 221.999 62.3106 221.999 63.0207V64.8078C221.999 65.7208 221.64 66.4036 220.921 66.8601C220.202 67.3167 219.117 67.543 217.668 67.543H206.066V67.5469ZM217.039 55.8764H209.417V59.1774H217.039C217.629 59.1774 218.031 59.1032 218.246 58.951C218.461 58.7989 218.566 58.5414 218.566 58.1785V56.8596C218.566 56.4929 218.461 56.2393 218.254 56.0949C218.047 55.9505 217.641 55.8764 217.039 55.8764ZM217.039 61.4795H209.417V65.038H217.039C217.684 65.038 218.121 64.9482 218.352 64.7648C218.582 64.5815 218.699 64.2615 218.699 63.8011V62.7398C218.699 62.2793 218.582 61.9516 218.352 61.7643C218.121 61.5731 217.684 61.4795 217.039 61.4795Z" fill="white"/>
</g>
<defs>
<clipPath id="clip0_394_18824">
<rect width="222" height="80" fill="white"/>
</clipPath>
</defs>
</svg>
