<svg width="228" height="80" viewBox="0 0 228 80" fill="none" xmlns="http://www.w3.org/2000/svg">
<g clip-path="url(#clip0_394_18738)">
<path d="M97.7488 55.6811H92.2109V19.0469H107.973V24.5983H97.7488V34.5901H105.22V40.1415H97.7488V55.6811Z" fill="white"/>
<path d="M117.319 55.6813H111.781V19.0762H117.319V55.6813Z" fill="white"/>
<path d="M127.661 24.6276H121.773V19.0762H139.057V24.6276H133.199V55.6813H127.661V24.6276Z" fill="white"/>
<path d="M149.727 19.0469L157.075 43.6669V19.0469H162.613V55.6811H156.667L149.05 32.2228V55.6811H143.512V19.0469H149.727Z" fill="white"/>
<path d="M167.562 55.6811V19.0469H183.324V24.5983H173.1V34.5901H180.572V40.1415H173.1V50.1333H183.324V55.6847H167.562V55.6811Z" fill="white"/>
<path d="M205.444 46.5641C205.484 49.1165 204.818 51.295 203.452 53.1067C202.553 54.3339 201.286 55.2017 199.644 55.7063C198.766 55.9786 197.74 56.1166 196.567 56.1166C194.401 56.1166 192.602 55.5829 191.175 54.5082C189.984 53.6332 189.041 52.4387 188.349 50.9283C187.658 49.4179 187.25 47.6897 187.133 45.7436L192.405 45.3624C192.638 47.4972 193.206 49.0439 194.106 50.0025C194.768 50.7286 195.533 51.0699 196.392 51.0299C197.605 50.99 198.57 50.3982 199.294 49.2473C199.666 48.6809 199.851 47.8748 199.851 46.8219C199.851 45.3006 199.16 43.7903 197.772 42.2908C196.676 41.2596 195.038 39.7093 192.85 37.6434C191.015 35.868 189.715 34.2813 188.954 32.8762C188.135 31.2969 187.723 29.5832 187.723 27.7315C187.723 24.3985 188.845 21.8751 191.091 20.1578C192.478 19.123 194.197 18.6074 196.247 18.6074C198.22 18.6074 199.91 19.0467 201.315 19.9217C202.407 20.6043 203.292 21.5592 203.966 22.7864C204.639 24.0136 205.043 25.426 205.182 27.0235L199.88 27.9893C199.724 26.4898 199.294 25.3207 198.592 24.482C198.082 23.8793 197.35 23.5779 196.396 23.5779C195.38 23.5779 194.608 24.0245 194.08 24.9213C193.651 25.6402 193.436 26.537 193.436 27.608C193.436 29.2818 194.157 30.9882 195.602 32.7201C196.148 33.3809 196.968 34.1615 198.064 35.0583C199.353 36.1294 200.201 36.8809 200.612 37.3094C201.978 38.6745 203.034 40.0179 203.776 41.3395C204.13 41.964 204.41 42.5377 204.625 43.0641C205.149 44.3639 205.422 45.533 205.444 46.5641Z" fill="white"/>
<path d="M227.56 46.5641C227.6 49.1165 226.934 51.295 225.569 53.1067C224.669 54.3339 223.402 55.2017 221.76 55.7063C220.883 55.9786 219.856 56.1166 218.684 56.1166C216.517 56.1166 214.719 55.5829 213.291 54.5082C212.101 53.6332 211.158 52.4387 210.466 50.9283C209.774 49.4179 209.366 47.6897 209.25 45.7436L214.522 45.3624C214.755 47.4972 215.323 49.0439 216.222 50.0025C216.885 50.7286 217.65 51.0699 218.509 51.0299C219.721 50.99 220.686 50.3982 221.411 49.2473C221.782 48.6809 221.968 47.8748 221.968 46.8219C221.968 45.3006 221.276 43.7903 219.889 42.2908C218.793 41.2596 217.154 39.7093 214.966 37.6434C213.131 35.868 211.831 34.2813 211.07 32.8762C210.251 31.2969 209.84 29.5832 209.84 27.7315C209.84 24.3985 210.961 21.8751 213.208 20.1578C214.595 19.123 216.313 18.6074 218.363 18.6074C220.337 18.6074 222.026 19.0467 223.431 19.9217C224.524 20.6043 225.409 21.5592 226.082 22.7864C226.756 24.0136 227.16 25.426 227.298 27.0235L221.997 27.9893C221.84 26.4898 221.411 25.3207 220.708 24.482C220.198 23.8793 219.466 23.5779 218.513 23.5779C217.497 23.5779 216.725 24.0245 216.197 24.9213C215.767 25.6402 215.552 26.537 215.552 27.608C215.552 29.2818 216.273 30.9882 217.719 32.7201C218.265 33.3809 219.084 34.1615 220.18 35.0583C221.469 36.1294 222.317 36.8809 222.729 37.3094C224.094 38.6745 225.15 40.0179 225.893 41.3395C226.246 41.964 226.526 42.5377 226.741 43.0641C227.269 44.3639 227.542 45.533 227.56 46.5641Z" fill="white"/>
<path d="M104.435 61.1437H95.3065V68.6157H104.435V66.0742H99.6685V63.9466H107.301V68.0748C107.301 69.1712 107.086 69.9155 106.656 70.3113C106.226 70.707 105.404 70.9067 104.184 70.9067H95.4995C94.2798 70.9067 93.4569 70.7106 93.0273 70.3113C92.5976 69.9155 92.3828 69.1712 92.3828 68.0748V61.7609C92.3828 60.6753 92.5976 59.9346 93.0273 59.5389C93.4569 59.1431 94.2798 58.9434 95.4995 58.9434H104.184C105.393 58.9434 106.216 59.1359 106.649 59.5243C107.082 59.9128 107.301 60.6099 107.301 61.6229V61.9388L104.431 62.4217V61.1437H104.435Z" fill="white"/>
<path d="M115.277 70.9106V65.5371L108.727 58.9473H112.674L116.955 63.4095L121.292 58.9473H124.729L118.204 65.479V70.907H115.277V70.9106Z" fill="white"/>
<path d="M127.566 70.9106V58.9473H129.908L135.781 66.0454L141.624 58.9473H143.98V70.9106H141.264V62.6797L135.904 69.4765H135.336L129.908 62.8758V70.9143H127.566V70.9106Z" fill="white"/>
<path d="M170.826 61.1437H162.944V68.6157H170.826V66.0742L173.776 66.6697V68.0784C173.776 69.164 173.557 69.9083 173.124 70.3076C172.691 70.707 171.857 70.9067 170.63 70.9067H163.137C161.928 70.9067 161.105 70.7106 160.672 70.3113C160.238 69.9155 160.02 69.1712 160.02 68.0748V61.7609C160.02 60.6753 160.235 59.9346 160.664 59.5389C161.094 59.1431 161.917 58.9434 163.137 58.9434H170.63C171.868 58.9434 172.701 59.1431 173.131 59.5389C173.561 59.9346 173.776 60.6753 173.776 61.7609V62.9227L170.826 63.3511V61.1437Z" fill="white"/>
<path d="M178.582 70.9106V58.9473H181.531V68.6705H190.936V70.907H178.582V70.9106Z" fill="white"/>
<path d="M197.67 58.9471V68.6702H206.023V58.9471H208.972V68.0784C208.972 69.164 208.754 69.9083 208.313 70.3076C207.872 70.707 207.042 70.9067 205.812 70.9067H197.874C196.655 70.9067 195.832 70.7106 195.402 70.3113C194.972 69.9155 194.758 69.1712 194.758 68.0748V58.9434H197.67V58.9471Z" fill="white"/>
<path d="M214.305 70.9106V58.9473H225.079C226.084 58.9473 226.812 59.1289 227.253 59.492C227.697 59.855 227.919 60.4468 227.919 61.2674V62.7052C227.919 63.2498 227.744 63.6963 227.391 64.0449C227.041 64.3934 226.532 64.6294 225.865 64.7493C226.539 64.8582 227.063 65.116 227.438 65.5153C227.813 65.9147 227.999 66.4194 227.999 67.0294V68.5615C227.999 69.3458 227.69 69.9303 227.071 70.3224C226.452 70.7146 225.519 70.9106 224.274 70.9106H214.305ZM223.735 60.897H217.185V63.729H223.735C224.241 63.729 224.591 63.6637 224.773 63.5366C224.959 63.4059 225.05 63.188 225.05 62.8722V61.7394C225.05 61.4271 224.959 61.2056 224.78 61.0822C224.602 60.9588 224.252 60.897 223.735 60.897ZM223.735 65.7005H217.185V68.754H223.735C224.289 68.754 224.667 68.6777 224.864 68.518C225.064 68.3619 225.163 68.0859 225.163 67.6902V66.7788C225.163 66.3831 225.064 66.1035 224.864 65.9438C224.667 65.784 224.292 65.7005 223.735 65.7005Z" fill="white"/>
<path d="M11.4218 35.8891L11.4983 35.1121L11.1888 34.5675L5.98218 31.082L0.662663 33.8341L0 39.4509L0.779176 40.3404L2.02804 41.1863L2.35573 37.0146L8.84765 33.9321L11.4218 35.8891Z" fill="white"/>
<path d="M69.647 67.4192C69.5669 67.245 69.5014 67.1324 69.5014 67.1324C69.5014 67.1324 69.7271 66.5152 69.4722 65.9234C69.2174 65.3316 68.7695 65.5857 68.7695 65.5857C68.7695 65.0194 68.4491 63.6977 68.1688 62.6484C67.1347 63.0006 65.1505 63.8285 62.3432 65.6693C64.2657 63.7522 66.7378 62.0929 67.8229 61.4031C67.7792 61.2579 67.7537 61.1708 67.7537 61.1708C68.0085 60.441 68.1214 59.3154 67.9212 57.3476C67.7245 55.3797 67.7537 53.8621 68.2015 52.6276C68.5146 51.7708 69.8036 47.4393 70.5645 44.8651C70.0475 41.7644 69.0499 38.8562 69.0499 38.8562C69.0499 38.8562 70.4298 40.5772 71.1944 43.0788C71.5003 43.8521 72.9458 47.5155 73.9252 49.8428C75.0248 52.457 76.7433 54.0037 76.7433 54.0037L77.8138 56.7303C77.8138 56.7303 77.3332 60.3284 77.0819 61.7626C76.8489 63.0878 76.8052 67.412 76.8453 69.3472C77.2603 69.5069 77.6609 69.674 78.0468 69.841C79.9474 70.6724 81.5276 71.6055 82.8384 72.5495C83.5192 70.1641 84.2875 67.383 84.5496 66.1195C85.0557 63.676 85.8458 57.9684 85.8167 55.7791C85.7876 53.5861 85.2524 52.9398 85.0558 52.4642C84.8591 51.985 82.4051 41.9532 81.5895 39.0014C80.7739 36.0497 79.1937 33.8857 78.8551 33.4355C78.5165 32.9853 78.349 31.4132 77.304 28.6574C76.2627 25.9017 73.3317 23.5163 72.0719 23.1787C70.8121 22.841 69.6106 22.4852 68.2379 21.4722C66.8653 20.4592 63.5047 19.2793 60.5737 18.8508C57.6427 18.4188 56.1971 17.6527 55.2577 17.0899C54.3183 16.5271 52.4032 14.4867 51.5366 13.0235C50.6737 11.5639 51.198 9.63236 51.1616 8.39427C51.1252 7.15619 50.204 5.60225 48.7949 3.71063C47.3859 1.81901 44.1344 0 41.6549 0C39.1754 0 35.8694 2.11673 34.646 3.27857C33.4263 4.44041 29.8726 8.12924 29.818 9.17853C29.7634 10.2278 32.0536 12.4571 32.0536 12.4571C32.0354 14.7989 33.6884 16.5598 33.9324 16.9338C34.1763 17.3078 33.4809 21.0728 34.0816 21.356C34.6824 21.6356 35.4907 21.1128 35.6582 21.1491C35.8257 21.1854 36.4665 22.2746 36.7104 22.6123C36.9544 22.9499 37.6134 22.8011 37.6134 22.8011C37.6134 23.1024 37.9702 23.4582 38.3088 23.6252C38.5455 23.7414 38.542 24.0537 38.5201 24.228C38.7021 24.729 39.139 25.5967 39.9911 25.5822C41.1852 25.5604 41.7351 24.8089 41.7351 24.8089C43.1296 24.5075 45.2014 22.8483 45.2014 22.8483C45.2014 22.8483 43.2206 25.23 41.8261 25.5314C41.8261 25.5314 41.2764 26.341 40.0821 26.3047C38.5238 26.2575 37.8355 24.9033 37.6826 24.5511C36.6121 24.8924 34.7153 25.8182 33.368 28.2363C31.3946 31.7763 31.959 37.7343 31.959 37.7343C29.8727 40.7115 29.1409 45.5477 29.1409 46.39C29.1409 47.2323 28.1249 48.1872 27.5642 48.1872C26.9999 48.1872 20.1257 47.0072 18.997 46.7821C17.9521 46.5752 14.2418 44.2878 13.7065 43.9574L14.1107 39.0632L8.73661 34.9786L3.2132 37.6L2.76172 43.3692L3.28602 44.2297L8.17225 47.4538L10.0182 46.6151C10.7865 47.0907 13.215 48.6229 14.2054 49.5887C15.3887 50.7396 18.2906 54.0291 20.5189 55.7428C22.7435 57.4565 26.5484 59.1702 27.4514 59.5079C28.3543 59.8455 29.7634 60.8004 30.4115 61.08C31.0596 61.3596 31.9043 60.6007 32.7781 59.9835C33.652 59.3663 35.8766 56.4145 36.9507 54.7552C37.6789 53.6297 38.6875 51.0845 39.2664 49.5596C38.3307 46.6913 38.7276 42.5959 38.7276 42.5959C38.7276 42.5959 39.4011 46.3718 40.2022 48.917L40.559 49.3309C40.559 49.3309 41.3491 53.0125 41.2908 53.9964C41.2362 54.9803 39.9655 56.2438 39.656 58.2698C39.3465 60.2921 40.3332 61.9223 40.3332 61.9223L40.2859 62.0312C41.1597 62.9062 42.3868 63.9955 44.0252 65.1537C42.1064 64.3876 40.7957 63.5416 39.9291 62.8482L39.7689 63.2149C39.1754 63.0733 38.8114 63.9737 38.5564 64.7035C38.3017 65.4332 38.0212 67.5718 38.0212 67.5718C37.2384 68.0837 36.9872 69.3145 36.8597 69.9608C51.5658 66.3482 62.1283 66.1521 69.647 67.4192Z" fill="white"/>
<path d="M87.597 80.0009C87.597 80.0009 78.4835 53.4457 13 78.9371C76.663 59.5526 87.597 80.0009 87.597 80.0009Z" fill="white"/>
</g>
<defs>
<clipPath id="clip0_394_18738">
<rect width="228" height="80" fill="white"/>
</clipPath>
</defs>
</svg>
