<svg width="237" height="94" viewBox="0 0 237 94" fill="none" xmlns="http://www.w3.org/2000/svg">
<g clip-path="url(#clip0_394_18802)">
<path d="M115.172 46.5962C115.643 45.3542 115.922 43.896 115.995 42.2437C118.495 39.7323 118.04 33.2295 114.975 26.1877C115.148 26.1166 115.318 26.0345 115.483 25.9388L119.588 23.5642C121.579 22.4124 122.269 19.849 121.13 17.8356C119.991 15.8221 117.456 15.1245 115.464 16.2762L111.36 18.6508C111.208 18.7383 111.065 18.8341 110.93 18.938C107.139 13.483 102.682 9.98405 99.3732 9.83905C95.1712 6.83523 91.2965 6.06376 88.4527 7.66689C85.5792 9.28644 84.1939 13.0809 84.5483 18.3526C84.827 22.5219 86.1691 27.2546 88.3743 31.9437L67.6725 43.9344C64.8179 39.363 61.6467 35.4427 58.5351 32.6741C54.4548 29.0438 50.8805 27.7936 48.4642 29.1532C46.5323 30.2421 45.6151 32.8 45.7882 36.5753C45.5528 36.6354 45.3256 36.723 45.1091 36.8433C43.3125 37.8556 42.8687 40.7117 43.8184 45.1052C44.4895 48.2048 45.8045 51.8187 47.5957 55.5283C47.5767 55.5393 47.5578 55.5475 47.5389 55.5584L40.7907 59.4349C38.7992 60.5867 38.1093 63.1501 39.2484 65.1608C40.1927 66.8296 42.0976 67.5956 43.8563 67.1524C44.2189 67.0621 44.5733 66.9199 44.9143 66.7229L51.6327 62.8655C51.6543 62.8546 51.676 62.8409 51.6949 62.8272C56.1161 69.6529 61.5141 75.1353 64.9234 74.2762C65.1588 74.216 65.3861 74.1285 65.5998 74.0054C65.8109 73.8878 66.003 73.74 66.1762 73.5732C68.7575 75.3651 71.0249 76.0544 72.8296 75.5976C73.1895 75.5073 73.5277 75.3705 73.8497 75.19C75.089 74.4923 75.9061 73.1655 76.2903 71.3135C76.4067 71.3217 76.523 71.3326 76.6421 71.3326H87.9765V81.6381C87.9765 84.5161 90.2846 86.8496 93.131 86.8496H177.637C180.484 86.8496 182.792 84.5161 182.792 81.6381V71.3326H194.126C196.651 71.3326 198.699 69.2617 198.699 66.7092V46.5935H115.172V46.5962ZM89.2645 9.13323C89.6189 8.93353 89.9977 8.78305 90.3982 8.68183C92.5763 8.13195 95.4093 9.03202 98.5317 11.2917C102.406 14.0986 106.186 18.6234 109.171 24.0374C112.155 29.4514 113.979 35.0815 114.301 39.8909C114.488 42.6677 114.16 44.9438 113.37 46.5962H110.965C111.76 42.1206 109.744 34.3511 105.394 26.4613C99.4544 15.688 91.4129 8.77212 87.4354 11.0154C87.4219 11.0236 87.4083 11.0318 87.3948 11.04C87.8818 10.2029 88.5069 9.56001 89.2645 9.13323ZM87.6004 21.3674C87.0945 17.997 87.5517 15.6442 88.8505 14.9111C88.9966 14.829 89.1562 14.7661 89.3267 14.7223C90.6579 14.3858 92.6602 15.2722 94.9412 17.231C97.7579 19.6493 100.631 23.3781 103.029 27.7279C105.429 32.0777 107.055 36.5096 107.607 40.2028C108.099 43.4857 107.677 45.7974 106.457 46.5935H103.773C102.739 46.1968 101.549 45.4363 100.269 44.3392C98.3883 42.7224 96.4807 40.5229 94.7085 37.9431L97.9256 36.0828C98.0122 36.0336 98.0934 35.9789 98.1746 35.9241C99.3056 36.9665 100.366 37.4261 101.054 37.0376C102.333 36.3154 101.825 32.9313 99.9198 29.476C98.0149 26.0208 95.4336 23.8049 94.1538 24.5244C93.2988 25.0059 93.2419 26.6747 93.867 28.7593C93.848 28.7702 93.8264 28.7812 93.8075 28.7921L90.5741 30.6634C89.0561 27.3832 88.0198 24.1633 87.6004 21.3674ZM92.5384 39.1988C94.5272 42.085 96.727 44.6019 99.0052 46.5935H79.7375L92.5384 39.1988ZM72.0747 51.0226V52.0923C71.9449 51.8132 71.815 51.5314 71.6824 51.2497L72.0747 51.0226ZM56.4219 64.4304C55.9484 64.6985 55.2936 64.559 54.563 64.1048C54.0246 63.3498 53.4834 62.5455 52.9396 61.6947C53.8757 60.3979 54.0327 58.617 53.1939 57.1315C52.3605 55.6597 50.7804 54.8909 49.211 55.0359C49.0865 54.7842 48.9675 54.5298 48.8484 54.2808C48.7348 53.1127 48.9485 52.2455 49.5249 51.9199C50.8047 51.1977 53.386 53.4164 55.2909 56.8716C57.193 60.3241 57.7017 63.7109 56.4219 64.4304ZM64.7962 72.5418C64.0873 72.9412 62.7831 72.509 61.1272 71.2724C61.1894 71.2587 61.249 71.2396 61.3004 71.2095C62.8481 70.3368 60.5346 63.1665 56.1378 55.1891C51.7409 47.2145 46.922 41.4558 45.3743 42.3257C45.2552 42.3914 45.1605 42.4981 45.0874 42.6376C44.7871 40.0086 45.2687 38.679 45.9208 38.3124C46.002 38.2659 46.0886 38.2331 46.186 38.2085C48.3668 37.6586 54.3574 42.6732 59.961 52.8336C62.5504 57.5309 64.4391 62.2445 65.2751 66.1046C66.1518 70.1562 65.6025 72.0877 64.7962 72.5418ZM73.0461 73.7264C72.0342 74.2954 70.5866 74.1176 68.8495 73.2366C68.9658 73.212 69.074 73.1737 69.1769 73.1163C71.5417 71.784 68.7169 62.1077 62.8697 51.5041C57.0226 40.9004 50.3664 33.3827 48.0015 34.715C47.758 34.8517 47.5713 35.0788 47.436 35.3825C47.4848 32.9367 48.1179 31.2734 49.2787 30.6196C51.0076 29.6457 53.984 30.8521 57.442 33.9326C61.1678 37.2482 65.0019 42.3093 68.2407 48.1829C69.7505 50.9214 71.0411 53.679 72.0747 56.3436V66.7092C72.0747 68.5558 73.1489 70.1453 74.6966 70.8867C74.4261 72.2819 73.8741 73.2613 73.0461 73.7264Z" fill="white"/>
<path d="M98.8245 82.7488C98.6351 83.0607 98.305 83.3425 97.8288 83.5859C97.3526 83.8322 96.7952 83.9553 96.1539 83.9553C95.4234 83.9553 94.7442 83.8185 94.1138 83.5449C93.4833 83.2713 92.9341 82.8774 92.4633 82.3631C91.9924 81.8488 91.6217 81.2277 91.3512 80.5C91.0806 79.7723 90.9453 78.9571 90.9453 78.0516C90.9453 77.1351 91.0887 76.298 91.3755 75.5429C91.6623 74.7879 92.0438 74.1395 92.5201 73.5978C92.9963 73.0562 93.5374 72.6348 94.1462 72.3312C94.755 72.0303 95.3855 71.877 96.0376 71.877C96.6355 71.877 97.1253 71.94 97.5149 72.0603C97.9018 72.1835 98.213 72.323 98.4511 72.4789C98.6892 72.6349 98.8678 72.7935 98.9896 72.9495C99.1113 73.1054 99.206 73.2176 99.2709 73.2859L99.62 72.0795H102.09V77.0257H99.1221C99.1113 76.6892 99.0518 76.3883 98.949 76.1202C98.8434 75.8521 98.7027 75.6277 98.5269 75.4499C98.351 75.2721 98.1508 75.1353 97.9289 75.0396C97.707 74.9438 97.4743 74.8973 97.2308 74.8973C96.898 74.8973 96.5922 74.9848 96.3108 75.1572C96.0294 75.3295 95.7886 75.5593 95.5884 75.8438C95.3882 76.1284 95.2339 76.4649 95.123 76.8506C95.0121 77.2363 94.958 77.6358 94.958 78.0488C94.958 78.4729 95.0067 78.8723 95.1068 79.2471C95.2069 79.6219 95.353 79.9474 95.5451 80.2292C95.7372 80.5083 95.9753 80.7299 96.2594 80.8913C96.5408 81.0527 96.8655 81.1347 97.2308 81.1347C97.707 81.1347 98.0615 81.0527 98.2915 80.8913C98.5241 80.7299 98.7 80.5356 98.8218 80.314V79.6109H97.8098V77.8163H103.316V79.6109H102.653V83.8048H99.3359L98.8245 82.7488Z" fill="#F41E1E"/>
<path d="M109.755 77.3647C109.766 77.2854 109.799 77.1869 109.847 77.0638C109.896 76.9407 109.953 76.8121 110.013 76.678C110.072 76.544 110.137 76.41 110.205 76.2759C110.27 76.1419 110.326 76.0242 110.37 75.923L111.282 74.2296H110.37V72.082H114.831V74.2296H113.936L110.868 79.6791V81.6242H111.796V83.8046H106.487V81.6242H107.431V79.6463L104.214 74.2296H103.402V72.082H109.076V74.2296H108.213L109.176 76.0078C109.198 76.0871 109.236 76.1856 109.285 76.3087C109.333 76.4318 109.388 76.5604 109.442 76.6944C109.496 76.8285 109.547 76.9571 109.59 77.0802C109.634 77.2033 109.669 77.2991 109.691 77.3647H109.755Z" fill="#F41E1E"/>
<path d="M126.59 75.0347C126.558 75.2262 126.517 75.4314 126.474 75.6557C126.43 75.88 126.384 76.0934 126.341 76.3013C126.298 76.5092 126.252 76.698 126.209 76.8703C126.165 77.0427 126.13 77.1795 126.108 77.2807L124.366 83.8054H120.9L119.041 77.1138C119.019 77.0454 118.992 76.9388 118.957 76.7856C118.925 76.6351 118.892 76.4655 118.857 76.274C118.824 76.0852 118.789 75.8827 118.757 75.6694C118.724 75.456 118.703 75.2453 118.692 75.0319H118.624V81.6387H119.569V83.8027H115.074V81.6387H115.97V74.2441H115.091V72.0801H121.376L123.051 78.3531L124.645 72.0801H130.965V74.2441H130.053V81.6223H130.965V83.8027H125.724V81.6223H126.668V75.0319H126.59V75.0347Z" fill="#F41E1E"/>
<path d="M146.661 81.7095C146.374 82.0241 146.052 82.3223 145.698 82.6068C145.343 82.8913 144.956 83.143 144.537 83.3619C144.118 83.5807 143.663 83.7531 143.176 83.8817C142.689 84.0103 142.175 84.0759 141.634 84.0759C140.749 84.0759 139.948 83.9391 139.228 83.6655C138.509 83.392 137.894 82.9953 137.388 82.4755C136.88 81.9557 136.485 81.3238 136.203 80.5797C135.922 79.8356 135.781 78.9957 135.781 78.0546C135.781 77.0916 135.941 76.2299 136.263 75.4639C136.582 74.6979 136.993 74.0495 137.491 73.5188C137.989 72.988 138.533 72.5832 139.125 72.3014C139.718 72.0223 140.283 71.8828 140.825 71.8828C141.233 71.8828 141.59 71.9321 141.893 72.0333C142.196 72.1345 142.453 72.2494 142.665 72.378C142.876 72.5066 143.038 72.6351 143.154 72.7637C143.271 72.8923 143.344 72.9798 143.379 73.0236L143.76 72.0852H146.366V76.8481H143.398C143.387 76.58 143.341 76.3174 143.265 76.0603C143.187 75.8031 143.081 75.576 142.943 75.3818C142.805 75.1876 142.627 75.0289 142.413 74.9112C142.196 74.7936 141.939 74.7362 141.642 74.7362C141.344 74.7362 141.074 74.8237 140.83 74.9961C140.587 75.1684 140.378 75.4064 140.208 75.7101C140.037 76.011 139.905 76.3639 139.81 76.7661C139.715 77.1682 139.669 77.5977 139.669 78.0573C139.669 78.4704 139.721 78.8671 139.826 79.2474C139.932 79.6276 140.086 79.9641 140.292 80.2541C140.497 80.5441 140.749 80.7766 141.046 80.949C141.344 81.1213 141.693 81.2089 142.091 81.2089C142.435 81.2089 142.759 81.1295 143.07 80.9736C143.379 80.8177 143.652 80.6426 143.882 80.4456C144.115 80.2487 144.304 80.0654 144.456 79.893C144.605 79.7207 144.697 79.6112 144.729 79.5647L146.661 81.7095Z" fill="#F41E1E"/>
<path d="M147.32 72.082H152.561V74.2952H151.682V81.5723H153.822V79.4411H156.609V83.8018H147.32V81.5723H148.232V74.2952H147.32V72.082Z" fill="#F41E1E"/>
<path d="M157.276 72.082H162.549V74.246H161.654V77.8681C161.654 78.5383 161.689 79.0855 161.762 79.5123C161.832 79.9363 161.94 80.2701 162.084 80.5108C162.227 80.7515 162.4 80.9157 162.606 81.0059C162.812 81.0962 163.044 81.14 163.31 81.14C163.564 81.14 163.794 81.1044 163.997 81.0306C164.203 80.9594 164.378 80.8063 164.527 80.5792C164.676 80.3494 164.79 80.0211 164.868 79.5889C164.947 79.1594 164.984 78.5794 164.984 77.8517V74.298H164.089V72.0848H168.997V74.2487H168.101V78.325C168.101 80.3166 167.698 81.7747 166.889 82.7021C166.083 83.6295 164.898 84.0946 163.339 84.0946C161.659 84.0399 160.382 83.5556 159.508 82.6446C158.634 81.7336 158.198 80.322 158.198 78.4097V74.2679H157.27V72.082H157.276Z" fill="#F41E1E"/>
<path d="M169.668 83.8046V81.6242H170.631V74.246H169.668V72.082H175.856C177.239 72.082 178.262 72.331 178.924 72.8289C179.587 73.3268 179.92 74.0353 179.92 74.9491C179.92 75.3074 179.893 75.6166 179.836 75.8792C179.782 76.1418 179.693 76.3771 179.571 76.5823C179.449 76.7902 179.284 76.9708 179.073 77.1267C178.862 77.2826 178.602 77.4221 178.294 77.5453C178.592 77.6355 178.876 77.7559 179.141 77.9064C179.406 78.0568 179.639 78.2511 179.836 78.4864C180.037 78.7216 180.193 78.9979 180.31 79.3153C180.426 79.6354 180.483 79.9937 180.483 80.3959C180.483 81.5805 180.131 82.4449 179.43 82.9866C178.727 83.5283 177.574 83.7991 175.972 83.7991H169.668V83.8046ZM174.062 74.2952V76.8121H175.074C175.515 76.8121 175.816 76.6972 175.97 76.4674C176.124 76.2376 176.202 75.923 176.202 75.5208C176.202 75.1296 176.1 74.8287 175.897 74.6153C175.691 74.4019 175.429 74.2979 175.109 74.2979H174.062V74.2952ZM175.391 81.6242C175.745 81.6242 176.056 81.4984 176.327 81.2467C176.598 80.995 176.733 80.6394 176.733 80.1825C176.733 79.7585 176.616 79.4055 176.384 79.1265C176.151 78.8475 175.802 78.7079 175.339 78.7079H174.062V81.627H175.391V81.6242Z" fill="#F41E1E"/>
<path d="M75.0039 49.6465H90.8408V55.5638H86.1517V53.181H82.1552V57.84H87.188V61.4019H82.1552V64.8024H84.8556V68.3643H75.0039V64.8024H76.6463V53.181H75.0039V49.6465Z" fill="#F41E1E"/>
<path d="M91.9023 49.6465H100.696V53.181H99.0536V64.8024H100.696V68.3643H91.9023V64.8024H93.5717V53.181H91.9023V49.6465Z" fill="#F41E1E"/>
<path d="M119.525 49.6465V56.6089H115.632V53.181H113.408V64.8024H115.605V68.3643H105.753V64.8024H107.926V53.181H105.648V56.6089H101.754V49.6465H119.525Z" fill="#F41E1E"/>
<path d="M140.871 53.1005H139.123V68.3631H133.43L126.677 58.1616V64.9107H128.717V68.3659H120.586V64.9107H122.147V53.1005H120.61V49.6453H128.211L134.726 59.472V53.0978H132.9V49.6426H140.871V53.1005Z" fill="#F41E1E"/>
<path d="M142.195 49.6465H158.165V55.5638H153.584V53.181H149.347V56.877H154.379V60.4389H149.347V64.8024H153.584V62.3129H158.165V68.3643H142.195V64.8024H143.865V53.181H142.195V49.6465Z" fill="#F41E1E"/>
<path d="M159.488 68.3641V61.6151H164.415C164.415 62.1677 164.537 62.6191 164.786 62.9665C165.032 63.314 165.33 63.5876 165.673 63.7845C166.017 63.9815 166.379 64.1156 166.758 64.1867C167.137 64.2578 167.47 64.2934 167.751 64.2934C167.981 64.2934 168.227 64.277 168.493 64.2387C168.758 64.2031 169.001 64.1374 169.22 64.039C169.44 63.9405 169.626 63.8064 169.778 63.6368C169.927 63.4672 170.002 63.2401 170.002 62.9529C170.002 62.6136 169.751 62.3319 169.247 62.1103C168.744 61.8887 168.116 61.6671 167.367 61.4537C166.617 61.2403 165.8 60.9941 164.918 60.7178C164.036 60.4415 163.219 60.0612 162.467 59.5797C161.717 59.0982 161.09 58.4854 160.586 57.7468C160.083 57.0054 159.831 56.0643 159.831 54.9208C159.831 53.9387 160.04 53.0824 160.454 52.3492C160.868 51.6188 161.39 51.0196 162.018 50.5546C162.643 50.0895 163.325 49.7421 164.058 49.5095C164.791 49.277 165.484 49.1621 166.136 49.1621C166.682 49.1621 167.229 49.2113 167.778 49.3098C168.325 49.4083 168.847 49.5643 169.342 49.7776C169.837 49.991 170.284 50.2728 170.679 50.6202C171.077 50.9677 171.407 51.3917 171.672 51.8923L171.937 49.6436H176.494V56.3653H171.699C171.699 55.8646 171.61 55.4242 171.434 55.0384C171.258 54.6554 171.014 54.3299 170.706 54.0618C170.397 53.7937 170.035 53.594 169.621 53.4599C169.207 53.3259 168.769 53.2602 168.309 53.2602C168.114 53.2602 167.911 53.2903 167.7 53.3532C167.489 53.4162 167.289 53.5064 167.105 53.6213C166.918 53.7362 166.769 53.8839 166.655 54.0618C166.539 54.2396 166.482 54.4475 166.482 54.6773C166.482 55.1424 166.742 55.5254 167.264 55.8291C167.784 56.1327 168.433 56.4172 169.212 56.6853C169.989 56.9534 170.828 57.2434 171.729 57.5553C172.63 57.8672 173.468 58.2556 174.245 58.7207C175.022 59.1858 175.671 59.7658 176.19 60.4606C176.713 61.1555 176.972 62.0309 176.972 63.0842C176.972 64.1374 176.756 65.0211 176.323 65.7351C175.89 66.4491 175.335 67.0346 174.654 67.4887C173.974 67.9428 173.22 68.2684 172.389 68.4654C171.558 68.6623 170.746 68.7608 169.951 68.7608C169.28 68.7608 168.663 68.6897 168.098 68.5474C167.532 68.4052 167.021 68.2164 166.561 67.9839C166.101 67.7513 165.692 67.4887 165.33 67.1932C164.967 66.8978 164.664 66.5996 164.415 66.2959L164.123 68.3587H159.488V68.3641Z" fill="#F41E1E"/>
<path d="M178.297 68.3641V61.6151H183.224C183.224 62.1677 183.346 62.6191 183.595 62.9665C183.841 63.314 184.138 63.5876 184.482 63.7845C184.826 63.9815 185.188 64.1156 185.567 64.1867C185.946 64.2578 186.279 64.2934 186.56 64.2934C186.79 64.2934 187.036 64.277 187.302 64.2387C187.567 64.2031 187.81 64.1374 188.029 64.039C188.249 63.9405 188.435 63.8064 188.587 63.6368C188.736 63.4672 188.811 63.2401 188.811 62.9529C188.811 62.6136 188.56 62.3319 188.056 62.1103C187.553 61.8887 186.925 61.6671 186.176 61.4537C185.426 61.2403 184.609 60.9941 183.727 60.7178C182.845 60.4415 182.028 60.0612 181.276 59.5797C180.526 59.0982 179.898 58.4854 179.395 57.7468C178.892 57.0082 178.64 56.0643 178.64 54.9208C178.64 53.9387 178.849 53.0824 179.263 52.3492C179.677 51.6188 180.199 51.0196 180.827 50.5546C181.452 50.0895 182.133 49.7421 182.867 49.5095C183.6 49.277 184.293 49.1621 184.945 49.1621C185.491 49.1621 186.038 49.2113 186.587 49.3098C187.134 49.4083 187.656 49.5643 188.151 49.7776C188.646 49.991 189.093 50.2728 189.488 50.6202C189.885 50.9677 190.216 51.3917 190.481 51.8923L190.746 49.6436H195.302V56.3653H190.508C190.508 55.8646 190.419 55.4242 190.243 55.0384C190.067 54.6554 189.823 54.3299 189.515 54.0618C189.206 53.7937 188.844 53.594 188.43 53.4599C188.016 53.3259 187.577 53.2602 187.117 53.2602C186.923 53.2602 186.72 53.2903 186.509 53.3532C186.298 53.4162 186.097 53.5064 185.913 53.6213C185.727 53.7362 185.578 53.8839 185.464 54.0618C185.348 54.2396 185.291 54.4475 185.291 54.6773C185.291 55.1424 185.551 55.5254 186.073 55.8291C186.593 56.1327 187.242 56.4172 188.021 56.6853C188.798 56.9534 189.637 57.2434 190.538 57.5553C191.439 57.8672 192.277 58.2556 193.054 58.7207C193.831 59.1858 194.48 59.7658 194.999 60.4606C195.522 61.1555 195.781 62.0309 195.781 63.0842C195.781 64.1374 195.565 65.0211 195.132 65.7351C194.699 66.4491 194.144 67.0346 193.463 67.4887C192.783 67.9428 192.028 68.2684 191.198 68.4654C190.367 68.6623 189.555 68.7608 188.76 68.7608C188.089 68.7608 187.472 68.6897 186.906 68.5474C186.341 68.4052 185.83 68.2164 185.37 67.9839C184.91 67.7513 184.501 67.4887 184.138 67.1932C183.776 66.8978 183.473 66.5996 183.224 66.2959L182.932 68.3587H178.297V68.3641Z" fill="#F41E1E"/>
</g>
<defs>
<clipPath id="clip0_394_18802">
<rect width="160" height="80" fill="white" transform="translate(38.6992 6.84961)"/>
</clipPath>
</defs>
</svg>
