<svg width="175" height="50" viewBox="0 0 175 50" fill="none" xmlns="http://www.w3.org/2000/svg">
<g clip-path="url(#clip0_399_17556)">
<mask id="mask0_399_17556" style="mask-type:luminance" maskUnits="userSpaceOnUse" x="0" y="0" width="175" height="50">
<path d="M175 0H0V50H175V0Z" fill="white"/>
</mask>
<g mask="url(#mask0_399_17556)">
<mask id="mask1_399_17556" style="mask-type:luminance" maskUnits="userSpaceOnUse" x="0" y="0" width="175" height="50">
<path d="M175 0H0V50H175V0Z" fill="white"/>
</mask>
<g mask="url(#mask1_399_17556)">
<mask id="mask2_399_17556" style="mask-type:luminance" maskUnits="userSpaceOnUse" x="0" y="0" width="175" height="50">
<path d="M175 0H0V50H175V0Z" fill="white"/>
</mask>
<g mask="url(#mask2_399_17556)">
<path d="M158.719 49.9997V23.4469H149.008V18.333H175.002V23.4469H165.34V49.9997H158.719Z" fill="white"/>
<path d="M136.301 49.9997V18.333H142.922V49.9997H136.301Z" fill="white"/>
<path d="M102.285 49.9997V18.333H108.906V31.7569L121.07 18.333H128.672L117.244 31.1669L129.26 49.9997H122.198L113.124 35.3956L108.906 39.9686V49.9997H102.285Z" fill="white"/>
<path d="M65.7048 25.3282C59.2309 21.0609 52.0915 17.6593 46.4984 12.1778L46.0684 12.1641C45.6625 13.919 45.4634 15.8536 46.2421 17.5394C46.8965 19.0774 48.1566 20.2557 49.5031 21.197C53.1232 23.6749 56.9424 25.8467 60.5579 28.3253C61.3737 28.8627 61.9149 29.7863 61.991 30.7621C62.1914 34.9929 62.0547 39.2342 62.1211 43.4683C62.1172 44.3372 62.4659 45.1814 63.1027 45.7742C64.5976 47.2568 66.2167 48.6045 67.7871 50.0005C67.8267 43.0188 67.7012 36.0332 67.8749 29.0509C68.0329 27.4687 67.0025 26.0962 65.7048 25.3282Z" fill="white"/>
<path d="M73.6679 19.6045C73.6686 19.568 73.6705 19.5322 73.6705 19.495C73.6705 19.3648 73.664 19.2358 73.6543 19.1081C73.6198 18.23 73.3147 17.4151 72.8281 16.7234C71.959 15.429 70.498 14.5679 68.8333 14.5249C68.7995 14.5236 68.765 14.5229 68.7312 14.5223C68.7214 14.5223 68.7117 14.5216 68.7019 14.5216C68.6993 14.5216 68.6974 14.5216 68.6948 14.5216C68.3871 14.519 68.0781 14.5477 67.7724 14.6102C65.7649 14.9913 64.1854 16.5813 63.8179 18.5961C63.8133 18.6189 63.8101 18.6424 63.8055 18.6652C63.801 18.6925 63.7951 18.7199 63.7912 18.7472C63.717 19.1967 63.7047 19.6566 63.7645 20.1132C63.9955 22.582 66.3308 24.6294 68.8132 24.4808C71.4146 24.544 73.7271 22.197 73.6679 19.6045Z" fill="#F41E1E"/>
<path d="M91.2916 12.1614C85.2256 16.6652 78.8525 20.739 72.4111 24.6813C71.4952 25.2571 70.5006 25.7476 69.746 26.5404C69.0441 27.2993 68.9855 28.3988 68.9927 29.3785C69.0012 29.5928 69.009 29.8071 69.0161 30.0214C69.223 36.2429 68.9368 42.4729 69.1508 48.6924C69.1657 49.1256 69.1826 49.5588 69.2022 49.9913C70.269 49.0494 71.2383 47.9622 72.3636 47.09C73.1182 46.4692 73.9782 45.8517 74.323 44.8967C74.6743 44.0245 74.5838 43.0696 74.6008 42.1557C74.5656 38.5834 74.6443 35.0118 74.5266 31.4428C74.5162 30.0566 75.3489 28.7773 76.523 28.0842C79.8693 26.0772 83.222 24.0696 86.4212 21.8314C88.5998 20.3795 90.8141 18.6239 91.7534 16.0887C92.2719 14.8283 92.1626 13.4545 91.8907 12.1523L91.2916 12.1614Z" fill="white"/>
<path d="M94.9435 0C94.2084 0 93.6125 0.597336 93.6132 1.33276L93.6151 9.23485L44.214 9.24593L44.212 1.34383C44.212 0.607754 43.6155 0.0110772 42.8811 0.0117286C42.146 0.0117286 41.5501 0.609057 41.5508 1.34448L41.5527 9.24658L41.5534 11.9114L41.5553 19.8135C41.5553 20.5496 42.1519 21.1463 42.8863 21.1456C43.6214 21.1456 44.2172 20.5483 44.2166 19.8129L44.2146 11.9108L93.6158 11.8997L93.6177 19.8018C93.6177 20.5379 94.2142 21.1346 94.9487 21.1339C95.6837 21.1339 96.2796 20.5366 96.279 19.8012L96.277 11.8991L96.2764 9.2342L96.2744 1.33211C96.2744 0.596033 95.6779 0 94.9435 0Z" fill="#F41E1E"/>
<path d="M98.7287 1.79004C97.9936 1.79004 97.3977 2.38737 97.3984 3.1228L97.3997 9.2329L97.4003 11.8978L97.4016 18.0079C97.4016 18.744 97.9982 19.3407 98.7326 19.34C99.4677 19.34 100.064 18.7427 100.063 18.0072L100.062 11.8971L100.061 9.23225L100.06 3.12215C100.06 2.38607 99.4638 1.79004 98.7287 1.79004Z" fill="#F41E1E"/>
<path d="M102.51 4.94238C101.775 4.94238 101.179 5.53972 101.18 6.27514V9.23313L101.181 11.898L101.182 14.856C101.182 15.5921 101.778 16.1888 102.513 16.1881C103.248 16.1881 103.844 15.5908 103.843 14.8554L103.841 6.27449C103.841 5.53906 103.246 4.94238 102.51 4.94238Z" fill="#F41E1E"/>
<path d="M39.0998 1.80371C38.3641 1.80371 37.7689 2.40104 37.7695 3.13647L37.7708 9.24657L37.7715 11.9114L37.7728 18.0215C37.7728 18.7576 38.3687 19.3543 39.1037 19.3536C39.8388 19.3536 40.4347 18.7563 40.434 18.0208L40.4327 11.9107L40.4321 9.24592L40.4308 3.13582C40.4308 2.40039 39.8349 1.80371 39.0998 1.80371Z" fill="#F41E1E"/>
<path d="M35.3186 4.95703C34.5835 4.95703 33.9876 5.55436 33.9883 6.28979L33.9902 14.8707C33.9902 15.6067 34.5868 16.2034 35.3212 16.2028C36.0563 16.2028 36.6521 15.6054 36.6515 14.87L36.6508 11.9088L36.6502 9.24973L36.6495 6.28848C36.6495 5.55371 36.0537 4.95703 35.3186 4.95703Z" fill="#F41E1E"/>
<path d="M28.3164 49.9997V18.333H34.9376V49.9997H28.3164Z" fill="white"/>
<path d="M0 49.9997V18.333H22.2178V23.4961H6.62121V31.6094H20.4031V36.7233H6.62121V49.9997H0Z" fill="white"/>
</g>
</g>
</g>
</g>
<defs>
<clipPath id="clip0_399_17556">
<rect width="175" height="50" fill="white"/>
</clipPath>
</defs>
</svg>
