<svg width="51" height="51" viewBox="0 0 51 51" fill="none" xmlns="http://www.w3.org/2000/svg">
<mask id="mask0_307_16667" style="mask-type:luminance" maskUnits="userSpaceOnUse" x="0" y="0" width="51" height="51">
<path d="M50.1992 0.775391H0.199219V50.7754H50.1992V0.775391Z" fill="white"/>
</mask>
<g mask="url(#mask0_307_16667)">
<path d="M11.2803 30.9912L9.53984 37.4885L3.17861 37.6231C1.27754 34.097 0.199219 30.0627 0.199219 25.7756C0.199219 21.63 1.20742 17.7206 2.99453 14.2783H2.9959L8.65918 15.3166L11.14 20.9459C10.6208 22.4597 10.3378 24.0847 10.3378 25.7756C10.338 27.6108 10.6704 29.3691 11.2803 30.9912Z" fill="#FBBB00"/>
<path d="M49.7636 21.1055C50.0507 22.6178 50.2004 24.1796 50.2004 25.7758C50.2004 27.5656 50.0122 29.3115 49.6537 30.9956C48.4367 36.7264 45.2567 41.7305 40.8515 45.2717L40.8502 45.2703L33.717 44.9064L32.7074 38.6041C35.6305 36.8899 37.9148 34.2071 39.1181 30.9956H25.75V21.1055H39.3132H49.7636Z" fill="#518EF8"/>
<path d="M40.85 45.27L40.8514 45.2714C36.5671 48.715 31.1247 50.7755 25.2003 50.7755C15.6797 50.7755 7.40224 45.4541 3.17969 37.6231L11.2814 30.9912C13.3926 36.6258 18.8281 40.6368 25.2003 40.6368C27.9393 40.6368 30.5053 39.8964 32.7072 38.6038L40.85 45.27Z" fill="#28B446"/>
<path d="M41.1543 6.53086L33.0554 13.1613C30.7766 11.7369 28.0828 10.9141 25.1969 10.9141C18.6804 10.9141 13.1433 15.1091 11.1378 20.9457L2.99356 14.2781H2.99219C7.15293 6.25615 15.5348 0.775391 25.1969 0.775391C31.2628 0.775391 36.8246 2.93613 41.1543 6.53086Z" fill="#F14336"/>
</g>
</svg>
