<svg xmlns="http://www.w3.org/2000/svg" version="1.1" xmlns:xlink="http://www.w3.org/1999/xlink" width="512" height="512" x="0" y="0" viewBox="0 0 64 64" style="enable-background:new 0 0 512 512" xml:space="preserve" class=""><g><g fill-rule="evenodd"><path fill="#2864b4" d="M48 64H16A16 16 0 0 1 0 48V16A16 16 0 0 1 16 0h32a16 16 0 0 1 16 16v32a16 16 0 0 1-16 16" opacity="1" data-original="#2864b4"></path><path fill="#417dcd" d="M30 18h18A9 9 0 0 0 48.92.046C48.614.029 48.311 0 48 0H16A16 16 0 0 0 0 16v32a30 30 0 0 1 30-30" opacity="1" data-original="#417dcd" class=""></path><path fill="#0f4b9b" d="M48 32a16 16 0 1 0 16 16V16a16 16 0 0 1-16 16" opacity="1" data-original="#0f4b9b"></path></g><rect width="8" height="27" x="12" y="25" fill="#ffffff" rx="2" opacity="1" data-original="#ffffff"></rect><circle cx="16" cy="16" r="5" fill="#ffffff" opacity="1" data-original="#ffffff"></circle><path fill="#ffffff" fill-rule="evenodd" d="M34 28.64A9.216 9.216 0 0 1 42 24c5.087 0 10 3 10 11v15a2 2 0 0 1-2 2h-4a2 2 0 0 1-2-2V36a5 5 0 0 0-10 0v14a2 2 0 0 1-2 2h-4a2 2 0 0 1-2-2V27a2 2 0 0 1 2-2h4a2 2 0 0 1 2 2z" opacity="1" data-original="#ffffff"></path></g></svg>