<svg width="72" height="83" viewBox="0 0 72 83" fill="none" xmlns="http://www.w3.org/2000/svg">
<g clip-path="url(#clip0_999_235445)">
<g clip-path="url(#clip1_999_235445)">
<g clip-path="url(#clip2_999_235445)">
<path d="M8.21739 -0.00390625L9.96057 6.47031L16.4348 8.21348L9.96057 9.95667L8.21739 16.4309L6.47422 9.95667L0 8.21348L6.47422 6.47031L8.21739 -0.00390625Z" fill="white" fill-opacity="0.3"/>
<path fill-rule="evenodd" clip-rule="evenodd" d="M54.7945 30.1352L50.6836 14.8672L46.5727 30.1352L31.3047 34.2461L46.5727 38.357L50.6836 53.6249L51.3916 50.9952L51.5937 51.7458L52.2175 51.5779L51.7261 49.7529L54.7945 38.357L66.1904 35.2886L68.0154 35.78L68.1833 35.1562L67.4327 34.9541L70.0624 34.2461L54.7945 30.1352ZM67.4327 34.9541L65.6387 34.4711L65.4707 35.0948L66.1904 35.2886L67.4327 34.9541ZM51.7261 49.7529L51.5323 49.0332L50.9086 49.2012L51.3916 50.9952L51.7261 49.7529ZM52.964 18.0774L52.9466 18.0821L52.9027 18.2453L52.6215 18.1696L52.3403 18.2453L52.2964 18.0821L52.2789 18.0774L52.6215 16.8051L52.964 18.0774ZM53.6492 20.6221L54.3344 23.1668L53.7105 23.3347L53.0254 20.79L53.6492 20.6221ZM55.0195 25.7114L55.7046 28.2561L55.0809 28.424L54.3957 25.8794L55.0195 25.7114ZM56.3898 30.8007L56.7323 32.0731L58.0046 32.4156L57.8368 33.0394L56.2053 32.6002L55.766 30.9687L56.3898 30.8007ZM60.5494 33.1008L63.094 33.786L62.9261 34.4097L60.3814 33.7245L60.5494 33.1008ZM70.7233 35.8589L70.728 35.8414L72.0003 36.184L70.728 36.5265L70.7233 36.5091L70.56 36.4652L70.6358 36.184L70.56 35.9028L70.7233 35.8589ZM68.1833 37.2117L65.6387 37.8969L65.4707 37.273L68.0154 36.5879L68.1833 37.2117ZM63.094 38.582L60.5494 39.2671L60.3814 38.6434L62.9261 37.9582L63.094 38.582ZM58.0046 39.9523L56.7323 40.2948L56.3898 41.5671L55.766 41.3993L56.2053 39.7678L57.8368 39.3285L58.0046 39.9523ZM55.7046 44.1119L55.0195 46.6565L54.3957 46.4886L55.0809 43.9439L55.7046 44.1119ZM54.3344 49.2012L53.6492 51.7458L53.0254 51.5779L53.7105 49.0332L54.3344 49.2012ZM52.9466 54.2858L52.964 54.2905L52.6215 55.5628L52.2789 54.2905L52.2964 54.2858L52.3403 54.1225L52.6215 54.1983L52.9027 54.1225L52.9466 54.2858ZM50.2235 46.6565L49.5383 44.1119L50.162 43.9439L50.8472 46.4886L50.2235 46.6565ZM48.8531 41.5671L48.5106 40.2948L47.2382 39.9523L47.4062 39.3285L49.0377 39.7678L49.4769 41.3993L48.8531 41.5671ZM44.6936 39.2671L42.1489 38.582L42.3169 37.9582L44.8615 38.6434L44.6936 39.2671ZM39.6043 37.8969L37.0596 37.2117L37.2275 36.5879L39.7722 37.273L39.6043 37.8969ZM34.5196 36.5091L34.5149 36.5265L33.2426 36.184L34.5149 35.8414L34.5196 35.8589L34.6828 35.9028L34.6071 36.184L34.6828 36.4652L34.5196 36.5091ZM37.0596 35.1562L39.6043 34.4711L39.7722 35.0948L37.2275 35.78L37.0596 35.1562ZM42.1489 33.786L44.6936 33.1008L44.8615 33.7245L42.3169 34.4097L42.1489 33.786ZM47.2382 32.4156L48.5106 32.0731L48.8531 30.8007L49.4769 30.9687L49.0377 32.6002L47.4062 33.0394L47.2382 32.4156ZM49.5383 28.2561L50.2235 25.7114L50.8472 25.8794L50.162 28.424L49.5383 28.2561ZM50.9086 23.1668L51.5937 20.6221L52.2175 20.79L51.5323 23.3347L50.9086 23.1668Z" fill="white" fill-opacity="0.3"/>
<path d="M22.8583 69.9053L26.4213 70.8981C26.3633 71.1063 26.4852 71.3231 26.6934 71.3811L27.4989 71.6058L26.6934 71.8305C26.4852 71.8886 26.3633 72.1046 26.4213 72.3128L22.8583 73.3056C22.7999 73.0979 22.5847 72.9763 22.3768 73.0343L20.2193 73.6365L20.0022 73.6969L19.9457 73.9147L19.3641 76.1494C19.3098 76.3582 19.4352 76.5716 19.6438 76.6263L18.6793 80.3397C18.4964 80.292 18.3102 80.382 18.2299 80.5456L18.2024 80.6207L17.9999 81.3986L17.7973 80.6207L17.7698 80.5456C17.6895 80.382 17.5026 80.292 17.3197 80.3397L16.3551 76.6263C16.5642 76.5719 16.69 76.3585 16.6356 76.1494L16.0541 73.9147L15.9975 73.6969L15.7805 73.6365L13.6229 73.0343L13.5441 73.0205C13.363 73.008 13.1916 73.1239 13.1406 73.3056L9.57765 72.3128C9.63572 72.1046 9.5145 71.8886 9.30632 71.8305L8.5 71.6058L9.30632 71.3811C9.5145 71.3231 9.63643 71.1071 9.57843 70.8989L9.57765 70.8981L13.1406 69.9053C13.1914 70.0873 13.3627 70.2037 13.5441 70.1912L13.6229 70.1774L15.7805 69.5752L15.9975 69.5148L16.0541 69.297L16.6356 67.0622C16.6833 66.8792 16.5928 66.6922 16.4293 66.6121L16.3551 66.5846L17.3197 62.8711L17.3204 62.8718C17.5296 62.9262 17.7429 62.8005 17.7973 62.5913L17.9999 61.8125L18.2024 62.5913C18.2568 62.8005 18.4701 62.9262 18.6793 62.8718L19.6438 66.5846H19.6446C19.4354 66.639 19.3097 66.8531 19.3641 67.0622L19.9457 69.297L20.0022 69.5148L20.2193 69.5752L22.3768 70.1774C22.5849 70.2355 22.8002 70.1135 22.8583 69.9053Z" fill="white" fill-opacity="0.3" stroke="white" stroke-width="0.782609" stroke-linecap="round" stroke-dasharray="3.13 3.13"/>
</g>
</g>
</g>
<defs>
<clipPath id="clip0_999_235445">
<rect width="72" height="82.95" fill="white"/>
</clipPath>
<clipPath id="clip1_999_235445">
<rect width="72" height="82.95" fill="white"/>
</clipPath>
<clipPath id="clip2_999_235445">
<rect width="72" height="82.9565" fill="white" transform="translate(0 -0.00390625)"/>
</clipPath>
</defs>
</svg>
