<svg width="60" height="60" viewBox="0 0 60 60" fill="none" xmlns="http://www.w3.org/2000/svg">
<g clip-path="url(#clip0_332_18950)">
<mask id="mask0_332_18950" style="mask-type:luminance" maskUnits="userSpaceOnUse" x="0" y="0" width="60" height="60">
<path d="M60 0H0V60H60V0Z" fill="white"/>
</mask>
<g mask="url(#mask0_332_18950)">
<mask id="mask1_332_18950" style="mask-type:luminance" maskUnits="userSpaceOnUse" x="0" y="0" width="60" height="60">
<path d="M60 0H0V60H60V0Z" fill="white"/>
</mask>
<g mask="url(#mask1_332_18950)">
<mask id="mask2_332_18950" style="mask-type:luminance" maskUnits="userSpaceOnUse" x="0" y="0" width="60" height="60">
<path d="M60 0H0V60H60V0Z" fill="white"/>
</mask>
<g mask="url(#mask2_332_18950)">
<mask id="mask3_332_18950" style="mask-type:luminance" maskUnits="userSpaceOnUse" x="0" y="0" width="60" height="60">
<path d="M60 0H0V60H60V0Z" fill="white"/>
</mask>
<g mask="url(#mask3_332_18950)">
<path opacity="0.974" fill-rule="evenodd" clip-rule="evenodd" d="M13.2996 -0.0585938C14.0417 -0.0585938 14.784 -0.0585938 15.5261 -0.0585938C18.4447 0.853384 19.7923 2.84557 19.5691 5.91797C18.9549 8.68088 17.2361 10.1262 14.4129 10.2539C11.5369 10.1125 9.81813 8.62808 9.25653 5.80078C9.11245 2.80286 10.4601 0.849744 13.2996 -0.0585938Z" fill="#FF7300"/>
<path opacity="0.975" fill-rule="evenodd" clip-rule="evenodd" d="M40.4882 -0.0585938C41.2304 -0.0585938 41.9726 -0.0585938 42.7148 -0.0585938C45.7242 0.904664 47.0718 2.97498 46.7578 6.15234C45.6757 9.43808 43.4297 10.7466 40.0195 10.0782C37.7559 9.19928 36.545 7.53915 36.3867 5.09766C36.5859 2.42678 37.9531 0.708028 40.4882 -0.0585938Z" fill="#FF7300"/>
<path opacity="0.89" fill-rule="evenodd" clip-rule="evenodd" d="M22.0908 2.87126C22.4336 2.86654 22.746 2.96421 23.0283 3.16422C23.5667 3.75109 23.7815 4.43469 23.6728 5.21501C23.2309 5.71752 22.7036 5.81517 22.0908 5.50798C21.7924 5.08727 21.5385 4.63805 21.3291 4.16032C21.2257 3.50867 21.4797 3.07898 22.0908 2.87126Z" fill="#FF7300"/>
<path opacity="0.894" fill-rule="evenodd" clip-rule="evenodd" d="M26.7757 3.57422C27.7728 3.61323 28.1439 4.12104 27.889 5.09766C27.5139 5.51208 27.1037 5.88318 26.6585 6.21094C25.578 6.38052 25.1288 5.93131 25.3108 4.86328C25.7255 4.33622 26.2138 3.90653 26.7757 3.57422Z" fill="#FF7300"/>
<path opacity="0.922" fill-rule="evenodd" clip-rule="evenodd" d="M21.9735 7.44099C23.1538 7.32589 24.2474 7.57979 25.2548 8.20274C25.533 8.44162 25.7674 8.71506 25.9579 9.02306C29.461 9.54018 32.957 10.0675 36.4462 10.6051C36.5942 10.3359 36.8091 10.2383 37.0907 10.3121C37.5595 10.6636 38.0282 11.0152 38.497 11.3667C38.2236 11.7183 37.9501 12.0699 37.6766 12.4215C37.399 12.5429 37.106 12.6015 36.7978 12.5972C32.8673 12.0637 28.9415 11.4972 25.0204 10.898C24.6362 10.5138 24.2454 10.1231 23.8486 9.72618C23.5173 9.53594 23.1657 9.39922 22.7938 9.31602C22.6476 9.3793 22.5109 9.45746 22.3837 9.55034C22.0213 10.5501 21.943 11.5658 22.1494 12.5972C22.2079 12.812 22.3447 12.9488 22.5595 13.0074C23.4493 12.873 24.3478 12.8339 25.2548 12.8902C28.6184 13.9529 31.9778 15.027 35.333 16.1129C35.4622 15.13 36.0091 14.759 36.9735 14.9996C37.422 15.3872 37.5588 15.8755 37.3837 16.4644C37.065 16.959 36.6549 17.3497 36.1532 17.6363C35.1616 17.3709 34.185 17.0583 33.2235 16.6988C32.4934 15.4161 31.3998 14.9279 29.9423 15.2339C29.4378 15.4763 28.9495 15.7301 28.4774 15.9957C27.2835 15.6337 26.0922 15.2627 24.9032 14.8824C24.2143 14.8479 23.5307 14.9065 22.8525 15.0582C21.4857 15.0187 20.5874 14.3546 20.1571 13.066C19.906 11.503 20.0622 9.97954 20.6259 8.4957C20.9989 8.0225 21.4481 7.67094 21.9735 7.44099Z" fill="#FF7300"/>
<path opacity="0.937" fill-rule="evenodd" clip-rule="evenodd" d="M55.7227 59.9415C55.1758 59.9415 54.629 59.9415 54.082 59.9415C53.4611 59.6388 52.9339 59.2092 52.5 58.6524C49.0294 53.9708 45.5138 49.3223 41.9531 44.7071C41.0372 41.0848 40.1583 37.452 39.3164 33.8086C38.6951 33.6724 38.07 33.6529 37.4414 33.75C36.2446 35.2647 35.0335 36.7685 33.8086 38.2617C33.6285 37.5023 33.3941 36.7601 33.1055 36.0352C33.8407 35.006 34.6024 33.9903 35.3907 32.9884C35.4102 31.2292 35.4688 29.4714 35.5664 27.7149C36.1692 27.9613 36.7747 28.1957 37.3828 28.418C37.4414 29.5501 37.4609 30.683 37.4414 31.8164C41.1524 31.8164 44.8632 31.8164 48.5743 31.8164C48.5938 25.4882 48.5743 19.16 48.5156 12.832C48.0439 11.5399 47.126 10.8172 45.7617 10.6641C46.371 10.1717 46.9374 9.64435 47.4609 9.08203C48.9047 9.58835 49.8813 10.5649 50.3907 12.0117C50.545 18.4908 50.623 24.9752 50.625 31.4649C50.7603 35.2548 50.9164 39.0439 51.0938 42.832C53.1734 46.718 55.2827 50.5852 57.4219 54.4336C58.7811 56.9209 58.2147 58.7569 55.7227 59.9415ZM41.4258 33.6915C43.8477 33.6915 46.2695 33.6915 48.6914 33.6915C48.8311 36.8938 48.9679 40.0969 49.1015 43.3008C51.4045 47.594 53.7092 51.8909 56.0156 56.1915C56.3624 57.4688 55.8742 58.0351 54.5508 57.8907C50.9517 53.134 47.3385 48.388 43.7109 43.6524C42.8967 40.3427 42.135 37.0224 41.4258 33.6915Z" fill="#FF7300"/>
<path opacity="0.925" fill-rule="evenodd" clip-rule="evenodd" d="M10.1363 10.7227C10.8923 11.1199 11.6735 11.4911 12.4801 11.8359C11.5042 12.1763 10.8206 12.8208 10.4293 13.7695C8.98399 18.3008 7.53865 22.832 6.09333 27.3633C6.01521 27.5977 6.01521 27.832 6.09333 28.0664C6.42537 28.5547 6.83552 28.9649 7.32381 29.2969C9.90191 31.25 12.4801 33.2031 15.0582 35.1563C15.2926 35.7812 15.527 36.4063 15.7613 37.0313C16.2415 37.3695 16.7494 37.4085 17.2847 37.1484C17.9232 36.3991 18.4895 35.5983 18.984 34.7461C19.0073 33.4652 18.3823 32.9965 17.109 33.3399C16.9183 33.3252 16.7426 33.2666 16.5816 33.1641C14.687 31.3477 12.7926 29.5313 10.898 27.7149C10.5645 27.3003 10.4473 26.8315 10.5465 26.3086C11.1875 24.5027 11.8516 22.7058 12.5386 20.918C13.1764 20.2805 13.7623 20.3195 14.2965 21.0351C14.3746 21.3086 14.3746 21.5821 14.2965 21.8555C13.7887 23.2617 13.2808 24.668 12.773 26.0743C12.6949 26.2696 12.6949 26.4648 12.773 26.6602C14.2803 28.2066 15.8233 29.7106 17.4019 31.1719C19.9494 31.258 21.1408 32.5667 20.9762 35.0977C20.4147 36.5119 19.575 37.7423 18.4566 38.7891C17.036 39.5498 15.6687 39.4716 14.355 38.5547C13.8321 37.9188 13.4805 37.1962 13.3004 36.3867C10.4126 34.1826 7.54143 31.956 4.68709 29.7071C4.05393 28.7675 3.89769 27.7519 4.21833 26.6602C5.72676 21.7443 7.32833 16.8615 9.02303 12.0117C9.37487 11.5625 9.74599 11.1327 10.1363 10.7227Z" fill="#FF7300"/>
<path opacity="0.907" fill-rule="evenodd" clip-rule="evenodd" d="M24.082 16.582C24.2383 16.582 24.3946 16.582 24.5508 16.582C24.8146 17.813 25.088 19.0435 25.3711 20.2735C24.9813 21.0555 24.493 21.7782 23.9063 22.4415C23.3849 20.5902 22.9357 18.7152 22.5586 16.8164C23.0976 16.8422 23.6055 16.7642 24.082 16.582Z" fill="#FF7300"/>
<path opacity="0.962" fill-rule="evenodd" clip-rule="evenodd" d="M30.1738 16.8169C30.7639 16.6999 31.2522 16.8561 31.6387 17.2856C32.1734 20.4177 31.7047 23.3866 30.2325 26.1918C29.0862 27.8458 27.8949 29.467 26.6582 31.0551C25.8401 31.5896 25.0198 31.5896 24.1973 31.0551C23.8364 30.7868 23.4653 30.5328 23.084 30.2934C22.7925 30.564 22.5582 30.8765 22.3809 31.2309C22.2505 31.4453 22.0747 31.5429 21.8536 31.5239C21.502 31.0161 21.0722 30.5864 20.5645 30.2348C23.7543 25.7484 26.9575 21.2757 30.1738 16.8169Z" fill="#FF7300"/>
<path opacity="0.917" fill-rule="evenodd" clip-rule="evenodd" d="M39.1973 17.1677C40.276 17.1332 40.6862 17.6411 40.4278 18.6911C39.5488 19.6481 38.6699 20.6051 37.791 21.5621C37.3369 21.7403 36.8682 21.7794 36.3848 21.6793C35.494 21.4129 34.6151 21.12 33.7481 20.8005C33.6699 20.0973 33.6699 19.3942 33.7481 18.6911C34.7712 19.0191 35.7867 19.3706 36.795 19.7457C37.5715 18.8505 38.3722 17.9911 39.1973 17.1677Z" fill="#FF7300"/>
<path opacity="0.921" fill-rule="evenodd" clip-rule="evenodd" d="M45.1758 18.8086C46.1709 18.8426 46.542 19.3505 46.2891 20.332C44.3165 22.2267 42.3437 24.1211 40.3711 26.0156C39.5255 26.6183 38.588 26.8135 37.5586 26.6016C35.9473 26.0652 34.3849 25.4403 32.8711 24.7266C33.0399 24.1096 33.2351 23.5041 33.4571 22.9102C34.9285 23.5092 36.4129 24.0755 37.9102 24.6094C38.2227 24.6876 38.5352 24.6876 38.8477 24.6094C40.4493 23.086 42.0508 21.5625 43.6524 20.0391C44.1509 19.5972 44.6588 19.187 45.1758 18.8086Z" fill="#FF7300"/>
<path opacity="0.927" fill-rule="evenodd" clip-rule="evenodd" d="M32.9883 59.9415C32.4414 59.9415 31.8946 59.9415 31.3477 59.9415C30.5657 59.6904 29.9212 59.2217 29.4141 58.5352C27.5322 53.7488 25.6962 48.9441 23.9063 44.1212C23.29 43.5836 22.7626 42.9782 22.3242 42.3048C22.4769 41.5952 22.6917 40.9116 22.9688 40.254C23.9099 41.156 24.8084 42.0934 25.6641 43.0664C27.4675 47.8841 29.3035 52.6888 31.1719 57.4805C32.0033 58.233 32.7844 58.1549 33.5157 57.2461C33.5938 56.8556 33.5938 56.4648 33.5157 56.0743C32.3048 50.1367 31.0937 44.1993 29.8829 38.2617C28.6967 36.5355 27.4662 34.8363 26.1914 33.1641C26.8101 32.9329 27.396 32.64 27.9493 32.2852C29.2826 33.9122 30.5522 35.5919 31.7578 37.3243C33.0666 43.7897 34.3751 50.2545 35.6837 56.7188C35.4395 58.3488 34.541 59.4232 32.9883 59.9415Z" fill="#FF7300"/>
<path opacity="0.923" fill-rule="evenodd" clip-rule="evenodd" d="M5.91802 59.9414C5.33208 59.9414 4.74614 59.9414 4.16021 59.9414C2.23613 59.1997 1.47441 57.7934 1.87506 55.7226C2.00567 55.227 2.20098 54.7583 2.46099 54.3164C4.96098 50.4101 7.46099 46.5038 9.96097 42.5977C10.1503 40.5655 10.3457 38.5343 10.5469 36.5039C10.9676 36.8021 11.3778 37.1147 11.7774 37.4414C11.9054 37.9048 12.1008 38.3344 12.3634 38.7305C12.2059 40.2098 12.0692 41.6942 11.9532 43.1836C9.28713 47.4612 6.59184 51.719 3.86724 55.957C3.52554 57.0706 3.91617 57.7737 5.03911 58.0664C5.5179 57.9831 5.90853 57.7487 6.21099 57.3633C10.2735 52.3633 14.3359 47.3633 18.3985 42.3633C18.5926 41.782 18.7683 41.1961 18.9259 40.6054C19.9912 39.8528 20.8506 38.9153 21.5039 37.7929C21.5821 37.6367 21.6602 37.6367 21.7383 37.7929C21.271 39.4669 20.8218 41.1466 20.3906 42.832C20.2251 43.2025 20.0298 43.554 19.8047 43.8867C15.7032 48.9257 11.6016 53.9649 7.50006 59.0039C7.00915 59.4013 6.48181 59.7138 5.91802 59.9414Z" fill="#FF7300"/>
<path opacity="0.903" fill-rule="evenodd" clip-rule="evenodd" d="M38.9668 40.7227C39.094 40.7367 39.1722 40.8149 39.2012 40.9571C39.3427 41.5868 39.4989 42.2119 39.6699 42.832C39.0888 43.3543 38.5223 43.9013 37.9707 44.4727C37.2973 45.7805 36.5942 47.0695 35.8613 48.3399C35.5309 47.3523 35.3357 46.3367 35.2754 45.293C35.636 44.5323 36.0268 43.79 36.4472 43.0664C37.3102 42.3008 38.15 41.5195 38.9668 40.7227Z" fill="#FF7300"/>
</g>
</g>
</g>
</g>
</g>
<defs>
<clipPath id="clip0_332_18950">
<rect width="60" height="60" fill="white"/>
</clipPath>
</defs>
</svg>
