<svg width="60" height="60" viewBox="0 0 60 60" fill="none" xmlns="http://www.w3.org/2000/svg">
<g clip-path="url(#clip0_332_18982)">
<mask id="mask0_332_18982" style="mask-type:luminance" maskUnits="userSpaceOnUse" x="0" y="0" width="60" height="60">
<path d="M60 0H0V60H60V0Z" fill="white"/>
</mask>
<g mask="url(#mask0_332_18982)">
<mask id="mask1_332_18982" style="mask-type:luminance" maskUnits="userSpaceOnUse" x="0" y="0" width="60" height="60">
<path d="M60 0H0V60H60V0Z" fill="white"/>
</mask>
<g mask="url(#mask1_332_18982)">
<path opacity="0.926" fill-rule="evenodd" clip-rule="evenodd" d="M40.8745 3.69153C44.5174 3.67036 48.16 3.69153 51.8026 3.75507C52.3357 4.13388 52.4416 4.62097 52.1202 5.21637C52.0249 5.2959 51.919 5.35943 51.8026 5.40698C50.4478 5.47049 49.0924 5.49167 47.7363 5.47051C48.8425 8.23419 49.9861 10.9874 51.1672 13.73C53.4951 15.0641 54.9141 17.0549 55.424 19.7024C55.5088 29.1903 55.5088 38.6781 55.424 48.1661C54.2797 52.8655 51.2722 55.1952 46.4021 55.1549C42.4926 55.306 39.6547 53.6541 37.8883 50.1992C37.5568 49.3816 37.3451 48.5345 37.253 47.6578C37.2107 42.2785 37.1683 36.8991 37.126 31.5199C35.2678 32.0454 33.6371 31.643 32.2337 30.3127C28.5078 30.3791 24.7804 30.5063 21.0516 30.6939C20.7226 30.846 20.3837 30.9731 20.035 31.0751C20.5527 32.3756 21.167 33.6251 21.8775 34.8237C22.176 34.5038 22.4937 34.2074 22.8305 33.9342C23.7668 31.2131 25.5882 30.3872 28.2946 31.4564C29.7607 32.4269 30.2479 33.7611 29.7559 35.459C29.4846 36.4911 28.8704 37.2323 27.9134 37.6828C27.4124 37.7736 26.9464 37.943 26.5156 38.1911C25.2872 39.2499 24.059 40.3089 22.8305 41.3678C22.0799 41.8844 21.2751 42.0114 20.4162 41.749C19.1256 41.1247 17.9395 40.3412 16.8583 39.3982C16.35 40.3301 15.8417 41.2619 15.3334 42.1937C17.577 44.3313 19.8431 46.4492 22.1317 48.5473C23.1733 51.1637 24.0628 53.8321 24.8002 56.5527C25.4662 59.4462 24.3014 60.7805 21.3057 60.5554C20.409 60.0572 19.7948 59.3159 19.4632 58.3316C18.0763 56.363 16.7209 54.3722 15.397 52.3594C14.2533 51.5546 13.1097 50.7498 11.9661 49.9451C10.473 52.3808 8.94817 54.7952 7.39154 57.188C6.52099 58.3549 5.52562 59.3926 4.4054 60.3013C3.40545 60.6691 2.38889 60.7115 1.35571 60.4283C0.152736 59.6163 -0.249657 58.4939 0.148543 57.061C1.17568 54.0326 2.57345 51.1946 4.34186 48.5473C4.73509 46.2005 4.79862 43.8497 4.53246 41.4949C4.52358 40.8194 4.62947 40.1628 4.85014 39.5253C6.05772 36.0935 7.66725 32.8745 9.67882 29.8679C10.6445 28.5199 11.8729 27.5033 13.3638 26.8183C13.098 24.1097 14.1781 22.1401 16.6041 20.9095C19.4403 19.9604 21.7063 20.7017 23.4024 23.1332C23.7121 23.7665 23.9452 24.423 24.1012 25.1028C27.7237 25.1981 31.3451 25.1769 34.9657 25.0393C35.722 24.9893 36.4421 25.1165 37.126 25.4205C37.1683 23.6838 37.2107 21.9473 37.253 20.2106C37.6462 17.3477 39.0864 15.1876 41.5734 13.73C42.7032 11.0045 43.868 8.29367 45.0678 5.59758C43.672 5.49181 42.2742 5.42828 40.8745 5.40698C40.2157 4.83796 40.2157 4.26615 40.8745 3.69153ZM46.3385 7.2495C47.1402 9.10037 47.9449 10.964 48.7528 12.8405C48.7105 12.8829 48.6681 12.9254 48.6258 12.9677C47.0545 12.8222 45.4873 12.8011 43.9242 12.9041C44.7819 11.0405 45.5868 9.15564 46.3385 7.2495ZM44.9408 14.6195C47.732 14.2019 50.1251 14.9643 52.1202 16.9068C53.0347 18.0612 53.5641 19.3742 53.7086 20.846C48.8376 20.846 43.9665 20.846 39.0955 20.846C39.562 17.3724 41.5104 15.2969 44.9408 14.6195ZM18.0019 22.3709C20.9663 22.3065 22.343 23.7467 22.1317 26.6912C21.4696 28.6647 20.0931 29.5331 18.0019 29.2961C16.0328 28.6826 15.1221 27.3484 15.2699 25.2935C15.6407 23.8006 16.5514 22.8264 18.0019 22.3709ZM39.0955 22.752C43.9665 22.752 48.8376 22.752 53.7086 22.752C53.7086 30.2492 53.7086 37.7463 53.7086 45.2435C48.8376 45.2435 43.9665 45.2435 39.0955 45.2435C39.0955 37.7463 39.0955 30.2492 39.0955 22.752ZM32.2337 26.9453C33.5052 26.9243 34.7759 26.9453 36.0458 27.0089C36.9656 27.5192 37.3257 28.3028 37.126 29.3597C36.9253 29.5555 36.6923 29.7038 36.4271 29.8044C35.079 30.0198 33.9778 29.5963 33.1232 28.5338C30.1774 28.4747 27.2335 28.5383 24.2919 28.7243C23.9742 28.682 23.6565 28.6396 23.3389 28.5973C23.6235 28.1678 23.8353 27.7019 23.9742 27.1995C26.7481 27.1148 29.5012 27.0301 32.2337 26.9453ZM13.9357 28.5973C14.7965 29.7923 15.94 30.6183 17.3665 31.0751C17.6173 31.1381 17.8714 31.1593 18.129 31.1387C18.6867 32.833 19.4278 34.4425 20.3527 35.9673C20.924 36.7732 21.6652 37.0061 22.5764 36.6662C23.127 36.2003 23.6777 35.7344 24.2283 35.2685C24.5275 34.7749 24.7605 34.2454 24.9272 33.68C25.4969 32.9114 26.2381 32.6783 27.151 32.9812C27.9652 33.4034 28.2406 34.0599 27.9769 34.9508C27.8449 35.2361 27.6966 35.5115 27.5321 35.7767C26.9391 35.9885 26.3462 36.2003 25.7532 36.4121C24.3131 37.598 22.8729 38.7841 21.4327 39.9701C21.0619 40.0402 20.7229 39.9554 20.4162 39.7159C19.2691 38.9303 18.1678 38.0831 17.1124 37.1745C16.7312 36.9203 16.35 36.9203 15.9688 37.1745C14.9539 38.8866 14.0219 40.6444 13.1732 42.4479C13.243 42.9632 13.4972 43.3656 13.9357 43.655C16.1714 45.6945 18.3952 47.7489 20.6068 49.8179C21.5575 52.2275 22.3623 54.6842 23.0212 57.188C23.1259 57.6178 23.1047 58.0415 22.9577 58.4588C22.6327 58.574 22.3151 58.7011 22.0046 58.8399C20.3104 56.2985 18.6161 53.7572 16.9218 51.2157C14.33 49.295 11.6827 47.4524 8.9799 45.6882C7.866 44.8284 7.04006 43.7483 6.50205 42.4479C6.24791 41.8126 6.24791 41.1772 6.50205 40.5419C7.69545 36.9266 9.3897 33.5804 11.5849 30.5033C12.2482 29.6891 13.0317 29.0537 13.9357 28.5973ZM6.43851 46.0058C7.50817 46.9478 8.65185 47.795 9.8694 48.5473C10.0158 48.8784 10.0369 49.2173 9.93293 49.5638C8.47365 52.1654 6.8641 54.6644 5.10428 57.061C4.57481 57.5905 4.04537 58.1198 3.5159 58.6493C2.08824 59.0855 1.60115 58.5983 2.0546 57.188C2.4816 55.865 3.03225 54.5943 3.70651 53.3759C4.58578 51.9141 5.4329 50.4316 6.2479 48.9285C6.3466 47.956 6.41014 46.9819 6.43851 46.0058ZM39.0955 47.0225C43.9665 47.0225 48.8376 47.0225 53.7086 47.0225C53.3917 50.0711 51.7821 52.083 48.8799 53.0582C47.0496 53.3435 45.2283 53.3012 43.4159 52.9312C40.7813 51.8416 39.3412 49.872 39.0955 47.0225Z" fill="#FF7300"/>
<path opacity="0.878" fill-rule="evenodd" clip-rule="evenodd" d="M33.9492 17.6614C34.2409 17.6377 34.5144 17.6962 34.7695 17.8371C35.3214 18.5114 35.7511 19.2535 36.0586 20.0637C35.8739 20.8591 35.4052 21.0935 34.6523 20.7668C34.1272 20.0841 33.6975 19.3419 33.3633 18.5402C33.4036 18.1314 33.5988 17.8384 33.9492 17.6614Z" fill="#FF7300"/>
<path opacity="0.894" fill-rule="evenodd" clip-rule="evenodd" d="M31.0166 20.2375C31.2542 20.2185 31.4885 20.238 31.7197 20.2961C32.7354 20.882 33.7509 21.468 34.7666 22.0539C35.3915 22.5617 35.3915 23.0696 34.7666 23.5773C34.4932 23.6555 34.2197 23.6555 33.9463 23.5773C32.8916 22.9718 31.8369 22.3665 30.7822 21.7609C30.3155 21.1688 30.3938 20.6609 31.0166 20.2375Z" fill="#FF7300"/>
<path opacity="0.893" fill-rule="evenodd" clip-rule="evenodd" d="M33.1295 32.7784C34.0273 32.6803 34.4374 33.0709 34.36 33.9503C33.6043 35.0576 32.8035 36.1318 31.9576 37.173C30.9879 37.414 30.5778 37.0429 30.7272 36.0597C31.5082 34.9474 32.3089 33.8536 33.1295 32.7784Z" fill="#FF7300"/>
<path opacity="0.892" fill-rule="evenodd" clip-rule="evenodd" d="M35.0042 35.0033C35.8056 34.7815 36.2353 35.0744 36.2932 35.8822C36.2225 36.6089 36.1248 37.3315 36.0002 38.0502C35.5624 38.4617 35.0936 38.5007 34.594 38.1674C34.4726 37.8896 34.414 37.5967 34.4182 37.2884C34.4682 36.7211 34.5269 36.1548 34.594 35.5892C34.6757 35.345 34.8124 35.1497 35.0042 35.0033Z" fill="#FF7300"/>
</g>
</g>
</g>
<defs>
<clipPath id="clip0_332_18982">
<rect width="60" height="60" fill="white"/>
</clipPath>
</defs>
</svg>
