<svg width="60" height="60" viewBox="0 0 60 60" fill="none" xmlns="http://www.w3.org/2000/svg">
<g clip-path="url(#clip0_322_16819)">
<g clip-path="url(#clip1_322_16819)">
<g clip-path="url(#clip2_322_16819)">
<mask id="mask0_322_16819" style="mask-type:luminance" maskUnits="userSpaceOnUse" x="0" y="0" width="60" height="60">
<path d="M60 0H0V60H60V0Z" fill="white"/>
</mask>
<g mask="url(#mask0_322_16819)">
<path opacity="0.939" fill-rule="evenodd" clip-rule="evenodd" d="M31.5821 -0.0585938C32.1289 -0.0585938 32.6757 -0.0585938 33.2226 -0.0585938C39.0586 1.81985 45.0351 3.12844 51.1524 3.86719C52.1094 4.19921 52.7539 4.84375 53.086 5.80078C53.619 8.3627 54.244 10.9017 54.961 13.4179C56.3915 17.4753 57.6806 21.5768 58.8281 25.7226C59.3005 27.6736 59.6717 29.6268 59.9414 31.5821C59.9414 33.2226 59.9414 34.8633 59.9414 36.5039C59.5229 39.8689 58.4682 43.0329 56.7774 45.9961C57.3116 48.4132 57.0186 50.7178 55.8985 52.9101C55.2775 53.6868 54.5157 54.2922 53.6133 54.7265C48.489 56.781 43.2156 57.2692 37.7929 56.1914C34.4454 58.401 30.7736 59.651 26.7774 59.9414C25.2539 59.9414 23.7304 59.9414 22.2071 59.9414C18.4726 59.5104 14.9765 58.3385 11.7187 56.4258C8.48496 58.4474 4.98887 59.2091 1.23047 58.711C0.648779 58.3449 0.219092 57.8565 -0.0585938 57.2461C-0.0585938 47.0508 -0.0585938 36.8554 -0.0585938 26.6601C0.2643 25.966 0.772112 25.4386 1.46485 25.0781C5.24675 24.6392 8.74285 25.4399 11.9531 27.4804C15.8293 25.2754 19.9895 24.4357 24.4336 24.961C29.2321 25.4067 33.4508 27.1841 37.0899 30.2929C37.8207 28.7131 38.6996 27.2286 39.7265 25.8399C40.2414 24.8812 40.5929 23.8657 40.7813 22.7929C40.8399 21.1918 40.8594 19.5904 40.8399 17.9883C37.6756 18.0079 34.5115 17.9883 31.3476 17.9297C29.0253 17.1723 28.1072 15.5903 28.5937 13.1836C28.7396 12.775 28.9154 12.3843 29.1211 12.0117C28.3987 10.2545 27.6761 8.49668 26.9531 6.73828C26.7798 5.79129 26.9751 4.9319 27.539 4.16015C28.5693 2.85625 29.6435 1.58671 30.7617 0.351563C31.0459 0.20946 31.3194 0.0727414 31.5821 -0.0585938ZM32.0508 2.05078C32.327 2.03164 32.6004 2.05118 32.8711 2.10937C38.5774 3.88346 44.3976 5.13347 50.3321 5.85937C50.6072 5.89991 50.822 6.03662 50.9765 6.26953C51.5878 9.06618 52.291 11.8396 53.086 14.5899C54.8404 19.4231 56.2856 24.345 57.4219 29.3554C58.7471 36.1242 57.2628 42.1789 52.9687 47.5196C52.7488 48.3544 53.0614 48.8622 53.9063 49.0429C54.2663 48.9801 54.5788 48.8239 54.8437 48.5742C54.902 49.7474 54.6286 50.8412 54.0235 51.8554C52.9442 52.7502 51.7136 53.3557 50.3321 53.6719C46.0526 54.8853 41.7558 54.9633 37.4414 53.9063C35.9429 53.4304 34.5367 52.7663 33.2226 51.914C32.0236 51.9064 31.6525 52.4728 32.1094 53.6133C33.0044 54.3444 34.0006 54.9108 35.0976 55.3125C30.5039 57.6374 25.6601 58.3796 20.5664 57.539C15.7796 56.4542 11.5217 54.3447 7.79297 51.211C6.82722 50.6592 6.20222 50.9132 5.91797 51.9726C5.92699 52.1835 5.98558 52.3789 6.09375 52.5586C7.13299 53.5172 8.24628 54.3767 9.43359 55.1367C7.20788 56.3474 4.82506 56.9139 2.28515 56.836C2.22656 56.7774 2.16797 56.7187 2.10937 56.6601C2.03125 46.8554 2.03125 37.0508 2.10937 27.2461C4.91417 26.8672 7.55089 27.4142 10.0196 28.8867C8.33464 30.3578 7.02604 32.1156 6.09375 34.1601C5.62946 35.1621 5.92243 35.7872 6.97265 36.0351C7.30783 35.9554 7.60081 35.7993 7.85157 35.5664C9.49377 31.62 12.3648 29.0223 16.4649 27.7735C23.2782 25.9799 29.4892 27.1909 35.0976 31.4063C35.5496 31.7696 35.9793 32.1601 36.3867 32.5781C35.7272 35.4568 35.7858 38.3279 36.5625 41.1914C36.8132 41.849 37.1257 42.4742 37.5 43.0664C37.9398 43.726 38.5453 44.0189 39.3164 43.9453C40.0037 43.5944 40.1795 43.0671 39.8437 42.3633C38.9972 41.5688 38.4894 40.5922 38.3203 39.4336C37.6815 36.4339 37.994 33.5432 39.2578 30.7617C39.8994 29.3802 40.6807 28.0911 41.6015 26.8946C42.2654 25.6841 42.6951 24.395 42.8906 23.0274C42.9492 21.309 42.9688 19.5903 42.9492 17.8711C44.5074 17.5436 45.7378 16.7233 46.6406 15.4101C47.1732 14.2871 47.6224 13.1347 47.9883 11.9531C47.9387 11.298 47.5871 10.9269 46.9336 10.8399C46.5978 10.9198 46.3047 11.0761 46.0547 11.3086C45.6478 12.3337 45.2182 13.3494 44.7656 14.3554C44.2897 14.9889 43.6842 15.4381 42.9492 15.7031C39.2049 15.895 35.4549 15.934 31.6992 15.8203C30.5947 15.3113 30.3018 14.5105 30.8203 13.4179C31.0011 13.1979 31.216 13.0221 31.4649 12.8906C34.1558 12.5891 36.8511 12.3157 39.5508 12.0703C41.0524 11.5091 41.6578 10.4349 41.3672 8.84762C41.2293 8.15685 40.9363 7.55137 40.4883 7.03125C39.6074 6.69371 39.0606 6.98668 38.8476 7.91015C39.0487 8.53007 39.1855 9.15503 39.2578 9.78512C38.8571 10.0563 38.4079 10.1735 37.9101 10.1367C37.6454 10.1329 37.3916 10.0939 37.1485 10.0196C36.7272 8.96224 36.1999 7.9661 35.5664 7.03125C34.3923 6.721 33.865 7.17021 33.9844 8.3789C34.3015 9.03265 34.6335 9.67712 34.9804 10.3125C33.6607 10.4466 32.3522 10.6224 31.0547 10.8399C30.3082 9.26841 29.6246 7.66684 29.0039 6.03515C29.9056 4.62394 30.9211 3.29582 32.0508 2.05078Z" fill="#FF7300"/>
<path opacity="0.932" fill-rule="evenodd" clip-rule="evenodd" d="M9.54928 37.9095C9.82545 37.8903 10.0989 37.9098 10.3696 37.968C16.1379 41.9227 22.3489 42.782 29.0024 40.5462C30.3447 40.0117 31.6729 39.4453 32.9868 38.847C33.8656 39.0813 34.1585 39.6282 33.8657 40.4875C32.9113 41.1896 31.8762 41.756 30.7602 42.1868C23.8571 44.8048 17.1774 44.336 10.7211 40.7805C10.1444 40.3846 9.57795 39.9745 9.02198 39.55C8.74136 38.8489 8.91716 38.3021 9.54928 37.9095Z" fill="#FF7300"/>
</g>
</g>
</g>
</g>
<defs>
<clipPath id="clip0_322_16819">
<rect width="60" height="60" fill="white"/>
</clipPath>
<clipPath id="clip1_322_16819">
<rect width="60" height="60" fill="white"/>
</clipPath>
<clipPath id="clip2_322_16819">
<rect width="60" height="60" fill="white"/>
</clipPath>
</defs>
</svg>
