<svg width="830" height="301" viewBox="0 0 830 301" fill="none" xmlns="http://www.w3.org/2000/svg">
<g clip-path="url(#clip0_347_16799)">
<path d="M745.009 300.383C734.991 300.383 724.993 298.928 715.41 295.89C703.411 292.086 691.306 285.407 678.49 278.336C651.969 263.702 624.542 248.573 596.354 258.865C589.083 261.522 582.602 266.197 576.334 270.721C570.252 275.11 563.962 279.649 556.877 282.431C519.19 297.23 469.433 278.545 456.527 270.437L454.478 269.151L456.888 268.955C474.991 267.481 488.101 262.023 500.72 250.705C504.496 247.29 505.195 240.733 502.346 235.453C500 231.109 491.891 221.705 467.289 228.189C459.922 230.14 454.531 233.494 447.708 237.74C445.219 239.287 442.647 240.889 439.715 242.586L434.393 244.711L434.038 244.458C428.74 240.668 427.049 237.26 424.711 232.543C424.098 231.308 423.435 229.97 422.643 228.494C415.363 214.857 420.64 197.535 425.242 185.693L425.441 185.398C427.809 183.17 430.522 177.167 429.457 171.689L429.424 171.518L429.464 171.348C429.857 169.719 430.156 168.277 430.306 167.511C431.735 163.845 431.658 160.405 431.576 156.764C431.48 152.458 431.381 148.003 433.73 143.14C442.929 123.922 443.33 109.014 443.623 98.1278C443.747 93.5115 443.855 89.5275 444.593 86.163C445.666 80.9648 443.592 78.963 438.047 73.6103L436.401 72.0165C430.225 65.937 425.284 61.1535 421.309 57.303C406.85 43.3057 404.993 41.5073 403.278 34.8435C398.926 17.9903 398.046 9.56626 397.623 5.51701C397.31 2.52301 397.246 2.04975 396.586 1.83675C395.889 2.74125 395.839 4.1475 395.787 5.628C395.754 6.54525 395.721 7.491 395.515 8.33475L394.494 12.528L393.939 8.247C393.808 7.2255 393.757 5.88149 393.709 4.58324C393.673 3.63524 393.628 2.41876 393.543 1.73401C392.308 2.07976 392.204 2.76 391.441 7.75275C390.708 12.5393 389.483 20.5463 386.426 34.8308C385.065 41.2035 382.681 43.4272 379.074 46.7932C378.105 47.6962 377.035 48.6945 375.854 49.8945C369.957 55.8128 365.178 60.5565 361.309 64.3965C345.125 80.46 345.125 80.46 345.577 84.6308C345.869 87.4275 346.171 91.4663 346.49 95.7435C347.033 103.006 347.648 111.24 348.359 115.811C350.346 128.715 353.221 134.95 355.532 139.959C357.647 144.546 359.318 148.17 359.105 154.78C359.042 157.233 358.853 164.714 360.269 167.632C360.648 169.213 361.042 170.731 361.416 172.1L361.454 172.237L361.441 172.384C361.079 176.404 362.494 182.553 365.179 185.302L365.374 185.63L367.155 191.494C367.258 192.578 367.709 193.966 368.28 195.721C371.019 204.135 376.716 221.643 358.069 244.869L357.642 245.401L357.048 245.064C345.833 238.689 341.684 236.062 338.939 234.322C337.14 233.183 336.055 232.494 333.98 231.414C320.216 224.262 296.961 220.724 288.362 235.25C282.942 244.384 288.02 250.231 298.623 257.246C311.639 265.83 322.132 267.703 333.881 267.875L341.265 269.146L338.469 270.182C335.761 271.187 332.376 272.877 328.457 274.832C310.475 283.81 280.378 298.833 241.162 285.842C232.972 283.126 224.119 278.697 214.747 274.005C190.079 261.779 162.145 247.809 137.182 261.248C131.575 264.291 126.696 268.677 121.978 272.921C119.737 274.935 117.421 277.016 115.044 278.945C82.662 305.181 31.053 303.908 0 276.104L1.07025 274.906C31.5638 302.208 82.2382 303.46 114.034 277.692C116.38 275.794 118.681 273.725 120.905 271.724C125.693 267.419 130.643 262.968 136.417 259.832C162.14 245.875 190.469 260.057 215.465 272.567C224.783 277.232 233.585 281.638 241.666 284.314C280.251 297.104 309.979 282.259 327.741 273.395C330.544 271.994 333.076 270.731 335.306 269.745L333.732 269.471C321.827 269.308 311.081 267.386 297.74 258.589C288.621 252.555 280.28 245.722 286.982 234.429C295.581 219.9 317.994 221.296 334.72 229.986C336.855 231.101 337.962 231.801 339.796 232.963C342.479 234.663 346.508 237.217 357.245 243.326C374.832 221.047 369.383 204.301 366.754 196.219C366.15 194.362 365.671 192.895 365.587 191.789L363.894 186.283C360.929 183.099 359.488 176.678 359.83 172.385C359.461 171.032 359.076 169.543 358.764 168.161C357.402 165.402 357.388 159.168 357.499 154.733C357.701 148.499 356.179 145.199 354.074 140.633C351.722 135.531 348.795 129.184 346.773 116.057C346.053 111.422 345.435 103.156 344.889 95.8643C344.571 91.5998 344.27 87.5723 343.994 84.9255C343.446 79.8638 343.446 79.8638 360.18 63.2535C364.047 59.4158 368.823 54.6758 374.715 48.7613C375.911 47.547 376.997 46.5337 377.98 45.6172C381.604 42.234 383.601 40.3725 384.856 34.494C387.904 20.2553 389.125 12.2768 389.854 7.50975C390.828 1.14375 390.908 0.621743 393.705 0.0442429L393.912 0L394.301 0.0254974C394.726 0.161247 394.949 0.464999 395.081 1.1895C395.27 0.885749 395.5 0.603015 395.782 0.348015L396.086 0.0697632L396.49 0.157494C398.727 0.641244 398.841 1.73401 399.22 5.35126C399.638 9.36076 400.51 17.7037 404.834 34.4415C406.434 40.6657 407.947 42.1313 422.423 56.148C426.402 60 431.347 64.788 437.524 70.8675L439.16 72.4522C444.83 77.925 447.418 80.4225 446.162 86.4982C445.455 89.7217 445.349 93.6375 445.229 98.1698C444.932 109.201 444.524 124.31 435.176 143.837C432.995 148.355 433.09 152.611 433.182 156.729C433.264 160.37 433.348 164.134 431.84 167.959C431.734 168.576 431.446 169.968 431.066 171.557C432.077 177.154 429.612 183.556 426.675 186.44C422.202 197.983 417.124 214.746 424.057 227.734C424.858 229.225 425.528 230.577 426.148 231.827C428.411 236.391 429.925 239.443 434.617 242.891L439.017 241.143C441.821 239.508 444.383 237.915 446.86 236.371C453.799 232.055 459.279 228.646 466.88 226.635C492.58 219.86 501.231 230.009 503.758 234.689C506.949 240.603 506.105 248.002 501.793 251.9C489.649 262.793 476.524 268.529 459.514 270.323C474.904 278.804 520.996 294.785 556.291 280.934C563.188 278.225 569.395 273.746 575.396 269.417C581.753 264.83 588.325 260.086 595.805 257.354C624.673 246.813 652.427 262.119 679.265 276.927C692.009 283.959 704.046 290.602 715.895 294.358C755.689 306.976 802.773 291.864 827.848 258.443L829.131 259.41C809.698 285.311 777.251 300.383 745.009 300.383Z" fill="white" fill-opacity="0.05"/>
<path d="M378.517 137.764L377.505 137.206C376.588 136.483 375.733 135.694 374.539 134.18L374.413 133.95C373.744 132.061 372.511 130.366 371.084 128.4C368.51 124.855 365.593 120.84 364.825 114.136C363.905 105.494 362.244 99.7581 361.031 95.5686C359.205 89.2648 358.2 85.7916 362.326 80.8153L362.334 80.8048C394.759 42.9028 394.219 33.6411 393.645 23.8348C393.477 20.9458 393.303 17.9601 393.925 14.2131L394.857 8.62109L395.515 14.2506C395.919 17.7088 395.844 32.0878 395.841 32.6968C395.796 39.5803 406.778 53.5633 416.466 65.9008C420.912 71.5596 425.11 76.9063 428.378 81.6463C432.098 86.9683 430.918 91.2876 428.846 96.8061C426.888 101.963 426.283 107.025 425.751 111.49C425.406 114.376 425.082 117.101 424.436 119.507C423.74 122.105 422.375 124.188 420.646 126.826C419.303 128.878 417.779 131.201 416.148 134.388L415.929 134.654C415.029 135.361 413.118 136.672 412.439 137.089L411.577 137.618L411.323 136.854C408.75 135.914 406.971 134.438 406.031 132.462C403.917 128.023 406.286 121.711 408.576 115.609C409.336 113.584 410.122 111.49 410.722 109.519L411.355 107.44L412.226 109.431C412.351 109.72 412.527 109.757 412.585 109.77C412.809 109.805 413.097 109.711 413.324 109.501C413.68 109.19 413.741 109.069 415.512 105.226L416.649 102.765C417.513 100.86 417.576 99.3523 416.828 98.4118C416.148 97.5576 414.956 97.3461 414.33 97.4803L413.242 97.7046L413.372 96.5991C414.563 86.4388 414.411 75.4941 404.245 71.3571C403.941 71.1793 403.764 71.0826 403.587 71.0016L403.125 70.7856L403.122 70.2748C403.093 65.7591 401.403 62.3758 398.364 60.7513C395.823 59.3946 392.736 59.5491 390.305 61.1548C387.468 63.0306 386.052 66.5503 386.421 70.8066L386.47 71.3736L385.952 71.6083C374.725 76.6806 376.111 85.7481 377.225 93.0336C377.427 94.3543 377.614 95.5858 377.704 96.6823L377.802 97.8696L376.667 97.5178C376.044 97.3228 375.208 97.4991 374.538 97.9558C374.132 98.2341 373.441 98.8536 373.366 99.8901C373.279 100.948 375.673 107.551 377.714 109.504C378.096 109.87 378.277 109.879 378.291 109.879C378.291 109.879 378.46 109.807 378.669 109.284L379.523 107.149L380.184 109.353C380.64 110.877 381.204 112.522 381.787 114.22C384.119 121.01 386.76 128.706 384.076 133.377C383.019 135.215 381.21 136.448 378.694 137.047L378.517 137.764ZM375.88 133.284C376.723 134.343 377.376 135.003 378.017 135.55C380.278 135.078 381.806 134.103 382.686 132.572C385.006 128.538 382.491 121.209 380.27 114.743C379.861 113.55 379.46 112.384 379.1 111.264C378.614 111.544 378.143 111.501 377.889 111.438C374.975 110.749 371.642 101.274 371.767 99.7641C371.857 98.5251 372.537 97.3776 373.632 96.6276C374.367 96.1251 375.201 95.8513 376.003 95.8303C375.907 95.0323 375.775 94.1766 375.639 93.2758C374.584 86.3818 372.999 76.0108 384.783 70.3791C384.534 65.7688 386.206 61.9378 389.421 59.8123C392.342 57.8781 396.061 57.6981 399.12 59.3308C402.537 61.1586 404.561 64.9483 404.718 69.7761C404.804 69.8263 404.889 69.8766 404.976 69.9328C415.694 74.2813 416.207 85.3603 415.072 95.8536C416.13 95.9428 417.309 96.4348 418.084 97.4091C418.884 98.4156 419.54 100.279 418.108 103.434L416.97 105.901C415.042 110.083 415.005 110.163 414.397 110.699C413.796 111.251 412.994 111.505 412.255 111.342C412.119 111.314 411.99 111.273 411.865 111.218C411.323 112.857 410.693 114.538 410.078 116.173C407.907 121.962 405.66 127.948 407.479 131.77C408.266 133.423 409.77 134.616 412.072 135.414C412.849 134.9 414.099 134.032 414.801 133.496C416.442 130.314 417.96 127.994 419.304 125.944C420.954 123.428 422.256 121.439 422.885 119.09C423.501 116.794 423.819 114.127 424.156 111.3C424.7 106.742 425.316 101.575 427.344 96.2368C429.36 90.8691 430.347 87.2676 427.059 82.5636C423.817 77.8618 419.634 72.5338 415.204 66.8953C405.89 55.0356 396.29 42.8113 394.523 35.0653C392.347 43.7451 385.212 56.5341 363.557 81.8473C359.978 86.1643 360.738 88.7878 362.572 95.1208C363.802 99.3666 365.485 105.183 366.421 113.959C367.14 120.238 369.925 124.071 372.382 127.454C373.791 129.394 375.123 131.228 375.88 133.284Z" fill="white" fill-opacity="0.05"/>
</g>
<defs>
<clipPath id="clip0_347_16799">
<rect width="830" height="301" fill="white"/>
</clipPath>
</defs>
</svg>
