<svg width="40" height="33" viewBox="0 0 40 33" fill="none" xmlns="http://www.w3.org/2000/svg">
<path d="M38.5358 8.75531C38.1375 8.40251 37.6828 8.13571 37.2104 7.94251C37.1952 7.73811 37.1669 7.54251 37.1252 7.35891C36.907 6.40001 36.1234 5.70704 35.1284 5.59329C33.6033 5.42127 31.8965 6.48711 30.0517 8.76221C29.5863 8.05841 28.7725 6.93271 27.6184 5.71635C24.474 2.40261 21.3389 1.1082 19.2624 0.605842C15.9578 -0.193668 12.8211 -0.202058 10.1921 0.581832C7.9419 1.25276 6.16697 2.4943 5.32242 3.98853C4.36802 5.67705 4.9368 7.83421 5.58187 9.34621C6.06918 10.4885 6.74287 11.5795 7.58432 12.5893L9.18368 14.5085C8.17539 14.6719 6.17604 15.0441 5.12363 15.5702C4.55301 15.8558 4.16843 15.7404 3.76143 15.6182C3.32376 15.4869 2.77888 15.3237 2.17827 15.849C1.52607 16.4196 1.47391 17.1725 1.5872 17.7217C1.29546 17.7734 1.09127 17.9084 0.958099 18.036C0.38208 18.5883 0.426204 19.6156 0.448725 19.8846L0.118029 21.6485C-0.122812 22.9332 0.00645646 24.2537 0.491815 25.4675L0.838712 26.3348C1.0352 26.8257 1.48574 27.1402 2.01488 27.1555C2.02821 27.1559 2.04131 27.1561 2.05452 27.1561C2.56573 27.1561 3.01467 26.8714 3.23253 26.406C3.52128 25.789 3.7396 25.2605 3.88128 24.8354C4.01353 24.4385 4.09937 24.0037 4.18233 23.5831C4.42179 22.3694 4.61874 21.6237 5.33448 21.5044C6.04367 21.3868 8.8562 21.8722 11.3377 22.301C12.3801 22.4812 13.3936 22.6563 14.2462 22.7866C14.1679 24.1899 13.9391 29.7131 15.0542 31.508C15.1233 31.6192 15.231 31.7013 15.3548 31.7441C16.562 32.1614 18.0744 32.4919 19.1415 32.6975C19.3621 32.7399 19.5838 32.761 19.8048 32.761C20.3022 32.761 20.7942 32.654 21.2547 32.443L22.5571 31.8461C22.7852 31.7415 22.9277 31.5195 22.9275 31.2681C22.9273 31.0177 22.7687 30.794 22.5434 30.6848L21.6667 30.2598C20.1836 29.5407 18.5525 29.2757 16.927 29.4879C16.9473 29.2936 16.9742 29.041 17.0068 28.745C17.1767 28.7517 17.3555 28.7553 17.5435 28.7553C19.315 28.7553 21.7808 28.4716 23.0263 28.167C23.3211 28.095 23.5247 27.842 23.5331 27.5375C23.5415 27.2332 23.352 26.9695 23.0618 26.8815C21.6887 26.4649 19.3327 26.2548 18.4521 26.1878L18.6641 22.2663C18.9208 22.0965 19.1539 21.9017 19.3528 21.684C20.0131 20.961 20.3108 20.0156 20.2141 18.9502C20.2043 18.843 20.1824 18.7235 20.1512 18.5945L23.1762 16.0438C23.4351 15.8827 25.4759 14.5933 27.0821 13.0185C27.4272 13.379 28.4789 14.3169 30.3656 14.6811C30.485 15.5353 30.5697 16.2396 30.6213 16.695C30.6734 17.1552 31.0628 17.4921 31.5235 17.4864C33.4273 17.4488 39.6635 17.0083 39.9782 12.9178C40.114 11.151 39.6152 9.71181 38.5358 8.75531ZM35.0504 6.27823C35.75 6.35821 36.3005 6.84241 36.4529 7.51171C36.4673 7.57481 36.4791 7.64051 36.4897 7.70741C35.6894 7.50481 34.8936 7.48961 34.2812 7.61201C32.7431 7.91961 31.5698 8.97841 31.2159 9.32881H30.4804C31.7132 7.78281 33.4483 6.09772 35.0504 6.27823ZM19.1003 1.27597C22.9242 2.20107 25.8213 4.71668 27.6496 6.78421C27.5895 6.75921 27.5281 6.73431 27.4646 6.70961C26.4327 6.30868 25.0905 7.20461 23.3609 9.44891C22.257 10.8814 21.3811 12.3721 21.2092 12.6694L20.9972 12.8548C19.2731 11.854 18.9519 9.53891 18.9488 9.51521C18.9268 9.34271 18.78 9.21401 18.6069 9.21401C18.6044 9.21401 18.6019 9.21401 18.5992 9.21421L14.7514 9.29871C14.3231 8.68241 13.9392 8.14051 13.6335 7.71291C14.113 6.56321 14.1949 4.99176 13.8754 3.03596C13.7141 2.04939 13.4888 1.21036 13.3466 0.731432C15.0643 0.616412 17.0017 0.768322 19.1003 1.27597ZM16.543 9.94891L18.9476 11.6346C19.0841 11.8875 19.2467 12.1432 19.44 12.3889L17.8929 14.07C17.039 12.6744 16.0736 11.2215 15.2204 9.97781L16.543 9.94891ZM17.7074 9.92321L18.3194 9.90981C18.3494 10.0525 18.394 10.2374 18.4581 10.4495L17.7074 9.92321ZM18.2638 14.6851L19.9076 12.8988C20.0732 13.0534 20.2549 13.1984 20.4544 13.3296L18.4817 15.0551C18.4104 14.9327 18.3376 14.8093 18.2638 14.6851ZM2.63226 16.3678C2.93412 16.1039 3.1244 16.1467 3.56334 16.2785C4.0079 16.4119 4.61678 16.5945 5.43203 16.1869C6.55718 15.6244 9.00546 15.23 9.6988 15.1266L11.0017 16.6901C9.97974 16.6384 8.07048 16.7378 5.07572 17.6132C3.718 17.9265 3.57494 17.9433 2.30812 17.7509C2.21378 17.4613 2.09773 16.8355 2.63226 16.3678ZM5.22118 20.8241C3.98308 21.0305 3.7296 22.3156 3.50588 23.4495C3.42706 23.849 3.34559 24.2619 3.22724 24.6173C3.09395 25.0171 2.88563 25.5205 2.60825 26.1136C2.5015 26.3415 2.28755 26.4746 2.03476 26.4661C1.78093 26.4589 1.57318 26.314 1.47896 26.0785L1.13206 25.2112C0.695311 24.1193 0.578912 22.931 0.795738 21.7753L1.1354 19.9636C1.14172 19.9302 1.14287 19.8959 1.13919 19.8621C1.11196 19.6171 1.10805 18.8473 1.43541 18.5334C1.56801 18.4062 1.75519 18.3633 2.00821 18.4022C3.56046 18.6412 3.71145 18.6354 5.2406 18.2825C5.24704 18.281 5.25347 18.2793 5.25991 18.2774C7.56754 17.602 9.19954 17.4058 10.2479 17.3757C10.1004 18.1638 9.89793 19.8716 10.4921 21.4557C7.75553 20.9885 5.91004 20.7086 5.22118 20.8241ZM21.3661 30.8797L21.9821 31.1783C22.0551 31.2137 22.0539 31.318 21.9803 31.3517L20.9676 31.8158C20.4363 32.0593 19.8428 32.13 19.2689 32.0194C18.2346 31.8202 16.7771 31.5021 15.6155 31.1042C14.7524 29.6471 14.8126 25.0051 14.9306 22.8853C15.4707 22.9584 15.9085 23.0025 16.1938 23.0025C16.4889 23.0025 16.7842 22.9718 17.0729 22.9142C16.5845 25.9538 16.1995 29.8219 16.1954 29.8629C16.1848 29.9701 16.2248 30.0759 16.3038 30.1493C16.3827 30.2227 16.4914 30.2548 16.5973 30.2365L16.6892 30.2206C18.2787 29.9454 19.9145 30.1759 21.3661 30.8797ZM18.0682 26.8513C18.0989 26.8531 21.0403 27.0413 22.6852 27.4901C22.7102 27.4969 22.7091 27.533 22.6839 27.5386C21.3107 27.8432 18.6942 28.1129 17.0837 28.0578C17.2529 26.572 17.5131 24.4608 17.806 22.703C17.8554 22.6842 17.9048 22.6656 17.9533 22.6453L17.7456 26.4885C17.7354 26.6775 17.8793 26.8394 18.0682 26.8513ZM18.8437 21.2186C18.1067 22.0256 16.9917 22.3131 16.1938 22.3131C15.4585 22.3131 13.5139 21.977 11.4551 21.6214C11.4032 21.6124 11.3522 21.6035 11.3007 21.5947C10.5336 20.0058 10.8118 18.0763 10.9508 17.3807C11.3128 17.3979 11.5437 17.4346 11.6533 17.4563L13.1125 18.9222C13.1798 18.9899 13.2683 19.0238 13.3568 19.0238C13.4447 19.0238 13.5327 18.9904 13.5999 18.9234C13.7348 18.7891 13.7354 18.5709 13.6011 18.436L12.0826 16.9103L8.11392 12.1478C7.31544 11.1897 6.6768 10.1562 6.21592 9.07581C5.63186 7.70651 5.10674 5.77139 5.92256 4.32795C6.9073 2.58565 9.31306 1.17324 12.6448 0.795432C12.9273 1.72249 13.7824 4.86445 13.1436 7.03291C13.0177 6.85931 12.9359 6.74801 12.9095 6.71191C12.7967 6.55851 12.581 6.52541 12.4276 6.63821C12.2742 6.75081 12.2412 6.96661 12.3539 7.12001C14.2876 9.75111 19.346 17.0168 19.5274 19.0121C19.6075 19.8919 19.3775 20.6342 18.8437 21.2186ZM22.7922 15.4702C22.7777 15.4791 22.7639 15.4891 22.751 15.5L19.9212 17.8861C19.6753 17.2561 19.2926 16.4935 18.8302 15.6661L21.7064 13.1503C21.7353 13.1249 21.7599 13.095 21.779 13.0614C21.7883 13.0449 22.732 11.3932 23.9107 9.86481C25.3423 8.00821 26.5462 7.09311 27.2146 7.35211C28.116 7.70271 28.5822 8.04621 28.7264 8.46571C28.8968 8.96171 28.6613 9.70501 27.9627 10.8759C26.6511 13.0743 22.8307 15.4465 22.7922 15.4702ZM39.2907 12.8645C39.1772 14.3405 38.0805 15.4306 36.0311 16.1048C34.3353 16.6626 32.4705 16.7778 31.5099 16.7967C31.4049 16.7999 31.3182 16.7214 31.3063 16.617C31.2493 16.1139 31.1522 15.3095 31.0131 14.3359C30.9917 14.1862 30.8753 14.068 30.726 14.0442C28.843 13.7444 27.8245 12.7977 27.5633 12.5226C27.9517 12.0999 28.2955 11.6638 28.5549 11.229C29.0797 10.3496 29.369 9.66831 29.4468 9.10421C29.7464 9.55131 29.9038 9.82801 29.9113 9.84151C29.9722 9.95061 30.0874 10.0183 30.2123 10.0183H31.3614C31.458 10.0183 31.5501 9.97771 31.6154 9.90651C31.6274 9.89351 32.8218 8.60691 34.4164 8.28791C35.2536 8.12051 36.9198 8.24421 38.0786 9.27121C39.0032 10.0908 39.4111 11.2996 39.2907 12.8645Z" fill="white"/>
</svg>
