<svg width="72" height="80" viewBox="0 0 72 80" fill="none" xmlns="http://www.w3.org/2000/svg">
<path d="M64.3854 0.679463C58.2366 -2.1453 50.562 4.48508 46.5344 8.6885C46.1156 9.1252 45.807 9.64128 45.6236 10.2018L44.9204 10.2641C43.9778 8.19014 40.4388 0.918753 36.928 0.397379C31.1654 -0.457159 26.4564 0.458121 25.725 0.613429C24.583 0.571323 14.3917 0.256107 10.1639 2.25808C10.1335 2.27258 10.1043 2.2889 10.0765 2.30754C8.95941 3.05234 8.72219 4.61576 9.37171 6.95412C9.76217 8.35948 10.3507 9.60792 10.4892 9.89278C10.6455 10.4259 11.754 14.0534 14.2567 18.5744C7.03567 24.2432 -0.892393 32.2492 0.0815671 44.181C0.238707 46.106 1.13305 47.706 2.73951 48.9364C5.82427 51.2992 11.1622 51.9712 16.2424 51.9712C22.1546 51.9712 27.7136 51.0606 28.959 50.8424C29.2584 51.3558 29.563 51.8388 29.8704 52.2964C29.3964 53.9932 27.866 59.475 26.9228 62.871C26.3824 64.8164 23.9912 69.042 20.19 74.7688C19.6074 75.6464 19.5444 76.731 20.0214 77.67C20.4988 78.6098 21.4128 79.1994 22.4662 79.2468L39.1502 79.9982C39.1794 79.9994 39.2082 80 39.2372 80C40.045 80 40.7374 79.4904 40.9758 78.7094C40.996 78.6434 41.011 78.5774 41.0236 78.5112L42.132 78.1736C42.8082 77.9676 43.2768 77.4036 43.355 76.7012C43.4337 75.9988 43.1008 75.3452 42.4868 74.9952L32.1004 69.0778C33.8419 66.5014 36.1602 63.2442 37.9962 61.2856C49.318 49.7686 48.9594 44.6442 48.4438 43.1482C49.4906 41.5838 50.545 40.0556 51.321 39.1694C54.417 35.6318 51.8602 25.1152 51.3276 23.0824C51.629 22.6926 52.312 21.8836 53.3776 21.034C56.431 22.3232 61.1454 23.1654 66.874 20.4062C69.7514 19.0219 71.5173 15.7374 71.482 11.8342C71.4481 8.0017 69.5654 3.05878 64.3854 0.679463ZM14.9536 19.7823C16.962 23.1842 19.2762 26.1806 21.8482 28.687C22.454 29.2774 23.1778 29.6324 23.9594 29.7508C23.5704 30.4224 23.3846 31.2122 23.4592 32.0214C23.5084 32.555 23.5672 33.0852 23.6302 33.6108C23.3682 33.6136 22.6556 33.6284 22.6556 33.6284C21.2272 33.6672 19.815 33.2528 18.5744 32.4308C13.3009 28.9374 8.52685 28.4298 6.21287 28.427C8.72241 25.0366 11.8964 22.1938 14.9536 19.7823ZM1.45771 44.0688C1.00351 38.506 2.62837 33.8202 5.22489 29.8448C5.76581 29.8032 7.05705 29.7548 8.81031 30.0222C10.96 30.3498 14.2668 31.2334 17.8118 33.582C19.0622 34.4102 20.4618 34.8894 21.9006 34.99C20.0576 39.3862 11.8378 48.346 10.1278 50.183C7.51607 49.7908 5.18163 49.068 3.57885 47.8402C2.27727 46.8434 1.58333 45.6096 1.45771 44.0688ZM11.8166 50.3896C12.9169 49.1906 14.7854 47.1164 16.6964 44.8242C20.4136 40.3646 22.652 37.0658 23.3708 34.9958C23.5184 34.9938 23.665 34.9916 23.8118 34.9904C24.6616 40.918 26.3136 45.8418 28.2518 49.5598C25.9514 49.9304 18.3532 51.0174 11.8166 50.3896ZM41.8032 76.1946C41.9894 76.3008 41.9908 76.4772 41.983 76.548C41.9752 76.619 41.9344 76.7906 41.7294 76.853L40.7448 77.1528C40.6016 76.944 40.4123 76.7618 40.181 76.6208C40.1581 76.6068 40.1348 76.5942 40.1106 76.5832L31.105 72.43C30.8662 72.32 30.6948 72.12 30.6222 71.8674C30.5496 71.6152 30.5886 71.3558 30.7318 71.1364C30.9138 70.8578 31.1162 70.5506 31.33 70.228L41.8032 76.1946ZM37.0004 60.3298C34.538 62.9562 31.2922 67.7548 29.5766 70.3814C29.2156 70.9338 29.1132 71.6144 29.2956 72.2486C29.4784 72.8838 29.9272 73.4066 30.5274 73.6834L39.4896 77.8168C39.724 77.9778 39.6844 78.2108 39.6552 78.3062C39.6252 78.4046 39.5308 78.6342 39.2124 78.6188L22.5284 77.8674C21.9786 77.8428 21.5016 77.5352 21.2524 77.0446C21.0038 76.555 21.0366 75.9896 21.3402 75.532C24.0848 71.3972 27.5118 65.9082 28.253 63.2402C29.0486 60.376 30.2616 56.0288 30.9062 53.7194C31.9046 54.978 32.916 55.9434 33.8836 56.5902C34.7774 57.1878 35.6242 57.4936 36.3706 57.4936C36.591 57.4936 36.8026 57.4668 37.0042 57.4132C39.2942 56.803 42.5573 52.072 46.9166 45.455C47.023 45.2932 47.1266 45.1364 47.232 44.9766C47.0244 47.1468 45.3396 51.847 37.0004 60.3298ZM66.2754 19.1627C60.7756 21.8116 56.3208 20.8638 53.5554 19.6047C53.3286 19.5014 53.0643 19.5361 52.8648 19.6859C50.9904 21.0926 50.0408 22.4996 50.0012 22.5588C49.89 22.7258 49.8566 22.933 49.9102 23.1266C50.822 26.4124 52.6666 35.5364 50.2824 38.2604C49.4016 39.2662 48.2244 40.9884 47.0834 42.7002C46.6584 43.3384 46.2166 44.009 45.7642 44.6958C42.7442 49.2794 38.6082 55.5574 36.6492 56.0794C36.1734 56.2062 35.4456 55.9738 34.6512 55.4428C29.569 52.0452 26.135 42.0524 25.0948 34.2052C24.9936 33.4506 24.9058 32.673 24.834 31.8944C24.7394 30.8664 25.301 29.8876 26.2324 29.455C28.0786 28.7196 35.2144 25.1872 37.6674 23.9678C37.6316 24.8158 37.0182 25.5616 36.6014 25.9732C36.238 26.332 35.7748 26.655 35.2248 26.9338L29.6426 29.762C29.4086 29.8808 29.262 30.1216 29.2644 30.3842C29.2654 30.4942 29.2932 33.0936 29.6748 34.7224C30.415 37.864 31.8772 42.3152 34.6418 45.6824C35.5116 46.7368 36.4566 47.6176 37.4506 48.3C37.5699 48.382 37.706 48.4212 37.8406 48.4212C38.0835 48.4212 38.3214 48.2936 38.4492 48.0578C38.622 47.7388 38.4936 47.3434 38.1956 47.1366C37.4298 46.6058 36.693 45.9382 36.0004 45.149C37.6932 41.904 39.4652 39.2862 40.6866 37.6252C40.7005 37.6098 40.7132 37.5936 40.7256 37.5772C41.671 36.2976 42.3006 35.572 42.3068 35.5648C42.5568 35.2774 42.5268 34.8412 42.2394 34.591C41.952 34.3408 41.5158 34.3708 41.2658 34.6582C41.2424 34.6852 40.7528 35.2492 39.9788 36.2712C37.8006 35.1182 34.7598 34.3322 30.9236 33.9296C30.7378 32.8518 30.675 31.48 30.6546 30.7974L35.849 28.1656C36.5268 27.8222 37.1064 27.4152 37.5714 26.956C38.8034 25.7394 39.2878 24.3684 38.9424 23.0758C38.9188 22.9864 38.8858 22.8998 38.8476 22.8156C38.7786 22.6636 38.6861 22.4538 38.529 22.2822C37.5052 21.1612 35.9312 20.7144 34.4716 21.2102L26.4972 23.9256C25.5908 22.6544 22.815 18.6526 21.2472 15.2128L29.6444 9.42224L34.6698 8.5256C34.9984 8.46694 35.2603 8.19152 35.265 7.8579C35.2716 7.40854 34.8724 7.08596 34.4532 7.16212L19.9436 9.7508L19.7158 7.5818C19.6768 7.20998 19.3636 6.90604 18.9902 6.9256C18.5922 6.94652 18.2976 7.29556 18.3388 7.68694L18.7884 11.97C19.2522 16.3888 25.4178 24.7974 25.6802 25.1532C25.8586 25.3954 26.1736 25.4942 26.4582 25.397L34.9158 22.517C35.6248 22.2762 36.3834 22.379 36.9884 22.7632C34.4858 24.0068 27.4178 27.5028 25.6994 28.1814C24.602 28.6146 23.5764 28.4432 22.8122 27.6982C20.1596 25.1132 17.7828 21.9888 15.748 18.4117C12.9714 13.532 11.8111 9.49518 11.7998 9.45492C11.7881 9.4135 11.7722 9.373 11.7531 9.33436C10.7854 7.39474 9.82959 4.2214 10.807 3.48144C14.9257 1.57703 25.6498 1.99187 25.7582 1.99624C25.818 1.99831 25.88 1.99302 25.9396 1.97945C25.988 1.96863 30.8372 0.889531 36.7256 1.76271C37.967 1.947 39.6306 3.65952 41.4104 6.58438C42.8368 8.92894 43.8472 11.2466 43.8574 11.2696C43.9756 11.5423 44.254 11.7075 44.5514 11.6826L45.436 11.6044C45.5018 13.0633 46.3678 14.3978 47.7364 15.0237L51.6406 16.8084C52.0276 16.9849 52.4938 16.7744 52.6002 16.3382C52.6792 16.0137 52.4944 15.6808 52.1908 15.5421L48.3104 13.7681C47.243 13.2799 46.6428 12.1285 46.85 10.968C46.9384 10.4742 47.1738 10.0163 47.531 9.64382C51.305 5.70498 58.4394 -0.532857 63.8092 1.93389C68.4026 4.04354 70.0718 8.43772 70.1022 11.8467C70.132 15.2091 68.6658 18.0125 66.2754 19.1627ZM35.0664 43.9612C33.0526 41.1452 31.8758 37.6884 31.2564 35.3544C34.5848 35.7388 37.2314 36.4236 39.1478 37.396C38.0064 38.9914 36.5212 41.2446 35.0664 43.9612ZM20.1612 11.8257L20.0878 11.127L26.3634 10.0074L20.7048 13.9094C20.4216 13.1457 20.2252 12.4359 20.1612 11.8257Z" fill="#3D493A"/>
</svg>
