<svg width="29" height="39" viewBox="0 0 29 39" fill="none" xmlns="http://www.w3.org/2000/svg">
<path d="M27.0787 32.2144C27.7405 32.0554 28.3019 31.5898 28.5804 30.9687L28.8167 30.4417C29.1613 29.6733 29.0314 28.762 28.4859 28.1204C28.2714 27.8683 27.9979 27.6649 27.6946 27.5319L26.8354 27.1554C25.7539 26.6814 24.6243 26.3679 23.4644 26.215L22.3242 19.532C22.3197 19.503 22.316 19.4737 22.3131 19.4445L22.1837 18.1505C22.0263 16.5763 21.7214 15.0079 21.2774 13.4888L21.1114 12.9209C20.9822 12.4784 20.738 12.0763 20.4052 11.7573C19.9687 11.3393 19.3897 11.1226 18.7987 11.1447L16.3415 10.0147C16.3995 9.92952 16.4565 9.84237 16.5122 9.75109C17.165 8.67758 17.5451 7.33358 17.5289 6.15542C17.5129 4.99136 17.1099 3.90017 16.3939 3.08285C16.2906 2.96498 16.1823 2.85586 16.07 2.75365C16.0946 2.64177 16.117 2.52005 16.1153 2.39218C16.0969 1.05493 14.9946 -0.0213505 13.6565 0.000321643C12.3192 0.0189184 11.2463 1.12194 11.2646 2.45903C11.2666 2.59689 11.2949 2.7117 11.3245 2.81451C11.2136 2.92117 11.1065 3.03475 11.0052 3.15724C10.3122 3.99392 9.93917 5.09571 9.95517 6.25988C9.9715 7.43791 10.3884 8.77115 11.0706 9.82624C11.11 9.88696 11.1501 9.94538 11.1904 10.0033L8.56907 11.1447C7.97707 11.1218 7.39655 11.3384 6.9593 11.7572C6.62658 12.0761 6.38239 12.4783 6.25314 12.9206L6.08697 13.4887C5.64297 15.0077 5.33806 16.5761 5.18068 18.1503L5.05143 19.4439C5.04835 19.4733 5.04468 19.5026 5.04081 19.5278L3.99019 25.7803C2.99832 25.8676 2.02488 26.1582 1.14743 26.6473C0.600287 26.9521 0.203637 27.4766 0.0593225 28.0863C-0.136782 28.9145 0.162451 29.7973 0.821795 30.3357C1.45635 30.8536 2.16547 31.2578 2.92252 31.5374L2.79006 35.4941C2.78993 35.5007 2.78993 35.5073 2.79006 35.5139C2.79143 35.5592 2.77714 35.5917 2.77052 35.5993L1.91189 36.5906C1.72455 36.807 1.65248 37.1329 1.72363 37.4409C1.78507 37.7072 1.9437 37.9125 2.15838 38.0041L3.03275 38.377C3.10881 38.4093 3.18999 38.4255 3.26789 38.4255C3.29386 38.4255 3.31937 38.4237 3.34442 38.4201L5.40232 38.1752C5.60868 38.1451 5.79052 38.0083 5.9012 37.8003C6.03458 37.5494 6.05084 37.2388 5.94802 36.9724L6.46678 36.8923C6.6976 36.8571 6.8814 36.6647 6.92416 36.4139C6.9818 36.0752 6.79288 35.7531 6.50304 35.6957L5.19222 35.4363C5.18914 35.4277 5.18606 35.4161 5.18468 35.4017L5.74579 33.1019C6.59753 33.5611 7.5197 33.9721 8.19419 34.0413C9.6633 34.1927 13.1497 33.3698 13.7514 33.2239C14.3053 33.3953 17.356 34.3197 18.704 34.3197C19.3462 34.3197 20.6422 33.9931 21.9095 33.6214L22.4247 35.4068C22.4232 35.4189 22.4205 35.4289 22.4178 35.4363L21.1071 35.6957C20.8173 35.7531 20.6282 36.0752 20.6859 36.4139C20.7286 36.6649 20.9124 36.8571 21.1429 36.8923L21.6618 36.9724C21.559 37.2386 21.5752 37.5494 21.7087 37.8003C21.8193 38.0084 22.0011 38.1451 22.2157 38.1763L24.2581 38.4191C24.2859 38.4231 24.3139 38.4251 24.3417 38.4251C24.4219 38.4251 24.5019 38.4088 24.5775 38.3768L25.4514 38.0041C25.6661 37.9125 25.8247 37.7072 25.8862 37.4409C25.9574 37.1329 25.8853 36.807 25.6978 36.5906L24.8393 35.5995C24.8326 35.5917 24.8181 35.5592 24.8196 35.5139C24.82 35.5028 24.8196 35.4915 24.8188 35.4803L24.6052 32.7667C24.9092 32.6642 25.1153 32.5926 25.182 32.5694C25.8194 32.4818 26.4529 32.3647 27.0787 32.2144ZM5.51635 31.4037C5.05786 30.0997 5.16442 28.6669 5.81911 27.4423L5.86599 27.3548C8.34993 27.0687 15.6237 27.9418 15.7013 27.9513C15.7883 27.962 15.8762 27.9346 15.9421 27.8763C16.0079 27.818 16.0455 27.7342 16.0455 27.6463V27.1108C16.0455 26.9407 16.1211 26.781 16.253 26.6733C16.3615 26.5845 16.4975 26.5391 16.6385 26.5462L18.4647 26.6353C18.5468 26.6381 18.6261 26.6106 18.6865 26.5555L20.7942 24.6395C20.8703 24.5704 20.9674 24.5352 21.0712 24.5401L21.7151 24.5706C21.7794 24.5737 21.8425 24.5931 21.8974 24.6264C22.0025 24.6908 22.0691 24.798 22.08 24.9206C22.0909 25.0433 22.0442 25.1605 21.952 25.2421L20.5689 26.4681C20.431 26.5904 20.2777 26.6954 20.1135 26.7801L17.0209 28.3748C17.0153 28.3775 17.0101 28.3805 17.0049 28.3837L15.7638 29.1206C14.3785 29.9432 12.8748 30.5204 11.2949 30.8365L9.96901 31.1016C8.50206 31.395 7.00743 31.4962 5.51635 31.4037ZM6.02337 25.8919C5.98402 25.5864 6.15032 25.2832 6.44061 25.1599C6.57786 25.1013 6.73294 25.0887 6.87832 25.1241L7.13963 25.1875C7.66691 25.3156 8.12291 25.6346 8.42396 26.0862L8.52324 26.2353C8.56953 26.3046 8.64193 26.3522 8.72396 26.3672L9.5216 26.5122C9.78612 26.5603 10.0357 26.6645 10.2556 26.813C9.55806 26.7646 8.86166 26.7255 8.21202 26.7039L6.60986 26.0364C6.59891 26.0319 6.58783 26.0279 6.57661 26.0249C6.39393 25.9721 6.20901 25.9293 6.02337 25.8919ZM8.52527 21.7351L8.64593 22.0417C8.95268 22.8208 9.04579 23.6697 8.9153 24.4967L8.75596 25.5074C8.5574 25.2693 8.3216 25.0685 8.05865 24.9103L8.52527 21.7351ZM9.48166 24.8521H18.3306L18.5245 25.8721L18.3673 26.015L16.6684 25.932C16.3757 25.918 16.0903 26.0121 15.8638 26.1976C15.5886 26.4226 15.4308 26.7555 15.4308 27.1108V27.3007C14.7194 27.2182 13.0319 27.0309 11.2084 26.8845C10.8255 26.3757 10.2605 26.0216 9.63163 25.9073L9.32416 25.8514L9.48166 24.8521ZM18.8845 24.4735C18.758 23.8081 18.7798 23.1186 18.9458 22.4627L19.338 25.1327L19.0581 25.3871L18.8845 24.4735ZM16.0775 29.6491L17.3107 28.9168L17.9459 28.5893L18.4054 28.5311C19.8864 28.3428 21.4073 28.4256 22.8633 28.7668C22.4322 29.8426 22.4461 31.0657 22.9089 32.1327C22.7869 32.1352 22.6649 32.1383 22.543 32.1384L20.3551 32.1405C20.3491 32.1405 20.3433 32.1405 20.3375 32.1405C18.9363 32.1405 17.5331 31.9835 16.167 31.6742L13.1308 30.9864C14.1564 30.65 15.1431 30.2039 16.0775 29.6491ZM27.4477 28.095C27.6659 28.1906 27.8631 28.3373 28.0174 28.5188C28.4103 28.9807 28.5038 29.6367 28.2558 30.1901L28.0194 30.7171C27.8183 31.1656 27.4129 31.5017 26.935 31.6168C25.8324 31.8814 24.7056 32.0454 23.5732 32.1085L23.524 32.0052C23.0637 31.038 23.0451 29.9041 23.4626 28.9236C23.6282 28.9712 23.7933 29.021 23.9568 29.0756L24.8146 29.3615L25.0089 28.7782L24.1512 28.4923C22.6351 27.9872 21.019 27.7625 19.4196 27.8296L20.3951 27.3266C20.6047 27.2186 20.8005 27.0845 20.9766 26.9283L21.2354 26.6988L22.1665 26.7255C23.6974 26.7695 25.1851 27.1036 26.5883 27.7185L27.4477 28.095ZM22.1844 26.1111L21.9076 26.1031L22.3597 25.7024C22.5146 25.5651 22.6191 25.3889 22.6666 25.1955L22.8289 26.147C22.615 26.1298 22.4001 26.1173 22.1844 26.1111ZM19.9794 12.2012C20.2345 12.4457 20.4217 12.7542 20.5208 13.0934L20.6869 13.6614C21.1204 15.1439 21.4179 16.6749 21.5716 18.2116L21.7009 19.5056C21.7049 19.5458 21.7102 19.5856 21.7169 19.6305L22.5316 24.406C22.452 24.2851 22.3465 24.1809 22.2177 24.102C22.0749 24.0151 21.9112 23.9647 21.7442 23.9567L21.1004 23.9261C20.8346 23.9138 20.5783 24.0053 20.3805 24.1849L19.8859 24.6344L19.1445 19.5875C18.9716 18.411 18.6681 17.2515 18.2421 16.1414L17.3903 13.9217C17.2508 13.5581 17.2492 13.1569 17.386 12.7919C17.5746 12.2891 17.9998 11.9176 18.5236 11.7984C19.0474 11.6785 19.5916 11.8296 19.9794 12.2012ZM13.6643 0.614767C14.6381 0.598479 15.4392 1.35985 15.4947 2.32041C14.9416 1.9826 14.3215 1.80755 13.6811 1.81553C13.0389 1.82445 12.4246 2.01641 11.8818 2.36928C11.9113 1.40811 12.6935 0.628295 13.6643 0.614767ZM11.4781 3.54914C12.0663 2.8391 12.8516 2.44182 13.6895 2.43029C13.7021 2.43014 13.7146 2.42999 13.7272 2.42999C14.5511 2.42999 15.3324 2.80468 15.9309 3.48782C16.5135 4.15298 16.8529 5.03362 16.9036 5.98237C16.1586 5.42399 14.7409 4.47742 13.6893 4.47742C12.6457 4.47742 11.2972 5.40232 10.5775 5.96132C10.6225 5.05222 10.9354 4.20416 11.4781 3.54914ZM10.6016 6.73109C11.2365 6.19273 12.7324 5.09218 13.6892 5.09218C14.6482 5.09218 16.215 6.2023 16.8839 6.74479C16.7935 7.65752 16.4759 8.62611 15.9863 9.43142C15.3696 10.4453 14.5757 11.0329 13.808 11.0433C13.0414 11.0579 12.2307 10.4887 11.5863 9.49194C11.0559 8.67161 10.7036 7.67017 10.6016 6.73109ZM14.8763 11.3868C14.7307 11.8543 14.2941 12.1946 13.7792 12.1946C13.2633 12.1946 12.8259 11.8526 12.6815 11.3835C13.0397 11.5643 13.4107 11.6584 13.7854 11.6584C13.7957 11.6584 13.8061 11.6584 13.8164 11.6582C14.1781 11.6531 14.534 11.56 14.8763 11.3868ZM12.016 10.9344V11.0459C12.016 12.0182 12.807 12.8093 13.7794 12.8093C14.7518 12.8093 15.5428 12.0183 15.5428 11.0459V10.9314C15.685 10.8074 15.8234 10.6686 15.9573 10.5146L17.8626 11.3908C17.3828 11.6387 17.0055 12.0564 16.8108 12.5757C16.6213 13.0814 16.6232 13.6374 16.8167 14.1415L17.6685 16.3613C18.0783 17.4291 18.3704 18.5444 18.5365 19.6763L18.7394 21.0573L18.4368 22.006C18.2076 22.7249 18.1369 23.4892 18.2268 24.2369H9.56619C9.63937 23.4159 9.52088 22.5859 9.21779 21.8163L8.70461 20.5125L8.82743 19.6763C8.99373 18.5444 9.28586 17.4291 9.69556 16.3613L10.5474 14.1415C10.7408 13.6374 10.7428 13.0814 10.5533 12.5757C10.3611 12.063 9.99039 11.6502 9.5193 11.4013L11.5813 10.5028C11.7223 10.6622 11.867 10.807 12.016 10.9344ZM5.64776 19.6257C5.65393 19.5859 5.65897 19.5461 5.66311 19.5058L5.79255 18.2118C5.94619 16.6751 6.24376 15.144 6.67714 13.6615L6.8433 13.0934C6.94245 12.7543 7.1296 12.4458 7.38474 12.2013C7.77248 11.8297 8.31734 11.6788 8.84029 11.7984C9.36409 11.9175 9.78934 12.2889 9.97793 12.7919C10.1147 13.1569 10.1131 13.558 9.9736 13.9217L9.12186 16.1414C8.69602 17.2515 8.39229 18.411 8.21943 19.5875L7.47635 24.6464C7.41314 24.6262 7.34966 24.6062 7.28468 24.5904L7.02357 24.5269C6.75091 24.4605 6.45845 24.4846 6.20009 24.5942C5.71012 24.8024 5.40475 25.2836 5.40107 25.7955C5.14088 25.767 4.87976 25.7527 4.61852 25.7529L5.64776 19.6257ZM0.657663 28.2281C0.762319 27.786 1.04999 27.4054 1.44684 27.1845C2.41812 26.6432 3.51779 26.3653 4.62048 26.3653C5.21602 26.3653 5.81248 26.4463 6.39006 26.6107L6.58894 26.6936C6.07301 26.7095 5.64068 26.7492 5.33576 26.8194L2.59425 27.452L2.73242 28.0511L5.10678 27.5032C4.5633 28.7164 4.47452 30.0781 4.85334 31.3497L4.80953 31.3454C3.48566 31.2143 2.24107 30.7005 1.21058 29.8594C0.732352 29.4693 0.515316 28.8289 0.657663 28.2281ZM4.57806 35.2941C4.57314 35.3142 4.57025 35.3348 4.56947 35.3554C4.55701 35.6917 4.75202 35.9762 5.03268 36.0313L6.31904 36.286V36.2933L5.46501 36.4247C5.36894 36.4399 5.27753 36.5061 5.23248 36.5925C5.18468 36.6841 5.18298 36.7941 5.2277 36.8862L5.36376 37.169C5.40861 37.2622 5.41124 37.3866 5.37032 37.4857C5.34619 37.5443 5.31806 37.5651 5.32133 37.5658L3.27327 37.8114L2.39937 37.4387C2.37911 37.4299 2.34173 37.3866 2.32238 37.3025C2.29583 37.1879 2.31806 37.0606 2.37648 36.9931L3.2353 36.0017C3.34658 35.8731 3.40802 35.6929 3.40481 35.5059L3.53084 31.7428C3.74402 31.8898 4.39734 32.3313 5.18901 32.7902L4.57806 35.2941ZM13.8533 32.6119C13.7996 32.5952 13.7419 32.5934 13.6872 32.6069C13.6478 32.6166 9.72757 33.581 8.25661 33.4299C7.4075 33.3428 6.03216 32.5918 5.03589 31.9831C5.55202 32.0279 6.06868 32.0517 6.58527 32.0517C7.76035 32.0516 8.93327 31.9355 10.0893 31.7043L11.415 31.4392C11.5731 31.4075 11.7295 31.3712 11.886 31.3346L16.0308 32.2735C17.4417 32.5932 18.8903 32.7552 20.3371 32.7552H20.3554L22.5434 32.7532C22.5821 32.7532 22.6208 32.7517 22.6595 32.7514C21.1876 33.2104 19.4335 33.7049 18.7036 33.7049C17.3438 33.705 13.8881 32.6229 13.8533 32.6119ZM24.2047 35.5139C24.2033 35.698 24.2647 35.8751 24.3744 36.002L25.2329 36.9933C25.2913 37.0606 25.3136 37.188 25.287 37.3027C25.2676 37.3868 25.2303 37.4301 25.21 37.4388L24.3378 37.8098L22.297 37.5674C22.2913 37.5652 22.2632 37.5446 22.239 37.486C22.1982 37.3869 22.2007 37.2627 22.2457 37.1693L22.3812 36.8873C22.4263 36.7944 22.4245 36.6843 22.3767 36.5927C22.3316 36.5061 22.2396 36.4397 22.1431 36.4248L21.2899 36.2934C21.2899 36.291 21.2899 36.2887 21.2899 36.2865L22.5762 36.0317C22.8573 35.9765 23.0524 35.692 23.0399 35.3557C23.039 35.3308 23.035 35.306 23.0281 35.282L22.498 33.4454C23.0464 33.278 23.5672 33.1108 24.004 32.9673L24.2047 35.5139Z" fill="white"/>
</svg>
