<svg width="74" height="78" viewBox="0 0 74 78" fill="none" xmlns="http://www.w3.org/2000/svg">
<path d="M72.7296 44.8763C73.1196 44.0084 73.2961 43.0469 73.2405 42.0953L73.1396 40.3797C73.0436 38.75 72.1758 37.2369 70.8177 36.3319C69.4955 35.4503 67.844 35.1334 66.2874 35.465C66.1546 35.4931 66.0071 35.5256 65.8458 35.5622C60.2893 36.8194 54.9733 38.9912 50.0468 42.0169L48.1983 43.1522L47.7577 34.1687C47.6649 32.5434 47.1683 30.9487 46.3215 29.5575L43.9255 25.6213C43.4511 24.8425 43.1036 23.9972 42.8924 23.1097C42.0886 19.7341 39.5358 16.9819 36.2302 15.9269L30.0865 13.9663C29.0999 13.6516 28.0415 13.5491 27.0052 13.6631C23.8068 10.5581 20.2124 7.17469 19.563 6.6875C19.474 6.62063 10.5424 0 8.87551 0H6.04521C4.94178 0 3.95521 0.73938 3.64553 1.79844C3.03116 3.9 2.00054 7.80125 2.00054 10.3125C2.00054 13.4334 1.73803 20.5344 1.69459 21.6909L0.624905 23.4737C0.0814649 24.3797 -0.116965 25.4516 0.0667852 26.4919L0.533035 29.1331C0.703965 30.1016 1.20304 30.9947 1.93804 31.6484L2.49802 32.1462C2.91928 32.5206 3.44929 32.7216 4.00678 32.7216C4.06459 32.7216 4.12304 32.7194 4.18116 32.715C4.29022 32.7069 4.39615 32.6888 4.50084 32.6659V67.0019C4.50084 69.0597 4.9874 71.1203 5.9074 72.9609C6.72896 74.6041 8.38082 75.6247 10.2177 75.6247H10.5646C11.9996 75.6247 13.4171 75.3947 14.8065 74.9303C15.319 74.7316 27.3836 70.045 30.0243 68.4281L41.3336 61.5041L48.549 58.9388C52.2574 57.62 55.5958 55.365 58.204 52.4172L59.6986 50.7275C58.0827 56.3309 57.1949 64.935 57.0811 66.0837L53.6568 73.5031C53.4249 74.0053 53.3349 74.5616 53.3958 75.1113C53.5668 76.6513 54.8643 77.8125 56.4136 77.8125H71.4643C72.314 77.8125 73.0055 77.1212 73.0055 76.2712C73.0055 75.6287 72.6018 75.0481 72.0005 74.8266C67.7636 73.2628 62.9455 70.5944 63.3108 68.2197C63.724 65.5341 68.4471 54.4003 72.7296 44.8763ZM34.9505 40.9388C34.9333 40.7656 34.9121 40.5928 34.8821 40.42L34.6902 39.3175C34.6055 38.8303 34.4961 38.3509 34.3683 37.8784C35.8305 37.4909 39.4305 36.5325 40.5408 36.1978C41.6508 35.8625 44.9283 34.1734 46.4158 33.3934C46.4596 33.6725 46.4936 33.9531 46.5096 34.235L46.8086 40.3344L44.7155 39.6684C42.1336 38.8481 39.3518 39.0075 36.8936 40.1134L34.9505 40.9388ZM5.76021 31.9019C6.1724 31.4075 6.35646 30.7587 6.26521 30.1219L6.0421 28.5591L6.10865 28.6353C6.41053 28.9803 6.86178 29.1519 7.31651 29.0934C7.37271 29.0863 7.42801 29.0756 7.48211 29.0619L8.01052 31.0878C8.41242 32.6281 9.11402 34.0438 10.0961 35.2959L11.8243 37.4991C11.8358 37.5138 11.848 37.5281 11.8608 37.5419C12.3271 38.0369 12.3155 38.8013 11.8346 39.2822L10.2177 40.8991C9.93992 41.1769 9.80801 41.5747 9.86932 41.99L12.5343 55.9825C12.5543 56.1213 12.5711 56.2606 12.5849 56.4C12.623 56.7922 12.6249 57.2297 12.5915 57.7766L12.3261 62.0856L5.75054 65.0713V31.9125C5.75365 31.9088 5.75709 31.9056 5.76021 31.9019ZM13.8293 56.2794C13.814 56.12 13.7946 55.9612 13.7671 55.7756L11.1018 41.7828L12.7186 40.1659C13.6733 39.2113 13.7033 37.6978 12.7921 36.7069L11.0799 34.5247C10.204 33.4084 9.57832 32.1459 9.21992 30.7725L8.48901 27.97C8.52361 27.7744 8.52081 27.5731 8.46902 27.3781L8.35151 26.9372C9.15082 27.5606 10.0155 28.0469 10.903 28.37C10.4752 30.6087 11.6152 32.8766 13.6861 33.7141C14.2646 33.9478 14.8702 34.0647 15.4758 34.0647C16.1074 34.0647 16.739 33.9375 17.3383 33.6831C18.5118 33.1853 19.4211 32.2606 19.8986 31.0791C20.5018 29.5881 20.449 28.0112 19.7893 26.8066C20.3658 26.3813 20.8771 25.8978 21.2946 25.3647C21.303 25.3541 21.3108 25.3431 21.3193 25.3325C21.9024 26.3347 22.7152 27.2078 23.7202 27.8538L28.0618 30.6447C28.5474 30.9569 29.0005 31.3222 29.409 31.7306C31.5418 33.8631 32.9421 36.5609 33.4586 39.5325L33.6505 40.635C33.7908 41.4428 33.7611 42.2559 33.5624 43.0516C33.4577 43.4697 33.3036 43.8691 33.1121 44.2503C31.9833 44.7866 30.3133 45.8037 28.4336 47.6838C27.183 48.9344 26.2593 50.5938 25.6893 52.615C25.0349 54.9347 23.5749 56.9378 21.5786 58.2553L13.4855 63.5969L13.8393 57.8541C13.8768 57.2391 13.8736 56.7387 13.8293 56.2794ZM20.4146 20.1481L20.3515 20.6519C20.3477 20.6816 20.3471 20.7113 20.3436 20.7409C13.9608 20.3697 8.83301 16.7816 7.38021 15.6625C8.59991 13.8834 10.1593 11.8488 10.1771 11.8256C10.2005 11.7953 10.2208 11.7628 10.2383 11.7288L10.8749 10.4791L20.6083 19.1887C20.5249 19.5072 20.4549 19.8275 20.4146 20.1481ZM9.15022 11.1106C8.99152 11.3181 8.35331 12.1559 7.61331 13.1719C7.78611 12.5153 7.97682 11.9453 8.18462 11.5297C8.60902 10.6803 9.08682 9.9116 9.52612 9.2728L9.91111 9.6172L9.15022 11.1106ZM6.89709 16.8719C8.75711 18.2694 13.8661 21.6334 20.3121 21.9906C20.353 22.6963 20.4936 23.3875 20.7261 24.0462C20.5865 24.235 20.4471 24.4191 20.3108 24.5931C18.4908 26.9175 14.4299 28.1812 11.6193 27.2997C10.2086 26.8569 8.83772 25.9091 7.73612 24.6281L7.29241 22.9638C7.28147 22.9228 7.26647 22.8831 7.24741 22.8453L6.38896 21.1287C6.43865 20.5794 6.6099 18.8009 6.89709 16.8719ZM18.7399 30.6097C18.3874 31.4819 17.7161 32.1647 16.8502 32.5316C15.9843 32.8994 15.0271 32.9072 14.1549 32.5541C12.6686 31.9531 11.8433 30.3288 12.113 28.6981C12.5924 28.7841 13.0877 28.8309 13.594 28.8309C15.334 28.8309 17.1746 28.3384 18.728 27.4803C19.1733 28.3497 19.1896 29.4981 18.7399 30.6097ZM29.7061 15.1566L35.8502 17.1172C38.7408 18.0397 40.9733 20.4466 41.6761 23.3988C41.9177 24.4141 42.3155 25.3803 42.8577 26.2709L45.2536 30.2072C45.6218 30.8119 45.9136 31.4606 46.1249 32.1338C44.4724 33.0047 41.1649 34.7028 40.1796 35.0006C39.089 35.3297 35.4108 36.3088 33.994 36.6841C33.2124 34.4991 31.9602 32.5128 30.293 30.8459C29.8218 30.3747 29.2986 29.9528 28.738 29.5922L24.3965 26.8013C22.398 25.5172 21.2974 23.1637 21.5921 20.8066L21.6552 20.3028C21.6593 20.2716 21.6671 20.24 21.6715 20.2087L25.1696 23.9128C26.1708 24.9728 27.6743 25.4272 29.0949 25.0997L29.4524 25.0169C30.7452 24.7184 31.8215 23.8094 32.3315 22.585C32.9561 21.0856 32.6405 19.3538 31.5277 18.1728C30.8077 17.4084 29.6158 16.2156 28.2552 14.8816C28.749 14.9159 29.2374 15.0069 29.7061 15.1566ZM4.08741 31.4684C3.80679 31.4897 3.53771 31.3981 3.32803 31.2119L2.76803 30.7141C2.2424 30.2469 1.88585 29.6084 1.76366 28.9159L1.29741 26.2747C1.16616 25.5309 1.30772 24.7647 1.69616 24.1172L2.84865 22.1966C2.90271 22.1062 2.93335 22.0041 2.93741 21.8991C2.94054 21.8175 3.25054 13.7225 3.25054 10.3125C3.25054 7.95687 4.24959 4.18656 4.84521 2.14937C5.00022 1.62 5.49334 1.25 6.04521 1.25L8.86432 1.24969C9.88552 1.35063 16.3821 5.86438 18.813 7.6875C19.688 8.34406 28.0043 16.2559 30.618 19.03C31.393 19.8528 31.613 21.0597 31.1777 22.1044C30.8221 22.9575 30.0721 23.5916 29.1711 23.7994L28.814 23.8819C27.8252 24.1106 26.7761 23.7938 26.0786 23.055L22.1424 18.8872C22.1302 18.8744 22.1177 18.8622 22.1046 18.8506L10.2683 8.25937C10.698 7.7075 10.9943 7.38563 11.0011 7.37813L10.0846 6.52812C10.014 6.60406 8.34181 8.42 7.06647 10.9706C5.77741 13.5487 5.15366 20.8869 5.12772 21.1984C5.11835 21.3125 5.14021 21.4272 5.19146 21.53L6.10054 23.3478L7.26116 27.7C7.26897 27.7291 7.26585 27.76 7.2521 27.7869C7.22804 27.8353 7.18741 27.85 7.15804 27.8538C7.12741 27.8588 7.08554 27.8538 7.04959 27.8125L5.59585 26.1512C5.41366 25.9431 5.11584 25.8794 4.8649 25.995C4.61334 26.1103 4.46771 26.3775 4.50678 26.6516L5.02772 30.2994C5.06897 30.5866 4.98584 30.8791 4.7999 31.1022C4.62021 31.3175 4.36741 31.4478 4.08741 31.4684ZM57.2677 51.5894C54.7996 54.3794 51.6399 56.5134 48.1305 57.7612L40.8536 60.3484C40.8127 60.3631 40.7736 60.3816 40.7365 60.4044L29.3715 67.3625C26.8258 68.9212 14.4786 73.7172 14.3827 73.7553C13.1496 74.1666 11.8649 74.375 10.5646 74.375H10.2177C8.85711 74.375 7.63361 73.6191 7.02553 72.4022C6.19146 70.7341 5.75054 68.8669 5.75054 67.0022V66.4444L12.239 63.4981L12.1799 64.4578L9.78111 66.0409L10.4696 67.0841L22.2668 59.2978C24.5133 57.8153 26.1561 55.5622 26.8921 52.9538C27.4036 51.1406 28.2196 49.6647 29.3174 48.5669C30.0821 47.8022 30.8046 47.1944 31.463 46.7088L30.7111 47.7738C30.6296 47.8894 30.5458 48.0234 30.4618 48.1725C29.4833 49.9156 29.318 52.0381 30.009 53.9956L30.1611 54.4266L31.3396 54.0103L31.1874 53.5794C30.6165 51.9616 30.7493 50.2137 31.5515 48.7847C31.6143 48.6728 31.6752 48.575 31.7321 48.4944L33.689 45.7225C34.1961 45.0037 34.5615 44.2069 34.7749 43.3537C34.8627 43.0028 34.9224 42.6491 34.9558 42.2941L37.394 41.2578C39.5827 40.2725 42.048 40.1306 44.3358 40.8591L46.8733 41.6666L46.9827 43.8978L41.9855 46.9672L42.6399 48.0322L50.7005 43.0812C55.5102 40.1275 60.6983 38.0075 66.1202 36.7806C66.2752 36.7459 66.4177 36.7144 66.5465 36.6869C67.7761 36.4263 69.0796 36.675 70.124 37.3713C71.1577 38.0603 71.8183 39.2122 71.8911 40.4522L71.9921 42.1678C72.0361 42.9191 71.8968 43.6781 71.589 44.3628C71.3233 44.9534 70.9805 45.7191 70.5836 46.6113L61.8636 48.3622C62.0796 47.9144 62.3024 47.5478 62.5321 47.2925C65.2924 44.2253 66.2502 43.2628 66.2596 43.2537L65.3755 42.37C65.3368 42.4087 64.3943 43.3547 61.6027 46.4563C61.3758 46.7081 61.1577 47.0372 60.9474 47.4281L57.2677 51.5894ZM71.5677 75.9991C71.6799 76.0406 71.7555 76.1497 71.7555 76.2712C71.7555 76.4319 71.6249 76.5625 71.4643 76.5625H56.4136C55.5021 76.5625 54.739 75.8791 54.638 74.9734C54.6021 74.65 54.6552 74.3228 54.7915 74.0272L58.2602 66.5119C58.2896 66.4481 58.308 66.3797 58.3149 66.31C58.659 62.7309 59.7527 54.2347 61.304 49.7503L69.9633 48.0116C67.1211 54.4453 62.5158 65.1625 62.0749 68.03C61.4886 71.8444 68.518 74.8741 71.5677 75.9991Z" fill="#3D493A"/>
</svg>
