<svg width="50" height="47" viewBox="0 0 50 47" fill="none" xmlns="http://www.w3.org/2000/svg">
<path d="M45.5195 0H3.50011C1.57016 0 0 1.57006 0 3.50012V19.6922C0 20.0889 0.321502 20.4103 0.718061 20.4103C1.11462 20.4103 1.43612 20.0889 1.43612 19.6922V3.50012C1.43612 2.36204 2.36203 1.43612 3.50011 1.43612H45.5195C46.6576 1.43612 47.5834 2.36204 47.5834 3.50012V36.7234H35.4283L38.2486 35.673C38.5078 35.5764 38.754 35.4534 38.9843 35.3076L39.3004 35.4636C39.6392 35.6306 40.0005 35.7104 40.3572 35.7104C41.1453 35.7104 41.9117 35.3208 42.3664 34.6209C43.4006 33.0292 43.4741 31.0075 42.5583 29.3448C42.367 28.9975 41.9301 28.8711 41.5829 29.0623C41.2355 29.2537 41.1091 29.6904 41.3005 30.0377C41.9603 31.2355 41.9073 32.6918 41.1622 33.8386C40.9317 34.1936 40.5004 34.3488 40.1052 34.2399C40.2841 33.9864 40.4352 33.7118 40.5516 33.4189C40.9652 32.3775 40.9183 31.2039 40.4226 30.1988C39.9525 29.2455 39.1389 28.5333 38.1318 28.1938C37.8238 28.0899 37.5092 28.0251 37.1935 27.9981C37.1673 27.9699 37.139 27.9429 37.1076 27.9185C35.1404 26.3939 31.7214 23.7793 30.9247 23.3963C30.1602 23.0289 29.684 22.1871 29.5098 20.8943C29.4378 20.36 29.4346 19.8514 29.4499 19.475C30.5635 19.5643 31.3035 20.0808 33.2367 21.88C33.9511 22.5448 34.9557 23.4099 36.0193 24.3257C36.8335 25.0267 37.6755 25.7516 38.4109 26.408C38.7443 26.7057 39.0671 27.0237 39.3701 27.3529C39.6385 27.6449 40.0929 27.6636 40.3848 27.3952C40.6766 27.1266 40.6956 26.6724 40.427 26.3805C40.0924 26.0167 39.7359 25.6655 39.3674 25.3365C38.6224 24.6716 37.7754 23.9424 36.9565 23.2374C35.9036 22.3308 34.9091 21.4746 34.215 20.8287C31.9508 18.7211 30.9566 17.9792 28.8181 18.0267C28.537 17.9918 28.2832 17.8274 28.1387 17.5796L27.6384 16.7208C28.7962 15.8426 29.5454 14.4527 29.5449 12.891L29.544 9.79349C29.5436 8.51045 29.0435 7.3043 28.1361 6.39734C27.2289 5.49068 26.0232 4.99148 24.7409 4.99148H24.7392L24.2767 4.99158C22.9936 4.99196 21.7875 5.49201 20.8805 6.39945C19.9734 7.30698 19.4743 8.51329 19.4746 9.79624L19.4755 12.8939C19.476 14.4545 20.2248 15.8428 21.3814 16.7204L20.9632 17.4382C20.7813 17.7505 20.4722 17.9623 20.1154 18.0192C20.1062 18.0206 20.0974 18.0231 20.0883 18.025C18.0276 18.0069 17.0283 18.7588 14.8047 20.8287C14.1106 21.4746 13.1161 22.3308 12.0632 23.2374C11.2442 23.9424 10.3975 24.6715 9.65236 25.3366C8.36876 26.4825 7.29502 27.8309 6.46121 29.3447C5.54525 31.0073 5.61878 33.0291 6.65307 34.6208C7.10785 35.3208 7.87396 35.7104 8.66221 35.7104C9.01893 35.7104 9.38031 35.6306 9.71913 35.4634L10.0352 35.3074C10.2656 35.4532 10.5119 35.5762 10.7711 35.6728L13.5914 36.7232H1.43612V23.1389C1.43612 22.7422 1.11462 22.4208 0.718061 22.4208C0.321502 22.4208 0 22.7422 0 23.1389V43.8485C0 45.5305 1.36834 46.8988 3.05023 46.8988H45.9693C47.6512 46.8988 49.0195 45.5305 49.0195 43.8485V3.50012C49.0196 1.57006 47.4494 0 45.5195 0ZM29.6457 31.1147L28.5677 31.6514L24.5098 33.6719L20.6706 31.7603L19.374 31.1147L20.1723 29.5432H28.8475L29.6457 31.1147ZM18.1739 25.03L18.9756 28.7279L18.0883 30.4748L13.9249 28.4018C13.8654 28.3721 13.8053 28.3441 13.7449 28.3175C15.3396 27.0923 17.214 25.682 18.1739 25.03ZM30.9313 30.4746L30.0439 28.7278L30.8454 25.0308C31.6793 25.598 33.2843 26.7884 35.2742 28.3176C35.2139 28.3441 35.154 28.3721 35.0947 28.4016L30.9313 30.4746ZM20.9108 9.79594C20.9105 8.89653 21.2605 8.0508 21.8964 7.4147C22.5322 6.77859 23.3777 6.42798 24.2771 6.4277L24.7397 6.4276H24.7408C25.6397 6.4276 26.4851 6.77753 27.1209 7.41307C27.7571 8.04888 28.1076 8.89437 28.1079 9.79378L28.1088 12.8913C28.1094 14.748 26.5992 16.259 24.7427 16.2597L24.2801 16.2598H24.279C22.4228 16.2598 20.9124 14.7499 20.9118 12.8936L20.9108 9.79594ZM24.2788 17.6958H24.2804L24.7431 17.6957C25.3165 17.6955 25.8668 17.5941 26.3771 17.4087L26.8977 18.3025C27.158 18.7492 27.5562 19.0905 28.0199 19.2857C27.9579 20.4479 28.0321 22.886 29.5556 24.2015L28.7089 28.1071H20.3104L19.4637 24.2015C21.0064 22.8697 21.0632 20.3868 20.9973 19.2428C21.4981 19.0208 21.9212 18.6467 22.204 18.1611L22.6425 17.4086C23.1535 17.5942 23.7045 17.6958 24.2788 17.6958ZM7.8574 33.8386C7.11234 32.6917 7.05931 31.2355 7.71915 30.0376C8.47445 28.6666 9.44658 27.4454 10.6087 26.4081C11.3442 25.7516 12.1862 25.0267 13.0002 24.3257C14.0639 23.41 15.0686 22.5448 15.7831 21.88C17.7184 20.0785 18.4576 19.5629 19.5737 19.4747C19.6246 20.718 19.4197 22.7598 18.0948 23.3963C17.2005 23.8261 12.8514 27.1884 11.8063 28.0004C11.4972 28.0283 11.1892 28.092 10.8878 28.1939C9.8805 28.5336 9.067 29.2456 8.597 30.1989C8.10136 31.2039 8.05435 32.3775 8.46794 33.4189C8.58427 33.7119 8.73536 33.9865 8.9143 34.24C8.51917 34.349 8.08814 34.1937 7.8574 33.8386ZM10.5825 33.941C10.5693 33.9291 10.5555 33.9179 10.5415 33.9071C10.2175 33.6403 9.96374 33.2944 9.80266 32.8887C9.53491 32.2144 9.56423 31.4848 9.88501 30.834C10.185 30.2256 10.7041 29.7712 11.3468 29.5546C11.9893 29.3378 12.6778 29.385 13.2848 29.6872L27.2333 36.6323H17.4618L11.2724 34.3271C11.0187 34.2327 10.7872 34.1023 10.5825 33.941ZM30.6066 36.7075L26.1208 34.474L35.7347 29.6871C36.342 29.3848 37.03 29.3378 37.6729 29.5544C38.3154 29.7712 38.8346 30.2256 39.1346 30.8339C39.4555 31.4847 39.4847 32.2144 39.2169 32.8887C38.949 33.563 38.4272 34.0738 37.7473 34.3269C37.7473 34.3269 31.3701 36.7059 31.339 36.7231H30.635C30.6256 36.7181 30.6164 36.7124 30.6066 36.7075ZM47.5834 43.8484C47.5834 44.7384 46.8594 45.4625 45.9694 45.4625H3.05023C2.16022 45.4625 1.43612 44.7384 1.43612 43.8484V38.1594H47.5834V43.8484Z" fill="#AEA17E"/>
</svg>
