<svg width="73" height="79" viewBox="0 0 73 79" fill="none" xmlns="http://www.w3.org/2000/svg">
<path d="M72.3657 44.3471C71.1072 39.6751 68.2315 31.8037 63.1132 31.5798C56.1188 31.2729 52.5995 34.4387 52.0462 41.5262C47.5537 39.5896 43.2379 37.9532 42.2053 37.5655C41.4082 36.2508 37.0802 29.5764 27.3876 22.4345L28.2475 21.557L28.6211 21.3691C30.8013 20.2728 31.733 17.6616 30.7426 15.4251L29.5893 12.8147C29.16 11.8426 28.8217 10.8155 28.5843 9.76357L26.9596 2.49731C26.6586 1.142 25.4844 0.195584 24.0964 0.195584C23.636 0.196752 23.2134 0.446716 22.9658 0.829015C22.4352 0.310414 21.7123 0 20.9188 0C20.2951 0.0016341 19.7388 0.457452 19.5964 1.08434L16.5268 14.5854C16.367 14.5409 16.2029 14.5159 16.0356 14.5159C15.1112 14.5159 14.3352 15.1835 14.191 16.1035L13.8387 18.3473C13.6823 19.3444 13.9839 20.3403 14.6383 21.0729C12.8061 24.0391 9.5813 29.2876 6.60582 34.275C-6.2536e-07 45.3468 0 46.0978 0 46.5014C0 47.5907 2.55847 54.3719 7.44125 61.3028C11.8929 67.6216 19.4104 75.6239 29.9434 77.862C32.5237 78.4104 35.0724 78.6883 37.519 78.6885C37.5186 78.6885 37.5195 78.6885 37.519 78.6885C45.8365 78.6885 51.7663 75.4852 55.2749 72.7982C59.4959 69.5654 62.0204 65.762 62.9 63.4873C63.7014 61.4146 64.3043 58.6724 64.3533 55.8846C64.8284 55.0734 66.8388 51.5681 67.7739 48.7962C68.4552 48.6703 69.2871 48.4603 70.2543 48.1697C71.8837 47.6799 72.8112 46.0008 72.3657 44.3471ZM24.1317 1.59571C24.8432 1.60855 25.4449 2.10078 25.6009 2.80306L27.226 10.0719C27.4838 11.2141 27.8507 12.3281 28.3166 13.3831L29.4705 15.994C30.1574 17.5452 29.5108 19.3558 27.9983 20.1165L27.5215 20.3563C27.453 20.3907 27.3906 20.4362 27.3369 20.491L26.2844 21.5654C26.1265 21.3672 25.9632 21.1705 25.7916 20.9769C27.7191 19.7883 28.5007 17.3426 27.565 15.2299L26.4117 12.6196C25.9825 11.6475 25.6441 10.6206 25.4065 9.56845L23.8748 2.71788L24.1317 1.59571ZM20.9544 1.40059C21.6659 1.41343 22.2676 1.90565 22.4232 2.60795L24.0487 9.87676C24.3064 11.019 24.6733 12.133 25.1393 13.1879L26.2931 15.7987C26.98 17.3498 26.3335 19.1605 24.8211 19.9211L24.7873 19.9381C22.596 17.8273 19.8943 16.2241 17.8204 15.1784L20.9544 1.40059ZM1.39374 46.5222C1.65435 45.2742 7.2477 35.6919 15.7207 21.9746C16.6568 22.7099 17.4428 23.6001 18.0552 24.6265L18.9205 26.0771C19.2562 26.6396 19.7848 27.0501 20.3895 27.2548C17.6146 38.1207 13.8584 44.3049 9.7811 44.689C9.3982 44.725 9.11694 45.0665 9.15292 45.4515C9.18679 45.8146 9.4901 46.0864 9.84515 46.0864C9.86696 46.0864 9.88877 46.0855 9.91082 46.0834C10.2021 46.0559 10.4878 46.0068 10.7683 45.9376C12.0754 47.2004 19.0503 53.9214 22.666 57.0793C22.479 57.9246 21.9666 60.0282 21.0639 62.2584C20.0708 64.7115 18.4008 67.8026 16.0005 68.9538C6.31668 60.3296 1.5179 47.7685 1.39374 46.5222ZM37.0867 62.774C36.1032 61.3697 32.2483 56.4897 25.9912 56.0477C24.9318 54.8289 19.6091 48.7125 16.4855 45.271C20.4909 42.3612 23.4024 31.9575 24.3443 28.2L36.4899 42.4946C36.5234 42.5342 36.5613 42.5698 36.6029 42.6009L47.4584 50.7461C46.5448 54.3645 44.1179 61.7639 39.4243 62.5393L37.0867 62.774ZM15.1087 44.4674C14.9036 44.5591 14.755 44.7447 14.7095 44.9656C14.6642 45.1868 14.7278 45.4164 14.8798 45.582C17.4154 48.3448 22.1053 53.7113 24.1419 56.049C23.9804 56.0605 23.8193 56.0708 23.6551 56.0883C20.4032 53.2568 14.2583 47.3614 12.2072 45.3851C16.9081 42.9239 19.963 34.6219 21.7902 27.4021H23.109C21.9246 32.3099 18.7128 42.8563 15.1087 44.4674ZM17.1381 69.9294C21.567 67.2908 23.5453 59.5609 24.0089 57.4658C31.0151 56.8403 35.2592 62.5587 36.0218 63.685C35.9356 64.4135 35.637 66.6897 35.0096 69.1906C34.0799 72.8957 32.8433 75.4873 31.4226 76.7234C31.0265 76.6522 30.6294 76.5768 30.2312 76.4921C25.1973 75.4224 20.8374 72.9814 17.1381 69.9294ZM61.6023 62.9799C59.797 67.6485 51.535 77.2889 37.519 77.2884C36.0806 77.2884 34.6034 77.1869 33.1043 76.9878C36.0146 73.4868 37.106 66.2538 37.3687 64.1535L39.5839 63.9308C39.5975 63.9294 39.6113 63.9275 39.6248 63.9254C44.7613 63.0982 47.4289 56.2892 48.6632 51.6504L53.7704 55.4824L53.5152 59.8464C53.4925 60.2324 53.7855 60.5638 54.1691 60.5865C54.1831 60.5874 54.197 60.5877 54.2106 60.5877C54.5764 60.5877 54.8832 60.3006 54.9049 59.9285L55.1823 55.1877C55.1962 54.9524 55.0913 54.726 54.9036 54.5852L37.4977 41.5252L24.5165 26.247C24.3842 26.0913 24.1908 26.0017 23.9872 26.0017H21.2476C20.7861 26.0017 20.3519 25.7544 20.1145 25.3563L19.2492 23.9058C18.511 22.6686 17.5549 21.602 16.4068 20.7356L15.9507 20.3916C15.3863 19.9662 15.1039 19.2665 15.2139 18.5658L15.5662 16.322C15.6075 16.0585 15.8388 15.9163 16.0353 15.9163C16.1027 15.9163 16.5456 16.1086 16.716 16.1915C18.8506 17.2296 21.8752 18.9549 24.1645 21.2837C24.6088 21.728 25.016 22.1928 25.3746 22.6649C25.4176 22.7212 25.4684 22.7706 25.5259 22.8114C31.3204 26.9336 35.2537 30.9747 37.5331 33.6388C40.0037 36.5264 41.1175 38.4637 41.1283 38.4826C41.2095 38.6257 41.3383 38.7355 41.492 38.7924C41.5967 38.8313 52.059 42.7191 58.3244 46.0068C60.1386 46.9588 62.4008 49.0755 62.8753 53.7534C63.2272 57.2189 62.4483 60.7916 61.6023 62.9799ZM69.8555 46.8279C68.7383 47.1638 67.8259 47.3836 67.1436 47.4817C66.8765 47.5199 66.6554 47.7102 66.5762 47.9697C66.0708 49.6291 65.0381 51.7225 64.2215 53.2533C63.7927 49.76 62.2884 46.5077 58.9684 44.7654C57.3143 43.8974 55.3742 42.9893 53.408 42.1204C53.4061 42.0615 53.4059 42.0063 53.4091 41.9572C53.8261 35.3868 56.7097 32.7018 63.0524 32.979C64.5153 33.043 68.2204 34.3145 71.0215 44.7136C71.2682 45.6283 70.7561 46.5572 69.8555 46.8279Z" fill="#3D493A"/>
</svg>
