<svg width="44" height="58" viewBox="0 0 44 58" fill="none" xmlns="http://www.w3.org/2000/svg">
<path d="M40.6181 48.3215C41.6107 48.0831 42.4529 47.3847 42.8705 46.4531L43.2251 45.6626C43.742 44.5099 43.5472 43.1431 42.7288 42.1806C42.4072 41.8025 41.9969 41.4973 41.542 41.2979L40.2531 40.7331C38.6309 40.0222 36.9364 39.5518 35.1966 39.3224L33.4862 29.298C33.4795 29.2544 33.474 29.2106 33.4697 29.1668L33.2755 27.2257C33.0395 24.8644 32.5821 22.5118 31.9161 20.2332L31.6672 19.3814C31.4733 18.7176 31.107 18.1144 30.6078 17.636C29.9531 17.0089 29.0845 16.6839 28.1981 16.7171L24.5123 15.022C24.5992 14.8943 24.6847 14.7636 24.7682 14.6266C25.7475 13.0164 26.3176 11.0004 26.2934 9.23313C26.2694 7.48704 25.6648 5.85026 24.5909 4.62428C24.436 4.44747 24.2735 4.28378 24.105 4.13048C24.1419 3.96266 24.1755 3.78007 24.173 3.58827C24.1453 1.5824 22.492 -0.0320257 20.4847 0.000482465C18.4789 0.0283775 16.8695 1.68291 16.8969 3.68854C16.8999 3.89534 16.9424 4.06755 16.9868 4.22177C16.8204 4.38176 16.6597 4.55212 16.5078 4.73586C15.4683 5.99088 14.9088 7.64357 14.9328 9.38981C14.9572 11.1569 15.5826 13.1567 16.606 14.7394C16.665 14.8304 16.7252 14.9181 16.7856 15.0049L12.8536 16.7171C11.9656 16.6828 11.0948 17.0076 10.439 17.6358C9.93987 18.1141 9.57358 18.7175 9.37971 19.3809L9.13046 20.233C8.46446 22.5115 8.00709 24.8641 7.77102 27.2255L7.57715 29.1659C7.57253 29.2099 7.56702 29.2539 7.56122 29.2917L5.98528 38.6705C4.49748 38.8014 3.03732 39.2374 1.72115 39.9709C0.90043 40.4281 0.305456 41.2149 0.0889838 42.1295C-0.205174 43.3717 0.243676 44.696 1.23269 45.5035C2.18453 46.2804 3.2482 46.8867 4.38377 47.3061L4.18509 53.2412C4.18489 53.251 4.18489 53.2609 4.18509 53.2709C4.18715 53.3388 4.16571 53.3875 4.15577 53.399L2.86784 54.8859C2.58682 55.2105 2.47872 55.6993 2.58545 56.1613C2.67761 56.5608 2.91554 56.8688 3.23758 57.0062L4.54912 57.5655C4.66322 57.6139 4.78499 57.6383 4.90184 57.6383C4.94079 57.6383 4.97905 57.6355 5.01663 57.6302L8.10348 57.2627C8.41302 57.2176 8.68577 57.0124 8.85181 56.7005C9.05187 56.3241 9.07627 55.8581 8.92204 55.4586L9.70017 55.3385C10.0464 55.2857 10.3221 54.9971 10.3862 54.6209C10.4727 54.1127 10.1893 53.6296 9.75456 53.5436L7.78833 53.1544C7.78371 53.1415 7.77909 53.1242 7.77702 53.1026L8.61869 49.6529C9.8963 50.3417 11.2795 50.9581 12.2913 51.0619C14.495 51.289 19.7246 50.0547 20.6271 49.8359C21.458 50.0929 26.034 51.4796 28.056 51.4796C29.0193 51.4796 30.9633 50.9897 32.8643 50.4321L33.637 53.1101C33.6348 53.1283 33.6308 53.1434 33.6267 53.1544L31.6607 53.5436C31.2259 53.6296 30.9423 54.1127 31.0288 54.6209C31.0929 54.9973 31.3686 55.2857 31.7144 55.3385L32.4927 55.4586C32.3385 55.8578 32.3629 56.3241 32.563 56.7005C32.729 57.0126 33.0017 57.2176 33.3235 57.2644L36.3871 57.6286C36.4288 57.6346 36.4708 57.6376 36.5125 57.6376C36.6328 57.6376 36.7529 57.6132 36.8663 57.5652L38.1772 57.0062C38.4992 56.8688 38.7371 56.5608 38.8293 56.1613C38.9361 55.6993 38.8279 55.2105 38.5467 54.8859L37.259 53.3992C37.2488 53.3875 37.2271 53.3388 37.2294 53.2709C37.2299 53.2542 37.2295 53.2372 37.2283 53.2204L36.9078 49.15C37.3638 48.9963 37.673 48.8889 37.773 48.8541C38.7291 48.7227 39.6793 48.547 40.6181 48.3215ZM8.27453 47.1055C7.58679 45.1496 7.74663 43.0003 8.72866 41.1635L8.79899 41.0321C12.5249 40.6031 23.4355 41.9128 23.5519 41.927C23.6824 41.943 23.8142 41.9018 23.9132 41.8145C24.0118 41.727 24.0683 41.6013 24.0683 41.4695V40.6662C24.0683 40.411 24.1817 40.1715 24.3795 40.0099C24.5423 39.8767 24.7463 39.8086 24.9577 39.8193L27.6971 39.9529C27.8203 39.9572 27.9392 39.9158 28.0298 39.8333L31.1913 36.9592C31.3055 36.8556 31.4512 36.8027 31.6068 36.8101L32.5727 36.8559C32.6691 36.8606 32.7638 36.8897 32.8461 36.9396C33.0038 37.0362 33.1036 37.197 33.1199 37.3809C33.1364 37.5649 33.0662 37.7408 32.9279 37.8632L30.8533 39.7021C30.6466 39.8856 30.4165 40.0431 30.1703 40.1701L25.5313 42.5621C25.523 42.5663 25.5152 42.5707 25.5073 42.5755L23.6457 43.6809C21.5678 44.9147 19.3122 45.7806 16.9424 46.2548L14.9535 46.6525C12.7531 47.0925 10.5112 47.2443 8.27453 47.1055ZM9.03505 38.8379C8.97604 38.3796 9.22548 37.9247 9.66092 37.7398C9.86679 37.652 10.0994 37.6331 10.3175 37.6861L10.7094 37.7813C11.5004 37.9734 12.1844 38.4519 12.6359 39.1293L12.7849 39.3529C12.8543 39.4569 12.9629 39.5283 13.0859 39.5507L14.2824 39.7683C14.6792 39.8405 15.0535 39.9968 15.3834 40.2195C14.3371 40.1469 13.2925 40.0883 12.318 40.0558L9.91479 39.0546C9.89836 39.0479 9.88174 39.0419 9.86492 39.0373C9.59089 38.9582 9.31351 38.8939 9.03505 38.8379ZM12.7879 32.6026L12.9689 33.0626C13.429 34.2312 13.5687 35.5046 13.373 36.7451L13.1339 38.2611C12.8361 37.904 12.4824 37.6027 12.088 37.3655L12.7879 32.6026ZM14.2225 37.2781H27.4959L27.7868 38.8081L27.551 39.0225L25.0026 38.898C24.5635 38.8771 24.1354 39.0182 23.7956 39.2964C23.3829 39.6339 23.1462 40.1332 23.1462 40.6662V40.951C22.0791 40.8274 19.5478 40.5463 16.8125 40.3267C16.2383 39.5636 15.3908 39.0325 14.4474 38.8609L13.9862 38.777L14.2225 37.2781ZM28.3267 36.7103C28.137 35.7121 28.1697 34.6779 28.4187 33.694L29.007 37.6991L28.5872 38.0806L28.3267 36.7103ZM24.1163 44.4737L25.9661 43.3752L26.9189 42.884L27.6081 42.7966C29.8296 42.5142 32.111 42.6385 34.295 43.1502C33.6483 44.7639 33.6691 46.5986 34.3634 48.1991C34.1804 48.2028 33.9973 48.2075 33.8146 48.2076L30.5327 48.2107C30.5237 48.2107 30.515 48.2107 30.5062 48.2107C28.4044 48.2107 26.2996 47.9753 24.2505 47.5113L19.6963 46.4795C21.2346 45.975 22.7147 45.3059 24.1163 44.4737ZM41.1715 42.1425C41.4989 42.2859 41.7947 42.5059 42.0261 42.7781C42.6154 43.4711 42.7557 44.4551 42.3836 45.2852L42.0292 46.0757C41.7274 46.7484 41.1194 47.2526 40.4025 47.4252C38.7486 47.8222 37.0584 48.0682 35.3598 48.1627L35.286 48.0078C34.5955 46.5571 34.5677 44.8562 35.1939 43.3854C35.4423 43.4568 35.6899 43.5315 35.9352 43.6134L37.2219 44.0422L37.5134 43.1673L36.2269 42.7385C33.9527 41.9807 31.5286 41.6437 29.1294 41.7445L30.5927 40.9899C30.9071 40.8278 31.2007 40.6268 31.4649 40.3924L31.8532 40.0481L33.2498 40.0883C35.5461 40.1543 37.7776 40.6554 39.8824 41.5777L41.1715 42.1425ZM33.2765 39.1666L32.8614 39.1546L33.5395 38.5536C33.7719 38.3476 33.9287 38.0834 33.9999 37.7933L34.2433 39.2205C33.9225 39.1948 33.6001 39.1759 33.2765 39.1666ZM29.9691 18.3018C30.3517 18.6686 30.6325 19.1313 30.7812 19.6401L31.0304 20.4921C31.6805 22.7158 32.1268 25.0123 32.3573 27.3174L32.5514 29.2584C32.5574 29.3188 32.5653 29.3785 32.5754 29.4457L33.7974 36.6091C33.678 36.4277 33.5197 36.2714 33.3265 36.1531C33.1124 36.0226 32.8669 35.947 32.6162 35.935L31.6505 35.8892C31.252 35.8707 30.8674 36.0079 30.5707 36.2774L29.8289 36.9516L28.7168 29.3812C28.4574 27.6164 28.0021 25.8773 27.3631 24.2122L26.0855 20.8826C25.8762 20.3372 25.8738 19.7353 26.079 19.1879C26.3619 18.4337 26.9997 17.8765 27.7854 17.6976C28.5711 17.5177 29.3874 17.7444 29.9691 18.3018ZM20.4964 0.922151C21.9571 0.897718 23.1589 2.03977 23.2421 3.48061C22.4124 2.9739 21.4822 2.71132 20.5216 2.7233C19.5584 2.73668 18.6369 3.02461 17.8227 3.55392C17.867 2.11217 19.0402 0.942443 20.4964 0.922151ZM17.2171 5.32371C18.0994 4.25865 19.2773 3.66273 20.5343 3.64543C20.5532 3.64521 20.5719 3.64498 20.5908 3.64498C21.8267 3.64498 22.9986 4.20701 23.8964 5.23174C24.7703 6.22948 25.2793 7.55043 25.3553 8.97355C24.238 8.13599 22.1113 6.71614 20.534 6.71614C18.9685 6.71614 16.9458 8.10348 15.8662 8.94198C15.9338 7.57833 16.4032 6.30625 17.2171 5.32371ZM15.9024 10.0966C16.8547 9.28909 19.0985 7.63827 20.5338 7.63827C21.9723 7.63827 24.3226 9.30345 25.3258 10.1172C25.1903 11.4863 24.7138 12.9392 23.9794 14.1471C23.0544 15.668 21.8635 16.5493 20.712 16.5649C19.5621 16.5869 18.3461 15.733 17.3794 14.2379C16.5838 13.0074 16.0554 11.5053 15.9024 10.0966ZM22.3144 17.0802C22.0961 17.7815 21.4412 18.2918 20.6689 18.2918C19.895 18.2918 19.2389 17.7789 19.0222 17.0753C19.5595 17.3465 20.1161 17.4876 20.6781 17.4876C20.6935 17.4876 20.7092 17.4876 20.7246 17.4874C21.2671 17.4797 21.801 17.34 22.3144 17.0802ZM18.0239 16.4016V16.5689C18.0239 18.0273 19.2106 19.214 20.6692 19.214C22.1276 19.214 23.3143 18.0275 23.3143 16.5689V16.3971C23.5275 16.2111 23.7352 16.0029 23.936 15.7719L26.7939 17.0862C26.0742 17.458 25.5082 18.0846 25.2162 18.8636C24.9319 19.6221 24.9349 20.4561 25.2251 21.2123L26.5027 24.5419C27.1174 26.1436 27.5556 27.8166 27.8048 29.5144L28.1091 31.586L27.6552 33.0091C27.3114 34.0873 27.2054 35.2338 27.3403 36.3553H14.3493C14.4591 35.1238 14.2813 33.8789 13.8267 32.7244L13.0569 30.7688L13.2411 29.5144C13.4906 27.8166 13.9288 26.1436 14.5433 24.5419L15.8211 21.2123C16.1112 20.4561 16.1143 19.6221 15.83 18.8636C15.5416 18.0945 14.9856 17.4754 14.279 17.1019L17.372 15.7541C17.5835 15.9933 17.8006 16.2104 18.0239 16.4016ZM8.47164 29.4386C8.48089 29.3789 8.48846 29.3192 8.49466 29.2588L8.68882 27.3177C8.91928 25.0126 9.36564 22.716 10.0157 20.4923L10.265 19.6401C10.4137 19.1315 10.6944 18.6688 11.0771 18.302C11.6587 17.7446 12.476 17.5182 13.2604 17.6976C14.0461 17.8763 14.684 18.4334 14.9669 19.1879C15.1721 19.7353 15.1697 20.337 14.9604 20.8826L13.6828 24.2122C13.044 25.8773 12.5884 27.6164 12.3292 29.3812L11.2145 36.9696C11.1197 36.9393 11.0245 36.9093 10.927 36.8856L10.5353 36.7903C10.1264 36.6907 9.68768 36.7269 9.30014 36.8913C8.56518 37.2036 8.10712 37.9254 8.10161 38.6933C7.71132 38.6504 7.31964 38.629 6.92777 38.6293L8.47164 29.4386ZM0.986495 42.3422C1.14348 41.679 1.57499 41.1082 2.17027 40.7767C3.62718 39.9647 5.27669 39.5479 6.93072 39.5479C7.82404 39.5479 8.71873 39.6695 9.58509 39.916L9.88341 40.0404C9.10951 40.0643 8.46102 40.1238 8.00364 40.2291L3.89138 41.178L4.09863 42.0766L7.66017 41.2548C6.84495 43.0746 6.71177 45.1172 7.28 47.0246L7.2143 47.0181C5.2285 46.8215 3.36161 46.0508 1.81587 44.7891C1.09853 44.204 0.772974 43.2434 0.986495 42.3422ZM6.86709 52.9412C6.85971 52.9714 6.85538 53.0022 6.8542 53.0331C6.83551 53.5376 7.12804 53.9643 7.54902 54.047L9.47856 54.4291V54.4399L8.19751 54.637C8.05341 54.6598 7.9163 54.7592 7.84872 54.8887C7.77702 55.0261 7.77446 55.1912 7.84154 55.3293L8.04564 55.7535C8.11292 55.8934 8.11686 56.0798 8.05548 56.2286C8.01928 56.3164 7.97708 56.3476 7.982 56.3487L4.90991 56.7171L3.59905 56.158C3.56866 56.1449 3.51259 56.0799 3.48358 55.9538C3.44374 55.7818 3.47709 55.5909 3.56473 55.4897L4.85295 54.0026C5.01987 53.8096 5.11204 53.5394 5.10722 53.2589L5.29627 47.6142C5.61604 47.8347 6.596 48.497 7.78351 49.1854L6.86709 52.9412ZM20.78 48.9179C20.6993 48.8928 20.6129 48.8901 20.5308 48.9103C20.4717 48.9249 14.5913 50.3715 12.3849 50.1449C11.1112 50.0141 9.04823 48.8877 7.55384 47.9746C8.32804 48.0419 9.10302 48.0776 9.8779 48.0776C11.6405 48.0774 13.3999 47.9033 15.134 47.5564L17.1226 47.1587C17.3596 47.1112 17.5943 47.0568 17.829 47.0019L24.0462 48.4103C26.1625 48.8898 28.3355 49.1328 30.5057 49.1328H30.5332L33.8151 49.1298C33.8731 49.1298 33.9312 49.1275 33.9893 49.127C31.7815 49.8156 29.1502 50.5573 28.0553 50.5573C26.0156 50.5575 20.8321 48.9343 20.78 48.9179ZM36.3071 53.2709C36.305 53.5471 36.397 53.8126 36.5616 54.0031L37.8493 55.49C37.937 55.5909 37.9704 55.782 37.9305 55.954C37.9014 56.0801 37.8454 56.1452 37.815 56.1582L36.5067 56.7148L33.4455 56.351C33.437 56.3478 33.3948 56.3169 33.3586 56.2291C33.2973 56.0803 33.3011 55.894 33.3685 55.7539L33.5718 55.3309C33.6394 55.1917 33.6368 55.0264 33.5651 54.889C33.4973 54.7592 33.3594 54.6596 33.2147 54.6372L31.9348 54.4401C31.9348 54.4364 31.9348 54.433 31.9348 54.4297L33.8643 54.0475C34.286 53.9648 34.5785 53.538 34.5598 53.0336C34.5585 52.9962 34.5525 52.959 34.5421 52.923L33.747 50.1681C34.5696 49.9171 35.3509 49.6662 36.006 49.4509L36.3071 53.2709Z" fill="#1E1E1E"/>
</svg>
