<svg width="45" height="43" viewBox="0 0 45 43" fill="none" xmlns="http://www.w3.org/2000/svg">
<path d="M6.68696 7.37422L8.1132 10.3225L11.3486 10.7629C11.99 10.8489 12.2198 11.6435 11.7794 12.0647L9.41511 14.3332L9.99901 17.5496C10.1138 18.1813 9.44383 18.6599 8.88854 18.3536L6.00733 16.803L3.12608 18.3536C2.57089 18.6503 1.87211 18.1909 2.02527 17.5017L2.59961 14.3237L0.235258 12.0551C-0.22421 11.6148 0.0246721 10.8298 0.675584 10.7437L3.90144 10.3034L5.3277 7.35511C5.59573 6.79031 6.41895 6.79992 6.68696 7.37422ZM6.9167 11.3563L6.00733 9.46097L5.0884 11.3563C4.9831 11.5764 4.76294 11.7488 4.50449 11.7871L2.42731 12.0647L3.9493 13.5197C4.1216 13.6919 4.21732 13.9408 4.16946 14.1993L3.79614 16.2669L5.63401 15.2809C5.85418 15.166 6.13178 15.1469 6.36151 15.2809L8.20897 16.2765L7.84522 14.2471C7.78778 13.9982 7.85482 13.7206 8.05577 13.5197L9.57782 12.0647L7.51975 11.7871C7.27088 11.7584 7.03157 11.5956 6.9167 11.3563ZM22.9789 0.434345L24.4052 3.38261L27.6503 3.82293C28.2916 3.90909 28.5213 4.70358 28.081 5.13433L25.7166 7.40294L26.3005 10.6193C26.4154 11.251 25.7453 11.7296 25.1902 11.4233L22.2897 9.87255L19.4085 11.4233C18.8534 11.72 18.1546 11.2606 18.3077 10.5713L18.8821 7.39343L16.5081 5.12476C16.0486 4.68443 16.2975 3.89951 16.9484 3.81336L20.1743 3.37303L21.6006 0.434345C21.8878 -0.14956 22.7013 -0.139983 22.9789 0.434345ZM23.2087 4.41641L22.2897 2.5211L21.3804 4.41641C21.2751 4.63657 21.055 4.80887 20.7965 4.84717L18.7098 5.12476L20.2317 6.57974C20.4136 6.75209 20.4998 7.00096 20.4519 7.25934L20.0786 9.32697L21.926 8.34099C22.1461 8.22621 22.4142 8.207 22.6535 8.34099L24.501 9.33658L24.1372 7.30727C24.0798 7.0584 24.1468 6.78081 24.3478 6.57974L25.8698 5.12476L23.8118 4.83759C23.5533 4.81845 23.3236 4.65571 23.2087 4.41641ZM39.2614 7.37422L40.6877 10.3225L43.923 10.7629C44.5644 10.8489 44.8038 11.6435 44.3538 12.0647L41.9895 14.3332L42.5734 17.5496C42.6883 18.1813 42.0182 18.6599 41.463 18.3536L38.5817 16.803L35.7005 18.3536C35.1454 18.6503 34.4466 18.1909 34.5902 17.5017L35.1645 14.3237L32.8001 12.0551C32.3406 11.6148 32.5895 10.8298 33.2404 10.7437L36.4663 10.3034L37.8926 7.35511C38.1702 6.79031 38.9933 6.79992 39.2614 7.37422ZM39.4912 11.3563L38.5817 9.46097L37.6628 11.3563C37.5575 11.5764 37.347 11.7488 37.0789 11.7871L35.0018 12.0647L36.5141 13.5197C36.6864 13.6919 36.7822 13.9408 36.7344 14.1993L36.361 16.2669L38.2085 15.2809C38.4286 15.166 38.7062 15.1469 38.9359 15.2809L40.793 16.2765L40.4292 14.2471C40.3718 13.9982 40.4388 13.7206 40.6398 13.5197L42.1522 12.0647L40.0942 11.7871C39.8453 11.7584 39.606 11.5956 39.4912 11.3563ZM18.7385 26.9208C18.5278 26.557 18.6523 26.088 19.0161 25.8775C19.3798 25.6668 19.8488 25.7913 20.0594 26.155L21.0645 27.8972L24.635 24.3267C24.9317 24.03 25.4199 24.03 25.7166 24.3267C26.0134 24.6235 26.0134 25.1116 25.7166 25.4084L21.4378 29.6872C21.0837 30.0413 20.4902 29.9648 20.2413 29.534L18.7385 26.9208ZM22.2897 18.8323C26.4537 18.8323 29.8327 22.2112 29.8327 26.3752C29.8327 30.5391 26.4537 33.9181 22.2897 33.9181C18.1258 33.9181 14.7468 30.5391 14.7468 26.3752C14.7468 22.2112 18.1258 18.8323 22.2897 18.8323ZM26.5399 22.1251C24.1947 19.7799 20.3849 19.7799 18.0397 22.1251C15.6945 24.4703 15.6945 28.28 18.0397 30.6252C20.3849 32.9705 24.1947 32.9705 26.5399 30.6252C28.885 28.2705 28.885 24.4703 26.5399 22.1251ZM22.2897 14.094C29.0669 14.094 34.5615 19.5885 34.5615 26.3656C34.5615 28.931 33.7765 31.3144 32.4268 33.2864L36.093 39.6328C36.4472 40.2262 35.9589 40.8963 35.3272 40.8006L31.5749 40.2071L29.5647 42.6767C29.2105 43.1362 28.55 43.0597 28.2916 42.6002L25.7262 38.1587C23.4863 38.8095 21.0837 38.8095 18.8534 38.1587L16.288 42.6002C16.0295 43.0597 15.369 43.1362 15.0148 42.6767L13.0047 40.2071L9.25229 40.8006C8.61095 40.9059 8.16114 40.2071 8.46745 39.6615L12.1527 33.2864C8.8216 28.4141 9.44382 21.8571 13.6173 17.6836C15.8285 15.4723 18.9012 14.094 22.2897 14.094ZM31.4122 34.5786C30.2444 35.8804 28.8085 36.9238 27.1812 37.6322L29.0573 40.8772L30.6654 38.9053C30.8474 38.6755 31.125 38.5894 31.393 38.6372L33.9775 39.0489L31.4122 34.5786ZM17.3887 37.6322C15.771 36.9238 14.3352 35.8804 13.1674 34.5882L10.5924 39.0489L13.1769 38.6372C13.4354 38.5894 13.7226 38.6851 13.9044 38.9053L15.5126 40.8772L17.3887 37.6322ZM29.8901 18.7748C25.6975 14.5821 18.8916 14.5821 14.699 18.7748C10.5063 22.9674 10.5063 29.7734 14.699 33.966C18.9012 38.1587 25.6975 38.1587 29.8901 33.966C34.0828 29.7734 34.0828 22.9674 29.8901 18.7748Z" fill="#AEA17E"/>
</svg>
