<svg width="308" height="252" viewBox="0 0 308 252" fill="none" xmlns="http://www.w3.org/2000/svg">
<g clip-path="url(#clip0_351_16668)">
<path fill-rule="evenodd" clip-rule="evenodd" d="M34.9583 37.3825C34.2185 37.3942 33.5743 37.7548 32.9656 38.181C32.249 38.6833 31.5816 39.2826 30.9138 39.6924C24.7355 43.4843 20.5766 48.9393 15.7835 54.1661C14.8933 55.137 13.891 56.2507 12.7376 57.0022C11.4788 57.8227 10.0477 58.227 8.39641 57.6815C7.58944 57.4146 6.80645 56.6539 6.00495 56.0557C5.4426 55.6359 4.87517 55.2719 4.21993 55.5964C4.01944 55.696 3.87656 55.9019 3.75299 56.1537C3.58656 56.492 3.47183 56.9115 3.39324 57.3654C3.14358 58.8071 3.26293 60.5904 3.55126 61.4482C3.86354 62.377 4.45319 63.4433 4.54607 64.457C4.89576 68.2704 3.32682 71.9657 2.39124 75.61C1.51745 79.0131 1.22533 82.3772 4.00055 85.7635C5.9608 88.1554 9.03907 90.1603 11.937 92.2027C14.9665 94.3387 17.7964 96.5238 19.1202 99.1491C19.2674 99.4416 19.1501 99.797 18.8584 99.9446C18.5671 100.091 18.2112 99.9738 18.0641 99.6822C16.8154 97.2073 14.1116 95.1834 11.2553 93.1696C8.26696 91.0639 5.10677 88.98 3.08515 86.5133C0.0220317 82.7756 0.280492 79.0724 1.24507 75.3154C2.14786 71.8 3.70508 68.2439 3.368 64.5655C3.28268 63.6387 2.7153 62.6742 2.42992 61.8252C2.04409 60.6786 1.90032 58.0892 2.4114 56.3617C2.67114 55.4841 3.11455 54.8239 3.69414 54.5364C4.5961 54.0892 5.42369 54.2859 6.21259 54.7663C6.69172 55.058 7.15655 55.4606 7.61846 55.8313C8.00093 56.139 8.37582 56.4285 8.76796 56.558C10.0335 56.9762 11.1266 56.6399 12.0916 56.0108C13.1625 55.3131 14.0847 54.2682 14.9114 53.3663C19.7792 48.0579 24.0201 42.5348 30.2947 38.6841C30.944 38.2852 31.5905 37.6998 32.2869 37.2118C33.0921 36.6482 33.9614 36.2149 34.9394 36.1993C35.266 36.1938 35.5353 36.4548 35.5404 36.7814C35.5458 37.1075 35.2848 37.377 34.9583 37.3825Z" fill="#3D493A" fill-opacity="0.1"/>
<path fill-rule="evenodd" clip-rule="evenodd" d="M8.18407 71.834C8.79644 74.4957 11.3413 74.7853 13.6891 74.2036C14.006 74.125 14.3271 74.3183 14.4057 74.6352C14.4839 74.9522 14.2905 75.2733 13.9737 75.3518C10.9702 76.0962 7.8142 75.5044 7.03077 72.0996C6.95763 71.781 7.15645 71.4633 7.47461 71.3901C7.7932 71.317 8.11094 71.5158 8.18407 71.834Z" fill="#3D493A" fill-opacity="0.1"/>
<path fill-rule="evenodd" clip-rule="evenodd" d="M13.9531 73.2613C14.4323 74.4512 14.6702 75.6389 14.252 76.8822C14.1478 77.1915 13.8123 77.3584 13.5026 77.2546C13.1932 77.1503 13.0264 76.8145 13.1302 76.5052C13.4542 75.5414 13.2269 74.6252 12.8554 73.7031C12.7334 73.4005 12.8806 73.0554 13.1832 72.9335C13.4862 72.8116 13.8312 72.9583 13.9531 73.2613Z" fill="#3D493A" fill-opacity="0.1"/>
<path fill-rule="evenodd" clip-rule="evenodd" d="M32.909 57.7386C32.922 57.8239 32.9346 57.9106 32.9464 57.998C32.964 58.1266 32.9389 58.2506 32.8817 58.3569C32.8586 58.5309 32.8035 58.6536 32.7628 58.7167C32.585 58.9928 32.3432 59.0383 32.1129 58.987C32.0103 58.9643 31.8095 58.9025 31.6657 58.6175C31.5712 58.4296 31.5207 58.1278 31.5321 57.7719C31.5389 57.5634 31.5657 57.3276 31.5943 57.0981C31.0987 54.6785 30.0985 52.8825 28.4694 50.6209C28.2269 50.2843 27.2964 49.2773 27.0471 48.4883C26.8622 47.9037 26.9693 47.4002 27.4229 47.0627C28.2794 46.426 29.2457 46.7543 30.1119 47.8037C31.625 49.6366 32.9283 53.7526 32.9918 54.755C33.0464 55.6246 32.9943 56.5114 32.9216 57.3742C32.914 57.4638 32.9115 57.5962 32.909 57.7386Z" fill="#3D493A" fill-opacity="0.1"/>
<path fill-rule="evenodd" clip-rule="evenodd" d="M25.4174 62.3665C24.0265 62.3443 22.7872 62.3291 21.77 62.1021C21.0072 61.9324 20.3595 61.6444 19.8429 61.1812C19.0091 60.4331 18.4883 59.2042 18.4883 57.1186C18.4883 56.7922 18.7532 56.5273 19.0797 56.5273C19.4063 56.5273 19.6714 56.7922 19.6714 57.1186C19.6714 58.7377 19.9858 59.7199 20.6331 60.3003C21.1076 60.7256 21.744 60.9219 22.4946 61.0325C23.3503 61.159 24.3438 61.1661 25.4362 61.1833C25.7624 61.1884 26.0233 61.4578 26.0183 61.7844C26.0129 62.111 25.7435 62.3715 25.4174 62.3665Z" fill="#3D493A" fill-opacity="0.1"/>
<path fill-rule="evenodd" clip-rule="evenodd" d="M35.9548 38.053C35.972 39.4181 35.7102 40.7778 35.8211 42.1513C36.1103 45.736 37.5485 49.4253 38.9511 52.7121C40.0762 55.3481 42.1462 58.4596 43.7437 61.5076C44.8495 63.6175 45.7287 65.7008 45.9667 67.5851C46.0074 67.9087 45.7775 68.205 45.4535 68.2457C45.1294 68.2866 44.8335 68.057 44.7923 67.733C44.5133 65.5193 43.2633 63.0228 41.8684 60.538C40.4217 57.9607 38.812 55.4007 37.8629 53.1764C36.4121 49.7767 34.9411 45.9549 34.6418 42.2467C34.5287 40.8459 34.7893 39.4597 34.7717 38.0681C34.7675 37.7415 35.0289 37.473 35.3554 37.4688C35.682 37.4646 35.9506 37.7264 35.9548 38.053Z" fill="#3D493A" fill-opacity="0.1"/>
<path fill-rule="evenodd" clip-rule="evenodd" d="M44.7112 70.5429C45.2996 68.6814 45.8989 66.8199 46.9497 65.1534C48.7539 62.2912 50.9722 60.9803 52.9082 61.1799C54.8596 61.3812 56.664 63.11 57.5503 66.6249C58.069 68.6818 58.2964 71.0368 57.9778 73.1441C57.5604 75.9021 55.7738 79.9172 53.1775 82.3166C51.3531 84.0028 49.1386 84.8989 46.7269 84.1722C46.4147 84.0781 46.2372 83.7477 46.3314 83.435C46.4255 83.1223 46.7559 82.945 47.0686 83.0391C49.0587 83.6389 50.8685 82.8394 52.3745 81.4474C54.7743 79.2296 56.4218 75.5167 56.8077 72.9671C57.1035 71.0102 56.8846 68.8243 56.403 66.914C55.6825 64.0565 54.3734 62.5206 52.7867 62.3572C51.1846 62.1916 49.4437 63.4155 47.9504 65.7843C46.9543 67.3646 46.3974 69.1344 45.8397 70.8997C45.7413 71.2107 45.4084 71.3838 45.097 71.2855C44.786 71.1867 44.6128 70.8543 44.7112 70.5429Z" fill="#3D493A" fill-opacity="0.1"/>
<path fill-rule="evenodd" clip-rule="evenodd" d="M48.0015 75.7744C48.2125 75.7005 48.4311 75.6765 48.65 75.7138C48.8968 75.7563 49.1544 75.8744 49.4049 76.1233C49.8684 76.5826 50.0719 77.3589 50.0429 78.2171C50.0055 79.3419 49.5953 80.5973 49.1943 81.2147C49.0165 81.4883 48.65 81.5665 48.376 81.3887C48.102 81.2109 48.0243 80.844 48.2021 80.5704C48.5214 80.0786 48.8304 79.0733 48.8606 78.1777C48.877 77.6884 48.8363 77.2252 48.5718 76.9634C48.4109 76.8037 48.2604 76.9474 48.1242 77.0664C47.8982 77.2643 47.7019 77.5195 47.5493 77.696C47.4837 77.7716 47.3589 77.9024 47.2668 77.9582C47.155 78.0268 47.0445 78.0528 46.9512 78.057C46.7171 78.0671 46.504 77.9851 46.3665 77.7119C46.3195 77.6191 46.2792 77.482 46.2859 77.3C46.2918 77.1387 46.3422 76.8899 46.438 76.5834C46.8747 75.1868 48.2873 72.2498 48.4971 71.7925C48.7761 71.1831 49.7983 68.8054 50.897 67.5875C51.5379 66.8763 52.2499 66.5632 52.8656 66.7506C53.1779 66.8452 53.3544 67.176 53.2595 67.4887C53.1649 67.801 52.8341 67.9775 52.5213 67.8825C52.3957 67.8443 52.2784 67.9342 52.1456 68.0325C51.8825 68.2284 51.6232 68.5361 51.3719 68.8899C50.5208 70.0861 49.7966 71.7967 49.5726 72.2855C49.4167 72.6251 48.5807 74.3618 48.0015 75.7744Z" fill="#3D493A" fill-opacity="0.1"/>
<path fill-rule="evenodd" clip-rule="evenodd" d="M47.109 86.003C47.7306 86.4738 48.1795 86.8642 48.9323 87.1131C49.242 87.2152 49.4106 87.5501 49.3084 87.8603C49.2058 88.1705 48.8708 88.3391 48.5607 88.2365C47.6717 87.9427 47.1287 87.5027 46.3945 86.9458C46.1339 86.7487 46.0831 86.3775 46.2802 86.1169C46.4773 85.8568 46.8488 85.8056 47.109 86.003Z" fill="#3D493A" fill-opacity="0.1"/>
<path fill-rule="evenodd" clip-rule="evenodd" d="M47.3586 89.3804C47.7268 89.6893 47.681 89.6455 48.0811 89.9099C48.3535 90.0898 48.4283 90.4571 48.2484 90.7295C48.0681 91.0018 47.7007 91.0771 47.4284 90.8968C46.9686 90.5929 47.022 90.6424 46.5983 90.2869C46.3478 90.0772 46.315 89.7035 46.5252 89.4534C46.7349 89.2034 47.1081 89.1706 47.3586 89.3804Z" fill="#3D493A" fill-opacity="0.1"/>
<path fill-rule="evenodd" clip-rule="evenodd" d="M80.389 69.703C81.3275 74.8735 80.3744 81.8092 77.8277 87.6513C76.115 91.5791 73.6824 95.0091 70.644 97.1049C67.2288 99.4605 61.1979 101.381 56.0287 100.921C52.4705 100.604 49.3241 99.1661 47.6203 96.0697C47.4627 95.7836 47.5674 95.4228 47.8531 95.266C48.1393 95.1084 48.4996 95.2132 48.6567 95.4993C50.1656 98.2412 52.9828 99.4614 56.1338 99.742C61.0281 100.179 66.7387 98.3615 69.9724 96.1308C72.8443 94.1498 75.124 90.8918 76.743 87.1785C79.1928 81.5583 80.1276 74.8886 79.2248 69.9144C79.1664 69.5929 79.3799 69.2849 79.7014 69.2264C80.0225 69.1679 80.331 69.3815 80.389 69.703Z" fill="#3D493A" fill-opacity="0.1"/>
<path fill-rule="evenodd" clip-rule="evenodd" d="M76.7473 65.0961C76.5283 65.1961 76.2606 65.1554 76.0815 64.9742C75.8516 64.7427 75.8533 64.3677 76.0849 64.1379C76.393 63.8327 76.8684 63.7844 77.3945 64.0858C78.0326 64.451 78.8248 65.3983 79.0118 65.6773C79.1934 65.9489 79.1207 66.3167 78.8496 66.4982C78.5785 66.6802 78.2104 66.6075 78.0288 66.336C77.9447 66.2103 77.7043 65.9127 77.4219 65.6261C77.226 65.4273 76.8776 65.1843 76.7473 65.0961Z" fill="#3D493A" fill-opacity="0.1"/>
<path fill-rule="evenodd" clip-rule="evenodd" d="M76.7074 67.7209C76.6905 67.6306 76.6616 67.5129 76.617 67.4108C76.4863 67.1116 76.6233 66.7623 76.9225 66.6315C77.2218 66.5009 77.5706 66.6378 77.7014 66.9371C78.1519 67.9682 77.8014 68.6011 77.355 68.8268C76.9595 69.0264 76.2416 68.9705 75.5049 68.343C75.2561 68.1316 75.2263 67.7579 75.4381 67.5092C75.6495 67.2608 76.0231 67.2305 76.272 67.4423C76.4216 67.5701 76.5649 67.663 76.6964 67.7167L76.7074 67.7209Z" fill="#3D493A" fill-opacity="0.1"/>
<path fill-rule="evenodd" clip-rule="evenodd" d="M77.1307 54.5884C75.6639 43.4194 68.3646 31.2506 56.2261 29.3702C54.5175 29.1054 52.7162 29.2904 50.993 29.1478C48.3254 28.9272 41.8578 29.0503 39.4382 30.1574C35.5038 31.9576 35.5038 33.3512 32.8047 36.0268C32.5731 36.2567 32.1982 36.2551 31.9683 36.0231C31.7384 35.7914 31.74 35.4166 31.9716 35.1866C34.796 32.3867 34.8288 30.9652 38.946 29.081C41.4897 27.9172 48.2854 27.737 51.0904 27.9685C52.8414 28.1131 54.671 27.932 56.4073 28.201C69.0699 30.1624 76.7739 42.7831 78.3038 54.4341C78.3462 54.7578 78.1181 55.0553 77.7944 55.0978C77.4704 55.1402 77.1732 54.912 77.1307 54.5884Z" fill="#3D493A" fill-opacity="0.1"/>
<path fill-rule="evenodd" clip-rule="evenodd" d="M76.8082 50.5663C77.1979 48.1245 77.7867 45.6968 79.5906 43.8345C81.6559 41.7023 84.4803 41.0723 87.3547 41.4409C91.5541 41.9797 95.8442 44.67 97.8617 47.7084C98.0431 47.9803 97.9693 48.3481 97.6968 48.5288C97.4243 48.7091 97.0571 48.6351 96.8767 48.3632C95.0205 45.5691 91.066 43.1099 87.2043 42.6148C84.7043 42.2941 82.2368 42.8039 80.4409 44.6578C78.8126 46.3386 78.3284 48.5486 77.9767 50.7526C77.9254 51.0749 77.6219 51.2951 77.2992 51.2438C76.9768 51.1922 76.7569 50.8887 76.8082 50.5663Z" fill="#3D493A" fill-opacity="0.1"/>
<path fill-rule="evenodd" clip-rule="evenodd" d="M90.6744 46.3026C92.1679 45.9424 92.6308 46.5039 93.8692 47.313C97.4076 49.6238 100.016 51.5079 101.371 55.6588C104.153 64.1853 100.669 72.4883 92.8149 76.381C90.5551 77.5011 86.832 78.198 84.3704 77.1536C83.2827 76.692 82.479 75.9154 81.5233 75.2837C81.251 75.1034 81.1758 74.7364 81.3557 74.4637C81.5359 74.1913 81.9033 74.1165 82.1756 74.2964C83.0713 74.8886 83.8136 75.6321 84.8328 76.0646C87.0077 76.9871 90.2924 76.3109 92.2891 75.3211C99.6009 71.6969 102.837 63.9638 100.246 56.0257C98.9858 52.1645 96.5136 50.4534 93.2222 48.304C92.8987 48.0926 92.6372 47.8951 92.3957 47.7307C91.9747 47.4445 91.6312 47.2891 90.9514 47.4529C90.6341 47.5295 90.3143 47.3336 90.2377 47.0162C90.1613 46.6989 90.3566 46.3791 90.6744 46.3026Z" fill="#3D493A" fill-opacity="0.1"/>
<path fill-rule="evenodd" clip-rule="evenodd" d="M85.6327 71.9173C83.3374 71.774 81.8104 70.5774 80.7294 68.942C79.7157 67.4088 79.1067 65.4767 78.6052 63.7363C78.5149 63.4223 78.6961 63.0945 79.01 63.0037C79.3236 62.9134 79.6518 63.0949 79.7422 63.4084C80.2121 65.0384 80.7673 66.8536 81.7163 68.2898C82.5985 69.6242 83.8333 70.6195 85.7062 70.7363C86.0323 70.7565 86.2803 71.0376 86.2601 71.3634C86.2395 71.6895 85.9583 71.9375 85.6327 71.9173Z" fill="#3D493A" fill-opacity="0.1"/>
<path fill-rule="evenodd" clip-rule="evenodd" d="M48.3094 97.8039C47.8084 101.238 47.9131 104.862 49.0269 108.177C49.1312 108.486 48.9642 108.822 48.6549 108.926C48.3451 109.03 48.0093 108.863 47.9055 108.554C46.7325 105.065 46.611 101.248 47.1384 97.6335C47.186 97.3101 47.4865 97.0859 47.8093 97.1333C48.1325 97.1807 48.3565 97.4814 48.3094 97.8039Z" fill="#3D493A" fill-opacity="0.1"/>
<path fill-rule="evenodd" clip-rule="evenodd" d="M19.7687 100.846C21.7911 108.371 23.4912 115.881 24.8954 123.537C25.4868 126.762 26.5729 129.983 26.5729 133.3C26.5729 133.626 26.3081 133.891 25.9815 133.891C25.6549 133.891 25.3897 133.626 25.3897 133.3C25.3897 130.054 24.3103 126.906 23.7316 123.75C22.3333 116.126 20.6399 108.647 18.6259 101.154C18.541 100.839 18.7284 100.513 19.0436 100.429C19.3589 100.344 19.6838 100.531 19.7687 100.846Z" fill="#3D493A" fill-opacity="0.1"/>
<path fill-rule="evenodd" clip-rule="evenodd" d="M48.0989 111.344C47.4954 111.999 46.6821 112.327 45.852 112.644C45.193 112.894 44.5197 113.134 44.0216 113.675C37.6235 120.623 35.82 126.33 33.7866 135.403C33.7151 135.722 33.3982 135.922 33.0797 135.851C32.761 135.779 32.5602 135.463 32.6316 135.144C34.7175 125.839 36.59 119.999 43.1512 112.873C43.7774 112.194 44.6016 111.854 45.4305 111.537C46.0878 111.287 46.751 111.06 47.2294 110.541C47.4508 110.302 47.8253 110.287 48.0653 110.508C48.3053 110.729 48.3204 111.104 48.0989 111.344Z" fill="#3D493A" fill-opacity="0.1"/>
<path fill-rule="evenodd" clip-rule="evenodd" d="M33.0175 133.128C32.1572 133.561 29.4374 134.864 27.439 135.058C26.3798 135.16 25.5043 134.934 25.021 134.332C24.8164 134.077 24.8571 133.705 25.1118 133.5C25.3661 133.296 25.7389 133.336 25.9436 133.591C26.1012 133.787 26.3614 133.859 26.6631 133.888C27.0884 133.929 27.5894 133.866 28.1152 133.75C29.8368 133.372 31.7966 132.418 32.485 132.072C32.7767 131.924 33.1327 132.042 33.2794 132.333C33.4265 132.625 33.3089 132.981 33.0175 133.128Z" fill="#3D493A" fill-opacity="0.1"/>
<path fill-rule="evenodd" clip-rule="evenodd" d="M25.7904 135.131C24.5707 140.343 25.898 145.823 25.3088 151.082C24.9402 154.371 24.3135 157.805 23.5259 160.931C23.3124 161.777 23.3708 162.724 23.404 163.666C23.4419 164.737 23.4486 165.801 23.1338 166.736C21.4497 171.745 22.9888 176.695 25.9241 181.264C30.4452 188.301 38.2741 194.436 43.2877 198.53C48.0939 202.453 53.052 206.137 58.0439 209.783C64.445 214.459 70.0615 220.19 76.1381 225.211C79.0671 227.631 82.4152 229.513 85.3518 231.842C85.6074 232.044 85.6506 232.417 85.4476 232.673C85.2446 232.928 84.8723 232.971 84.6163 232.769C81.6738 230.435 78.3199 228.548 75.3845 226.123C69.3256 221.118 63.728 215.4 57.3458 210.738C52.3372 207.08 47.3621 203.384 42.5392 199.446C37.4498 195.291 29.5181 189.047 24.9288 181.904C21.7905 177.019 20.2114 171.715 22.0124 166.359C22.2839 165.552 22.254 164.631 22.2213 163.707C22.1843 162.651 22.1389 161.591 22.3784 160.641C23.1539 157.567 23.7701 154.187 24.1328 150.951C24.7271 145.647 23.4078 140.119 24.638 134.861C24.7124 134.543 25.031 134.345 25.3492 134.42C25.6669 134.495 25.8648 134.813 25.7904 135.131Z" fill="#3D493A" fill-opacity="0.1"/>
<path fill-rule="evenodd" clip-rule="evenodd" d="M80.4023 137.299C83.5469 145.992 84.5463 155.254 87.9335 163.889C89.1158 166.903 89.4243 170.792 91.168 173.559C93.847 177.808 98.4005 180.911 103.133 182.715C103.897 183.007 105.033 183.078 106.029 183.301C106.829 183.481 107.545 183.761 108.013 184.225C108.709 184.916 109.119 186.396 109.252 188.228C109.537 192.146 108.729 197.729 108.297 199.444C107.279 203.482 106.457 207.627 104.725 211.444C102.972 215.304 99.2908 221.254 95.0161 225.796C92.1102 228.882 88.922 231.311 85.8825 232.064C85.5656 232.143 85.2444 231.949 85.1659 231.632C85.0872 231.315 85.2811 230.994 85.5979 230.915C88.4543 230.208 91.424 227.886 94.1541 224.985C98.334 220.544 101.934 214.728 103.647 210.954C105.351 207.203 106.148 203.124 107.149 199.156C107.568 197.497 108.348 192.102 108.072 188.314C108.004 187.382 107.875 186.551 107.65 185.91C107.525 185.553 107.377 185.261 107.18 185.066C106.755 184.644 106.024 184.491 105.272 184.356C104.354 184.19 103.395 184.082 102.712 183.82C97.7444 181.927 92.9786 178.65 90.167 174.189C88.3853 171.364 88.0399 167.4 86.8319 164.321C83.441 155.676 82.4377 146.404 79.2893 137.701C79.1783 137.394 79.3372 137.054 79.6444 136.943C79.9517 136.833 80.2908 136.992 80.4023 137.299Z" fill="#3D493A" fill-opacity="0.1"/>
<path fill-rule="evenodd" clip-rule="evenodd" d="M93.6639 127.066C88.187 131.061 82.1587 134.339 76.3897 137.858C71.9274 140.581 67.8603 144.459 64.1838 148.103C63.9518 148.333 63.577 148.332 63.3471 148.099C63.1172 147.868 63.1189 147.492 63.3509 147.263C67.0906 143.556 71.2344 139.617 75.7731 136.848C81.5148 133.345 87.5158 130.086 92.9668 126.11C93.2302 125.917 93.601 125.975 93.7933 126.24C93.9856 126.503 93.9282 126.874 93.6639 127.066Z" fill="#3D493A" fill-opacity="0.1"/>
<path fill-rule="evenodd" clip-rule="evenodd" d="M93.3611 125.148C93.0385 122.758 91.5113 115.053 89.7653 109.792C89.05 107.637 88.3238 105.898 87.6051 105.186C87.5177 105.1 87.3529 105.067 87.1503 105.027C86.8347 104.964 86.4434 104.934 86.0063 104.925C83.7867 104.877 80.476 105.357 79.3067 105.357C76.3416 105.357 73.4995 106.051 70.5461 106.295C63.9063 106.843 56.9861 106.865 51.0579 109.804C50.7649 109.949 50.4097 109.829 50.2647 109.536C50.1197 109.244 50.2395 108.889 50.5321 108.743C56.5931 105.739 63.6604 105.676 70.4486 105.116C73.4348 104.869 76.3088 104.174 79.3067 104.174C80.4806 104.174 83.8034 103.694 86.0319 103.742C86.6594 103.755 87.207 103.812 87.6155 103.921C87.985 104.019 88.2612 104.171 88.4381 104.346C89.2341 105.135 90.0961 107.033 90.8884 109.42C92.6595 114.754 94.2058 122.567 94.5339 124.99C94.5776 125.313 94.3507 125.611 94.0263 125.655C93.7037 125.699 93.4049 125.472 93.3611 125.148Z" fill="#3D493A" fill-opacity="0.1"/>
<path fill-rule="evenodd" clip-rule="evenodd" d="M83.1159 98.0267C83.0588 97.9994 82.9763 98.0085 82.8843 98.0067C82.6317 98.0021 82.3262 98.0531 81.9878 98.1324C80.1352 98.5716 77.4646 99.8692 76.545 99.9996C74.1993 100.331 71.8503 100.176 69.5034 100.379C66.1633 100.667 62.8454 102.026 59.4848 102.443C57.7922 102.652 54.8145 102.634 52.4272 103.274C51.0167 103.653 49.8046 104.24 49.3515 105.363C49.2292 105.667 48.8841 105.813 48.5815 105.691C48.2784 105.568 48.1318 105.224 48.2541 104.921C48.8354 103.481 50.3118 102.617 52.1204 102.131C54.5627 101.476 57.6078 101.483 59.339 101.268C62.7144 100.85 66.0473 99.4893 69.4016 99.1995C71.7271 98.999 74.0547 99.1567 76.3794 98.8277C77.2818 98.7001 79.8969 97.4125 81.7151 96.9815C82.2652 96.8512 82.754 96.7956 83.1298 96.8385C83.4984 96.8785 83.7838 97.0116 83.983 97.2093C84.1394 97.3642 84.2742 97.6604 84.3305 98.0422C84.4058 98.5525 84.3659 99.2788 84.4289 99.5704C84.7046 100.845 85.3069 102.489 85.1547 103.778C85.1161 104.102 84.8219 104.334 84.4975 104.296C84.1733 104.258 83.9413 103.963 83.9796 103.639C84.1179 102.466 83.5232 100.981 83.2723 99.82C83.2139 99.5494 83.2269 98.9334 83.1827 98.4149C83.171 98.281 83.1315 98.0951 83.1159 98.0267Z" fill="#3D493A" fill-opacity="0.1"/>
<path fill-rule="evenodd" clip-rule="evenodd" d="M109.07 186.73C111.088 187.046 113.724 187.117 115.622 187.745C115.933 187.847 116.101 188.183 115.998 188.492C115.896 188.802 115.561 188.971 115.251 188.869C113.408 188.259 110.846 188.206 108.887 187.898C108.564 187.848 108.343 187.545 108.394 187.222C108.444 186.899 108.748 186.679 109.07 186.73Z" fill="#3D493A" fill-opacity="0.1"/>
<path fill-rule="evenodd" clip-rule="evenodd" d="M113.85 244.345C108.199 243.087 103.063 240.473 97.7566 238.32C94.2756 236.908 90.8187 235.491 87.7891 233.238C87.5273 233.043 87.4727 232.672 87.6677 232.411C87.8623 232.148 88.2334 232.094 88.4953 232.289C91.4435 234.481 94.8142 235.849 98.2013 237.223C103.447 239.351 108.521 241.946 114.107 243.19C114.426 243.261 114.627 243.577 114.556 243.896C114.485 244.215 114.169 244.416 113.85 244.345Z" fill="#3D493A" fill-opacity="0.1"/>
<path fill-rule="evenodd" clip-rule="evenodd" d="M238.182 73.8356C238.201 73.8579 238.233 73.8932 238.26 73.9159C238.395 74.0281 238.585 74.1311 238.819 74.2349C239.889 74.7119 241.728 75.1242 243.765 75.6055C246.959 76.3599 250.615 77.28 252.738 78.7577C254.361 79.8878 255.151 81.3312 254.526 83.1931C254.281 83.9197 253.635 84.3762 252.823 84.5877C251.801 84.8533 250.525 84.7275 249.831 84.4985C245.019 82.9082 239.507 83.0208 234.138 82.7904C228.6 82.5521 223.214 81.9477 218.835 78.9384C218.565 78.7535 218.497 78.3849 218.682 78.1159C218.868 77.8469 219.236 77.7784 219.505 77.9633C223.703 80.8483 228.879 81.3799 234.189 81.6082C239.668 81.8436 245.29 81.7519 250.202 83.3751C250.741 83.5529 251.732 83.6487 252.525 83.4423C252.924 83.3389 253.284 83.1725 253.404 82.816C253.845 81.5052 253.205 80.5242 252.062 79.729C250.037 78.3193 246.539 77.4766 243.493 76.7571C240.986 76.1645 238.77 75.6433 237.785 75.028C237.073 74.5825 236.864 74.0386 237.046 73.496C237.434 72.3448 238.421 71.6846 239.82 71.4013C241.614 71.0386 244.141 71.3038 246.672 71.6476C249.088 71.9753 251.51 72.3709 253.242 72.2692C253.754 72.2389 254.201 72.1666 254.554 72.0216C254.815 71.9148 255.019 71.7724 255.129 71.5543C255.946 69.9336 254.742 68.8085 253.028 67.9574C250.034 66.4712 245.375 65.8882 244 65.8882C243.674 65.8882 243.409 65.6234 243.409 65.2968C243.409 64.9703 243.674 64.7051 244 64.7051C245.455 64.7051 250.386 65.3246 253.554 66.8973C255.948 68.0864 257.327 69.8234 256.185 72.0871C255.765 72.9189 254.75 73.3662 253.311 73.4502C251.519 73.5557 249.013 73.1593 246.513 72.8198C244.127 72.4961 241.747 72.2187 240.054 72.5613C239.145 72.745 238.448 73.1001 238.182 73.8356Z" fill="#3D493A" fill-opacity="0.1"/>
<path fill-rule="evenodd" clip-rule="evenodd" d="M253.771 66.3004C253.753 65.6711 253.509 65.2496 253.194 64.8352C252.934 64.4952 252.63 64.1615 252.329 63.7635C249.976 60.6524 247.314 60.4683 243.455 60.4683C243.128 60.4683 242.863 60.2031 242.863 59.8765C242.863 59.55 243.128 59.2852 243.455 59.2852C247.74 59.2852 250.659 59.5937 253.272 63.0493C254.106 64.1506 254.912 64.836 254.954 66.2659C254.963 66.592 254.706 66.8648 254.38 66.8744C254.053 66.8837 253.781 66.6265 253.771 66.3004Z" fill="#3D493A" fill-opacity="0.1"/>
<path fill-rule="evenodd" clip-rule="evenodd" d="M250.79 60.2268C251.093 59.6851 251.207 59.1929 251.155 58.742C251.077 58.0535 250.623 57.4823 250.007 56.9897C248.218 55.5595 245.076 54.8265 243.595 54.6168C243.271 54.5709 243.046 54.2713 243.092 53.9481C243.137 53.6249 243.437 53.3996 243.761 53.4454C245.377 53.6741 248.795 54.5049 250.746 56.0655C251.626 56.7699 252.218 57.6231 252.331 58.6075C252.406 59.2719 252.27 60.0054 251.822 60.8047C251.663 61.0898 251.302 61.1915 251.018 61.0322C250.732 60.8729 250.631 60.5122 250.79 60.2268Z" fill="#3D493A" fill-opacity="0.1"/>
<path fill-rule="evenodd" clip-rule="evenodd" d="M248.298 55.1889C248.51 53.7575 247.626 52.9152 246.407 52.397C244.277 51.492 241.16 51.5232 239.718 51.6421C233.204 52.1805 225.342 57.024 219.447 59.7521C216.747 61.0008 213.946 61.7258 211.378 63.2536C211.098 63.4205 210.734 63.328 210.567 63.0477C210.401 62.7669 210.493 62.4033 210.773 62.2365C213.378 60.6877 216.213 59.9442 218.95 58.6783C224.957 55.8989 232.984 51.0113 239.622 50.4631C241.183 50.3341 244.56 50.327 246.87 51.308C248.61 52.0477 249.771 53.3174 249.469 55.3617C249.422 55.6845 249.12 55.9081 248.798 55.8606C248.474 55.8127 248.251 55.5118 248.298 55.1889Z" fill="#3D493A" fill-opacity="0.1"/>
<path fill-rule="evenodd" clip-rule="evenodd" d="M217.344 79.2467C216.335 79.1165 215.174 79.4497 213.994 79.9356C212.074 80.7274 210.123 81.9417 208.671 82.5814C201.437 85.7689 193.928 88.2961 186.602 91.2007C173.546 96.3784 160.705 102.23 147.557 107.196C138.582 110.586 129.315 113.279 120.241 116.381C116.074 117.805 111.736 119.469 107.682 121.192C104.214 122.665 99.7209 125.497 95.8062 125.497C95.48 125.497 95.2148 125.232 95.2148 124.905C95.2148 124.579 95.48 124.313 95.8062 124.313C97.6515 124.313 99.628 123.626 101.554 122.777C103.562 121.892 105.516 120.826 107.22 120.103C111.299 118.369 115.664 116.695 119.858 115.261C128.921 112.164 138.175 109.474 147.138 106.089C160.281 101.125 173.116 95.2767 186.166 90.1009C193.478 87.2016 200.973 84.6803 208.194 81.4983C209.652 80.856 211.614 79.6376 213.543 78.8415C214.931 78.2695 216.308 77.9198 217.495 78.0733C217.819 78.1148 218.049 78.412 218.007 78.7357C217.965 79.0597 217.668 79.2883 217.344 79.2467Z" fill="#3D493A" fill-opacity="0.1"/>
<path fill-rule="evenodd" clip-rule="evenodd" d="M209.43 63.9691C206.659 64.1528 203.55 65.8432 200.866 66.6157C192.533 69.0143 184.133 71.3894 175.993 74.3626C162.398 79.3283 148.608 83.9297 135.053 89.0275C120.673 94.4347 106.373 100.02 91.7927 104.837C91.4829 104.94 91.1475 104.772 91.0456 104.462C90.9431 104.152 91.1116 103.817 91.4218 103.714C105.986 98.9007 120.272 93.3221 134.637 87.9196C148.195 82.821 161.988 78.2184 175.588 73.2509C183.753 70.2685 192.18 67.8849 200.539 65.4788C203.298 64.6844 206.504 62.9776 209.352 62.7885C209.677 62.7666 209.96 63.0137 209.981 63.3395C210.003 63.6652 209.756 63.9472 209.43 63.9691Z" fill="#3D493A" fill-opacity="0.1"/>
<path fill-rule="evenodd" clip-rule="evenodd" d="M200.678 61.3133C199.067 62.1829 196.992 62.4024 195.237 62.9243C188.995 64.7803 182.717 66.7465 176.547 68.7858C170.741 70.704 164.961 72.8068 159.187 74.838C148.099 78.7389 136.615 81.5396 125.489 85.3434C116.686 88.3526 107.744 90.9736 98.9592 94.0475C97.5359 94.5451 92.2343 96.6655 88.607 97.893C86.9666 98.4479 85.6452 98.8115 85.1152 98.8115C84.7886 98.8115 84.5234 98.5464 84.5234 98.2201C84.5234 97.8939 84.7886 97.6287 85.1152 97.6287C85.5893 97.6287 86.7611 97.2688 88.2279 96.7722C91.8516 95.5456 97.1468 93.4279 98.5683 92.9304C107.355 89.856 116.3 87.2343 125.106 84.2236C136.228 80.4213 147.709 77.6212 158.794 73.7217C164.575 71.6879 170.363 69.583 176.176 67.6619C182.357 65.6192 188.647 63.6498 194.9 61.7899C196.58 61.2906 198.574 61.1045 200.115 60.2722C200.402 60.1171 200.761 60.2243 200.916 60.5118C201.072 60.7989 200.965 61.1582 200.678 61.3133Z" fill="#3D493A" fill-opacity="0.1"/>
<path fill-rule="evenodd" clip-rule="evenodd" d="M234.221 82.3066C235.614 85.2675 236.138 88.9371 237.092 92.0587C239.328 99.376 241.234 106.999 243.938 114.15C248.133 125.239 252.059 136.401 256.374 147.451C259.042 154.284 263.239 161.122 265.904 167.728C266.026 168.032 265.879 168.376 265.577 168.498C265.274 168.621 264.929 168.475 264.807 168.171C262.14 161.561 257.942 154.718 255.272 147.881C250.956 136.827 247.028 125.662 242.831 114.569C240.118 107.394 238.204 99.7459 235.961 92.4049C235.022 89.3347 234.521 85.7223 233.15 82.8105C233.011 82.5151 233.138 82.1624 233.434 82.0233C233.729 81.8841 234.082 82.011 234.221 82.3066Z" fill="#3D493A" fill-opacity="0.1"/>
<path fill-rule="evenodd" clip-rule="evenodd" d="M218.619 78.5935C223.436 97.9396 227.82 117.147 234.643 135.939C237.265 143.157 239.529 150.227 242.985 157.081C243.132 157.372 243.015 157.728 242.724 157.875C242.432 158.022 242.076 157.905 241.928 157.613C238.451 150.718 236.168 143.606 233.531 136.343C226.693 117.511 222.298 98.2649 217.471 78.8793C217.392 78.5623 217.585 78.2408 217.902 78.1622C218.219 78.0832 218.54 78.2766 218.619 78.5935Z" fill="#3D493A" fill-opacity="0.1"/>
<path fill-rule="evenodd" clip-rule="evenodd" d="M254.576 72.6118C257.585 76.8056 259.601 82.1576 261.933 86.7805C264.973 92.8067 268.217 98.7562 271.566 104.616C275.904 112.204 280.736 119.508 285.275 126.96C287.867 131.217 289.959 135.809 292.488 140.107C298.317 150.013 304.712 159.882 307.776 171.02C307.863 171.336 307.678 171.662 307.363 171.749C307.048 171.835 306.722 171.649 306.635 171.335C303.599 160.296 297.243 150.524 291.468 140.706C288.942 136.414 286.854 131.827 284.265 127.576C279.719 120.114 274.882 112.801 270.539 105.203C267.18 99.3257 263.925 93.358 260.876 87.3129C258.571 82.7435 256.589 77.4469 253.615 73.3016C253.424 73.0364 253.485 72.6665 253.751 72.4761C254.016 72.2857 254.386 72.3467 254.576 72.6118Z" fill="#3D493A" fill-opacity="0.1"/>
<path fill-rule="evenodd" clip-rule="evenodd" d="M268.621 103.919C265.418 103.814 259.341 105.653 254.541 108.307C251.416 110.034 248.815 112.089 248.008 114.224C247.892 114.529 247.551 114.683 247.245 114.568C246.94 114.452 246.786 114.11 246.902 113.805C247.784 111.474 250.556 109.158 253.968 107.271C258.973 104.505 265.321 102.627 268.66 102.737C268.987 102.747 269.243 103.02 269.233 103.348C269.222 103.674 268.947 103.93 268.621 103.919Z" fill="#3D493A" fill-opacity="0.1"/>
<path fill-rule="evenodd" clip-rule="evenodd" d="M241.8 114.471C241.418 114.255 240.936 114.165 240.396 114.158C239.478 114.144 238.405 114.375 237.313 114.751C235.631 115.332 233.908 116.266 232.626 117.262C231.823 117.887 231.193 118.527 230.893 119.121C230.747 119.413 230.39 119.531 230.099 119.383C229.807 119.236 229.69 118.88 229.836 118.588C230.707 116.862 233.864 114.691 236.927 113.633C239.053 112.899 241.124 112.728 242.383 113.442C242.667 113.603 242.767 113.965 242.606 114.249C242.445 114.533 242.084 114.633 241.8 114.471Z" fill="#3D493A" fill-opacity="0.1"/>
<path fill-rule="evenodd" clip-rule="evenodd" d="M242.344 158.482C234.462 161.607 226.301 164.201 218.316 167.103C216.408 167.798 214.402 168.169 212.532 168.985C206.58 171.582 200.514 173.64 194.371 175.758C190.346 177.146 186.221 178.839 181.922 179.167C177.306 179.52 173.708 177.725 169.415 176.51C165.944 175.527 162.191 175.137 158.579 174.966C143.404 174.25 130.422 180.391 118.207 188.464C117.934 188.644 117.567 188.569 117.387 188.297C117.207 188.024 117.282 187.657 117.554 187.478C129.98 179.265 143.198 173.055 158.633 173.784C162.336 173.958 166.181 174.364 169.738 175.372C173.892 176.548 177.365 178.328 181.833 177.987C186.031 177.667 190.055 175.995 193.985 174.64C200.098 172.532 206.135 170.484 212.06 167.9C213.952 167.075 215.98 166.694 217.912 165.991C225.887 163.092 234.037 160.503 241.908 157.381C242.212 157.262 242.555 157.41 242.676 157.714C242.797 158.017 242.647 158.362 242.344 158.482Z" fill="#3D493A" fill-opacity="0.1"/>
<path fill-rule="evenodd" clip-rule="evenodd" d="M265.618 168.372C265.5 168.933 265.036 169.568 264.237 170.208C263.221 171.022 261.636 171.899 259.722 172.784C252.464 176.136 240.387 179.657 237.403 180.643C226.848 184.13 216.405 187.991 205.807 191.309C200.475 192.978 194.595 196.065 188.8 195.244C187.689 195.087 185.632 193.969 183.347 192.577C180.095 190.596 176.334 188.076 174.266 187.391C165.832 184.605 156.957 184.856 148.173 184.856C147.847 184.856 147.582 184.592 147.582 184.265C147.582 183.939 147.847 183.673 148.173 183.673C157.083 183.673 166.083 183.441 174.637 186.268C176.758 186.969 180.627 189.535 183.962 191.567C186.069 192.85 187.941 193.928 188.966 194.072C194.589 194.869 200.279 191.8 205.453 190.18C216.046 186.864 226.483 183.005 237.031 179.519C239.998 178.539 252.009 175.044 259.226 171.71C261.034 170.874 262.536 170.054 263.498 169.284C264.021 168.866 264.382 168.496 264.46 168.128C264.527 167.809 264.842 167.604 265.161 167.671C265.48 167.738 265.685 168.052 265.618 168.372Z" fill="#3D493A" fill-opacity="0.1"/>
<path fill-rule="evenodd" clip-rule="evenodd" d="M307.423 172.447C307.666 173.261 307.593 174.346 307.357 175.479C307.037 177.03 306.428 178.683 306.138 179.761C304.237 186.829 299.704 192.944 293.975 198.256C285.471 206.139 274.33 212.249 265.413 217.111C259.843 220.149 254.386 223.963 248.628 226.58C216.642 241.114 181.909 253.185 146.228 250.658C136.07 249.939 124.801 249.67 115.509 245.064C115.217 244.919 115.096 244.564 115.241 244.271C115.386 243.978 115.741 243.858 116.034 244.004C125.191 248.542 136.302 248.769 146.312 249.478C181.796 251.99 216.33 239.956 248.139 225.502C253.87 222.898 259.302 219.096 264.846 216.073C273.688 211.252 284.74 205.203 293.17 197.388C298.731 192.235 303.151 186.312 304.996 179.453C305.281 178.393 305.883 176.766 306.199 175.24C306.39 174.321 306.486 173.446 306.289 172.787C306.196 172.474 306.374 172.144 306.687 172.05C306.999 171.957 307.329 172.134 307.423 172.447Z" fill="#3D493A" fill-opacity="0.1"/>
<path fill-rule="evenodd" clip-rule="evenodd" d="M242.175 50.5562C239.642 41.2958 239.658 25.515 241.397 15.7452C241.84 13.2549 243.081 11.1891 244.083 9.00448C244.66 7.74653 245.388 5.38784 245.111 3.6062C244.957 2.61052 244.451 1.81448 243.28 1.66947C242.609 1.58626 241.94 1.817 241.278 2.22931C240.536 2.69205 239.813 3.38302 239.121 4.18705C236.946 6.71512 235.104 10.3507 234.15 12.0537C231.795 16.2571 228.239 19.3029 226.252 23.7359C224.474 27.7013 224.562 31.9976 223.431 36.1131C222.186 40.6372 219.647 43.9714 217.004 47.7125C216.033 49.0894 214.683 51.5288 214.24 53.8441C213.995 55.1261 214.02 56.3697 214.63 57.3305C215.022 57.9492 215.66 58.4375 216.602 58.7485C216.911 58.8507 217.08 59.1857 216.978 59.4958C216.875 59.806 216.541 59.9746 216.23 59.872C213.738 59.0482 212.886 57.2334 212.915 55.1403C212.954 52.2647 214.777 48.8157 216.039 47.0303C218.599 43.4036 221.083 40.1845 222.289 35.7992C223.438 31.6257 223.369 27.2735 225.172 23.2516C227.174 18.7856 230.745 15.7099 233.118 11.4754C234.097 9.72906 235.994 6.00776 238.224 3.41538C239.842 1.53414 241.667 0.277454 243.425 0.495168C245.223 0.717925 246.043 1.89685 246.281 3.42421C246.592 5.42692 245.806 8.08403 245.158 9.49751C244.198 11.5926 242.987 13.5647 242.562 15.9524C240.849 25.5763 240.821 41.1222 243.317 50.2443C243.402 50.5591 243.216 50.8849 242.901 50.971C242.587 51.0572 242.26 50.8714 242.175 50.5562Z" fill="#3D493A" fill-opacity="0.1"/>
<path fill-rule="evenodd" clip-rule="evenodd" d="M221.598 33.7918C219.431 26.6325 218.069 18.8751 218.759 11.3484C218.862 10.2259 219.005 7.0341 218.59 4.85612C218.508 4.42322 218.404 4.03319 218.269 3.71503C218.168 3.4763 218.059 3.28086 217.91 3.16991C217.713 3.02364 217.492 3.05432 217.258 3.16612C216.865 3.35441 216.459 3.73731 216.037 4.23074C213.806 6.84539 211.446 12.4383 210.897 13.5277C209.63 16.0402 209.259 18.8407 209.013 21.6717C208.757 24.615 208.637 27.5924 207.88 30.3433C207.164 32.9432 205.836 35.3175 204.468 37.6729C203.146 39.9491 201.786 42.2078 200.962 44.6582C200.555 45.8694 199.839 48.4109 199.601 50.6293C199.51 51.4775 199.487 52.2764 199.59 52.9241C199.648 53.2826 199.739 53.5894 199.897 53.8118C200.087 54.0778 200.024 54.4476 199.759 54.6372C199.493 54.8264 199.123 54.7641 198.933 54.4981C198.495 53.8824 198.311 52.8564 198.344 51.6472C198.414 49.1293 199.344 45.758 199.841 44.2811C200.69 41.756 202.082 39.4242 203.445 37.0785C204.761 34.8115 206.051 32.5317 206.739 30.0294C207.477 27.3457 207.585 24.4402 207.834 21.5692C208.094 18.5868 208.506 15.6417 209.841 12.9948C210.405 11.8763 212.846 6.14644 215.138 3.46243C215.686 2.82022 216.236 2.34402 216.748 2.09899C217.42 1.77746 218.05 1.80016 218.616 2.22045C219.138 2.60923 219.535 3.49564 219.752 4.63422C220.189 6.92315 220.046 10.2767 219.937 11.4565C219.261 18.8322 220.606 26.4332 222.73 33.4489C222.825 33.7612 222.648 34.0919 222.336 34.1864C222.023 34.281 221.692 34.1041 221.598 33.7918Z" fill="#3D493A" fill-opacity="0.1"/>
<path fill-rule="evenodd" clip-rule="evenodd" d="M208.899 63.2326C207.188 62.3898 204.625 61.1996 202.604 59.6663C201.175 58.5824 200.021 57.3211 199.547 55.9094C199.443 55.5995 199.609 55.2637 199.918 55.16C200.228 55.0557 200.564 55.2226 200.668 55.5323C201.075 56.7415 202.095 57.7956 203.319 58.724C205.276 60.209 207.765 61.3547 209.423 62.1713C209.716 62.3155 209.836 62.6702 209.692 62.9631C209.547 63.2561 209.193 63.3772 208.899 63.2326Z" fill="#3D493A" fill-opacity="0.1"/>
</g>
<defs>
<clipPath id="clip0_351_16668">
<rect width="308" height="251.503" fill="white"/>
</clipPath>
</defs>
</svg>
