<svg width="40" height="30" viewBox="0 0 40 30" fill="none" xmlns="http://www.w3.org/2000/svg">
<path d="M38.9528 19.7021C38.8371 19.4311 38.5953 19.2354 38.3061 19.1787L36.5967 18.8434C36.4044 18.8056 36.2085 18.8011 36.0149 18.8298L35.4373 18.9155C35.0011 18.9804 34.5486 18.9432 34.129 18.8084C32.8896 18.4097 30.4501 17.5224 27.978 16.0418C27.3677 15.0236 26.3419 12.7522 26.1813 12.0565L26.1544 11.9385C25.9529 11.051 25.5335 9.20427 24.348 8.67071C23.618 8.34242 22.9481 8.26066 22.4098 8.19501C22.0817 8.15501 21.7983 8.12047 21.5631 8.04193C21.2478 7.93676 20.8386 7.67374 20.8873 6.6191C21.0658 6.43081 21.2318 6.2032 21.3818 5.93861C21.8169 5.17052 22.0665 4.16779 22.0665 3.18766C22.0665 1.281 21.038 0 19.5072 0C17.9765 0 16.9479 1.281 16.9479 3.18766C16.9479 4.4231 17.4088 5.75169 18.1339 6.54408C18.134 6.54661 18.1334 6.54896 18.1336 6.55149C18.2034 7.6631 17.7832 7.93452 17.4612 8.04203C17.226 8.12057 16.9426 8.1551 16.6145 8.1951C16.0762 8.26076 15.4062 8.34252 14.6762 8.67091C13.4908 9.20447 13.0714 11.0511 12.8699 11.9386L12.8429 12.0566C12.6824 12.7524 11.6566 15.0237 11.0463 16.0419C8.57423 17.5226 6.1347 18.4099 4.89537 18.8084C4.47575 18.9433 4.02342 18.9803 3.58707 18.9156L3.00949 18.8299C2.81562 18.8012 2.6198 18.8058 2.4277 18.8434L0.718204 19.1788C0.428993 19.2356 0.18728 19.4311 0.0715782 19.7022C-0.0442075 19.9732 -0.018346 20.2831 0.140627 20.5312L0.528552 21.1366C0.896784 21.7114 1.52397 22.0665 2.20618 22.0866C2.20618 22.0866 2.50697 22.0952 2.52742 22.0952C3.02048 22.0952 3.49545 21.92 3.87079 21.5981L4.12873 21.3771C4.26801 21.2576 4.41946 21.1572 4.58123 21.0757C4.63202 21.9909 5.36688 22.5047 6.49194 23.2911C6.73611 23.4618 7.01281 23.6553 7.30709 23.8692C8.52166 24.7527 10.2705 25.2394 12.1221 25.7547C13.2022 26.0554 14.3192 26.3661 15.4251 26.7756C17.5831 27.5747 17.8565 28.4152 17.874 28.7399C17.8879 28.9899 18.0489 29.2102 18.2852 29.3015C18.3598 29.33 18.4372 29.3446 18.5151 29.3446C18.837 29.3446 19.1111 29.1035 19.1528 28.7839L19.5026 26.0892C19.5482 25.7363 19.4261 25.3933 19.1674 25.1486C18.9091 24.9042 18.5604 24.8009 18.2111 24.866L17.8761 24.9282L17.789 24.9144L19.4976 24.4615L21.2295 24.9153L21.1484 24.9281L20.8135 24.8659C20.4637 24.8009 20.1154 24.904 19.8571 25.1485C19.5984 25.3932 19.4763 25.7362 19.522 26.0894L19.8718 28.7838C19.9134 29.1034 20.1875 29.3445 20.5095 29.3445C20.5874 29.3445 20.6647 29.33 20.7404 29.3011C20.9756 29.2102 21.1367 28.9898 21.1506 28.7393C21.168 28.415 21.4415 27.5745 23.5995 26.7754C24.7053 26.3659 25.8222 26.0552 26.9023 25.7546C28.754 25.2392 30.5029 24.7526 31.7175 23.8692C32.0117 23.6551 32.2884 23.4616 32.5326 23.2909C33.6575 22.5046 34.3923 21.9909 34.4432 21.0754C34.605 21.157 34.7566 21.2574 34.8958 21.377L35.1537 21.5978C35.5291 21.9198 36.004 22.0951 36.4972 22.0951C36.5176 22.0951 36.8183 22.0864 36.8183 22.0864C37.5006 22.0663 38.1278 21.7112 38.496 21.1364L38.8839 20.5311C39.0427 20.283 39.0686 19.9731 38.9528 19.7021ZM24.0387 19.4037C23.834 19.0663 23.2687 17.9665 23.4179 16.3363C23.4263 16.3186 23.4329 16.3004 23.437 16.2817C23.8027 15.6799 24.0174 15.1206 24.0498 14.2086C24.4867 15.2864 25.047 16.3397 25.7966 17.511C25.9623 17.77 26.1949 17.9829 26.4695 18.1265C26.9673 18.3873 27.6843 18.6983 28.6087 19.0547C28.5366 19.0607 28.464 19.067 28.3907 19.0734C25.844 19.3007 24.463 19.3815 24.0387 19.4037ZM22.8635 16.1937C22.6958 16.3234 22.3476 16.4999 21.7796 16.3736C21.6433 16.3432 21.5075 16.4294 21.4771 16.5661C21.4467 16.7028 21.533 16.8383 21.6696 16.8687C21.846 16.9079 22.0079 16.9245 22.156 16.9245C22.456 16.9245 22.698 16.8556 22.8863 16.767C22.8617 18.1547 23.2995 19.1296 23.5442 19.5632C21.0525 20.7907 18.9704 20.7204 17.6465 20.436C16.5647 20.2035 15.8027 19.7958 15.4654 19.5891C15.707 19.1685 16.1649 18.1797 16.1381 16.7598C16.3286 16.8521 16.5761 16.9246 16.8846 16.9246C17.0326 16.9246 17.1947 16.908 17.371 16.8688C17.5076 16.8384 17.5939 16.7029 17.5635 16.5662C17.5331 16.4295 17.3978 16.3432 17.261 16.3737C16.6376 16.5122 16.2776 16.2843 16.1316 16.1552C16.0919 16.1201 16.0007 15.9869 15.9729 15.9401C15.6549 15.4056 15.4514 14.8797 15.4812 13.7486C16.0805 13.3313 16.4658 12.3341 16.627 10.7792C16.7181 9.90037 16.7132 9.0834 16.7032 8.69501C16.7658 8.6874 16.8276 8.67969 16.8886 8.67179C17.0115 11.5532 18.1103 13.6915 19.497 13.6915C20.8852 13.6915 21.9838 11.5516 22.1055 8.66788C22.1666 8.67598 22.2289 8.68369 22.2915 8.6914C22.2816 9.07832 22.2763 9.89764 22.3677 10.7792C22.5316 12.3597 22.9272 13.3632 23.5435 13.768C23.5718 14.945 23.3452 15.4624 23 16.0248C22.9863 16.0472 22.8974 16.1675 22.8635 16.1937ZM15.6047 16.3105C15.7025 17.3317 15.5147 18.1405 15.3379 18.6425C15.2093 19.0076 15.0679 19.2675 14.9854 19.4037C14.561 19.3815 13.18 19.3006 10.6338 19.0734C10.5606 19.067 10.4879 19.0607 10.4158 19.0547C11.3401 18.6984 12.057 18.3874 12.555 18.1265C12.8294 17.9829 13.062 17.7699 13.2278 17.511C13.9774 16.3397 14.5377 15.2864 14.9746 14.2086C15.0076 15.1351 15.2282 15.6975 15.6047 16.3105ZM19.5072 0.507005C20.7539 0.507005 21.5594 1.55913 21.5594 3.18757C21.5594 5.05354 20.6037 6.75286 19.5542 6.75286C18.4752 6.75286 17.455 5.02018 17.455 3.18757C17.455 1.55913 18.2606 0.507005 19.5072 0.507005ZM17.6217 8.52291C18.2533 8.31218 18.5942 7.79276 18.6413 6.97861C18.9226 7.15783 19.2295 7.25998 19.5542 7.25998C19.8423 7.25998 20.1222 7.17832 20.3859 7.02349C20.4426 7.81188 20.7827 8.31608 21.4026 8.52291C21.4668 8.54437 21.5333 8.56261 21.6013 8.5791C21.5548 9.82983 21.3104 10.9868 20.9061 11.8556C20.5134 12.7 19.9998 13.1844 19.4972 13.1844C18.9953 13.1844 18.4821 12.7006 18.0893 11.8573C17.6853 10.9898 17.4405 9.8351 17.3933 8.58642C17.4716 8.56827 17.5481 8.54749 17.6217 8.52291ZM4.63092 20.5009C4.32641 20.6143 4.047 20.7792 3.79878 20.9919L3.54084 21.213C3.24588 21.4656 2.86954 21.599 2.48102 21.5873L2.22114 21.5796C1.70653 21.5644 1.23333 21.2965 0.955523 20.863L0.567598 20.2575C0.534383 20.2057 0.515029 20.149 0.508944 20.0909C0.731388 20.1991 1.05813 20.3158 1.4365 20.3158C1.69824 20.3158 1.9845 20.2599 2.27717 20.1068C2.40124 20.042 2.44933 19.8888 2.38442 19.7648C2.31951 19.6407 2.1662 19.5926 2.0423 19.6574C1.56818 19.9051 1.10926 19.7994 0.818524 19.6758L2.5254 19.3409C2.6607 19.3143 2.79855 19.3111 2.93512 19.3314L3.5127 19.4172C4.02545 19.4932 4.55722 19.4496 5.05062 19.291C6.31987 18.8829 8.82743 17.9703 11.3616 16.4441C11.3965 16.423 11.4258 16.3938 11.447 16.3591C12.0847 15.3166 13.1621 12.9287 13.3371 12.1704L13.3645 12.0507C13.5336 11.3062 13.9295 9.56281 14.8844 9.13315C15.3531 8.92222 15.7921 8.82437 16.1974 8.76213C16.2056 9.15793 16.206 9.927 16.1222 10.7326C16.0181 11.7314 15.814 12.4892 15.5319 12.9493C15.549 12.7688 15.57 12.5766 15.5957 12.3706C15.6122 12.2389 15.5243 12.1169 15.3943 12.0906C15.2643 12.0636 15.136 12.1426 15.1002 12.2704C14.6167 13.9892 13.9291 15.4746 12.8009 17.2376C12.6827 17.4225 12.5163 17.5745 12.3199 17.6774C11.662 18.0219 10.5988 18.461 9.1595 18.9823C6.40769 18.8959 4.88556 19.4077 4.63092 20.5009ZM17.9259 25.4347L18.3036 25.3646C18.4921 25.3297 18.6796 25.3852 18.8189 25.517C18.9584 25.6491 19.0244 25.8338 18.9998 26.0241L18.6499 28.7183C18.6397 28.7957 18.5729 28.8373 18.5151 28.8373C18.4989 28.8373 18.4829 28.8342 18.467 28.8282C18.4172 28.8089 18.3832 28.7632 18.3804 28.7122C18.378 28.6693 18.373 28.6229 18.3649 28.574C18.2671 27.6811 18.2761 26.6385 18.4647 26.423C18.5569 26.3176 18.5461 26.1573 18.4408 26.0652C18.3354 25.973 18.1751 25.9839 18.083 26.0891C17.9995 26.1846 17.7836 26.5332 17.7904 27.5609C17.3839 27.1527 16.7095 26.7105 15.6011 26.3001C14.4755 25.8832 13.3482 25.5695 12.258 25.2662C10.9194 24.8937 9.63642 24.5361 8.59731 24.0384C8.67295 23.8009 8.81991 23.379 9.03823 22.9269C9.4411 22.0926 9.90615 21.5267 10.3878 21.2816C11.7359 21.6582 12.6567 22.6446 13.1175 23.1389C13.1908 23.2176 13.2535 23.2848 13.3054 23.3366C13.6796 23.7109 15.09 24.4501 16.2073 25.0044C16.5486 25.1737 16.9126 25.2897 17.2893 25.3492L17.8399 25.4361C17.8685 25.4403 17.8975 25.4401 17.9259 25.4347ZM26.7662 25.266C25.6761 25.5694 24.5488 25.8831 23.4232 26.2999C22.3029 26.7147 21.6265 27.1619 21.2215 27.5735C21.2191 27.1205 21.1799 26.601 21.0542 26.1337C21.018 25.9985 20.8788 25.9189 20.7436 25.9547C20.6084 25.9911 20.5282 26.1302 20.5646 26.2654C20.7906 27.1058 20.7032 28.1816 20.6625 28.5549C20.6525 28.6109 20.6466 28.6634 20.6441 28.7117C20.6413 28.7631 20.6071 28.8089 20.5583 28.8278C20.5415 28.8342 20.5255 28.8373 20.5093 28.8373C20.4515 28.8373 20.3846 28.7957 20.3745 28.7184L20.0246 26.0244C20 25.8338 20.066 25.6491 20.2055 25.517C20.3448 25.3852 20.5326 25.3297 20.7208 25.3646L21.0985 25.4347C21.1269 25.4401 21.1558 25.4404 21.1844 25.4359L21.735 25.349C22.1116 25.2895 22.4756 25.1736 22.817 25.0043C23.9342 24.4499 25.3448 23.7106 25.7189 23.3365C25.7707 23.2846 25.8335 23.2175 25.9068 23.1387C26.3609 22.6517 27.2614 21.6868 28.5775 21.2985C29.5761 21.8345 30.1784 23.5416 30.3461 24.0759C29.3215 24.5537 28.0706 24.903 26.7662 25.266ZM32.2419 22.8755C31.9959 23.0474 31.7172 23.2422 31.4189 23.4591C31.2297 23.5969 31.0235 23.7239 30.8052 23.8438C30.6209 23.2714 30.1134 21.9124 29.253 21.1592C29.548 21.1242 29.8597 21.1193 30.1885 21.1552C30.3277 21.1698 30.4528 21.0697 30.4679 20.9305C30.483 20.7912 30.3824 20.6661 30.2431 20.651C27.7821 20.3843 26.208 22.072 25.5358 22.7929C25.4672 22.8665 25.4087 22.9294 25.3603 22.9778C25.1136 23.2246 24.0785 23.8123 22.5915 24.5499C22.4982 24.5962 22.4024 24.6362 22.3055 24.6732L19.5614 23.9542C19.5189 23.9431 19.4745 23.9432 19.4322 23.9545L16.7194 24.6735C16.6222 24.6365 16.5261 24.5965 16.4327 24.55C14.9458 23.8124 13.9107 23.2246 13.6639 22.9779C13.6155 22.9294 13.557 22.8666 13.4884 22.793C12.8163 22.0722 11.2425 20.3841 8.78104 20.6511C8.64184 20.6662 8.54127 20.7913 8.55631 20.9306C8.57144 21.0698 8.69745 21.1698 8.83572 21.1553C9.13415 21.1228 9.41837 21.1242 9.68907 21.1508C8.84375 21.8836 8.33674 23.2024 8.14066 23.8002C7.95152 23.693 7.77176 23.5803 7.60535 23.4592C7.30718 23.2424 7.02836 23.0476 6.78242 22.8757C5.50506 21.9826 4.97633 21.613 5.10395 20.7299L5.10539 20.7204C5.10801 20.7023 5.11071 20.6838 5.11392 20.6653C5.31076 19.5332 7.74623 19.4431 9.18561 19.4907C9.18959 19.491 9.19356 19.4911 9.19753 19.4911C9.6262 19.5051 10.0941 19.5345 10.5887 19.5788C13.3091 19.8214 14.7071 19.8979 15.0325 19.914C15.2724 20.0784 16.1471 20.6281 17.5134 20.9263C18.0158 21.0361 18.6204 21.1172 19.3101 21.1172C20.6033 21.1172 22.1954 20.831 23.9716 19.9151C24.2542 19.9013 25.6529 19.8271 28.4357 19.5789C28.93 19.5346 29.3979 19.5051 29.8266 19.4912C29.8306 19.4911 29.8347 19.4911 29.8386 19.4908C31.2775 19.4432 33.7135 19.5332 33.9102 20.6649C33.9136 20.6841 33.9163 20.7025 33.9189 20.7205L33.9202 20.7292C34.048 21.6129 33.5192 21.9824 32.2419 22.8755ZM38.4568 20.2575L38.0689 20.8629C37.7909 21.2965 37.3179 21.5644 36.8032 21.5795L36.5433 21.5872C36.1553 21.5993 35.7785 21.4658 35.4835 21.2128L35.2256 20.9919C34.9773 20.779 34.6978 20.6142 34.3935 20.5008C34.1392 19.4077 32.6177 18.8955 29.8651 18.9823C28.4257 18.4609 27.3625 18.0219 26.7047 17.6774C26.5083 17.5745 26.3419 17.4225 26.2236 17.2376C25.0955 15.4747 24.4079 13.9892 23.9244 12.2704C23.8885 12.1426 23.7601 12.0636 23.6301 12.0906C23.5001 12.1169 23.4123 12.2389 23.4288 12.3706C23.457 12.5964 23.4797 12.8057 23.4975 13.0013C23.1979 12.5476 22.9811 11.7709 22.873 10.7326C22.7888 9.92388 22.7896 9.15208 22.7979 8.75764C23.2112 8.81979 23.6601 8.91715 24.14 9.13305C25.095 9.56291 25.4909 11.3062 25.66 12.0508L25.6873 12.1705C25.8622 12.9287 26.9397 15.3167 27.5774 16.3592C27.5986 16.3939 27.6279 16.4231 27.6628 16.4441C30.1971 17.9704 32.7046 18.883 33.9739 19.2911C34.467 19.4496 34.999 19.4934 35.5117 19.4172L36.0894 19.3314C36.2258 19.3112 36.3637 19.3142 36.499 19.341L38.1879 19.6723C37.8977 19.7973 37.4343 19.9076 36.9556 19.6573C36.8315 19.5924 36.6783 19.6406 36.6135 19.7647C36.5486 19.8887 36.5967 20.0419 36.7208 20.1067C37.0136 20.2599 37.2997 20.3157 37.5615 20.3157C37.9559 20.3157 38.2942 20.189 38.5168 20.0771C38.5125 20.1399 38.4926 20.2015 38.4568 20.2575Z" fill="white"/>
</svg>
