<svg width="47" height="50" viewBox="0 0 47 50" fill="none" xmlns="http://www.w3.org/2000/svg">
<path d="M41.4889 10.4045C39.8429 8.44558 37.9009 6.77645 35.7168 5.44342C35.3784 5.23685 34.9366 5.34377 34.73 5.68226C34.5235 6.02073 34.6303 6.46248 34.9689 6.66905C36.8792 7.83486 38.5922 9.27451 40.0672 10.9528C39.564 11.6609 39.3708 12.829 38.1968 12.9231C37.1988 13.003 36.3168 13.5763 35.841 14.4632L34.9935 16.043C34.4085 17.1331 33.258 16.7779 32.6275 16.7779C31.2748 16.7779 29.9743 17.3496 29.0589 18.3469C28.0982 19.3958 27.8919 20.4872 27.7101 21.4503C27.5702 22.1913 27.4485 22.8326 27.0251 23.4533C26.9517 23.5608 27.0285 23.4525 25.0034 26.1565C24.3186 27.0713 24.5023 28.3789 25.4432 29.0618L27.1185 30.2766C27.6255 30.6432 28.2563 30.7551 28.8403 30.604C28.958 30.5746 29.0728 30.5457 29.1859 30.5171C29.1874 30.5167 29.1889 30.5163 29.1903 30.5159C29.1918 30.597 29.1948 30.6779 29.1997 30.7585C29.3668 33.5602 31.0019 36.2066 32.891 38.2847C33.94 39.4387 35.7367 39.4135 36.7607 38.2874C36.7616 38.2865 36.7623 38.2855 36.7632 38.2845C38.1001 36.8144 39.3006 35.08 39.954 33.1873L43.112 35.6161C39.6037 42.4205 32.8237 46.925 25.202 47.5088C25.1329 47.1576 24.0604 45.7327 25.2939 44.8525C26.0457 44.3194 26.4946 43.4496 26.4946 42.5261C26.4946 41.7716 26.5439 41.1634 26.1483 40.4355C26.0412 40.2381 25.9036 40.0398 25.7223 39.8466L24.6069 38.657C24.1558 38.1761 24.0982 37.4317 24.4697 36.8871L24.7693 36.4481C25.8363 34.8824 25.1134 32.7226 23.3013 32.127L20.063 31.0641C19.9331 31.0213 19.8237 30.9327 19.7549 30.8141L17.5341 26.9942C16.785 25.7023 14.9121 25.6576 14.1157 26.9488L13.5845 27.8098C13.4819 27.9758 13.3051 28.075 13.1114 28.075C12.7406 28.075 12.4806 27.7255 12.5711 27.3778L13.7215 22.9739C13.7609 22.8215 13.8645 22.6925 14.0051 22.6199L16.3477 21.4141C17.0134 21.0728 17.4088 20.4052 17.4299 19.7053C17.4682 18.4634 16.4075 17.0401 14.8219 16.7621C13.6254 16.5136 12.9463 16.5661 12.1383 16.075L8.73785 14.0112C8.04607 13.5909 7.544 12.9334 7.31944 12.1615L6.95646 10.9152C8.22966 9.47359 9.67863 8.20971 11.2772 7.14518C11.2879 7.19936 11.3761 7.70276 11.5929 8.36564C12.3605 10.7142 14.2398 13.1179 15.034 13.8255C16.1214 14.7939 17.7596 14.6784 18.7083 13.635C20.7087 11.436 22.4144 8.61749 22.416 5.64434C22.416 5.64339 22.416 5.64233 22.416 5.64138C22.416 4.9068 22.2704 4.17137 21.997 3.50389C22.4975 3.4701 22.9989 3.45306 23.4964 3.45306C26.5886 3.45306 29.5797 4.08072 32.3868 5.31841C32.7497 5.47846 33.1734 5.314 33.3333 4.95121C33.4933 4.58843 33.3289 4.16466 32.9661 4.00471C29.9754 2.68594 26.7893 2.01722 23.4964 2.01722C22.7292 2.01722 21.9541 2.05752 21.1853 2.13276C20.1545 0.840116 18.5704 0.00656808 16.7956 5.85727e-05C13.6906 -0.0140122 11.2639 2.50895 11.1422 5.52641C9.06052 6.81513 7.20122 8.41045 5.61165 10.274C5.60763 10.2788 5.60409 10.284 5.60016 10.2888C1.98874 14.5295 0 19.9355 0 25.5137C0 31.5483 2.28442 37.2842 6.43256 41.6651C6.70518 41.953 7.15958 41.9655 7.44751 41.693C7.73544 41.4203 7.74779 40.9659 7.47518 40.678C3.5807 36.5648 1.43593 31.1794 1.43593 25.5138C1.43593 20.7256 2.99641 16.0726 5.85488 12.2676C5.97884 12.5887 6.24016 14.1731 7.99275 15.2387L11.3932 17.3025C12.7536 18.1289 14.3107 17.9592 15.0628 18.3382C15.5271 18.5726 15.8652 19.0027 15.981 19.5236C16.0352 19.764 15.9154 20.0223 15.6918 20.137L13.3477 21.3434C12.8439 21.6032 12.4736 22.0661 12.332 22.6122L11.1818 27.0155C10.8543 28.2769 11.8038 29.5106 13.1116 29.5106C13.8139 29.5106 14.444 29.1505 14.8064 28.5641C15.5065 27.4294 15.2813 27.7945 15.338 27.7025C15.5625 27.3385 16.0845 27.3561 16.2927 27.715C18.6379 31.7435 18.5181 31.5561 18.6122 31.6886C18.8577 32.0347 19.208 32.2942 19.615 32.428L22.8536 33.491C23.7497 33.785 24.1162 34.8566 23.5833 35.639C23.315 36.0365 23.2505 36.1152 23.1516 36.2904C22.5431 37.37 22.6932 38.715 23.5597 39.639L24.6752 40.8285C25.2091 41.3981 25.0146 42.0126 25.0587 42.5564C25.0487 43.0237 24.8036 43.44 24.4618 43.6824C22.3688 45.1761 23.6738 47.5495 23.6759 47.5734C23.6161 47.5739 23.5564 47.5741 23.4966 47.5741C18.4065 47.5741 13.44 45.7986 9.5119 42.575C9.20529 42.3234 8.75298 42.368 8.50152 42.6745C8.24996 42.981 8.29456 43.4334 8.60107 43.685C12.7849 47.119 18.0748 49.0101 23.4962 49.0101C24.1855 49.0101 24.6363 48.981 24.773 48.9754C24.7826 48.9721 38.3245 48.8502 44.6643 35.7202C44.6642 35.7204 44.6644 35.7201 44.6643 35.7202C46.2085 32.5243 46.9917 29.0899 46.9917 25.5136C46.9916 19.9919 45.0374 14.626 41.4889 10.4045ZM16.7748 1.4359H16.7903C19.1062 1.44432 20.9801 3.33637 20.9801 5.64138C20.9801 8.5659 18.8911 11.2996 17.6459 12.6689C17.1746 13.1871 16.3667 13.1786 15.9009 12.6665C14.2687 10.8707 12.6821 8.38278 12.5781 5.9496L12.5768 5.90586C12.5768 5.90471 12.5765 5.90365 12.5765 5.90251C12.4983 3.5059 14.3614 1.4359 16.7748 1.4359ZM34.8214 26.0885C34.8234 26.0885 34.8254 26.0884 34.8272 26.0884H34.8425C37.1528 26.0968 39.0324 27.9833 39.0324 30.2939C39.0324 32.8468 37.4269 35.4198 35.6981 37.3215C35.2279 37.8384 34.421 37.8334 33.9532 37.319C32.7845 36.0333 30.7991 33.4604 30.6327 30.6731C30.486 28.2079 32.3918 26.0919 34.8214 26.0885ZM43.7416 34.2892L40.3463 31.6781C40.4172 31.2763 40.4681 30.7614 40.4681 30.294C40.4681 27.1947 37.9467 24.664 34.8476 24.6527C34.8475 24.6527 34.8478 24.6527 34.8476 24.6527C34.8409 24.6527 34.8338 24.6527 34.8269 24.6527C32.2174 24.6527 29.993 26.4546 29.3644 28.9889C28.4957 29.2151 28.2583 29.3293 27.9604 29.1139L26.2858 27.8996C26.0028 27.6943 25.9428 27.2971 26.1522 27.0173L28.0838 24.4397C28.7333 23.5767 28.9306 22.7227 29.1206 21.717C29.2881 20.8301 29.4328 20.0642 30.117 19.3173C30.7606 18.6161 31.6755 18.2139 32.6272 18.2139C33.2497 18.2139 35.2179 18.6612 36.2584 16.7221L37.106 15.1423C37.3508 14.6861 37.807 14.3949 38.3112 14.3546C40.2143 14.202 40.7774 12.5367 40.9122 12.379L41.0436 12.1455C43.9601 15.9724 45.5555 20.6795 45.5555 25.5139C45.5557 28.5732 44.9459 31.5208 43.7416 34.2892Z" fill="#AEA17E"/>
</svg>
