<svg width="262" height="379" viewBox="0 0 262 379" fill="none" xmlns="http://www.w3.org/2000/svg">
<path fill-rule="evenodd" clip-rule="evenodd" d="M105.877 72.3202C107.276 78.4041 108.883 84.4427 110.298 90.524C111.789 96.928 112.694 104.719 116.152 110.431C118.123 113.687 121.482 115.856 124.312 118.23C125.81 119.486 128.352 121.158 130.91 122.199C132.687 122.924 134.477 123.336 135.952 123.153C138.307 122.86 141.544 121.271 144.761 119.11C149.522 115.911 154.247 111.479 156.019 108.405C159.016 103.205 161.214 92.1597 162.403 86.2664C163.156 82.5307 164.662 78.9712 165.292 75.2252C165.355 74.852 165.103 74.4978 164.73 74.4354C164.357 74.3725 164.002 74.6244 163.939 74.9977C163.312 78.7291 161.808 82.2738 161.058 85.995C159.892 91.7758 157.771 102.619 154.83 107.72C153.129 110.671 148.568 114.9 143.996 117.972C140.99 119.991 137.984 121.519 135.783 121.791C134.507 121.949 132.965 121.555 131.427 120.929C129.011 119.945 126.609 118.366 125.195 117.179C122.475 114.898 119.218 112.849 117.325 109.721C113.939 104.126 113.095 96.4846 111.635 90.2132C110.219 84.1327 108.613 78.0951 107.214 72.0127C107.129 71.6439 106.76 71.4129 106.391 71.4982C106.023 71.583 105.792 71.9513 105.877 72.3202Z" fill="#3D493A" fill-opacity="0.1"/>
<path fill-rule="evenodd" clip-rule="evenodd" d="M163.923 84.1192C164.509 82.6783 165.982 81.3705 167.474 80.9203C168.145 80.718 168.822 80.6902 169.405 80.9563C169.99 81.2234 170.459 81.7842 170.761 82.6846C172.49 87.8247 169.195 93.0817 166.022 96.799C165.3 97.6448 163.764 99.1256 162.216 100.175C161.28 100.811 160.354 101.308 159.624 101.308C159.245 101.308 158.938 101.616 158.938 101.994C158.938 102.373 159.245 102.68 159.624 102.68C160.345 102.68 161.229 102.363 162.143 101.84C164.061 100.74 166.16 98.7509 167.066 97.6892C170.524 93.6376 173.946 87.8505 172.062 82.2476C171.609 80.9003 170.85 80.1076 169.974 79.7084C169.099 79.3089 168.086 79.3035 167.079 79.6071C165.217 80.1684 163.384 81.8051 162.653 83.6026C162.51 83.9534 162.68 84.354 163.03 84.4963C163.382 84.639 163.782 84.47 163.923 84.1192Z" fill="#3D493A" fill-opacity="0.1"/>
<path fill-rule="evenodd" clip-rule="evenodd" d="M162.618 93.9677C162.631 94.0077 162.628 94.0491 162.632 94.0964C162.637 94.1626 162.642 94.2337 162.649 94.3122C162.759 95.5138 162.173 96.7149 161.486 97.6674C161.263 97.9744 161.333 98.4037 161.64 98.6249C161.947 98.8466 162.376 98.7775 162.597 98.4704C163.472 97.2601 164.154 95.7136 164.014 94.1865C163.963 93.6208 163.953 93.3285 163.532 92.9118C163.475 92.8544 163.393 92.7939 163.288 92.7442C163.866 90.9399 164.783 88.8661 166.091 87.2719C167.007 86.1545 168.115 85.2727 169.451 84.9413C169.818 84.8507 170.042 84.4784 169.951 84.1105C169.86 83.7431 169.489 83.519 169.12 83.6101C167.504 84.0107 166.14 85.049 165.03 86.4016C163.451 88.3272 162.385 90.8922 161.781 92.983C161.713 93.2227 161.751 93.4576 161.95 93.6691C162.012 93.7344 162.115 93.8166 162.269 93.8732C162.338 93.899 162.507 93.9414 162.618 93.9677Z" fill="#3D493A" fill-opacity="0.1"/>
<path fill-rule="evenodd" clip-rule="evenodd" d="M109.382 84.8085C108.763 82.5779 107.411 80.4496 105.876 79.286C104.721 78.4109 103.456 78.0708 102.28 78.4665C101.097 78.8635 99.9343 80.0529 99.1206 82.4737C98.0082 85.7821 98.9744 90.7497 101.168 95.1057C103.368 99.475 106.792 103.198 110.405 104.093C110.773 104.184 111.145 103.959 111.236 103.592C111.326 103.224 111.103 102.852 110.735 102.761C107.441 101.945 104.398 98.4717 102.393 94.4884C100.38 90.491 99.3994 85.9473 100.421 82.9107C101.042 81.064 101.815 80.0695 102.717 79.7664C103.486 79.5082 104.293 79.8079 105.048 80.3795C106.377 81.3866 107.524 83.244 108.06 85.1749C108.162 85.54 108.54 85.7538 108.904 85.653C109.269 85.5517 109.483 85.1736 109.382 84.8085Z" fill="#3D493A" fill-opacity="0.1"/>
<path fill-rule="evenodd" clip-rule="evenodd" d="M103.44 85.3366C103.492 85.4165 103.551 85.512 103.591 85.589C103.735 85.8594 103.874 86.1396 103.999 86.3213C105.185 88.0506 106.204 89.3676 107.054 91.3322C107.711 92.8539 107.624 92.8462 108.363 94.3099C108.522 94.6242 108.714 94.9857 108.896 95.3205C108.129 95.6635 107.825 96.5118 107.938 97.5511C108.023 98.3268 108.334 99.2053 108.688 99.87C108.958 100.378 109.267 100.764 109.514 100.949C109.818 101.175 110.247 101.111 110.474 100.809C110.7 100.505 110.637 100.075 110.334 99.8481C110.196 99.7449 110.05 99.5087 109.898 99.2248C109.62 98.7015 109.369 98.012 109.302 97.4015C109.278 97.1813 109.276 96.9733 109.321 96.7963C109.344 96.7028 109.382 96.619 109.46 96.5751C109.526 96.6121 109.649 96.6799 109.713 96.7077C109.851 96.7686 109.985 96.7978 110.116 96.7978C110.126 96.7978 111.08 96.4334 110.697 95.7439C110.583 95.5377 109.98 94.4683 109.589 93.692C108.868 92.2649 108.953 92.2718 108.312 90.788C107.425 88.7348 106.37 87.3524 105.131 85.5451C105.003 85.3605 104.866 85.0521 104.716 84.786C104.567 84.5189 104.401 84.287 104.243 84.1477C103.999 83.9318 103.735 83.8612 103.488 83.8914C103.309 83.9129 103.12 83.9869 102.941 84.1643C102.672 84.4308 102.67 84.8654 102.937 85.1343C103.075 85.2738 103.258 85.3415 103.44 85.3366Z" fill="#3D493A" fill-opacity="0.1"/>
<path fill-rule="evenodd" clip-rule="evenodd" d="M107.276 70.3601C110.382 67.4425 114.452 62.7161 116.317 58.8741C117.779 55.8638 118.653 52.5685 119.98 49.4973C120.13 49.1499 119.969 48.7459 119.622 48.5954C119.275 48.4453 118.871 48.6056 118.721 48.953C117.401 52.0057 116.536 55.2825 115.083 58.2747C113.281 61.9861 109.337 66.542 106.337 69.3603C106.062 69.6195 106.048 70.0542 106.307 70.3299C106.566 70.6057 107 70.6193 107.276 70.3601Z" fill="#3D493A" fill-opacity="0.1"/>
<path fill-rule="evenodd" clip-rule="evenodd" d="M120.812 47.3057C120.779 47.8135 120.992 48.4401 121.379 49.0876C122.091 50.2809 123.397 51.6145 123.875 52.3239C128.018 58.4858 132.805 61.3342 139.69 64.2593C140.566 64.6316 141.614 64.7997 142.468 65.2226C142.806 65.3907 143.218 65.2518 143.387 64.9127C143.555 64.5735 143.416 64.1614 143.076 63.9932C142.201 63.5592 141.127 63.3788 140.227 62.9963C133.613 60.1868 128.993 57.4777 125.012 51.5585C124.606 50.9533 123.592 49.8931 122.863 48.8552C122.486 48.3163 122.154 47.8086 122.18 47.3943C122.205 47.0167 121.918 46.6898 121.54 46.6655C121.163 46.6411 120.837 46.9276 120.812 47.3057Z" fill="#3D493A" fill-opacity="0.1"/>
<path fill-rule="evenodd" clip-rule="evenodd" d="M141.237 61.4648C142.471 63.4884 145.183 65.5295 148.372 67.4259C152.989 70.1721 158.602 72.6523 161.826 74.4795C162.156 74.6661 162.574 74.5501 162.761 74.2207C162.948 73.8913 162.831 73.4723 162.502 73.2857C159.284 71.4623 153.681 68.988 149.073 66.2467C146.11 64.4848 143.555 62.6308 142.408 60.7505C142.212 60.4275 141.789 60.3251 141.466 60.522C141.142 60.7193 141.04 61.1418 141.237 61.4648Z" fill="#3D493A" fill-opacity="0.1"/>
<path fill-rule="evenodd" clip-rule="evenodd" d="M111.155 70.4263C110.836 70.6914 110.568 70.992 110.392 71.3345L110.306 71.412C110.029 71.6688 110.011 72.1029 110.268 72.3812C110.525 72.6594 110.958 72.677 111.237 72.4196C113.016 70.7772 117.157 69.5327 119.555 69.1931C120.818 69.0142 122.17 69.0937 123.404 68.7667C123.688 68.6917 124.28 68.4656 124.538 68.1572C124.78 67.8692 124.863 67.53 124.708 67.1437C124.503 66.6384 124.018 66.2803 123.396 66.0814C122.738 65.8709 121.922 65.831 121.465 65.7803C118.474 65.4509 116.002 66.9546 113.516 68.3238C112.641 68.8062 111.981 69.5093 111.316 70.2416C111.261 70.3021 111.208 70.3634 111.155 70.4263Z" fill="#3D493A" fill-opacity="0.1"/>
<path fill-rule="evenodd" clip-rule="evenodd" d="M154.922 66.4855C153.081 66.0382 151.224 65.9139 148.688 66.3329C147.182 66.5814 145.95 66.9133 144.797 67.9609C144.559 68.1783 144.052 68.894 144.012 69.4397C143.98 69.8763 144.139 70.2476 144.556 70.481C144.965 70.71 145.542 70.7158 146.149 70.5531C146.765 70.3874 147.427 70.0556 147.822 69.9533C149.881 69.4207 152.011 69.2911 154.134 69.2911C155.537 69.2911 156.919 69.2994 158.309 69.5113C158.577 69.5523 160.314 69.8602 160.63 69.8134C160.918 69.7705 161.063 69.6127 161.133 69.5119C161.251 69.3433 161.292 69.1532 161.238 68.9394C161.13 68.5105 160.803 68.1143 160.317 67.804C159.496 67.2787 158.189 66.9718 157.598 66.8792C156.695 66.7379 155.807 66.597 154.922 66.4855Z" fill="#3D493A" fill-opacity="0.1"/>
<path fill-rule="evenodd" clip-rule="evenodd" d="M113.667 83.2816C114.202 83.6752 114.618 84.2068 115.191 84.5561C116.969 85.6432 120.446 85.6759 122.331 84.9279C123.289 84.5484 124.108 83.6753 124.897 83.0496C125.194 82.8142 125.243 82.3825 125.008 82.0858C124.773 81.7891 124.341 81.7393 124.044 81.9747C123.354 82.5224 122.664 83.3205 121.826 83.6528C120.263 84.2726 117.38 84.2862 115.905 83.3858C115.367 83.0564 114.982 82.5463 114.478 82.1754C114.173 81.9518 113.743 82.0176 113.52 82.3226C113.295 82.6281 113.362 83.0579 113.667 83.2816Z" fill="#3D493A" fill-opacity="0.1"/>
<path fill-rule="evenodd" clip-rule="evenodd" d="M145.125 81.4112C145.75 81.9906 146.289 82.569 147.051 82.9798C147.593 83.2715 148.151 83.6692 148.709 83.9157C151.331 85.0705 153.757 84.0492 156.074 82.797C156.407 82.6167 156.531 82.2001 156.35 81.8673C156.17 81.5345 155.754 81.4103 155.421 81.5901C153.477 82.6416 151.462 83.6297 149.263 82.6601C148.735 82.4277 148.213 82.0476 147.702 81.7723C147.046 81.4186 146.596 80.9045 146.059 80.4055C145.781 80.1483 145.347 80.1644 145.089 80.4416C144.832 80.7193 144.848 81.1535 145.125 81.4112Z" fill="#3D493A" fill-opacity="0.1"/>
<path fill-rule="evenodd" clip-rule="evenodd" d="M132.084 93.9402C133.672 95.1988 136.294 95.1569 138.087 94.5107C138.443 94.3821 138.627 93.9889 138.499 93.6327C138.37 93.2765 137.977 93.0918 137.621 93.22C136.225 93.7233 134.173 93.8462 132.937 92.8653C132.64 92.63 132.208 92.6797 131.972 92.9764C131.737 93.2732 131.788 93.7049 132.084 93.9402Z" fill="#3D493A" fill-opacity="0.1"/>
<path fill-rule="evenodd" clip-rule="evenodd" d="M127.307 101.966C131.898 105.242 137.674 104.707 142.387 101.982C142.715 101.793 142.827 101.373 142.637 101.045C142.448 100.718 142.028 100.606 141.699 100.795C137.451 103.253 132.243 103.803 128.104 100.85C127.796 100.631 127.367 100.702 127.147 101.01C126.927 101.318 126.999 101.747 127.307 101.966Z" fill="#3D493A" fill-opacity="0.1"/>
<path fill-rule="evenodd" clip-rule="evenodd" d="M118.319 31.9242C112.863 33.193 109.135 36.7827 105.667 40.9181C97.5624 50.5808 94.6549 66.5287 99.9165 78.2647C100.071 78.6101 100.477 78.7645 100.823 78.6101C101.168 78.4552 101.323 78.0488 101.168 77.7034C96.1094 66.4195 98.9257 51.0899 106.718 41.7994C109.993 37.895 113.479 34.4585 118.631 33.2603C118.999 33.1746 119.229 32.8057 119.143 32.4368C119.057 32.068 118.688 31.8385 118.319 31.9242Z" fill="#3D493A" fill-opacity="0.1"/>
<path fill-rule="evenodd" clip-rule="evenodd" d="M122.843 31.0934C123.374 30.5145 124.896 29.7779 126.467 29.1849C128.03 28.5948 129.65 28.1393 130.435 28.2493C130.809 28.3019 131.157 28.0403 131.209 27.6656C131.262 27.2904 131 26.9435 130.626 26.8909C129.711 26.7627 127.805 27.2139 125.983 27.9014C124.169 28.5861 122.445 29.4982 121.833 30.1662C121.577 30.4449 121.596 30.8791 121.874 31.1353C122.153 31.3912 122.587 31.3722 122.843 31.0934Z" fill="#3D493A" fill-opacity="0.1"/>
<path fill-rule="evenodd" clip-rule="evenodd" d="M136.37 27.0132C143.851 26.0699 152.813 27.8976 158.547 32.8998C167.244 40.4878 171.205 54.8185 171.205 65.9922C171.205 69.2519 171.288 73.1218 170.295 76.2708C170.007 77.1854 169.32 77.8491 168.943 78.7183C168.794 79.0658 168.953 79.4697 169.301 79.6202C169.648 79.7703 170.053 79.61 170.203 79.2626C170.598 78.3499 171.301 77.6434 171.603 76.6831C172.636 73.4073 172.577 69.3835 172.577 65.9922C172.577 54.4608 168.423 39.697 159.448 31.8658C153.435 26.619 144.045 24.6627 136.198 25.6518C135.822 25.6991 135.556 26.0426 135.603 26.4183C135.651 26.794 135.994 27.0605 136.37 27.0132Z" fill="#3D493A" fill-opacity="0.1"/>
<path fill-rule="evenodd" clip-rule="evenodd" d="M120.237 29.7093C119.651 29.605 119.029 29.2469 118.438 28.7952C117.484 28.0638 116.622 27.0737 116.155 26.3024C112.828 20.8042 111.439 15.4897 116.455 10.2683C116.717 9.99537 116.708 9.56076 116.435 9.29862C116.162 9.03648 115.727 9.04476 115.465 9.31812C109.928 15.0813 111.309 20.9436 114.982 27.0129C115.898 28.5267 118.132 30.7276 119.997 31.06C120.369 31.1263 120.726 30.8778 120.792 30.505C120.858 30.1322 120.61 29.7761 120.237 29.7093Z" fill="#3D493A" fill-opacity="0.1"/>
<path fill-rule="evenodd" clip-rule="evenodd" d="M117.235 13.7769C116.697 11.7046 117.481 9.95053 118.764 8.48584C120.146 6.90811 122.102 5.65733 123.792 4.70522C131.42 0.407629 139.623 1.45814 145.849 7.63167C149.946 11.6929 149.461 15.9974 147.956 20.9673C147.389 22.8453 146.769 24.0984 145.016 25.0919C144.687 25.2786 144.571 25.6976 144.758 26.027C144.944 26.3564 145.363 26.4724 145.692 26.2857C147.798 25.0924 148.587 23.62 149.27 21.3645C150.93 15.876 151.339 11.1428 146.815 6.65716C140.125 0.0251247 131.314 -1.10676 123.119 3.50999C121.305 4.53224 119.217 5.88827 117.733 7.58149C116.15 9.38725 115.244 11.5668 115.907 14.1214C116.002 14.4878 116.377 14.7081 116.743 14.613C117.11 14.5181 117.33 14.1433 117.235 13.7769Z" fill="#3D493A" fill-opacity="0.1"/>
<path fill-rule="evenodd" clip-rule="evenodd" d="M120.687 115.702C120.698 115.776 120.74 116.061 120.751 116.251C120.771 116.59 120.78 116.921 120.806 117.074C121.131 119.003 121.292 121.077 121.292 123.032C121.292 130.239 121.56 138.16 117.386 144.366C117.175 144.68 117.258 145.107 117.572 145.317C117.887 145.529 118.313 145.445 118.525 145.132C122.851 138.698 122.663 130.504 122.663 123.032C122.663 121.003 122.495 118.849 122.158 116.845C122.123 116.632 122.13 116.03 122.068 115.615C122.014 115.254 121.881 114.983 121.757 114.855C121.496 114.581 121.061 114.571 120.787 114.833C120.545 115.064 120.511 115.431 120.687 115.702Z" fill="#3D493A" fill-opacity="0.1"/>
<path fill-rule="evenodd" clip-rule="evenodd" d="M153.133 110.539C151.047 122.743 150.944 135.743 156.125 147.298C156.279 147.643 156.685 147.798 157.031 147.643C157.376 147.489 157.531 147.082 157.376 146.737C152.308 135.432 152.444 122.711 154.485 110.771C154.55 110.397 154.298 110.042 153.924 109.979C153.552 109.914 153.197 110.165 153.133 110.539Z" fill="#3D493A" fill-opacity="0.1"/>
<path fill-rule="evenodd" clip-rule="evenodd" d="M118.593 147.951C125.627 155.059 138.555 155.91 147.659 152.901C150.529 151.952 153.691 150.945 155.899 148.757C156.168 148.49 156.169 148.055 155.903 147.786C155.636 147.517 155.202 147.515 154.933 147.782C152.874 149.823 149.904 150.714 147.229 151.598C138.57 154.46 126.259 153.746 119.568 146.986C119.302 146.717 118.867 146.715 118.597 146.981C118.328 147.247 118.327 147.682 118.593 147.951Z" fill="#3D493A" fill-opacity="0.1"/>
<path fill-rule="evenodd" clip-rule="evenodd" d="M116.618 144.612C114.669 145.142 112.816 146.447 110.996 147.309C108.932 148.288 106.677 148.594 104.57 149.429C102.139 150.393 99.7699 151.413 97.2776 152.237C95.291 152.893 92.9069 153.379 90.6294 154.087C88.2395 154.83 85.9694 155.823 84.3332 157.445C82.7856 158.979 81.816 160.708 80.6957 162.532C78.7194 165.751 76.3484 168.804 74.5539 172.141C72.8948 175.224 71.359 178.389 69.6438 181.45C68.8262 182.91 64.1661 190.055 62.2575 193.623C61.7181 194.631 61.4019 195.398 61.3678 195.737C61.2148 197.254 61.8053 198.564 62.7555 199.712C64.0292 201.251 65.9723 202.489 67.3021 203.6C70.8927 206.597 77.3975 211.029 83.7362 213.08C88.1098 214.496 92.4074 214.761 95.6872 212.81C96.0126 212.617 96.1198 212.195 95.9264 211.87C95.7325 211.544 95.3115 211.437 94.9861 211.63C92.0147 213.399 88.1206 213.057 84.1587 211.775C77.994 209.781 71.6733 205.461 68.1811 202.546C67.1087 201.651 65.6176 200.677 64.438 199.515C63.3972 198.491 62.5865 197.321 62.7326 195.875C62.7463 195.738 62.8524 195.506 63.0001 195.191C63.2846 194.584 63.7383 193.754 64.287 192.804C66.4688 189.027 70.1252 183.397 70.8406 182.121C72.5595 179.053 74.0993 175.881 75.7618 172.791C77.5442 169.477 79.902 166.446 81.8652 163.25C82.9264 161.521 83.8322 159.873 85.2989 158.419C86.7859 156.945 88.8646 156.073 91.0373 155.397C93.3225 154.686 95.715 154.198 97.7078 153.539C100.225 152.707 102.62 151.678 105.075 150.704C107.211 149.858 109.493 149.54 111.584 148.549C113.333 147.719 115.104 146.445 116.979 145.936C117.344 145.837 117.559 145.46 117.46 145.093C117.361 144.729 116.984 144.513 116.618 144.612Z" fill="#3D493A" fill-opacity="0.1"/>
<path fill-rule="evenodd" clip-rule="evenodd" d="M96.7665 186.343C96.346 187.48 96.2339 188.778 96.1842 190.094C96.1384 191.304 96.1452 192.529 95.9528 193.635C94.55 201.7 93.8288 210.038 96.2305 217.976C98.1157 224.205 101.503 229.953 102.329 236.5C102.376 236.876 102.72 237.142 103.095 237.096C103.471 237.048 103.738 236.705 103.69 236.328C102.855 229.705 99.4508 223.881 97.5436 217.579C95.2039 209.847 95.9382 201.726 97.304 193.871C97.5066 192.706 97.5071 191.418 97.5548 190.146C97.5992 188.98 97.6806 187.827 98.0533 186.818C98.1843 186.463 98.0026 186.068 97.6479 185.937C97.2927 185.806 96.8976 185.988 96.7665 186.343Z" fill="#3D493A" fill-opacity="0.1"/>
<path fill-rule="evenodd" clip-rule="evenodd" d="M176.667 182.521C176.11 186.354 177.378 190.472 178.01 194.236C178.689 198.269 178.777 202.488 178.193 206.538C177.462 211.612 175.313 216.854 173.373 221.573C171.983 224.957 170.28 228.518 169.818 232.186C169.77 232.561 170.037 232.905 170.412 232.952C170.789 233 171.132 232.733 171.18 232.358C171.626 228.808 173.296 225.369 174.642 222.095C176.623 217.274 178.803 211.916 179.551 206.734C180.154 202.545 180.065 198.181 179.364 194.009C178.754 190.379 177.487 186.414 178.024 182.718C178.079 182.344 177.82 181.995 177.445 181.941C177.071 181.886 176.721 182.146 176.667 182.521Z" fill="#3D493A" fill-opacity="0.1"/>
<path fill-rule="evenodd" clip-rule="evenodd" d="M179.388 210.362C181.462 211.444 184.73 211.072 186.958 210.796C192.301 210.133 199.718 207.322 203.985 203.938C205.778 202.516 206.948 200.488 208.719 199.122C209.019 198.891 209.074 198.46 208.843 198.159C208.612 197.86 208.181 197.804 207.881 198.035C206.105 199.405 204.931 201.437 203.133 202.863C199.038 206.112 191.917 208.799 186.789 209.434C184.8 209.68 181.875 210.112 180.023 209.146C179.688 208.971 179.273 209.101 179.097 209.436C178.922 209.773 179.052 210.187 179.388 210.362Z" fill="#3D493A" fill-opacity="0.1"/>
<path fill-rule="evenodd" clip-rule="evenodd" d="M158.443 148.173C159.812 148.513 160.979 149.175 162.301 149.628C165.487 150.722 168.792 151.527 172.079 152.219C174.133 152.65 176.396 152.745 178.606 153.02C180.693 153.281 182.736 153.703 184.473 154.811C187.737 156.892 189.179 160.095 191.226 163.216C193.75 167.064 195.456 171.361 197.595 175.427C199.002 178.101 200.606 180.653 201.89 183.396C202.655 185.026 205.127 188.637 206.985 191.988C208.148 194.087 209.091 196.065 209.091 197.326C209.091 197.705 209.398 198.012 209.777 198.012C210.155 198.012 210.463 197.705 210.463 197.326C210.463 196.25 209.91 194.699 209.062 192.987C207.221 189.273 204.018 184.705 203.133 182.814C201.84 180.051 200.226 177.481 198.809 174.788C196.649 170.685 194.921 166.35 192.373 162.463C190.219 159.177 188.649 155.846 185.211 153.655C183.302 152.438 181.069 151.946 178.776 151.659C176.604 151.388 174.38 151.301 172.362 150.876C169.13 150.196 165.879 149.406 162.745 148.331C161.386 147.865 160.181 147.191 158.773 146.843C158.405 146.751 158.033 146.976 157.942 147.343C157.852 147.71 158.075 148.082 158.443 148.173Z" fill="#3D493A" fill-opacity="0.1"/>
<path fill-rule="evenodd" clip-rule="evenodd" d="M130.434 232.315C132.736 221.655 133.333 210.55 136.444 200.063C136.73 199.1 137.726 195.185 138.828 192.821C139.045 192.355 139.263 191.955 139.482 191.661C139.553 191.567 139.622 191.486 139.691 191.421C139.727 191.387 139.751 191.35 139.786 191.343C139.879 191.325 139.932 191.384 139.972 191.46C140.068 191.639 140.122 191.874 140.16 192.135C140.348 193.407 140.092 195.191 140.092 195.688C140.092 201.239 139.7 206.809 139.88 212.364C140.168 221.197 142.525 229.938 142.833 238.775C142.877 240.062 143.14 241.553 143.315 243.036C143.478 244.413 143.569 245.781 143.275 246.945C143.182 247.313 143.405 247.686 143.772 247.778C144.14 247.87 144.513 247.648 144.605 247.281C144.936 245.969 144.86 244.427 144.678 242.875C144.508 241.431 144.248 239.98 144.203 238.727C143.897 229.892 141.54 221.151 141.252 212.319C141.071 206.779 141.463 201.224 141.463 195.688C141.463 195.062 141.795 192.543 141.354 191.217C141.181 190.702 140.897 190.331 140.534 190.133C140.255 189.982 139.922 189.918 139.519 189.997C139.213 190.059 138.879 190.257 138.563 190.617C138.24 190.987 137.904 191.554 137.585 192.24C136.452 194.668 135.422 198.685 135.129 199.673C132.008 210.193 131.402 221.333 129.094 232.025C129.014 232.395 129.249 232.761 129.62 232.84C129.99 232.92 130.355 232.685 130.434 232.315Z" fill="#3D493A" fill-opacity="0.1"/>
<path fill-rule="evenodd" clip-rule="evenodd" d="M139.77 194.164C138.245 195.06 137.524 196.338 137.155 197.809C136.82 199.136 136.791 200.63 136.652 202.103C136.182 207.063 135.944 212.032 135.318 216.993C135.271 217.368 135.537 217.713 135.913 217.759C136.288 217.807 136.632 217.541 136.679 217.165C137.307 212.189 137.547 207.207 138.017 202.232C138.149 200.83 138.167 199.407 138.485 198.143C138.766 197.021 139.3 196.031 140.465 195.347C140.791 195.156 140.9 194.736 140.709 194.41C140.517 194.083 140.096 193.973 139.77 194.164Z" fill="#3D493A" fill-opacity="0.1"/>
<path fill-rule="evenodd" clip-rule="evenodd" d="M140.765 195.313C140.909 195.59 141.131 195.826 141.407 196.077C141.835 196.466 142.427 196.938 142.789 198.118C144.111 202.424 144.776 209.702 145.365 214.378C145.412 214.753 145.755 215.02 146.131 214.972C146.506 214.924 146.773 214.581 146.726 214.206C146.127 209.464 145.441 202.083 144.101 197.715C143.694 196.392 143.074 195.744 142.553 195.265C142.317 195.048 142.095 194.896 141.982 194.679C141.806 194.344 141.391 194.213 141.056 194.388C140.72 194.563 140.59 194.978 140.765 195.313Z" fill="#3D493A" fill-opacity="0.1"/>
<path fill-rule="evenodd" clip-rule="evenodd" d="M156.236 230.891C156.011 230.434 155.757 229.379 155.694 229.195C154.936 226.938 154.323 224.677 153.665 222.395C152.194 217.291 150.542 212.252 149.098 207.138C148.181 203.893 147.443 200.698 146.269 197.538C145.799 196.272 145.305 193.81 144.285 192.214C143.455 190.915 142.307 190.142 140.697 190.541C140.33 190.631 140.105 191.004 140.196 191.371C140.287 191.739 140.659 191.963 141.026 191.872C141.988 191.633 142.633 192.177 143.129 192.952C144.097 194.467 144.537 196.815 144.983 198.017C146.144 201.142 146.871 204.302 147.777 207.51C149.223 212.627 150.875 217.668 152.347 222.775C153.011 225.076 153.629 227.357 154.394 229.632C154.466 229.845 154.784 231.081 155.041 231.569C155.273 232.005 155.627 232.119 155.818 232.119C156.197 232.119 156.503 231.813 156.503 231.435C156.503 231.213 156.399 231.017 156.236 230.891Z" fill="#3D493A" fill-opacity="0.1"/>
<path fill-rule="evenodd" clip-rule="evenodd" d="M156.604 232.763C156.945 233.324 157.81 233.798 158.964 234.094C161.184 234.665 164.537 234.761 165.803 234.887C175.279 235.826 185.628 234.303 195.108 233.448C195.485 233.414 195.764 233.081 195.73 232.704C195.695 232.327 195.362 232.048 194.985 232.083C185.59 232.929 175.332 234.453 165.938 233.522C164.711 233.401 161.459 233.319 159.305 232.765C158.891 232.659 158.52 232.536 158.223 232.386C158.024 232.285 157.858 232.186 157.776 232.05C157.578 231.726 157.157 231.624 156.833 231.821C156.51 232.017 156.407 232.439 156.604 232.763Z" fill="#3D493A" fill-opacity="0.1"/>
<path fill-rule="evenodd" clip-rule="evenodd" d="M188.938 231.222C188.783 230.89 187.327 227.771 187.1 227.292C184.629 222.087 182.703 216.723 181.406 211.094C181.321 210.725 180.952 210.495 180.583 210.58C180.214 210.665 179.984 211.034 180.068 211.402C181.388 217.128 183.347 222.586 185.86 227.88C186.083 228.349 187.098 230.767 187.628 231.716C187.798 232.02 187.962 232.212 188.053 232.284C188.223 232.417 188.388 232.445 188.513 232.445C188.891 232.445 189.198 232.138 189.198 231.76C189.198 231.541 189.096 231.347 188.938 231.222ZM188.559 231.075L188.577 231.077L188.574 231.076L188.559 231.075ZM188.545 231.074C188.535 231.074 188.523 231.073 188.513 231.073L188.545 231.074Z" fill="#3D493A" fill-opacity="0.1"/>
<path fill-rule="evenodd" clip-rule="evenodd" d="M205.995 201.753C208.247 208.645 210.659 215.544 212.344 222.6C213.045 225.536 213.367 228.6 214.241 231.49C216.238 238.087 218.204 244.87 218.204 251.799C218.204 252.177 218.512 252.484 218.89 252.484C219.269 252.484 219.576 252.177 219.576 251.799C219.576 244.736 217.59 237.817 215.554 231.092C214.688 228.228 214.373 225.191 213.678 222.281C211.984 215.189 209.563 208.254 207.299 201.327C207.181 200.967 206.793 200.77 206.434 200.887C206.074 201.005 205.877 201.393 205.995 201.753Z" fill="#3D493A" fill-opacity="0.1"/>
<path fill-rule="evenodd" clip-rule="evenodd" d="M144.722 248.071C147.701 249.548 149.985 249.489 152.67 247.492C152.975 247.266 153.038 246.836 152.812 246.532C152.586 246.229 152.156 246.165 151.852 246.391C149.65 248.028 147.774 248.053 145.331 246.842C144.992 246.673 144.58 246.812 144.411 247.152C144.243 247.491 144.382 247.903 144.722 248.071Z" fill="#3D493A" fill-opacity="0.1"/>
<path fill-rule="evenodd" clip-rule="evenodd" d="M153.884 248.001C156.055 248.277 157.721 249.359 159.754 249.971C165.203 251.615 170.642 253.539 176.096 255.084C182.748 256.967 189.54 257.789 196.348 258.914C206.075 260.521 213.338 261.544 219.007 253.674C219.229 253.366 219.159 252.937 218.852 252.716C218.545 252.495 218.116 252.564 217.895 252.872C212.572 260.258 205.702 259.069 196.571 257.561C189.814 256.444 183.072 255.635 176.469 253.764C171.024 252.222 165.592 250.3 160.151 248.658C158.044 248.023 156.307 246.926 154.057 246.64C153.682 246.593 153.339 246.859 153.291 247.234C153.242 247.61 153.509 247.953 153.884 248.001Z" fill="#3D493A" fill-opacity="0.1"/>
<path fill-rule="evenodd" clip-rule="evenodd" d="M167.361 252.891C168.777 257.654 171.27 261.886 172.852 266.59C172.972 266.949 173.362 267.142 173.721 267.022C174.079 266.901 174.273 266.512 174.152 266.153C172.576 261.465 170.087 257.247 168.676 252.5C168.567 252.137 168.185 251.93 167.823 252.039C167.46 252.146 167.253 252.529 167.361 252.891Z" fill="#3D493A" fill-opacity="0.1"/>
<path fill-rule="evenodd" clip-rule="evenodd" d="M63.0795 265.322C73.7382 267.319 85.1083 262.802 95.1999 259.8C108.088 255.967 121.261 253.453 133.882 249.283C134.574 249.054 135.348 249.168 136.117 249.26C137.091 249.379 138.058 249.473 138.908 249.192C140.693 248.602 142.529 248.108 144.162 247.137C144.488 246.943 144.595 246.522 144.401 246.197C144.208 245.871 143.786 245.764 143.462 245.958C141.913 246.879 140.169 247.331 138.478 247.89C137.809 248.111 137.048 247.991 136.281 247.899C135.309 247.782 134.329 247.689 133.451 247.98C120.843 252.146 107.684 254.656 94.8087 258.485C84.9154 261.428 73.7816 265.931 63.3319 263.973C62.9597 263.904 62.601 264.149 62.5313 264.521C62.4617 264.893 62.7072 265.252 63.0795 265.322Z" fill="#3D493A" fill-opacity="0.1"/>
<path fill-rule="evenodd" clip-rule="evenodd" d="M95.8821 237.905C95.5874 237.824 94.974 237.721 94.1495 237.632C90.5233 237.241 82.3667 236.752 81.9389 236.805C78.9096 237.18 75.8979 237.729 72.9403 238.491C72.5739 238.586 72.3532 238.961 72.4476 239.327C72.5417 239.693 72.9164 239.914 73.2828 239.82C76.1829 239.073 79.1367 238.535 82.1075 238.167C82.5246 238.115 90.4693 238.614 94.0024 238.995C94.7171 239.073 95.4232 239.197 95.4646 239.204C95.526 239.23 95.6298 239.261 95.7798 239.273C95.9938 239.289 96.5064 239.282 97.2154 239.256C100.576 239.126 108.596 238.58 109.22 238.532C113.964 238.171 119.043 237.279 123.744 236.347C125.335 236.031 126.984 235.272 128.545 235.272C128.924 235.272 129.232 234.964 129.232 234.586C129.232 234.207 128.924 233.9 128.545 233.9C126.899 233.9 125.155 234.668 123.477 235.001C118.829 235.922 113.806 236.807 109.116 237.164C108.494 237.212 100.51 237.757 97.1632 237.884C96.5127 237.909 95.9348 237.906 95.8821 237.905Z" fill="#3D493A" fill-opacity="0.1"/>
<path fill-rule="evenodd" clip-rule="evenodd" d="M90.6789 214.169C90.0206 217.724 88.689 221.167 87.7422 224.654C86.7229 228.407 86.1801 232.306 85.228 236.082C85.1354 236.45 85.3581 236.823 85.7255 236.915C86.0924 237.008 86.4657 236.785 86.5582 236.419C87.5084 232.65 88.0488 228.758 89.0661 225.013C90.0226 221.491 91.3626 218.01 92.0277 214.418C92.0969 214.046 91.8502 213.687 91.478 213.619C91.1057 213.55 90.7477 213.797 90.6789 214.169Z" fill="#3D493A" fill-opacity="0.1"/>
<path fill-rule="evenodd" clip-rule="evenodd" d="M68.0752 203.645C68.3153 203.528 68.4757 203.276 68.4611 202.992C68.4416 202.614 68.1185 202.323 67.7404 202.343C67.4491 202.358 67.088 202.553 66.838 203.032C66.418 203.837 66.1252 205.838 66.019 206.169C64.7964 209.978 63.6587 213.839 62.632 217.705C59.7344 228.623 57.4141 239.925 57.4141 251.273C57.4141 255.267 57.533 261.132 60.0642 264.477C60.2923 264.779 60.723 264.84 61.0246 264.61C61.3267 264.382 61.3861 263.952 61.1581 263.65C58.7896 260.52 58.7857 255.01 58.7857 251.273C58.7857 240.043 61.0904 228.861 63.9579 218.057C64.9787 214.213 66.1096 210.375 67.3253 206.588C67.4028 206.346 67.5753 205.188 67.8287 204.292C67.8949 204.058 68.0231 203.761 68.0752 203.645Z" fill="#3D493A" fill-opacity="0.1"/>
<path fill-rule="evenodd" clip-rule="evenodd" d="M100.117 268.503C100.149 268.38 100.438 267.292 100.84 266.339C102.104 263.343 104.487 258.78 104.912 257.386C105.022 257.024 104.819 256.64 104.456 256.53C104.094 256.419 103.71 256.624 103.6 256.986C103.119 258.562 100.098 264.232 99.102 267.007C98.9022 267.563 98.7809 268.019 98.7506 268.33C98.7278 268.567 98.7536 268.755 98.7994 268.891C99.3524 270.536 101.094 271.97 103.432 273.119C108.503 275.61 116.367 276.903 119.004 277.23C136.754 279.429 158.458 279.975 172.998 267.962C173.29 267.721 173.332 267.288 173.091 266.996C172.849 266.705 172.417 266.664 172.125 266.905C157.871 278.681 136.573 278.025 119.173 275.869C116.61 275.551 108.964 274.307 104.037 271.887C102.113 270.942 100.597 269.851 100.117 268.503Z" fill="#3D493A" fill-opacity="0.1"/>
<path fill-rule="evenodd" clip-rule="evenodd" d="M99.9791 270.317C98.6524 272.425 97.0644 274.289 95.8179 276.476C92.7916 281.784 90.5117 287.442 88.1072 293.005C87.957 293.352 88.1169 293.756 88.4643 293.907C88.8122 294.057 89.2161 293.897 89.3662 293.549C91.7509 288.033 94.0088 282.419 97.0098 277.155C98.246 274.987 99.8233 273.139 101.14 271.047C101.342 270.727 101.245 270.303 100.925 270.101C100.604 269.9 100.181 269.996 99.9791 270.317Z" fill="#3D493A" fill-opacity="0.1"/>
<path fill-rule="evenodd" clip-rule="evenodd" d="M172.791 268.845C174.431 270.862 175.42 273.145 176.9 275.217C180.906 280.824 183.747 287.291 186.841 293.427C187.012 293.765 187.425 293.901 187.762 293.731C188.101 293.56 188.237 293.148 188.066 292.809C184.94 286.611 182.063 280.082 178.017 274.42C176.519 272.325 175.514 270.018 173.854 267.98C173.616 267.686 173.184 267.641 172.89 267.88C172.596 268.12 172.551 268.551 172.791 268.845Z" fill="#3D493A" fill-opacity="0.1"/>
<path fill-rule="evenodd" clip-rule="evenodd" d="M102.689 312.882C104.679 313.206 106.518 314.004 108.526 314.318C120.913 316.257 133.411 317.044 145.985 315.525C171.908 312.391 194.638 302.898 221.154 309.714C221.521 309.809 221.895 309.587 221.989 309.22C222.083 308.854 221.862 308.48 221.496 308.385C194.804 301.525 171.915 311.007 145.821 314.162C133.374 315.668 121 314.883 108.739 312.963C106.732 312.649 104.896 311.852 102.909 311.528C102.535 311.468 102.183 311.722 102.122 312.095C102.062 312.469 102.316 312.821 102.689 312.882Z" fill="#3D493A" fill-opacity="0.1"/>
<path fill-rule="evenodd" clip-rule="evenodd" d="M190.374 295.07C194.526 294.978 198.92 296.212 203.052 296.741C219.769 298.88 237.667 301.805 250.994 312.932C256.662 317.664 259.501 323.146 259.644 328.79C259.786 334.451 257.224 340.253 252.189 345.602C249.781 348.159 246.855 350.751 243.489 352.003C231.897 356.312 224.904 356.114 212.745 355.779C208.181 355.653 203.555 355.764 199.017 355.164C192.168 354.258 185.467 352.679 178.578 351.875C178.201 351.832 177.861 352.102 177.817 352.478C177.773 352.853 178.043 353.194 178.419 353.238C185.302 354.041 191.995 355.619 198.837 356.524C203.422 357.13 208.095 357.024 212.707 357.151C225.071 357.491 232.179 357.671 243.966 353.288C247.528 351.965 250.64 349.247 253.187 346.542C258.509 340.889 261.165 334.737 261.014 328.756C260.863 322.758 257.896 316.907 251.873 311.879C238.344 300.584 220.197 297.551 203.225 295.38C199.028 294.844 194.562 293.605 190.344 293.698C189.966 293.706 189.665 294.021 189.674 294.399C189.682 294.777 189.996 295.078 190.374 295.07Z" fill="#3D493A" fill-opacity="0.1"/>
<path fill-rule="evenodd" clip-rule="evenodd" d="M88.3254 327.314C101.812 329.833 114.467 335.258 127.481 339.442C139.904 343.436 152.503 346.984 165.042 350.64C168.29 351.587 171.816 351.433 175.121 352.162C175.491 352.243 175.858 352.009 175.939 351.639C176.02 351.27 175.787 350.903 175.417 350.822C172.141 350.1 168.646 350.261 165.426 349.324C152.899 345.67 140.312 342.126 127.902 338.136C114.832 333.934 102.122 328.496 88.5773 325.965C88.2055 325.895 87.847 326.142 87.7773 326.514C87.708 326.885 87.9537 327.244 88.3254 327.314Z" fill="#3D493A" fill-opacity="0.1"/>
<path fill-rule="evenodd" clip-rule="evenodd" d="M84.117 324.613C77.8528 323.032 71.6418 321.199 65.3562 319.733C61.4329 318.818 57.3736 318.366 53.4287 317.51C50.7142 316.922 48.0772 316.213 45.3388 315.728C38.1917 314.463 31.3336 312.718 24.2747 311.552C23.0707 311.353 21.5885 311.287 20.2286 310.973C19.0402 310.698 17.9385 310.242 17.3129 309.209C16.8417 308.43 16.8563 307.634 17.1852 306.855C17.5657 305.953 18.3312 305.079 19.2809 304.253C22.3111 301.614 27.209 299.514 28.8389 299.029C33.6067 297.61 38.7999 297.903 43.6817 297.365C46.4921 297.056 49.3791 297.641 52.1623 297.089C55.5132 296.425 59.0736 297.003 62.3693 295.913C64.6717 295.152 67.2502 294.045 69.4691 292.846C70.853 292.096 71.8927 291.35 72.9077 290.757C74.3017 289.942 75.6451 289.442 77.9289 289.725C79.6684 289.94 80.9737 290.938 82.1174 292.154C83.3666 293.482 84.4255 295.069 85.5667 296.342C89.8905 301.164 94.3065 305.896 98.8555 310.407C99.1246 310.673 99.5586 310.671 99.8256 310.402C100.093 310.133 100.091 309.698 99.8216 309.432C95.2912 304.941 90.8943 300.228 86.588 295.426C85.4399 294.146 84.3734 292.55 83.1163 291.213C81.7534 289.765 80.1712 288.62 78.0975 288.363C75.4225 288.031 73.8481 288.617 72.2149 289.573C71.2116 290.159 70.185 290.899 68.8167 291.638C66.6669 292.801 64.1693 293.874 61.9386 294.61C58.697 295.682 55.1916 295.091 51.8958 295.744C49.1511 296.288 46.3031 295.696 43.5315 296.002C38.5693 296.548 33.2939 296.273 28.4476 297.714C26.4352 298.312 19.7238 301.255 16.9264 304.699C15.5602 306.38 15.0886 308.183 16.1395 309.918C16.8052 311.019 17.8479 311.672 19.0528 312.069C20.6569 312.599 22.5601 312.659 24.0511 312.906C31.1046 314.071 37.9579 315.815 45.1001 317.079C47.8209 317.561 50.4409 318.266 53.1383 318.85C57.0758 319.705 61.1283 320.155 65.0444 321.069C71.3222 322.533 77.5249 324.364 83.7818 325.943C84.1487 326.035 84.5219 325.812 84.6145 325.446C84.7071 325.079 84.4844 324.705 84.117 324.613Z" fill="#3D493A" fill-opacity="0.1"/>
<path fill-rule="evenodd" clip-rule="evenodd" d="M126.501 316.324C126.512 316.912 126.221 317.561 125.891 318.187C125.502 318.923 125.04 319.625 124.755 320.174C123.537 322.525 122.071 325.795 121.465 328.966C121.044 331.174 121.043 333.335 121.771 335.137C121.913 335.488 122.313 335.658 122.663 335.517C123.014 335.375 123.185 334.975 123.043 334.624C122.407 333.048 122.445 331.156 122.814 329.224C123.393 326.186 124.807 323.056 125.973 320.806C126.317 320.14 126.918 319.255 127.341 318.353C127.667 317.656 127.884 316.946 127.872 316.298C127.865 315.92 127.553 315.618 127.174 315.625C126.795 315.632 126.494 315.945 126.501 316.324Z" fill="#3D493A" fill-opacity="0.1"/>
<path fill-rule="evenodd" clip-rule="evenodd" d="M30.7888 313.982C30.204 313.553 29.329 313.448 28.2253 313.729C26.8912 314.069 25.1493 314.97 23.21 316.233C15.8934 321 5.62302 330.943 3.87426 333.544C2.15862 336.095 0.28221 340.628 0.81478 343.796C1.42872 347.447 4.53838 351.496 8.64351 355.101C14.7001 360.417 22.8855 364.789 27.9466 365.625C47.8062 368.906 67.8421 369.885 88.0588 370.511C95.7838 370.75 103.605 371.547 111.342 371.096C123.024 370.415 143.034 367.64 154.194 368.59C176.082 370.452 193.812 371.042 215.852 375.764C223.685 377.442 235.722 379.302 243.301 375.874C248.469 373.537 252.258 370.069 254.289 367.404C255.207 366.199 255.772 365.141 255.976 364.406C257.216 359.932 254.447 354.985 248.645 351.382C248.323 351.183 247.899 351.282 247.7 351.604C247.5 351.925 247.599 352.348 247.92 352.548C253.093 355.758 255.759 360.053 254.654 364.04C254.419 364.886 253.592 366.204 252.276 367.691C250.214 370.021 246.955 372.716 242.737 374.625C235.393 377.945 223.73 376.049 216.14 374.423C194.038 369.688 176.26 369.09 154.31 367.222C143.099 366.27 122.997 369.042 111.262 369.726C103.566 370.175 95.7857 369.379 88.1013 369.14C67.9459 368.516 47.9699 367.544 28.1703 364.272C23.2826 363.464 15.3979 359.205 9.54883 354.07C5.71656 350.705 2.74091 346.977 2.16789 343.569C1.68551 340.701 3.4596 336.619 5.01248 334.311C6.7247 331.763 16.7958 322.049 23.9589 317.383C25.7433 316.221 27.3365 315.371 28.564 315.059C29.1696 314.905 29.6564 314.852 29.977 315.087C30.2825 315.312 30.7118 315.245 30.936 314.94C31.16 314.635 31.0939 314.205 30.7888 313.982Z" fill="#3D493A" fill-opacity="0.1"/>
<path fill-rule="evenodd" clip-rule="evenodd" d="M143.903 345.758C143.965 345.394 143.725 345.045 143.36 344.972C142.989 344.899 142.628 345.14 142.553 345.511C142.495 345.808 142.586 346.293 142.778 346.824C142.962 347.337 143.243 347.926 143.266 348.328C143.412 350.93 143.045 355.556 142.014 359.55C141.351 362.125 140.429 364.44 139.148 365.708C138.879 365.975 138.877 366.41 139.144 366.678C139.411 366.947 139.845 366.948 140.114 366.682C141.531 365.278 142.608 362.743 143.343 359.892C144.411 355.75 144.786 350.951 144.635 348.25C144.612 347.82 144.39 347.214 144.174 346.643C144.087 346.415 144.003 346.192 143.949 345.995C143.926 345.91 143.906 345.777 143.903 345.758Z" fill="#3D493A" fill-opacity="0.1"/>
</svg>
