<svg width="58" height="52" viewBox="0 0 58 52" fill="none" xmlns="http://www.w3.org/2000/svg">
<path d="M56.9245 45.9242L52.8855 44.9322C52.8654 44.9274 52.8449 44.9237 52.8244 44.9216L49.2571 44.5421L46.6911 39.488C46.683 39.4718 46.6738 39.4559 46.6637 39.441L41.8466 32.2156L40.4026 23.6328C39.9686 20.7576 38.5733 18.0661 36.4741 16.0543L36.3952 15.9787C35.9874 15.5877 35.4789 15.3362 34.9314 15.2437C33.8642 15.0149 32.6569 14.9677 31.4843 14.9243C31.2696 14.9161 31.0575 14.9078 30.847 14.8989V14.1487C31.2451 14.1296 31.6428 14.0533 32.0184 13.8857C33.5219 13.2151 34.3248 11.2011 34.5487 10.5552L35.6488 10.022C35.8599 9.91958 35.9607 9.67525 35.8828 9.45394L35.2564 7.6742C35.2778 7.20207 35.3574 5.08624 35.1347 3.79848C34.9205 2.5596 33.9343 1.25824 32.7899 0.704271C31.0156 -0.155156 28.7847 -0.234464 27.1068 0.501864C25.0371 1.41017 23.9326 3.27102 23.6195 5.25522C22.2853 5.45135 21.2559 6.60129 21.2559 7.98866C21.2559 9.51404 22.4968 10.7551 24.0223 10.7551C24.2611 10.7551 24.4949 10.7214 24.7229 10.6614C25.0985 11.2675 25.5535 11.8038 26.0667 12.2552V14.9586H25.2508C25.2303 14.9586 25.2112 14.9646 25.1911 14.9674L25.1905 14.9625L23.6512 15.1654C23.642 15.1665 23.6329 15.1681 23.6242 15.1698C22.75 15.3383 21.7205 15.8535 20.5639 16.7014C18.8858 17.9313 17.4362 19.4957 16.2555 21.3513L13.6006 25.5232L9.00519 27.963C8.98928 27.9714 8.97407 27.9807 8.95909 27.9911L5.59077 30.3204C3.75273 31.5915 2.14592 33.1465 0.815277 34.942C0.0512952 35.9733 -0.194453 37.3253 0.157571 38.5589C0.284364 39.0027 0.482395 39.4195 0.746356 39.7978L2.34394 42.0861C2.44054 42.2244 2.56065 42.3417 2.69666 42.4349L2.86495 42.6577C3.79377 44.3872 5.46743 45.6231 6.88982 46.4221L5.00705 46.6082C4.41735 46.6955 3.92079 47.073 3.67873 47.6177C3.38042 48.289 3.53948 49.0778 4.07432 49.5814L4.5815 50.0586C4.77491 50.2407 5.01167 50.3776 5.26595 50.4549L6.85432 50.9362C7.14295 51.0236 7.43779 51.0672 7.73242 51.0672C8.07314 51.0672 8.41318 51.0089 8.74169 50.8924L13.8669 49.0761C14.2858 48.9276 14.644 48.6366 14.8755 48.2567L15.1788 47.7585C15.3723 47.4413 15.4665 47.0838 15.4605 46.7214L18.2975 48.4149C20.6563 49.8229 23.2367 50.6907 25.9664 50.9941L26.0847 51.0072C26.359 51.0377 26.635 51.0528 26.9109 51.0528C27.8354 51.0528 28.7593 50.883 29.6227 50.551C32.0698 49.6097 33.8252 47.5108 34.3191 44.9359C34.589 43.5292 34.6897 42.09 34.619 40.6579L34.1769 31.7328L34.8829 25.0654C34.9757 25.2134 35.0501 25.3731 35.0982 25.5402L37.7169 34.6281C37.7328 34.6832 37.7589 34.7346 37.7934 34.7802L48.0238 48.1772C48.1111 48.2915 48.2467 48.3584 48.3903 48.3584H56.6291C57.3098 48.3584 57.8636 47.8045 57.8636 47.1236C57.8648 46.5533 57.4781 46.0602 56.9245 45.9242ZM26.9893 12.9433C27.3049 13.1425 27.6412 13.3285 27.985 13.4882C28.4592 13.7086 29.1612 13.9804 29.9255 14.0977V16.048C29.9255 16.8575 29.2672 17.5161 28.4575 17.5161C27.6479 17.5161 26.9893 16.8575 26.9893 16.048V12.9433ZM27.478 1.3463C28.1305 1.05998 28.8824 0.918431 29.6531 0.918431C30.5851 0.918431 31.5448 1.12545 32.3888 1.53419C32.7341 1.70132 33.0691 1.97127 33.3584 2.29356C31.5395 2.94528 26.5787 4.78148 24.4555 6.15434C24.5425 4.1807 25.4744 2.22556 27.478 1.3463ZM24.0225 9.83293C23.0057 9.83293 22.1783 9.00552 22.1783 7.98866C22.1783 7.14325 22.7516 6.43024 23.5292 6.21375C23.505 6.97427 23.5905 7.73371 23.7773 8.44624C23.9022 8.9225 24.0719 9.3785 24.2731 9.81404C24.1906 9.82506 24.1072 9.83293 24.0225 9.83293ZM24.6694 8.21224C24.5885 7.90358 24.5295 7.58499 24.4922 7.26158C25.7914 6.1087 31.3828 3.97392 33.9096 3.07576C34.065 3.366 34.1766 3.66684 34.2267 3.95547C34.4553 5.27853 34.3329 7.69378 34.3318 7.71798C34.3286 7.77817 34.337 7.83807 34.3571 7.89502L34.8767 9.37142L33.971 9.8103C33.8544 9.86676 33.7669 9.96965 33.73 10.0939C33.5375 10.7412 32.7876 12.5326 31.6433 13.0431C30.8548 13.3944 29.6635 13.2517 28.3734 12.6521C27.8023 12.3866 27.2507 12.046 26.8201 11.6931C25.8034 10.8595 25.0397 9.62332 24.6694 8.21224ZM26.0671 15.8807V16.048C26.0671 17.3661 27.1394 18.4382 28.4575 18.4382C29.7755 18.4382 30.8477 17.3661 30.8477 16.048V15.8217C31.0467 15.8302 31.2477 15.8378 31.4503 15.8454C31.8401 15.86 32.2337 15.8754 32.6231 15.8971C32.4382 16.0595 32.2714 16.2458 32.132 16.4572C30.9439 18.2587 31.1004 20.6566 32.5131 22.2881L34.0609 24.0761L33.2568 31.6706C33.2543 31.6944 33.2536 31.7181 33.2549 31.7421L33.4469 35.6178C32.3589 35.692 30.9084 35.674 29.5134 35.2934C27.3319 34.6986 24.7851 33.596 23.9882 33.241C23.8974 31.53 23.3831 29.8683 22.4787 28.4053C21.7163 27.1719 21.4761 25.6569 21.8195 24.2484C21.9576 23.6822 22.1843 23.1448 22.4927 22.6512C22.5035 22.6335 22.5135 22.6153 22.522 22.5964L25.5489 15.8807H26.0671ZM5.51953 34.4416L9.53124 33.3675C9.76504 33.305 9.99649 33.2333 10.2272 33.1598C10.0447 33.8392 10.0864 34.5622 10.3542 35.2162L10.6558 35.9525L8.65869 35.2685C7.6568 34.9255 6.5952 34.8397 5.55734 35.0096L5.51953 34.4416ZM11.8147 36.3497L11.3568 35.2314C11.9977 35.4986 12.9388 35.8725 14.1029 36.2833C14.3261 36.6372 14.6016 37.024 14.9352 37.4185L11.8147 36.3497ZM17.0107 38.1294C14.9094 36.5228 14.1666 34.3754 14.1592 34.3537L13.7221 34.4999L13.2846 34.6454C13.2925 34.6691 13.345 34.8229 13.4515 35.0654C12.2808 34.6276 11.429 34.2636 11.0392 34.0916C11.0277 33.8145 11.0653 33.5354 11.1545 33.2684C11.1962 33.1432 11.3723 32.9111 11.4889 32.7574C11.5141 32.7243 11.5337 32.6972 11.5563 32.6665C12.2209 32.3866 12.8687 32.0646 13.4911 31.6961C13.7857 31.7088 14.0732 31.7699 14.3469 31.8843L19.8642 34.1882C20.3789 34.4031 21.3124 34.9041 21.5858 35.0523C21.6699 35.0981 21.7528 35.1463 21.8339 35.1971L23.0854 35.9788V39.5744L18.493 38.6373L17.0107 38.1294ZM23.0852 34.8914L22.322 34.4146C22.2249 34.3539 22.1262 34.2964 22.0252 34.2417C21.6619 34.0448 20.7587 33.5625 20.2192 33.3373L14.7022 31.0336C14.661 31.0166 14.6188 31.0041 14.5774 30.9884C14.9721 30.7093 15.3575 30.4168 15.7254 30.1023L20.749 25.3613C20.7167 26.5955 21.0406 27.8317 21.6951 28.8904C22.6047 30.3619 23.0856 32.0542 23.0856 33.7843L23.0852 34.8914ZM1.50342 39.2694C1.29801 38.9752 1.14379 38.6509 1.04535 38.3053C0.771251 37.3452 0.962356 36.293 1.55713 35.4907C2.82737 33.7765 4.36134 32.2921 6.11615 31.0783L9.46229 28.7643L14.1412 26.2803C14.2115 26.2429 14.271 26.1878 14.3141 26.1205L17.0344 21.846C18.1534 20.0874 19.5246 18.6068 21.11 17.4449C22.1497 16.6828 23.0504 16.2228 23.7867 16.0774L24.4912 15.9844L21.6941 22.1895C21.3675 22.7181 21.1247 23.2902 20.9638 23.8901L15.109 29.4162C13.4333 30.8481 11.4221 31.9064 9.29262 32.4765L4.91484 33.6486C4.70207 33.7055 4.55937 33.9049 4.57388 34.1246L4.83232 37.9996L3.53972 37.5552C3.3742 37.4984 3.19139 37.5399 3.06689 37.6624C2.94218 37.7848 2.89745 37.9671 2.9514 38.1332L3.92702 41.1473C3.97128 41.2845 3.95076 41.4318 3.87007 41.5512C3.78939 41.6709 3.66074 41.7454 3.51689 41.756C3.35391 41.7665 3.19438 41.6918 3.10101 41.5577L1.50342 39.2694ZM14.3923 47.2783L14.0889 47.7765C13.9674 47.9757 13.7795 48.1283 13.5598 48.2063L8.43462 50.0228C8.00906 50.1736 7.55537 50.1842 7.12289 50.0533L5.53451 49.5719C5.41557 49.5359 5.30491 49.4719 5.21454 49.3868L4.70737 48.9094C4.45746 48.674 4.38324 48.3053 4.52248 47.9916C4.63567 47.7371 4.86782 47.5607 5.12095 47.5227L9.15227 47.1246C9.58082 47.0824 10.0025 46.9841 10.4059 46.8328L13.1656 45.7962C13.4575 45.6868 13.7779 45.7156 14.0449 45.8751C14.2798 46.0153 14.4453 46.2389 14.511 46.5042C14.5767 46.77 14.5346 47.0448 14.3923 47.2783ZM10.0818 45.9694C9.75354 46.0927 9.41026 46.1725 9.06167 46.2071L8.60568 46.252C7.79512 45.8914 6.65836 45.3008 5.62259 44.4658C6.44513 44.612 7.40645 44.7549 8.01805 44.7549C9.04968 44.7549 10.5705 44.3017 11.1173 44.1274L12.6114 45.0194L10.0818 45.9694ZM33.4147 44.7616C32.9813 47.0215 31.4404 48.8637 29.2928 49.6897C28.3091 50.068 27.2358 50.2072 26.1877 50.0902L26.0695 50.077C23.4713 49.7884 21.0159 48.9626 18.771 47.6228L14.5181 45.0841C14.5179 45.0839 14.5184 45.0843 14.5181 45.0841C14.5179 45.0838 14.517 45.0834 14.5168 45.0832L9.45816 42.0634L8.9856 42.8554L10.0368 43.4829C9.40563 43.6528 8.60038 43.8331 8.01782 43.8331C7.05004 43.8331 4.98193 43.4109 4.40929 43.2901C4.22924 43.0748 4.06118 42.8492 3.90949 42.6124C4.20273 42.5183 4.45793 42.3295 4.63475 42.0667C4.87473 41.7107 4.93652 41.272 4.80419 40.8637L4.11282 38.7276L4.842 38.9783C5.06584 39.0555 5.31159 39.0154 5.49948 38.8715C5.68736 38.7276 5.79018 38.501 5.77427 38.2652L5.6189 35.9329C6.53434 35.7676 7.47423 35.8379 8.36016 36.1413L18.2219 39.5193C18.2406 39.5257 18.2597 39.5309 18.279 39.5347L22.9395 40.4856C23.9072 40.6831 24.8345 41.0288 25.6957 41.5132L26.9335 42.2094L27.3856 41.4057L26.1478 40.7095C25.4684 40.3276 24.7513 40.0255 24.0074 39.8047V34.2578C25.0826 34.7263 27.2899 35.6429 29.2711 36.1833C30.3608 36.4804 31.4729 36.5747 32.445 36.5747C32.8192 36.5747 33.1697 36.56 33.4931 36.5382L33.6994 40.7033C33.7662 42.0614 33.6706 43.4268 33.4147 44.7616ZM56.6303 47.4358H48.6195L38.58 34.289L35.9853 25.2846C35.8745 24.8984 35.6765 24.5337 35.4134 24.2297L33.2102 21.6846C32.067 20.3639 31.9402 18.4233 32.902 16.9649C33.2491 16.4383 33.8329 16.1242 34.4634 16.1242C34.5609 16.1242 34.6568 16.1336 34.7515 16.1484C34.8431 16.1681 34.9348 16.1878 35.0229 16.2106C35.2951 16.2959 35.5467 16.4421 35.7576 16.6442L35.8364 16.7198C37.7895 18.5915 39.0874 21.0953 39.4922 23.7778L40.9538 32.4654C40.9647 32.5295 40.9888 32.5906 41.025 32.6446L45.8814 39.9294L48.5483 45.1826C48.619 45.3218 48.7553 45.4159 48.9104 45.4322L52.6957 45.835L56.7045 46.8196C56.8444 46.8539 56.9425 46.9789 56.9425 47.1232C56.9426 47.2956 56.8025 47.4358 56.6303 47.4358Z" fill="#1E1E1E"/>
</svg>
