<svg width="431" height="417" viewBox="0 0 431 417" fill="none" xmlns="http://www.w3.org/2000/svg">
<g clip-path="url(#clip0_348_17472)">
<path fill-rule="evenodd" clip-rule="evenodd" d="M242.71 89.2398C242.768 89.2952 242.874 89.4006 242.946 89.4908C243.217 89.8326 243.524 90.3181 243.887 90.857C245.109 92.6698 246.937 94.9861 249.899 95.2529C255.694 95.7751 261.375 94.615 267.204 95.8992C267.983 96.0708 269.527 96.2605 270.807 96.6592C271.489 96.8715 272.108 97.1059 272.358 97.5089C272.56 97.8321 272.986 97.9312 273.31 97.7301C273.633 97.5285 273.732 97.1024 273.531 96.7793C273.228 96.2939 272.643 95.8845 271.894 95.581C270.48 95.0067 268.448 94.7596 267.5 94.5511C261.614 93.2543 255.876 94.4055 250.023 93.878C248.609 93.7505 247.528 93.0262 246.669 92.1602C245.736 91.2198 245.054 90.1097 244.509 89.3036C244.105 88.7064 243.746 88.2591 243.438 88.0542C243.163 87.8712 242.895 87.8163 242.642 87.8521C240.577 88.1444 239.709 89.6031 239.096 91.2889C238.838 92.0004 238.623 92.7497 238.34 93.4249C238.099 93.9976 237.815 94.5174 237.367 94.8729C234.879 96.847 231.802 98.2553 228.924 99.8774C225.911 101.578 223.117 103.512 221.336 106.456C219.901 108.826 220.181 111.467 220.806 114.141C221.372 116.559 222.227 119.002 222 121.254C221.883 122.401 220.961 124.038 219.695 125.868C216.568 130.382 211.275 135.904 209.18 137.981C208.91 138.249 208.908 138.686 209.176 138.957C209.445 139.227 209.882 139.229 210.153 138.961C212.28 136.852 217.654 131.24 220.83 126.653C222.264 124.581 223.242 122.692 223.372 121.393C223.614 118.999 222.751 116.397 222.151 113.827C221.609 111.512 221.276 109.222 222.516 107.172C224.175 104.431 226.799 102.662 229.603 101.081C232.543 99.4217 235.681 97.9719 238.225 95.954C238.849 95.4593 239.277 94.7571 239.612 93.9589C239.905 93.2635 240.128 92.4932 240.394 91.7607C240.818 90.5922 241.331 89.4933 242.71 89.2398Z" fill="#3D493A" fill-opacity="0.1"/>
<path fill-rule="evenodd" clip-rule="evenodd" d="M262.295 99.512C262.926 102.599 261.203 105.874 259.493 108.295C259.274 108.607 259.348 109.038 259.659 109.258C259.97 109.477 260.401 109.403 260.621 109.091C262.533 106.384 264.353 102.687 263.648 99.236C263.571 98.8624 263.206 98.6216 262.833 98.6976C262.46 98.7741 262.218 99.1389 262.295 99.512Z" fill="#3D493A" fill-opacity="0.1"/>
<path fill-rule="evenodd" clip-rule="evenodd" d="M263.466 99.7579C263.497 99.8086 263.574 99.947 263.604 100.05C263.825 100.794 263.737 101.929 263.645 102.294C263.216 103.992 261.978 105.313 261.047 106.763C260.782 107.175 260.412 107.508 260.033 107.825C259.919 107.854 259.812 107.914 259.723 108.003C259.679 108.046 259.321 108.342 259.179 108.509C258.996 108.725 258.961 108.939 258.961 109.045C258.961 109.213 259.016 109.34 259.084 109.44C259.177 109.573 259.306 109.673 259.487 109.718C259.568 109.738 259.77 109.783 260.019 109.636C260.128 109.571 260.685 109.079 260.75 109.025C261.293 108.576 261.829 108.1 262.209 107.509C263.219 105.935 264.518 104.474 264.983 102.632C265.105 102.148 265.221 100.644 264.927 99.6573C264.76 99.0934 264.449 98.683 264.057 98.4962C263.751 98.3506 263.377 98.3099 262.922 98.4825C262.565 98.6173 262.385 99.0165 262.52 99.3724C262.655 99.729 263.054 99.9082 263.41 99.7738C263.426 99.7668 263.449 99.7618 263.466 99.7579Z" fill="#3D493A" fill-opacity="0.1"/>
<path fill-rule="evenodd" clip-rule="evenodd" d="M263.146 100.101C263.158 100.171 263.217 100.5 263.216 100.753C263.21 101.902 262.856 103.603 262.644 103.99C262.461 104.323 262.582 104.743 262.917 104.927C263.25 105.11 263.67 104.989 263.853 104.654C264.11 104.19 264.589 102.146 264.596 100.76C264.599 100.27 264.538 99.8517 264.425 99.574C264.337 99.3589 264.215 99.1991 264.079 99.0878C263.785 98.8465 263.35 98.8897 263.108 99.1838C262.884 99.4575 262.905 99.8527 263.146 100.101Z" fill="#3D493A" fill-opacity="0.1"/>
<path fill-rule="evenodd" clip-rule="evenodd" d="M256.013 98.5226C253.207 99.9088 252.589 102.954 253.093 105.703C253.161 106.078 253.522 106.326 253.897 106.257C254.271 106.189 254.52 105.828 254.451 105.454C254.055 103.293 254.419 100.849 256.624 99.7604C256.966 99.5912 257.107 99.1772 256.938 98.8359C256.77 98.4941 256.355 98.354 256.013 98.5226Z" fill="#3D493A" fill-opacity="0.1"/>
<path fill-rule="evenodd" clip-rule="evenodd" d="M231.793 101.336C231.358 103.02 231.386 104.139 231.725 104.994C232.22 106.243 233.433 106.972 235.212 108.075C235.536 108.276 235.962 108.176 236.162 107.852C236.363 107.529 236.262 107.101 235.939 106.901C235.155 106.416 234.485 106.025 233.956 105.617C233.52 105.281 233.189 104.941 233.009 104.486C232.749 103.83 232.796 102.974 233.13 101.682C233.226 101.312 233.003 100.936 232.634 100.841C232.265 100.745 231.889 100.967 231.793 101.336Z" fill="#3D493A" fill-opacity="0.1"/>
<path fill-rule="evenodd" clip-rule="evenodd" d="M272.467 97.6226C268.69 101.88 265.134 106.338 262.389 111.325C261.534 112.879 260.179 114.648 259.881 116.417C259.817 116.793 260.071 117.15 260.447 117.213C260.823 117.275 261.179 117.022 261.242 116.646C261.515 115.02 262.813 113.418 263.599 111.991C266.293 107.094 269.791 102.72 273.5 98.5385C273.752 98.2536 273.727 97.8173 273.442 97.5642C273.156 97.3117 272.72 97.3377 272.467 97.6226Z" fill="#3D493A" fill-opacity="0.1"/>
<path fill-rule="evenodd" clip-rule="evenodd" d="M256.961 119.937C257.042 119.82 257.231 119.753 257.428 119.667C257.929 119.448 258.53 119.276 258.874 119.121C261.868 117.772 264.703 118.491 266.482 121.137C266.798 121.608 267.118 122.084 267.179 122.681C267.384 124.714 265.739 126.545 264.179 127.62C261.175 129.692 257.249 130.22 253.769 129.186C253.242 129.029 252.089 128.665 251.148 128.189C250.647 127.937 250.189 127.685 250.033 127.376C249.862 127.036 249.446 126.898 249.106 127.071C248.766 127.242 248.629 127.657 248.8 127.997C249 128.391 249.435 128.794 250.011 129.14C251.097 129.792 252.701 130.308 253.376 130.509C257.249 131.661 261.619 131.064 264.962 128.757C266.9 127.421 268.807 125.067 268.552 122.542C268.468 121.709 268.069 121.024 267.627 120.367C265.445 117.122 261.977 116.208 258.307 117.861C257.9 118.046 257.139 118.255 256.598 118.532C256.257 118.708 255.988 118.92 255.833 119.139C255.613 119.45 255.687 119.881 255.998 120.101C256.31 120.321 256.741 120.247 256.961 119.937Z" fill="#3D493A" fill-opacity="0.1"/>
<path fill-rule="evenodd" clip-rule="evenodd" d="M256.542 124.208C256.371 124.914 255.781 125.423 255.243 125.903C255.056 126.07 254.448 126.335 253.903 126.467C253.774 126.498 253.597 126.513 253.477 126.518C253.398 126.243 253.15 126.034 252.847 126.018C252.466 125.999 252.142 126.293 252.123 126.673C252.106 127 252.199 127.248 252.341 127.438C252.534 127.696 252.847 127.87 253.265 127.906C253.718 127.946 254.349 127.807 254.912 127.596C255.476 127.386 255.966 127.108 256.162 126.933C257.002 126.183 257.822 125.312 257.952 124.146C257.964 124.041 257.956 123.931 257.925 123.823L257.991 123.794C258.437 123.611 258.932 123.451 259.054 123.4C259.878 123.054 260.936 122.688 261.927 122.654C262.743 122.627 263.517 122.831 263.966 123.611C264.156 123.94 264.579 124.054 264.909 123.864C265.239 123.674 265.353 123.252 265.163 122.921C264.43 121.65 263.21 121.229 261.879 121.275C260.722 121.315 259.483 121.723 258.519 122.127C258.33 122.205 257.275 122.548 256.805 122.838C256.512 123.019 256.36 123.242 256.308 123.397C256.266 123.522 256.254 123.664 256.298 123.819C256.32 123.899 256.363 124.001 256.448 124.106C256.466 124.129 256.503 124.168 256.542 124.208Z" fill="#3D493A" fill-opacity="0.1"/>
<path fill-rule="evenodd" clip-rule="evenodd" d="M246.925 128.167C246.374 128.889 245.818 130.001 245.643 131.078C245.512 131.891 245.599 132.683 245.984 133.32C246.181 133.647 246.606 133.751 246.931 133.554C247.258 133.356 247.362 132.931 247.164 132.606C246.941 132.235 246.93 131.771 247.006 131.299C247.144 130.45 247.586 129.575 248.022 129.006C248.253 128.704 248.195 128.27 247.893 128.038C247.59 127.807 247.157 127.865 246.925 128.167Z" fill="#3D493A" fill-opacity="0.1"/>
<path fill-rule="evenodd" clip-rule="evenodd" d="M244.013 132.802C243.952 133.269 243.555 135.062 243.555 135.676C243.555 136.057 243.863 136.366 244.244 136.366C244.625 136.366 244.934 136.057 244.934 135.676C244.934 135.086 245.338 133.35 245.386 132.942C245.395 132.866 245.385 132.684 245.377 132.562C245.503 132.382 245.54 132.145 245.458 131.925C245.323 131.568 244.925 131.387 244.569 131.521C244.272 131.632 244.091 131.853 244.02 132.162C243.979 132.338 244.007 132.735 244.013 132.802Z" fill="#3D493A" fill-opacity="0.1"/>
<path fill-rule="evenodd" clip-rule="evenodd" d="M241.706 136.451C240.986 137.206 240.4 138.26 240.133 139.268C239.768 140.642 239.301 142.297 239.543 143.731C239.754 144.99 240.758 146.078 242.094 146.946C243.87 148.099 246.217 148.893 247.495 149.385C247.851 149.523 248.251 149.345 248.387 148.99C248.525 148.634 248.347 148.234 247.992 148.097C246.776 147.628 244.537 146.886 242.846 145.788C241.869 145.153 241.059 144.422 240.904 143.502C240.694 142.253 241.15 140.819 241.467 139.623C241.677 138.829 242.137 137.999 242.705 137.405C242.967 137.13 242.957 136.692 242.682 136.429C242.406 136.167 241.969 136.176 241.706 136.451Z" fill="#3D493A" fill-opacity="0.1"/>
<path fill-rule="evenodd" clip-rule="evenodd" d="M251.971 150.892C258.288 153.628 266.305 152.222 272.073 148.728C273.946 147.594 276.19 146.414 277.455 144.558C277.67 144.243 277.588 143.813 277.274 143.598C276.959 143.384 276.529 143.465 276.315 143.78C275.156 145.478 273.071 146.511 271.358 147.548C265.952 150.824 258.441 152.19 252.519 149.625C252.17 149.474 251.763 149.634 251.612 149.984C251.46 150.334 251.621 150.74 251.971 150.892Z" fill="#3D493A" fill-opacity="0.1"/>
<path fill-rule="evenodd" clip-rule="evenodd" d="M271.835 96.1131C276.274 96.0851 277.183 98.0965 280.031 100.92C285.769 106.609 289.082 115.132 288.602 123.236C288.351 127.47 286.191 129.872 284.656 133.526C284.509 133.877 284.674 134.282 285.025 134.43C285.377 134.577 285.782 134.412 285.929 134.06C287.528 130.254 289.718 127.729 289.98 123.319C290.484 114.828 287.013 105.899 281.003 99.9406C277.84 96.804 276.755 94.7018 271.827 94.7328C271.446 94.7351 271.139 95.0461 271.141 95.427C271.144 95.8081 271.454 96.1155 271.835 96.1131Z" fill="#3D493A" fill-opacity="0.1"/>
<path fill-rule="evenodd" clip-rule="evenodd" d="M288.942 132.364C290.317 131.125 292.07 130.945 293.781 131.377C296.484 132.061 299.097 134.242 300.127 136.501C302.013 140.637 301.09 145.037 298.728 148.785C297.867 150.15 296.805 151.772 295.321 152.562C293.902 153.32 292.216 153.528 290.664 153.874C290.293 153.958 290.058 154.327 290.141 154.698C290.225 155.07 290.594 155.304 290.966 155.222C292.636 154.847 294.442 154.596 295.971 153.78C297.66 152.881 298.915 151.076 299.895 149.52C302.508 145.376 303.47 140.503 301.383 135.928C300.203 133.338 297.219 130.822 294.118 130.04C291.959 129.493 289.753 129.773 288.017 131.34C287.734 131.594 287.712 132.031 287.967 132.314C288.222 132.597 288.659 132.62 288.942 132.364Z" fill="#3D493A" fill-opacity="0.1"/>
<path fill-rule="evenodd" clip-rule="evenodd" d="M273.785 147.191C273 150.014 274.603 152.717 276.644 154.515C277.479 155.252 278.333 156.096 279.322 156.64C280.553 157.317 282.602 157.754 284.652 157.854C286.717 157.954 288.778 157.706 290.012 157.094C290.354 156.924 290.494 156.51 290.325 156.169C290.155 155.827 289.741 155.688 289.4 155.857C288.323 156.391 286.52 156.562 284.719 156.474C282.901 156.387 281.079 156.031 279.988 155.43C279.086 154.935 278.317 154.151 277.557 153.48C275.895 152.015 274.476 149.86 275.115 147.562C275.218 147.194 275.002 146.813 274.635 146.711C274.268 146.609 273.888 146.824 273.785 147.191Z" fill="#3D493A" fill-opacity="0.1"/>
<path fill-rule="evenodd" clip-rule="evenodd" d="M278.391 141.842C277.527 145.049 277.629 148.286 281.003 150.041C281.341 150.218 281.758 150.086 281.934 149.748C282.109 149.409 281.978 148.993 281.641 148.817C278.939 147.412 279.032 144.768 279.723 142.202C279.823 141.833 279.604 141.455 279.237 141.356C278.868 141.257 278.489 141.475 278.391 141.842Z" fill="#3D493A" fill-opacity="0.1"/>
<path fill-rule="evenodd" clip-rule="evenodd" d="M239.476 143.102C238.763 143.374 237.976 144.044 237.22 144.94C235.619 146.839 234.093 149.754 233.499 151.226C233.357 151.579 233.528 151.981 233.881 152.124C234.234 152.267 234.637 152.096 234.779 151.742C235.259 150.554 236.384 148.364 237.646 146.635C238.419 145.576 239.22 144.676 239.967 144.392C240.323 144.256 240.502 143.857 240.366 143.501C240.231 143.145 239.832 142.966 239.476 143.102Z" fill="#3D493A" fill-opacity="0.1"/>
<path fill-rule="evenodd" clip-rule="evenodd" d="M209.001 140.92C210.742 151.942 223.532 156.275 233.258 153.382C233.623 153.274 233.831 152.888 233.723 152.523C233.614 152.159 233.23 151.951 232.865 152.059C223.877 154.733 211.975 150.89 210.364 140.704C210.306 140.328 209.951 140.07 209.575 140.13C209.199 140.189 208.942 140.543 209.001 140.92Z" fill="#3D493A" fill-opacity="0.1"/>
<path fill-rule="evenodd" clip-rule="evenodd" d="M190.275 141.381C188.542 143.082 186.182 143.919 184.07 145.015C178.138 148.096 168.527 153.948 165.154 159.8C162.771 163.934 162.52 167.698 162.94 171.501C163.345 175.155 164.389 178.843 164.647 182.953C165.052 189.359 163.694 195.939 162.251 202.136C161.208 206.617 160.531 210.907 159.265 215.299C159.16 215.665 159.371 216.048 159.737 216.153C160.104 216.258 160.486 216.047 160.591 215.681C161.864 211.266 162.547 206.953 163.596 202.449C165.068 196.124 166.437 189.405 166.025 182.866C165.764 178.732 164.719 175.023 164.313 171.349C163.923 167.821 164.139 164.325 166.351 160.49C169.614 154.825 178.964 149.222 184.706 146.241C186.937 145.082 189.411 144.163 191.241 142.366C191.513 142.099 191.518 141.662 191.251 141.391C190.984 141.119 190.546 141.114 190.275 141.381Z" fill="#3D493A" fill-opacity="0.1"/>
<path fill-rule="evenodd" clip-rule="evenodd" d="M229.169 189.095C224.976 192.425 218.221 197.427 213.485 203.045C210.233 206.903 207.941 211.062 207.941 215.169C207.941 215.55 208.251 215.859 208.632 215.859C209.013 215.859 209.322 215.55 209.322 215.169C209.322 211.353 211.519 207.519 214.541 203.935C219.215 198.39 225.89 193.463 230.028 190.176C230.327 189.939 230.375 189.504 230.139 189.206C229.902 188.908 229.468 188.858 229.169 189.095Z" fill="#3D493A" fill-opacity="0.1"/>
<path fill-rule="evenodd" clip-rule="evenodd" d="M159.964 216.994C160.034 217.402 160.436 218.068 161.043 218.782C162.256 220.212 164.241 221.971 164.738 222.309C166.755 223.676 169.46 224.687 171.801 225.34C180.117 227.658 189.795 225.791 197.708 223.007C201.42 221.701 205.727 220.253 208.568 217.435C208.839 217.167 208.841 216.729 208.573 216.46C208.304 216.189 207.867 216.187 207.597 216.456C204.895 219.133 200.778 220.464 197.251 221.705C189.589 224.401 180.224 226.255 172.172 224.01C169.967 223.395 167.413 222.455 165.514 221.167C165.052 220.853 163.219 219.214 162.095 217.889C161.698 217.421 161.37 217.026 161.323 216.757C161.259 216.382 160.901 216.13 160.525 216.196C160.15 216.261 159.898 216.618 159.964 216.994Z" fill="#3D493A" fill-opacity="0.1"/>
<path fill-rule="evenodd" clip-rule="evenodd" d="M236.009 156.044C237.936 158.335 245.76 163.142 248.641 165.047C249.456 165.586 250.081 166.524 250.669 167.515C251.328 168.624 251.931 169.803 252.607 170.697C255.549 174.585 259.236 181.407 261.509 185.724C263.106 188.76 264.859 191.777 266.709 194.659C266.986 195.09 267.478 195.569 267.879 196.085C268.143 196.425 268.398 196.771 268.332 197.162C268.255 197.623 267.78 198.28 267.168 199.035C265.531 201.052 262.832 203.544 261.892 204.475C260.418 205.937 257.638 208.205 254.886 209.788C253.135 210.794 251.406 211.537 250.055 211.537C249.675 211.537 249.365 211.846 249.365 212.227C249.365 212.608 249.675 212.916 250.055 212.916C251.592 212.916 253.581 212.13 255.573 210.985C258.437 209.338 261.331 206.976 262.864 205.455C263.822 204.505 266.571 201.961 268.24 199.904C269.045 198.911 269.591 197.999 269.694 197.391C269.8 196.759 269.592 196.151 269.22 195.587C268.814 194.971 268.19 194.411 267.87 193.914C266.042 191.065 264.31 188.083 262.73 185.08C260.429 180.708 256.687 173.802 253.708 169.864C252.923 168.826 252.247 167.386 251.448 166.147C250.852 165.228 250.189 164.416 249.402 163.896C246.594 162.039 238.944 157.388 237.065 155.155C236.82 154.865 236.385 154.827 236.093 155.072C235.802 155.318 235.764 155.754 236.009 156.044Z" fill="#3D493A" fill-opacity="0.1"/>
<path fill-rule="evenodd" clip-rule="evenodd" d="M230.705 191.884C234.695 195.771 238.088 200.308 241.879 204.408C243.011 205.633 244.686 207.05 246.04 208.573C246.88 209.517 247.596 210.497 247.936 211.506C248.057 211.867 248.449 212.061 248.81 211.941C249.171 211.819 249.365 211.427 249.245 211.066C248.851 209.899 248.043 208.748 247.072 207.656C245.711 206.126 244.031 204.701 242.892 203.47C239.086 199.353 235.675 194.798 231.667 190.895C231.394 190.629 230.957 190.634 230.692 190.907C230.426 191.181 230.432 191.618 230.705 191.884Z" fill="#3D493A" fill-opacity="0.1"/>
<path fill-rule="evenodd" clip-rule="evenodd" d="M209.786 217.251C209.74 217.119 209.655 216.998 209.531 216.912C209.22 216.692 208.789 216.766 208.569 217.077C208.486 217.194 208.318 217.553 208.611 217.992C209.031 218.619 211.617 221.1 211.954 221.468C214.05 223.755 216.413 225.678 218.61 227.857C229.555 238.707 238.552 252.367 251.668 261.035C263.877 269.104 275.459 278.402 287.846 286.078C290.722 287.859 294.151 288.705 297.041 290.529C316.882 303.046 337.193 314.448 356.501 327.848C368.707 336.318 381.264 345.247 393.063 354.344C399.088 358.99 404.081 364.871 410.189 369.413C410.496 369.64 410.928 369.576 411.156 369.271C411.383 368.965 411.319 368.532 411.013 368.305C404.912 363.767 399.924 357.892 393.905 353.251C382.089 344.139 369.513 335.198 357.288 326.714C337.963 313.302 317.636 301.889 297.779 289.361C294.884 287.536 291.452 286.688 288.572 284.904C276.198 277.236 264.628 267.946 252.428 259.883C239.389 251.265 230.464 237.664 219.583 226.875C217.401 224.712 215.053 222.805 212.972 220.536C212.667 220.203 210.078 217.551 209.786 217.251ZM209.728 217.824L209.719 217.84L209.722 217.835L209.728 217.824ZM209.75 217.786L209.738 217.806L209.745 217.794L209.75 217.786ZM209.786 217.701L209.781 217.713L209.784 217.706L209.786 217.701Z" fill="#3D493A" fill-opacity="0.1"/>
<path fill-rule="evenodd" clip-rule="evenodd" d="M184.212 274.741C184.625 275.317 185.439 276.044 186.601 276.878C189.142 278.7 193.417 281.115 198.613 283.804C215.819 292.709 243.175 304.673 250.685 308.178C270.562 317.452 290.071 327.067 310.648 334.716C328.157 341.225 345.8 353.471 363.042 360.797C375.345 366.024 388.341 373.076 399.521 380.466C399.839 380.676 400.268 380.588 400.478 380.271C400.688 379.952 400.6 379.524 400.283 379.314C389.035 371.88 375.959 364.785 363.582 359.526C346.322 352.192 328.657 339.939 311.13 333.422C290.587 325.784 271.113 316.185 251.269 306.927C243.765 303.426 216.436 291.475 199.248 282.578C194.852 280.303 191.122 278.229 188.566 276.55C186.95 275.489 185.817 274.609 185.333 273.936C185.111 273.627 184.679 273.556 184.369 273.778C184.06 274.001 183.989 274.433 184.212 274.741Z" fill="#3D493A" fill-opacity="0.1"/>
<path fill-rule="evenodd" clip-rule="evenodd" d="M376.44 365.117C381.823 360.958 385.625 354.583 385.625 347.752C385.625 347.372 385.315 347.062 384.934 347.062C384.553 347.062 384.243 347.372 384.243 347.752C384.243 354.159 380.645 360.123 375.596 364.024C375.295 364.257 375.239 364.691 375.472 364.992C375.705 365.294 376.139 365.35 376.44 365.117Z" fill="#3D493A" fill-opacity="0.1"/>
<path fill-rule="evenodd" clip-rule="evenodd" d="M400.248 381.737C404.083 386.563 403.996 391.991 404.048 397.089C404.105 402.536 404.333 407.619 408.851 411.41C409.415 411.883 410.085 412.181 410.774 412.453C411.351 412.68 411.943 412.886 412.467 413.219C415.57 415.196 418.227 416.192 420.654 415.996C423.124 415.797 425.395 414.387 427.659 411.395C429.863 408.48 430.947 405.409 430.947 401.709C430.947 401.328 430.639 401.019 430.257 401.019C429.876 401.019 429.567 401.328 429.567 401.709C429.567 405.092 428.573 407.897 426.558 410.562C424.599 413.153 422.681 414.448 420.543 414.621C418.362 414.797 415.997 413.831 413.209 412.055C412.611 411.673 411.939 411.428 411.279 411.168C410.73 410.952 410.189 410.73 409.738 410.352C405.563 406.85 405.481 402.109 405.43 397.074C405.374 391.689 405.38 385.977 401.328 380.878C401.091 380.58 400.657 380.53 400.358 380.767C400.061 381.005 400.01 381.439 400.248 381.737Z" fill="#3D493A" fill-opacity="0.1"/>
<path fill-rule="evenodd" clip-rule="evenodd" d="M411.187 370.387C411.809 371.867 413.748 373.611 414.738 374.987C417.688 379.08 420.017 383.635 422.365 388.078C424.538 392.191 428.035 396.011 429.195 400.608C429.288 400.978 429.664 401.202 430.033 401.109C430.403 401.016 430.626 400.64 430.534 400.271C429.347 395.569 425.808 391.64 423.585 387.433C421.208 382.934 418.845 378.325 415.859 374.18C414.92 372.878 413.049 371.254 412.46 369.852C412.311 369.501 411.907 369.336 411.556 369.484C411.205 369.631 411.039 370.036 411.187 370.387Z" fill="#3D493A" fill-opacity="0.1"/>
<path fill-rule="evenodd" clip-rule="evenodd" d="M253.046 212.776C261.775 224.307 268.84 236.438 276.933 248.235C282.752 256.72 289.861 264.484 296.133 272.646C297.842 274.87 306.236 285.214 311.119 292.595C312.354 294.463 313.363 296.138 313.971 297.434C314.327 298.194 314.551 298.797 314.551 299.212C314.551 299.593 314.859 299.903 315.241 299.903C315.622 299.903 315.93 299.593 315.93 299.212C315.93 298.665 315.69 297.851 315.222 296.849C314.591 295.505 313.549 293.769 312.269 291.833C307.369 284.424 298.944 274.037 297.228 271.804C290.971 263.663 283.877 255.919 278.071 247.454C269.967 235.638 262.888 223.492 254.147 211.943C253.917 211.64 253.483 211.58 253.18 211.81C252.876 212.04 252.816 212.473 253.046 212.776Z" fill="#3D493A" fill-opacity="0.1"/>
<path fill-rule="evenodd" clip-rule="evenodd" d="M267.349 199.635C267.869 202.259 269.934 206.304 272.761 210.883C279.243 221.379 289.711 234.77 293.973 240.146C298.11 245.367 301.103 251.852 304.27 257.681C307.364 263.378 311.197 268.711 314.325 274.398C316.353 278.084 317.922 282.221 320.401 285.662C322.731 288.896 326.204 291.027 329.17 293.6C334.844 298.522 340.46 303.608 344.671 309.871C345.186 310.635 347.853 314.283 348.585 316.811C348.693 317.18 348.757 317.52 348.75 317.816C348.745 318.063 348.698 318.273 348.495 318.374C348.153 318.543 348.014 318.958 348.183 319.3C348.352 319.641 348.767 319.78 349.108 319.611C350.101 319.119 350.35 317.939 349.911 316.427C349.14 313.764 346.358 309.905 345.817 309.101C341.538 302.737 335.84 297.559 330.075 292.558C327.188 290.053 323.789 288.002 321.522 284.855C319.074 281.459 317.535 277.37 315.535 273.732C312.407 268.048 308.576 262.717 305.482 257.022C302.28 251.125 299.24 244.57 295.055 239.289C290.812 233.936 280.389 220.607 273.936 210.157C271.219 205.759 269.202 201.887 268.704 199.367C268.63 198.993 268.266 198.75 267.893 198.824C267.518 198.898 267.275 199.262 267.349 199.635Z" fill="#3D493A" fill-opacity="0.1"/>
<path fill-rule="evenodd" clip-rule="evenodd" d="M332.029 307.99C332.021 307.989 332.013 307.988 332.005 307.988C331.626 307.948 331.287 308.222 331.246 308.602C331.206 308.98 331.481 309.32 331.859 309.36C331.867 309.361 331.875 309.362 331.884 309.363C332.262 309.403 332.603 309.128 332.643 308.75C332.683 308.371 332.409 308.03 332.029 307.99Z" fill="#3D493A" fill-opacity="0.1"/>
<path fill-rule="evenodd" clip-rule="evenodd" d="M331.295 309.033C332.302 309.751 333.09 311.009 333.975 311.885C334.246 312.154 334.683 312.152 334.952 311.881C335.219 311.611 335.217 311.173 334.947 310.906C334.012 309.978 333.16 308.666 332.094 307.909C331.783 307.689 331.352 307.76 331.131 308.072C330.91 308.382 330.984 308.813 331.295 309.033Z" fill="#3D493A" fill-opacity="0.1"/>
<path fill-rule="evenodd" clip-rule="evenodd" d="M334.96 307.439C337.837 310.05 339.698 313.582 342.17 316.524C342.415 316.815 342.851 316.852 343.142 316.607C343.434 316.363 343.472 315.927 343.227 315.635C340.715 312.648 338.81 309.069 335.888 306.418C335.606 306.161 335.169 306.183 334.913 306.464C334.658 306.746 334.678 307.183 334.96 307.439Z" fill="#3D493A" fill-opacity="0.1"/>
<path fill-rule="evenodd" clip-rule="evenodd" d="M338.459 306.461C339.744 308.169 341.339 309.627 342.574 311.362C344.444 313.989 345.836 317.331 348.142 319.619C348.413 319.887 348.851 319.885 349.119 319.616C349.387 319.345 349.385 318.907 349.115 318.639C346.862 316.406 345.525 313.126 343.699 310.561C342.457 308.817 340.855 307.349 339.562 305.631C339.333 305.326 338.9 305.265 338.595 305.494C338.291 305.723 338.23 306.156 338.459 306.461Z" fill="#3D493A" fill-opacity="0.1"/>
<path fill-rule="evenodd" clip-rule="evenodd" d="M69.518 288.421C72.666 288.008 75.9081 288.376 79.0767 288.278C85.8616 288.068 92.8387 287.648 99.5826 286.944C106.504 286.223 113.291 284.592 120.174 283.618C131.624 281.995 143.545 281.288 155.096 280.742C161.686 280.431 168.826 280.251 175.22 278.843C177.556 278.328 182.714 276.754 184.796 276.754C185.176 276.754 185.486 276.444 185.486 276.063C185.486 275.682 185.176 275.373 184.796 275.373C182.65 275.373 177.329 276.965 174.923 277.495C168.603 278.887 161.544 279.056 155.03 279.364C143.437 279.91 131.473 280.623 119.981 282.25C113.114 283.223 106.343 284.851 99.4387 285.572C92.7288 286.272 85.7856 286.689 79.034 286.899C75.8204 286.998 72.5316 286.634 69.339 287.052C68.9615 287.102 68.6947 287.448 68.7442 287.825C68.7938 288.204 69.1405 288.469 69.518 288.421Z" fill="#3D493A" fill-opacity="0.1"/>
<path fill-rule="evenodd" clip-rule="evenodd" d="M69.1381 288.158C69.4049 288.846 69.4309 290.096 69.3897 291.476C69.3225 293.713 69.0332 296.27 68.9803 297.589C68.5816 307.464 67.2381 317.307 66.4114 327.146C65.7092 335.496 65.2577 343.96 64.956 352.334C64.602 362.166 63.5649 372.013 64.0622 381.871C64.4133 388.827 65.9617 395.84 65.9617 402.78C65.9617 403.162 66.2706 403.471 66.6517 403.471C67.0326 403.471 67.3421 403.162 67.3421 402.78C67.3421 395.817 65.7931 388.78 65.441 381.802C64.9457 371.983 65.9828 362.176 66.3358 352.384C66.6365 344.032 67.0866 335.59 67.7868 327.262C68.6155 317.403 69.9604 307.538 70.3596 297.644C70.4219 296.095 70.8058 292.852 70.7828 290.404C70.772 289.257 70.6632 288.273 70.4253 287.66C70.2875 287.304 69.8874 287.128 69.5319 287.265C69.1769 287.403 69.0004 287.803 69.1381 288.158Z" fill="#3D493A" fill-opacity="0.1"/>
<path fill-rule="evenodd" clip-rule="evenodd" d="M43.5061 260.833C47.8049 258.016 52.5313 257.205 57.22 255.418C80.4656 246.554 106.216 242.504 130.621 238.47C133.341 238.021 144.466 235.181 151.731 234.07C153.554 233.79 155.129 233.62 156.251 233.632C156.836 233.639 157.272 233.662 157.495 233.809C157.812 234.019 158.241 233.931 158.451 233.614C158.661 233.296 158.574 232.867 158.256 232.657C157.97 232.468 157.493 232.325 156.845 232.276C155.657 232.184 153.768 232.361 151.522 232.705C144.252 233.818 133.118 236.659 130.397 237.109C105.901 241.156 80.0591 245.232 56.7282 254.128C51.9454 255.951 47.1346 256.804 42.7495 259.679C42.4308 259.888 42.3415 260.316 42.5504 260.634C42.7593 260.953 43.1879 261.042 43.5061 260.833Z" fill="#3D493A" fill-opacity="0.1"/>
<path fill-rule="evenodd" clip-rule="evenodd" d="M161.787 219.113C159.727 224.191 157.379 231.011 157.379 236.61C157.379 236.992 157.688 237.3 158.069 237.3C158.45 237.3 158.76 236.992 158.76 236.61C158.76 231.175 161.067 224.561 163.067 219.631C163.21 219.279 163.04 218.876 162.686 218.732C162.333 218.589 161.93 218.76 161.787 219.113Z" fill="#3D493A" fill-opacity="0.1"/>
<path fill-rule="evenodd" clip-rule="evenodd" d="M41.3704 260.884C40.7075 262.609 39.7514 263.828 38.7692 265.106C37.184 267.167 35.5252 269.364 34.7038 273.708C33.4579 280.296 34.6636 287.018 35.0137 293.61C35.8424 309.218 39.2684 324.569 40.3124 340.098C40.7899 347.196 42.5816 354.552 43.5609 361.858C44.5219 369.03 44.6994 376.156 41.9668 382.929C41.824 383.282 41.9951 383.685 42.3482 383.827C42.7018 383.969 43.1043 383.798 43.2465 383.445C46.0709 376.446 45.9218 369.085 44.9289 361.675C43.9541 354.399 42.1654 347.074 41.6897 340.005C40.6458 324.482 37.2202 309.139 36.3921 293.537C36.0478 287.054 34.8347 280.444 36.0601 273.965C36.8265 269.914 38.3848 267.87 39.8636 265.947C40.9243 264.567 41.9432 263.242 42.6591 261.379C42.7954 261.023 42.618 260.624 42.2624 260.487C41.9065 260.351 41.5068 260.528 41.3704 260.884Z" fill="#3D493A" fill-opacity="0.1"/>
<path fill-rule="evenodd" clip-rule="evenodd" d="M40.9368 384.092C39.3083 385.765 38.1179 388.027 36.2634 389.471C30.6224 393.865 20.4929 397.933 13.7066 398.929C11.7261 399.22 6.83843 400.101 3.80861 401.771C2.34003 402.58 1.30491 403.601 1.03424 404.763C0.860169 405.513 1.12103 406.31 1.63884 407.041C2.27824 407.943 3.30109 408.751 3.95815 409.199C7.3626 411.519 12.4926 412.707 16.5398 413.024C28.9794 413.997 42.1053 412.893 54.28 410.395C56.3699 409.966 58.9113 409.764 61.235 409.168C63.7284 408.528 65.9673 407.433 67.2721 405.278C67.4693 404.951 67.3647 404.526 67.0387 404.329C66.7131 404.132 66.2879 404.237 66.0909 404.562C64.9753 406.406 63.0243 407.284 60.8923 407.83C58.5906 408.42 56.0726 408.617 54.0024 409.042C41.9518 411.514 28.9602 412.612 16.6477 411.647C12.8187 411.348 7.9564 410.253 4.73535 408.058C4.18027 407.679 3.30599 407.007 2.76515 406.243C2.49546 405.862 2.28804 405.467 2.37876 405.077C2.50282 404.545 2.89559 404.086 3.42761 403.663C4.05328 403.168 4.87018 402.738 5.7729 402.361C8.61346 401.175 12.2836 400.534 13.9072 400.296C20.8887 399.27 31.3085 395.081 37.1116 390.56C39.0147 389.078 40.2547 386.772 41.9258 385.055C42.1916 384.781 42.1857 384.344 41.9126 384.078C41.6394 383.812 41.202 383.818 40.9368 384.092Z" fill="#3D493A" fill-opacity="0.1"/>
<path fill-rule="evenodd" clip-rule="evenodd" d="M43.9402 349.909C51.1561 350.692 58.118 351.303 64.2291 346.759C64.5351 346.532 64.5983 346.099 64.3713 345.794C64.1438 345.488 63.7113 345.425 63.4054 345.652C57.5923 349.975 50.9531 349.282 44.0893 348.536C43.7102 348.495 43.3694 348.769 43.3283 349.147C43.2871 349.527 43.5612 349.867 43.9402 349.909Z" fill="#3D493A" fill-opacity="0.1"/>
<path fill-rule="evenodd" clip-rule="evenodd" d="M179.682 147.851C180.783 141.469 182.992 135.138 184.333 128.759C184.779 126.639 185.047 124.157 185.581 121.773C186.089 119.499 186.834 117.309 188.266 115.653C188.521 115.357 189.133 115.078 189.875 114.78C191.884 113.975 194.816 113.248 195.817 112.989C197.521 112.549 199.307 112.343 201.06 112.198C202.952 112.042 204.413 112.067 205.537 112.279C206.537 112.468 207.247 112.798 207.737 113.302C208.329 113.912 208.59 114.756 208.721 115.805C208.944 117.613 208.759 119.976 208.759 122.855C208.759 127.55 209.123 132.226 209.123 136.901C209.123 137.282 209.431 137.591 209.813 137.591C210.193 137.591 210.502 137.282 210.502 136.901C210.502 132.226 210.139 127.55 210.139 122.855C210.139 119.906 210.319 117.486 210.09 115.635C209.918 114.244 209.513 113.149 208.728 112.34C207.488 111.065 205.199 110.471 200.947 110.822C199.116 110.974 197.25 111.193 195.472 111.652C194.443 111.919 191.427 112.67 189.361 113.499C188.357 113.902 187.568 114.351 187.221 114.75C185.646 116.574 184.793 118.969 184.233 121.471C183.699 123.862 183.428 126.349 182.982 128.475C181.637 134.87 179.426 141.218 178.323 147.617C178.258 147.992 178.51 148.349 178.885 148.414C179.261 148.479 179.618 148.226 179.682 147.851Z" fill="#3D493A" fill-opacity="0.1"/>
<path fill-rule="evenodd" clip-rule="evenodd" d="M216.749 73.8227C216.714 76.7148 215.282 80.0339 214.571 82.7793C212.815 89.545 211.605 96.4025 209.995 103.186C209.39 105.741 208.043 108.646 208.043 111.277C208.043 111.658 208.353 111.967 208.733 111.967C209.114 111.967 209.424 111.658 209.424 111.277C209.424 108.746 210.755 105.962 211.339 103.506C212.946 96.7305 214.154 89.8824 215.906 83.1259C216.644 80.2815 218.093 76.8353 218.128 73.8393C218.133 73.4584 217.828 73.1456 217.446 73.1407C217.066 73.1362 216.753 73.4417 216.749 73.8227Z" fill="#3D493A" fill-opacity="0.1"/>
<path fill-rule="evenodd" clip-rule="evenodd" d="M248.212 30.3463C247.448 32.0023 246.126 33.2555 245.019 34.6824C242.327 38.1521 239.696 41.7919 237.199 45.367C234.16 49.7178 231.457 54.3167 228.308 58.5744C224.72 63.4239 220.632 68.0267 217.301 72.9796C217.089 73.2959 217.172 73.7249 217.489 73.9378C217.805 74.1501 218.234 74.0662 218.446 73.7499C221.766 68.8136 225.842 64.228 229.417 59.3951C232.574 55.1278 235.285 50.5185 238.331 46.157C240.815 42.601 243.431 38.9803 246.11 35.5288C247.281 34.019 248.657 32.6769 249.465 30.925C249.626 30.5788 249.474 30.1684 249.128 30.009C248.783 29.8492 248.372 30.0006 248.212 30.3463Z" fill="#3D493A" fill-opacity="0.1"/>
<path fill-rule="evenodd" clip-rule="evenodd" d="M240.444 23.8077C236.918 27.1445 233.281 30.3984 229.791 33.7348C225.126 38.1929 221.039 43.2954 216.186 47.5727C211.719 51.5087 204.24 58.976 201.031 63.9251C194.281 74.3346 192.314 88.0744 190.293 100.093C189.692 103.668 189.16 107.42 188.199 110.918C187.977 111.723 187.559 112.527 187.559 113.367C187.559 113.747 187.868 114.057 188.248 114.057C188.63 114.057 188.938 113.747 188.938 113.367C188.938 112.648 189.339 111.973 189.529 111.284C190.504 107.741 191.045 103.942 191.655 100.322C193.645 88.4814 195.54 74.9318 202.19 64.6763C205.344 59.8107 212.708 52.4781 217.099 48.6087C221.966 44.3192 226.066 39.2035 230.744 34.7325C234.234 31.3982 237.868 28.1458 241.393 24.8105C241.67 24.5492 241.681 24.1117 241.42 23.8352C241.158 23.5582 240.721 23.5459 240.444 23.8077Z" fill="#3D493A" fill-opacity="0.1"/>
<path fill-rule="evenodd" clip-rule="evenodd" d="M266.208 1.48928C266.204 1.53732 266.196 1.59469 266.184 1.64275C266.063 2.1223 265.638 2.49987 265.187 2.85242C264.602 3.30795 263.945 3.70023 263.491 4.06553C260.979 6.08917 257.95 7.82154 255.948 10.3738C255.714 10.6738 255.765 11.1078 256.065 11.3432C256.365 11.578 256.8 11.5256 257.034 11.226C258.973 8.75467 261.925 7.10025 264.357 5.14036C264.906 4.69855 265.75 4.21654 266.407 3.63304C266.948 3.15104 267.366 2.59891 267.522 1.98009C267.695 1.29509 267.545 0.855251 267.317 0.574776C267.071 0.271744 266.679 0.102081 266.198 0.0922746C265.606 0.0795257 264.843 0.324708 264.402 0.499761C262.088 1.41768 259.739 2.95587 257.765 4.44259C253.976 7.29785 249.497 10.0159 246.608 13.8355C245.602 15.1644 244.572 16.7095 243.824 18.1937C242.992 19.8448 242.465 21.8085 241.314 23.2756C241.079 23.5757 241.133 24.0097 241.433 24.245C241.732 24.48 242.166 24.427 242.401 24.1274C243.607 22.5896 244.184 20.5449 245.056 18.8155C245.769 17.4028 246.752 15.9333 247.709 14.6687C250.523 10.9484 254.904 8.32611 258.596 5.54489C260.474 4.12928 262.707 2.65678 264.911 1.78298C265.111 1.70404 265.397 1.60106 265.69 1.53388C265.846 1.49857 266.08 1.49074 266.208 1.48928Z" fill="#3D493A" fill-opacity="0.1"/>
<path fill-rule="evenodd" clip-rule="evenodd" d="M270.114 4.33273C270.091 4.3955 269.937 4.82258 269.76 5.1158C269.015 6.34558 267.539 7.94852 267.119 8.33981C263.327 11.8639 260.235 15.8514 256.923 19.7908C256.678 20.0825 256.716 20.5179 257.008 20.7631C257.299 21.0082 257.735 20.9705 257.98 20.6788C261.255 16.7835 264.309 12.8363 268.059 9.3509C268.518 8.92381 270.128 7.17328 270.94 5.83024C271.18 5.43403 271.353 5.06579 271.434 4.76522C271.521 4.43913 271.51 4.15915 271.436 3.9429C271.314 3.58251 270.922 3.38883 270.561 3.51142C270.219 3.62763 270.026 3.98802 270.114 4.33273Z" fill="#3D493A" fill-opacity="0.1"/>
<path fill-rule="evenodd" clip-rule="evenodd" d="M260.775 17.9599C260.945 17.8 261.388 17.5921 261.935 17.3778C262.841 17.0218 264.027 16.6874 264.932 16.6914C265.247 16.6928 265.525 16.6963 265.67 16.8571C265.711 16.9022 265.712 16.9689 265.708 17.0498C265.701 17.1891 265.659 17.3489 265.59 17.5353C265.426 17.9648 264.908 18.3688 264.323 18.7802C263.241 19.5403 261.887 20.2355 261.205 20.7426C259.479 22.0267 258.093 23.8043 256.639 25.4822C255.288 27.0414 253.88 28.5159 252 29.3152C251.537 29.5118 250.797 29.9129 250.101 30.1105C249.804 30.1954 249.52 30.2738 249.309 30.1693C248.968 30.0002 248.554 30.14 248.384 30.4813C248.215 30.8225 248.355 31.2369 248.696 31.406C249.17 31.6409 249.811 31.6287 250.48 31.4383C251.233 31.2241 252.038 30.7985 252.539 30.5857C254.614 29.704 256.192 28.1065 257.682 26.3864C259.071 24.7844 260.381 23.076 262.029 21.8507C262.704 21.3486 264.045 20.6622 265.117 19.9094C265.968 19.3117 266.645 18.6488 266.881 18.0236C267.261 17.017 267.076 16.3516 266.694 15.9303C266.335 15.5346 265.714 15.314 264.938 15.3106C263.705 15.3056 262.022 15.8122 260.936 16.3001C260.411 16.5359 260.016 16.7787 259.83 16.9532C259.553 17.214 259.539 17.6509 259.799 17.9289C260.06 18.2064 260.497 18.2207 260.775 17.9599Z" fill="#3D493A" fill-opacity="0.1"/>
</g>
<defs>
<clipPath id="clip0_348_17472">
<rect width="431" height="416.069" fill="white"/>
</clipPath>
</defs>
</svg>
