<svg width="44" height="48" viewBox="0 0 44 48" fill="none" xmlns="http://www.w3.org/2000/svg">
<path d="M37.8602 30.1469H37.8577C38.997 28.8761 39.5923 26.9894 39.5923 25.1674C39.5923 23.8172 39.056 22.5224 38.1014 21.5677C37.1466 20.613 35.8518 20.0767 34.5017 20.0767C33.1516 20.0767 31.8567 20.613 30.902 21.5677C29.9473 22.5224 29.411 23.8172 29.411 25.1674C29.411 26.6241 29.8356 28.1832 30.5466 29.3374C30.7221 29.6238 30.9219 29.8946 31.1438 30.1469H31.1404C29.9556 30.1444 28.8003 30.5168 27.84 31.2108C27.4077 31.1391 26.9703 31.1028 26.532 31.1023H25.6773C26.2065 30.6258 26.6667 30.078 27.0449 29.4746C28.1009 27.8156 28.7066 25.6336 28.7066 23.4878C28.71 22.5565 28.5295 21.6338 28.1755 20.7725C27.8216 19.9111 27.301 19.1282 26.6437 18.4685C25.9864 17.8088 25.2054 17.2853 24.3453 16.9282C23.4853 16.571 22.5632 16.3871 21.6319 16.3871C20.7008 16.3871 19.7786 16.571 18.9186 16.9282C18.0586 17.2853 17.2775 17.8088 16.6203 18.4685C15.963 19.1282 15.4424 19.9111 15.0884 20.7725C14.7344 21.6338 14.554 22.5565 14.5574 23.4878C14.5574 25.5498 15.1571 27.7546 16.1617 29.3854C16.548 30.0237 17.0254 30.6021 17.5787 31.1025H16.7296C16.2914 31.103 15.8539 31.1393 15.4216 31.211C14.4614 30.517 13.3061 30.1445 12.1213 30.1471H12.1178C12.3397 29.8948 12.5395 29.624 12.7151 29.3376C13.4262 28.1832 13.8507 26.6243 13.8507 25.1676C13.8507 23.8178 13.3144 22.5233 12.36 21.5689C11.4056 20.6144 10.1111 20.0782 8.76126 20.0782C7.41155 20.0782 6.11704 20.6144 5.16261 21.5689C4.20817 22.5233 3.67197 23.8178 3.67197 25.1676C3.67197 26.9895 4.26749 28.8763 5.40576 30.1471H5.40145C2.42303 30.1471 0 32.4217 0 35.2174V41.0959C0 41.2991 0.0806959 41.4939 0.224343 41.6376C0.36798 41.7812 0.562794 41.8619 0.765931 41.8619H9.20076V46.7218C9.20076 46.9249 9.28145 47.1197 9.42508 47.2634C9.56871 47.4071 9.76351 47.4878 9.96665 47.4878H33.296C33.4991 47.4878 33.694 47.4071 33.8376 47.2634C33.9813 47.1197 34.0619 46.9249 34.0619 46.7218V41.8617H42.4984C42.7016 41.8617 42.8964 41.781 43.04 41.6374C43.1836 41.4938 43.2643 41.2989 43.2643 41.0957V35.2172C43.2643 32.4215 40.8401 30.1469 37.8602 30.1469ZM30.9428 25.1674C30.9428 24.2235 31.3178 23.3183 31.9852 22.6509C32.6526 21.9835 33.5578 21.6086 34.5017 21.6086C35.4456 21.6086 36.3508 21.9835 37.0181 22.6509C37.6856 23.3183 38.0605 24.2235 38.0605 25.1674C38.0605 27.0926 37.0935 30.1469 34.5003 30.1469C31.9087 30.1469 30.9428 27.0926 30.9428 25.1674ZM21.6306 17.9433C23.1005 17.9449 24.5097 18.5296 25.549 19.569C26.5883 20.6083 27.173 22.0175 27.1747 23.4874C27.1747 23.5273 27.173 23.5673 27.1724 23.6073C25.0381 23.3639 23.196 22.8892 20.7081 20.9387C20.5857 20.8427 20.4369 20.7863 20.2816 20.7769C20.1264 20.7676 19.9719 20.8057 19.8389 20.8863L16.1005 23.1502C16.1874 21.7419 16.8076 20.4195 17.835 19.4523C18.8623 18.4849 20.2195 17.9454 21.6306 17.9433ZM17.4659 28.5819C16.8264 27.5437 16.3786 26.2275 16.1897 24.8862L20.1858 22.4669C22.7829 24.3941 24.8158 24.8834 27.0368 25.1335C26.8254 26.4235 26.3779 27.6688 25.7524 28.6516C25.0408 29.7695 23.748 31.1026 21.6304 31.1026C19.8976 31.1023 18.4962 30.2543 17.4659 28.5819ZM5.20336 25.1674C5.20336 24.7001 5.29537 24.2376 5.47416 23.806C5.65293 23.3744 5.91497 22.9822 6.24531 22.6518C6.57567 22.3215 6.96782 22.0595 7.39939 21.8807C7.83106 21.7019 8.29361 21.6099 8.76086 21.6099C9.22802 21.6099 9.69057 21.7019 10.1222 21.8807C10.5538 22.0595 10.946 22.3215 11.2764 22.6518C11.6066 22.9822 11.8687 23.3744 12.0475 23.806C12.2263 24.2376 12.3183 24.7001 12.3183 25.1674C12.3183 27.0926 11.3524 30.1469 8.76086 30.1469C6.1692 30.1469 5.20336 27.0926 5.20336 25.1674ZM1.53139 40.3298V35.2172C1.53139 33.2661 3.26727 31.6788 5.40097 31.6788H12.1208C12.5333 31.6787 12.9436 31.7399 13.3381 31.8606C10.8858 33.0237 9.19998 35.4046 9.19998 38.1487V40.3301L1.53139 40.3298ZM32.5293 45.9559H28.6467V41.2341C28.6467 41.031 28.5661 40.8361 28.4224 40.6925C28.2788 40.5489 28.084 40.4682 27.8809 40.4682C27.6777 40.4682 27.4829 40.5489 27.3393 40.6925C27.1957 40.8361 27.115 41.031 27.115 41.2341V45.9559H16.1489V41.2341C16.1489 41.031 16.0682 40.8361 15.9246 40.6925C15.781 40.5489 15.5861 40.4682 15.3829 40.4682C15.1798 40.4682 14.985 40.5489 14.8414 40.6925C14.6977 40.8361 14.617 41.031 14.617 41.2341V45.9559H10.7318V38.1484C10.7318 35.1078 13.4221 32.6342 16.7291 32.6342H26.5325C29.8395 32.6342 32.5298 35.1078 32.5298 38.1484L32.5293 45.9559ZM41.7324 40.3298H34.0612V38.1484C34.0612 35.4044 32.3754 33.0234 29.923 31.8603C30.3175 31.7396 30.7278 31.6784 31.1404 31.6785H37.8602C39.9952 31.6785 41.7324 33.2658 41.7324 35.217V40.3298ZM17.3746 9.12014L16.777 13.2657C16.7571 13.4038 16.7754 13.5446 16.8296 13.6731C16.8839 13.8015 16.9722 13.9127 17.0851 13.9946C17.1979 14.0766 17.331 14.1262 17.4699 14.1381C17.6088 14.15 17.7484 14.1238 17.8735 14.0621L21.6306 12.2123L25.3904 14.0623C25.5155 14.1239 25.655 14.1501 25.7939 14.1383C25.9329 14.1263 26.066 14.0767 26.1788 13.9947C26.2916 13.9128 26.3799 13.8016 26.4341 13.6732C26.4884 13.5446 26.5066 13.4039 26.4866 13.2658L25.8891 9.12023L28.8099 6.1174C28.907 6.01746 28.9752 5.89287 29.0067 5.75709C29.0384 5.62129 29.0323 5.47944 28.9893 5.34683C28.9463 5.21421 28.8678 5.09587 28.7625 5.00455C28.6571 4.91323 28.5288 4.8524 28.3915 4.82863L24.2627 4.11391L22.3079 0.408725C22.2429 0.285401 22.1455 0.182156 22.0262 0.110136C21.9067 0.0381088 21.77 2.94118e-05 21.6306 0C21.4912 3.03922e-05 21.3543 0.0381304 21.235 0.110195C21.1156 0.182254 21.0181 0.285538 20.9531 0.408911L19.0011 4.11411L14.8725 4.82871C14.7352 4.8525 14.6069 4.91332 14.5015 5.00465C14.3962 5.09597 14.3177 5.21431 14.2747 5.34693C14.2316 5.47954 14.2256 5.62139 14.2572 5.75718C14.2889 5.89297 14.3569 6.01756 14.4542 6.1175L17.3746 9.12014ZM19.6335 5.55904C19.749 5.53903 19.8584 5.49277 19.9532 5.42381C20.0481 5.35486 20.1259 5.26506 20.1805 5.16132L21.6306 2.40828L23.0832 5.1617C23.1379 5.26535 23.2157 5.35506 23.3105 5.42394C23.4053 5.49283 23.5146 5.53905 23.6301 5.55904L26.6988 6.0902L24.5283 8.32222C24.4466 8.40631 24.3852 8.50805 24.3489 8.6196C24.3126 8.73115 24.3025 8.84953 24.3193 8.96563L24.7633 12.0465L21.9687 10.6713C21.8635 10.6195 21.7477 10.5926 21.6305 10.5926C21.5132 10.5926 21.3974 10.6195 21.2922 10.6713L18.5006 12.0459L18.9446 8.96553C18.9613 8.84944 18.9512 8.73108 18.9149 8.61955C18.8787 8.50802 18.8173 8.40629 18.7356 8.32222L16.5646 6.0902L19.6335 5.55904ZM3.15889 10.412L2.74845 13.2661C2.72861 13.4042 2.74681 13.5449 2.80113 13.6735C2.85543 13.8019 2.94377 13.9131 3.05663 13.9949C3.16947 14.0769 3.30255 14.1264 3.44149 14.1383C3.58044 14.1501 3.71998 14.1239 3.84508 14.0622L6.43211 12.7878L9.01655 14.062C9.14165 14.1237 9.28116 14.15 9.42018 14.1382C9.5591 14.1264 9.69214 14.0768 9.80508 13.9949C9.91792 13.9131 10.0063 13.8019 10.0607 13.6735C10.115 13.545 10.1332 13.4042 10.1133 13.2661L9.70292 10.4123L11.7144 8.34559C11.8115 8.24567 11.8797 8.12109 11.9114 7.98529C11.943 7.84951 11.937 7.70765 11.894 7.57502C11.851 7.4424 11.7725 7.32404 11.6671 7.2327C11.5618 7.14136 11.4335 7.08051 11.2962 7.05672L8.454 6.56461L7.10979 4.01549C7.04479 3.89221 6.94733 3.78902 6.82802 3.71701C6.70871 3.645 6.57194 3.60692 6.43258 3.60686C6.29325 3.60686 6.15655 3.64486 6.03721 3.71678C5.91786 3.7887 5.82039 3.89181 5.7553 4.01501L4.40823 6.56461L1.56834 7.05681C1.43101 7.08062 1.30277 7.14144 1.19745 7.23273C1.09213 7.32403 1.01372 7.44233 0.970657 7.57489C0.927608 7.70746 0.921539 7.84926 0.953118 7.98502C0.984696 8.12077 1.05272 8.24534 1.14986 8.3453L3.15889 10.412ZM5.0405 8.00972C5.15586 7.98974 5.26512 7.94359 5.35985 7.87479C5.45459 7.806 5.53229 7.7164 5.58699 7.61288L6.43163 6.014L7.2742 7.61288C7.3288 7.71657 7.40655 7.80632 7.50135 7.87524C7.59616 7.94417 7.70557 7.9904 7.82106 8.0104L9.60282 8.31888L8.34184 9.61455C8.26008 9.69857 8.19871 9.80033 8.16243 9.9118C8.12616 10.0233 8.11596 10.1417 8.13263 10.2578L8.38978 12.0459L6.77057 11.2476C6.66527 11.1957 6.54939 11.1688 6.43201 11.1688C6.31461 11.1688 6.19877 11.1957 6.09347 11.2476L4.47113 12.0468L4.72838 10.2579C4.74507 10.1419 4.73491 10.0237 4.6987 9.9122C4.66248 9.80072 4.60117 9.69906 4.51948 9.61504L3.26 8.3183L5.0405 8.00972ZM33.5583 10.412L33.1483 13.2661C33.1284 13.4042 33.1466 13.5449 33.201 13.6735C33.2553 13.8019 33.3436 13.9131 33.4565 13.9949C33.5693 14.0769 33.7023 14.1264 33.8414 14.1383C33.9803 14.1501 34.1198 14.1239 34.2449 14.0622L36.832 12.7878L39.4192 14.0622C39.5444 14.1239 39.684 14.1501 39.823 14.1383C39.9619 14.1264 40.0951 14.0768 40.2079 13.9947C40.3209 13.9128 40.4091 13.8015 40.4634 13.673C40.5176 13.5444 40.5358 13.4036 40.5158 13.2654L40.103 10.4124L42.1142 8.34597C42.2115 8.24605 42.2795 8.12147 42.3112 7.98568C42.3428 7.84989 42.3368 7.70803 42.2938 7.57541C42.2508 7.44278 42.1723 7.32442 42.0669 7.23308C41.9617 7.14174 41.8333 7.08089 41.696 7.0571L38.8537 6.56499L37.5091 4.01549C37.4441 3.8922 37.3467 3.78899 37.2273 3.71699C37.1079 3.64498 36.9713 3.6069 36.8318 3.60686C36.6925 3.60687 36.5559 3.64488 36.4365 3.7168C36.3171 3.78872 36.2197 3.89182 36.1547 4.01501L34.8078 6.56461L31.9679 7.05681C31.8307 7.0806 31.7023 7.14141 31.597 7.23271C31.4917 7.32399 31.4133 7.44229 31.3702 7.57486C31.3271 7.70743 31.3211 7.84923 31.3526 7.985C31.3842 8.12076 31.4522 8.24534 31.5494 8.3453L33.5583 10.412ZM35.4399 8.00972C35.5552 7.98973 35.6645 7.94356 35.7592 7.87474C35.8539 7.80594 35.9317 7.71632 35.9864 7.61278L36.831 6.0139L37.6735 7.61278C37.7281 7.71647 37.8059 7.80623 37.9007 7.87515C37.9955 7.94407 38.1049 7.9903 38.2204 8.0103L40.0023 8.31878L38.7412 9.61445C38.6593 9.69857 38.5979 9.80043 38.5617 9.912C38.5254 10.0237 38.5153 10.1421 38.5321 10.2583L38.7906 12.0458L37.1697 11.2473C37.0644 11.1955 36.9486 11.1686 36.8312 11.1686C36.7138 11.1686 36.598 11.1955 36.4927 11.2473L34.8705 12.0464L35.1277 10.2578C35.1444 10.1417 35.1343 10.0234 35.098 9.9119C35.0618 9.80043 35.0005 9.69876 34.9188 9.61474L33.6593 8.3183L35.4399 8.00972Z" fill="#AEA17E"/>
</svg>
