<svg width="36" height="40" viewBox="0 0 36 40" fill="none" xmlns="http://www.w3.org/2000/svg">
<path d="M32.1927 0.339732C29.1183 -1.07265 25.281 2.24254 23.2672 4.34425C23.0578 4.5626 22.9035 4.82064 22.8118 5.10089L22.4602 5.13207C21.9889 4.09507 20.2194 0.459377 18.464 0.19869C15.5827 -0.228579 13.2282 0.229061 12.8625 0.306715C12.2915 0.285662 7.19585 0.128054 5.08195 1.12904C5.06676 1.13629 5.05215 1.14445 5.03823 1.15377C4.4797 1.52617 4.36109 2.30788 4.68585 3.47706C4.88108 4.17974 5.17536 4.80396 5.24462 4.94639C5.32273 5.21294 5.87701 7.0267 7.12833 9.28718C3.51783 12.1216 -0.446196 16.1246 0.0407835 22.0905C0.119354 23.053 0.566524 23.853 1.36975 24.4682C2.91213 25.6496 5.58112 25.9856 8.12122 25.9856C11.0773 25.9856 13.8568 25.5303 14.4795 25.4212C14.6292 25.6779 14.7815 25.9194 14.9352 26.1482C14.6982 26.9966 13.933 29.7375 13.4614 31.4355C13.1912 32.4082 11.9956 34.521 10.095 37.3844C9.80372 37.8232 9.77222 38.3655 10.0107 38.835C10.2494 39.3049 10.7064 39.5997 11.2331 39.6234L19.5751 39.9991C19.5897 39.9997 19.6041 40 19.6186 40C20.0225 40 20.3687 39.7452 20.4879 39.3547C20.498 39.3217 20.5055 39.2887 20.5118 39.2556L21.066 39.0868C21.4041 38.9838 21.6384 38.7018 21.6775 38.3506C21.7168 37.9994 21.5504 37.6726 21.2434 37.4976L16.0502 34.5389C16.9209 33.2507 18.0801 31.6221 18.9981 30.6428C24.659 24.8843 24.4797 22.3221 24.2219 21.5741C24.7453 20.7919 25.2725 20.0278 25.6605 19.5847C27.2085 17.8159 25.9301 12.5576 25.6638 11.5412C25.8145 11.3463 26.156 10.9418 26.6888 10.517C28.2155 11.1616 30.5727 11.5827 33.437 10.2031C34.8757 9.51093 35.7586 7.8687 35.741 5.91712C35.724 4.00085 34.7827 1.52939 32.1927 0.339732ZM7.47679 9.89115C8.48102 11.5921 9.63812 13.0903 10.9241 14.3435C11.227 14.6387 11.5889 14.8162 11.9797 14.8754C11.7852 15.2112 11.6923 15.6061 11.7296 16.0107C11.7542 16.2775 11.7836 16.5426 11.8151 16.8054C11.6841 16.8068 11.3278 16.8142 11.3278 16.8142C10.6136 16.8336 9.90752 16.6264 9.28722 16.2154C6.65044 14.4687 4.26342 14.2149 3.10643 14.2135C4.3612 12.5183 5.94822 11.0969 7.47679 9.89115ZM0.728854 22.0344C0.501754 19.253 1.31418 16.9101 2.61244 14.9224C2.8829 14.9016 3.52852 14.8774 4.40515 15.0111C5.47999 15.1749 7.13339 15.6167 8.90592 16.791C9.53112 17.2051 10.2309 17.4447 10.9503 17.495C10.0288 19.6931 5.91888 24.173 5.06388 25.0915C3.75803 24.8954 2.59081 24.534 1.78942 23.9201C1.13863 23.4217 0.791664 22.8048 0.728854 22.0344ZM5.9083 25.1948C6.45843 24.5953 7.39269 23.5582 8.34822 22.4121C10.2068 20.1823 11.326 18.5329 11.6854 17.4979C11.7592 17.4969 11.8325 17.4958 11.9059 17.4952C12.3308 20.459 13.1568 22.9209 14.1259 24.7799C12.9757 24.9652 9.17662 25.5087 5.9083 25.1948ZM20.9016 38.0973C20.9947 38.1504 20.9954 38.2386 20.9915 38.274C20.9876 38.3095 20.9672 38.3953 20.8647 38.4265L20.3724 38.5764C20.3008 38.472 20.2061 38.3809 20.0905 38.3104C20.079 38.3034 20.0674 38.2971 20.0553 38.2916L15.5525 36.215C15.4331 36.16 15.3474 36.06 15.3111 35.9337C15.2748 35.8076 15.2943 35.6779 15.3659 35.5682C15.4569 35.4289 15.5581 35.2753 15.665 35.114L20.9016 38.0973ZM18.5002 30.1649C17.269 31.4781 15.6461 33.8774 14.7883 35.1907C14.6078 35.4669 14.5566 35.8072 14.6478 36.1243C14.7392 36.4419 14.9636 36.7033 15.2637 36.8417L19.7448 38.9084C19.862 38.9889 19.8422 39.1054 19.8276 39.1531C19.8126 39.2023 19.7654 39.3171 19.6062 39.3094L11.2642 38.9337C10.9893 38.9214 10.7508 38.7676 10.6262 38.5223C10.5019 38.2775 10.5183 37.9948 10.6701 37.766C12.0424 35.6986 13.7559 32.9541 14.1265 31.6201C14.5243 30.188 15.1308 28.0144 15.4531 26.8597C15.9523 27.489 16.458 27.9717 16.9418 28.2951C17.3887 28.5939 17.8121 28.7468 18.1853 28.7468C18.2955 28.7468 18.4013 28.7334 18.5021 28.7066C19.6471 28.4015 21.2786 26.036 23.4583 22.7275C23.5115 22.6466 23.5633 22.5682 23.616 22.4883C23.5122 23.5734 22.6698 25.9235 18.5002 30.1649ZM33.1377 9.58134C30.3878 10.9058 28.1604 10.4319 26.7777 9.80234C26.6643 9.75068 26.5321 9.76805 26.4324 9.84295C25.4952 10.5463 25.0204 11.2498 25.0006 11.2794C24.945 11.3629 24.9283 11.4665 24.9551 11.5633C25.411 13.2062 26.3333 17.7682 25.1412 19.1302C24.7008 19.6331 24.1122 20.4942 23.5417 21.3501C23.3292 21.6692 23.1083 22.0045 22.8821 22.3479C21.3721 24.6397 19.3041 27.7787 18.3246 28.0397C18.0867 28.1031 17.7228 27.9869 17.3256 27.7214C14.7845 26.0226 13.0675 21.0262 12.5474 17.1026C12.4968 16.7253 12.4529 16.3365 12.417 15.9472C12.3697 15.4332 12.6505 14.9438 13.1162 14.7275C14.0393 14.3598 17.6072 12.5936 18.8337 11.9839C18.8158 12.4079 18.5091 12.7808 18.3007 12.9866C18.119 13.166 17.8874 13.3275 17.6124 13.4669L14.8213 14.881C14.7043 14.9404 14.631 15.0608 14.6322 15.1921C14.6327 15.2471 14.6466 16.5468 14.8374 17.3612C15.2075 18.932 15.9386 21.1576 17.3209 22.8412C17.7558 23.3684 18.2283 23.8088 18.7253 24.15C18.7849 24.191 18.853 24.2106 18.9203 24.2106C19.0417 24.2106 19.1607 24.1468 19.2246 24.0289C19.311 23.8694 19.2468 23.6717 19.0978 23.5683C18.7149 23.3029 18.3465 22.9691 18.0002 22.5745C18.8466 20.952 19.7326 19.6431 20.3433 18.8126C20.3502 18.8049 20.3566 18.7968 20.3628 18.7886C20.8355 18.1488 21.1503 17.786 21.1534 17.7824C21.2784 17.6387 21.2634 17.4206 21.1197 17.2955C20.976 17.1704 20.7579 17.1854 20.6329 17.3291C20.6212 17.3426 20.3764 17.6246 19.9894 18.1356C18.9003 17.5591 17.3799 17.1661 15.4618 16.9648C15.3689 16.4259 15.3375 15.74 15.3273 15.3987L17.9245 14.0828C18.2634 13.9111 18.5532 13.7076 18.7857 13.478C19.4017 12.8697 19.6439 12.1842 19.4712 11.5379C19.4594 11.4932 19.4429 11.4499 19.4238 11.4078C19.3893 11.3318 19.343 11.2269 19.2645 11.1411C18.7526 10.5806 17.9656 10.3572 17.2358 10.6051L13.2486 11.9628C12.7954 11.3272 11.4075 9.32629 10.6236 7.6064L14.8222 4.71112L17.3349 4.2628C17.4992 4.23347 17.6301 4.09576 17.6325 3.92895C17.6358 3.70427 17.4362 3.54298 17.2266 3.58106L9.97182 4.8754L9.85792 3.7909C9.83842 3.60499 9.68182 3.45302 9.49512 3.4628C9.29612 3.47326 9.14882 3.64778 9.16942 3.84347L9.39422 5.98499C9.62612 8.19439 12.7089 12.3987 12.8401 12.5766C12.9293 12.6977 13.0868 12.7471 13.2291 12.6985L17.4579 11.2585C17.8124 11.1381 18.1917 11.1895 18.4942 11.3816C17.2429 12.0034 13.7089 13.7514 12.8497 14.0907C12.301 14.3073 11.7882 14.2216 11.4061 13.8491C10.0798 12.5566 8.89142 10.9944 7.87402 9.20584C6.4857 6.76602 5.90554 4.74759 5.8999 4.72746C5.89403 4.70675 5.88609 4.6865 5.87655 4.66718C5.39268 3.69737 4.91479 2.1107 5.40349 1.74072C7.46287 0.788514 12.8249 0.995936 12.8791 0.998122C12.909 0.999157 12.94 0.996511 12.9698 0.989723C12.994 0.984316 15.4186 0.444766 18.3628 0.881353C18.9835 0.973502 19.8153 1.82976 20.7052 3.29219C21.4184 4.46447 21.9236 5.6233 21.9287 5.6348C21.9878 5.77113 22.127 5.85373 22.2757 5.8413L22.718 5.80219C22.7509 6.53167 23.1839 7.19892 23.8682 7.51184L25.8203 8.40422C26.0138 8.49246 26.2469 8.3872 26.3001 8.16908C26.3396 8.00687 26.2472 7.8404 26.0954 7.77103L24.1552 6.88405C23.6215 6.63993 23.3214 6.06426 23.425 5.48398C23.4692 5.2371 23.5869 5.00816 23.7655 4.82191C25.6525 2.85249 29.2197 -0.266428 31.9046 0.966945C34.2013 2.02177 35.0359 4.21886 35.0511 5.92333C35.066 7.60456 34.3329 9.00624 33.1377 9.58134ZM17.5332 21.9806C16.5263 20.5726 15.9379 18.8442 15.6282 17.6772C17.2924 17.8694 18.6157 18.2118 19.5739 18.698C19.0032 19.4957 18.2606 20.6223 17.5332 21.9806ZM10.0806 5.91286L10.0439 5.56348L13.1817 5.00368L10.3524 6.95469C10.2108 6.57286 10.1126 6.21795 10.0806 5.91286Z" fill="white"/>
</svg>
