<svg width="130" height="97" viewBox="0 0 130 97" fill="none" xmlns="http://www.w3.org/2000/svg">
<g clip-path="url(#clip0_999_234906)">
<g clip-path="url(#clip1_999_234906)">
<g clip-path="url(#clip2_999_234906)">
<path d="M7.62472 4.96478L6.29032 -0.00390625L4.95595 4.96478L0 6.30259L4.95595 7.64041L6.29032 12.6091L7.62472 7.64041L12.5807 6.30259L7.62472 4.96478Z" fill="black" fill-opacity="0.07"/>
<path d="M24.3982 4.96478L23.0638 -0.00390625L21.7294 4.96478L16.7734 6.30259L21.7294 7.64041L23.0638 12.6091L24.3982 7.64041L29.3541 6.30259L24.3982 4.96478Z" fill="black" fill-opacity="0.07"/>
<path d="M39.8392 -0.00390625L41.1736 4.96478L46.1295 6.30259L41.1736 7.64041L39.8392 12.6091L38.5048 7.64041L33.5488 6.30259L38.5048 4.96478L39.8392 -0.00390625Z" fill="black" fill-opacity="0.07"/>
<path d="M57.947 4.96478L56.6126 -0.00390625L55.2782 4.96478L50.3223 6.30259L55.2782 7.64041L56.6126 12.6091L57.947 7.64041L62.9029 6.30259L57.947 4.96478Z" fill="black" fill-opacity="0.07"/>
<path d="M73.3863 -0.00390625L74.7202 4.96478L79.6762 6.30259L74.7202 7.64041L73.3863 12.6091L72.0517 7.64041L67.0957 6.30259L72.0517 4.96478L73.3863 -0.00390625Z" fill="black" fill-opacity="0.07"/>
<path d="M91.4956 4.96478L90.161 -0.00390625L88.8271 4.96478L83.8711 6.30259L88.8271 7.64041L90.161 12.6091L91.4956 7.64041L96.4516 6.30259L91.4956 4.96478Z" fill="black" fill-opacity="0.07"/>
<path d="M106.935 -0.00390625L108.27 4.96478L113.225 6.30259L108.27 7.64041L106.935 12.6091L105.601 7.64041L100.645 6.30259L105.601 4.96478L106.935 -0.00390625Z" fill="black" fill-opacity="0.07"/>
<path d="M125.044 4.96478L123.71 -0.00390625L122.376 4.96478L117.42 6.30259L122.376 7.64041L123.71 12.6091L125.044 7.64041L130 6.30259L125.044 4.96478Z" fill="black" fill-opacity="0.07"/>
<path d="M6.29032 16.8125L7.62472 21.7812L12.5807 23.119L7.62472 24.4568L6.29032 29.4254L4.95595 24.4568L0 23.119L4.95595 21.7812L6.29032 16.8125Z" fill="black" fill-opacity="0.07"/>
<path d="M24.3982 21.7812L23.0638 16.8125L21.7294 21.7812L16.7734 23.119L21.7294 24.4568L23.0638 29.4254L24.3982 24.4568L29.3541 23.119L24.3982 21.7812Z" fill="black" fill-opacity="0.07"/>
<path d="M39.8392 16.8125L41.1736 21.7812L46.1295 23.119L41.1736 24.4568L39.8392 29.4254L38.5048 24.4568L33.5488 23.119L38.5048 21.7812L39.8392 16.8125Z" fill="black" fill-opacity="0.07"/>
<path d="M57.947 21.7812L56.6126 16.8125L55.2782 21.7812L50.3223 23.119L55.2782 24.4568L56.6126 29.4254L57.947 24.4568L62.9029 23.119L57.947 21.7812Z" fill="black" fill-opacity="0.07"/>
<path d="M73.3863 16.8125L74.7202 21.7812L79.6762 23.119L74.7202 24.4568L73.3863 29.4254L72.0517 24.4568L67.0957 23.119L72.0517 21.7812L73.3863 16.8125Z" fill="black" fill-opacity="0.07"/>
<path d="M91.4956 21.7812L90.161 16.8125L88.8271 21.7812L83.8711 23.119L88.8271 24.4568L90.161 29.4254L91.4956 24.4568L96.4516 23.119L91.4956 21.7812Z" fill="black" fill-opacity="0.07"/>
<path d="M106.935 16.8125L108.27 21.7812L113.225 23.119L108.27 24.4568L106.935 29.4254L105.601 24.4568L100.645 23.119L105.601 21.7812L106.935 16.8125Z" fill="black" fill-opacity="0.07"/>
<path d="M125.044 21.7812L123.71 16.8125L122.376 21.7812L117.42 23.119L122.376 24.4568L123.71 29.4254L125.044 24.4568L130 23.119L125.044 21.7812Z" fill="black" fill-opacity="0.07"/>
<path d="M6.29032 33.6289L7.62472 38.5976L12.5807 39.9354L7.62472 41.2732L6.29032 46.2419L4.95595 41.2732L0 39.9354L4.95595 38.5976L6.29032 33.6289Z" fill="black" fill-opacity="0.07"/>
<path d="M24.3982 38.5976L23.0638 33.6289L21.7294 38.5976L16.7734 39.9354L21.7294 41.2732L23.0638 46.2419L24.3982 41.2732L29.3541 39.9354L24.3982 38.5976Z" fill="black" fill-opacity="0.07"/>
<path d="M39.8392 33.6289L41.1736 38.5976L46.1295 39.9354L41.1736 41.2732L39.8392 46.2419L38.5048 41.2732L33.5488 39.9354L38.5048 38.5976L39.8392 33.6289Z" fill="black" fill-opacity="0.07"/>
<path d="M57.947 38.5976L56.6126 33.6289L55.2782 38.5976L50.3223 39.9354L55.2782 41.2732L56.6126 46.2419L57.947 41.2732L62.9029 39.9354L57.947 38.5976Z" fill="black" fill-opacity="0.07"/>
<path d="M73.3863 33.6289L74.7202 38.5976L79.6762 39.9354L74.7202 41.2732L73.3863 46.2419L72.0517 41.2732L67.0957 39.9354L72.0517 38.5976L73.3863 33.6289Z" fill="black" fill-opacity="0.07"/>
<path d="M91.4956 38.5976L90.161 33.6289L88.8271 38.5976L83.8711 39.9354L88.8271 41.2732L90.161 46.2419L91.4956 41.2732L96.4516 39.9354L91.4956 38.5976Z" fill="black" fill-opacity="0.07"/>
<path d="M106.935 33.6289L108.27 38.5976L113.225 39.9354L108.27 41.2732L106.935 46.2419L105.601 41.2732L100.645 39.9354L105.601 38.5976L106.935 33.6289Z" fill="black" fill-opacity="0.07"/>
<path d="M125.044 38.5976L123.71 33.6289L122.376 38.5976L117.42 39.9354L122.376 41.2732L123.71 46.2419L125.044 41.2732L130 39.9354L125.044 38.5976Z" fill="black" fill-opacity="0.07"/>
<path d="M6.29032 50.4492L7.62472 55.4179L12.5807 56.7557L7.62472 58.0935L6.29032 63.0622L4.95595 58.0935L0 56.7557L4.95595 55.4179L6.29032 50.4492Z" fill="black" fill-opacity="0.07"/>
<path d="M24.3982 55.4179L23.0638 50.4492L21.7294 55.4179L16.7734 56.7557L21.7294 58.0935L23.0638 63.0622L24.3982 58.0935L29.3541 56.7557L24.3982 55.4179Z" fill="black" fill-opacity="0.07"/>
<path d="M39.8392 50.4492L41.1736 55.4179L46.1295 56.7557L41.1736 58.0935L39.8392 63.0622L38.5048 58.0935L33.5488 56.7557L38.5048 55.4179L39.8392 50.4492Z" fill="black" fill-opacity="0.07"/>
<path d="M57.947 55.4179L56.6126 50.4492L55.2782 55.4179L50.3223 56.7557L55.2782 58.0935L56.6126 63.0622L57.947 58.0935L62.9029 56.7557L57.947 55.4179Z" fill="black" fill-opacity="0.07"/>
<path d="M73.3863 50.4492L74.7202 55.4179L79.6762 56.7557L74.7202 58.0935L73.3863 63.0622L72.0517 58.0935L67.0957 56.7557L72.0517 55.4179L73.3863 50.4492Z" fill="black" fill-opacity="0.07"/>
<path d="M91.4956 55.4179L90.161 50.4492L88.8271 55.4179L83.8711 56.7557L88.8271 58.0935L90.161 63.0622L91.4956 58.0935L96.4516 56.7557L91.4956 55.4179Z" fill="black" fill-opacity="0.07"/>
<path d="M106.935 50.4492L108.27 55.4179L113.225 56.7557L108.27 58.0935L106.935 63.0622L105.601 58.0935L100.645 56.7557L105.601 55.4179L106.935 50.4492Z" fill="black" fill-opacity="0.07"/>
<path d="M125.044 55.4179L123.71 50.4492L122.376 55.4179L117.42 56.7557L122.376 58.0935L123.71 63.0622L125.044 58.0935L130 56.7557L125.044 55.4179Z" fill="black" fill-opacity="0.07"/>
<path d="M6.29032 67.2656L7.62472 72.2344L12.5807 73.5722L7.62472 74.91L6.29032 79.8788L4.95595 74.91L0 73.5722L4.95595 72.2344L6.29032 67.2656Z" fill="black" fill-opacity="0.07"/>
<path d="M24.3982 72.2344L23.0638 67.2656L21.7294 72.2344L16.7734 73.5722L21.7294 74.91L23.0638 79.8788L24.3982 74.91L29.3541 73.5722L24.3982 72.2344Z" fill="black" fill-opacity="0.07"/>
<path d="M39.8392 67.2656L41.1736 72.2344L46.1295 73.5722L41.1736 74.91L39.8392 79.8788L38.5048 74.91L33.5488 73.5722L38.5048 72.2344L39.8392 67.2656Z" fill="black" fill-opacity="0.07"/>
<path d="M57.947 72.2344L56.6126 67.2656L55.2782 72.2344L50.3223 73.5722L55.2782 74.91L56.6126 79.8788L57.947 74.91L62.9029 73.5722L57.947 72.2344Z" fill="black" fill-opacity="0.07"/>
<path d="M73.3863 67.2656L74.7202 72.2344L79.6762 73.5722L74.7202 74.91L73.3863 79.8788L72.0517 74.91L67.0957 73.5722L72.0517 72.2344L73.3863 67.2656Z" fill="black" fill-opacity="0.07"/>
<path d="M91.4956 72.2344L90.161 67.2656L88.8271 72.2344L83.8711 73.5722L88.8271 74.91L90.161 79.8788L91.4956 74.91L96.4516 73.5722L91.4956 72.2344Z" fill="black" fill-opacity="0.07"/>
<path d="M106.935 67.2656L108.27 72.2344L113.225 73.5722L108.27 74.91L106.935 79.8788L105.601 74.91L100.645 73.5722L105.601 72.2344L106.935 67.2656Z" fill="black" fill-opacity="0.07"/>
<path d="M125.044 72.2344L123.71 67.2656L122.376 72.2344L117.42 73.5722L122.376 74.91L123.71 79.8788L125.044 74.91L130 73.5722L125.044 72.2344Z" fill="black" fill-opacity="0.07"/>
<path d="M6.29032 84.082L7.62472 89.0509L12.5807 90.3886L7.62472 91.7264L6.29032 96.6952L4.95595 91.7264L0 90.3886L4.95595 89.0509L6.29032 84.082Z" fill="black" fill-opacity="0.07"/>
<path d="M24.3982 89.0509L23.0638 84.082L21.7294 89.0509L16.7734 90.3886L21.7294 91.7264L23.0638 96.6952L24.3982 91.7264L29.3541 90.3886L24.3982 89.0509Z" fill="black" fill-opacity="0.07"/>
<path d="M39.8392 84.082L41.1736 89.0509L46.1295 90.3886L41.1736 91.7264L39.8392 96.6952L38.5048 91.7264L33.5488 90.3886L38.5048 89.0509L39.8392 84.082Z" fill="black" fill-opacity="0.07"/>
<path d="M57.947 89.0509L56.6126 84.082L55.2782 89.0509L50.3223 90.3886L55.2782 91.7264L56.6126 96.6952L57.947 91.7264L62.9029 90.3886L57.947 89.0509Z" fill="black" fill-opacity="0.07"/>
<path d="M73.3863 84.082L74.7202 89.0509L79.6762 90.3886L74.7202 91.7264L73.3863 96.6952L72.0517 91.7264L67.0957 90.3886L72.0517 89.0509L73.3863 84.082Z" fill="black" fill-opacity="0.07"/>
<path d="M91.4956 89.0509L90.161 84.082L88.8271 89.0509L83.8711 90.3886L88.8271 91.7264L90.161 96.6952L91.4956 91.7264L96.4516 90.3886L91.4956 89.0509Z" fill="black" fill-opacity="0.07"/>
<path d="M106.935 84.082L108.27 89.0509L113.225 90.3886L108.27 91.7264L106.935 96.6952L105.601 91.7264L100.645 90.3886L105.601 89.0509L106.935 84.082Z" fill="black" fill-opacity="0.07"/>
<path d="M125.044 89.0509L123.71 84.082L122.376 89.0509L117.42 90.3886L122.376 91.7264L123.71 96.6952L125.044 91.7264L130 90.3886L125.044 89.0509Z" fill="black" fill-opacity="0.07"/>
</g>
</g>
</g>
<defs>
<clipPath id="clip0_999_234906">
<rect width="130" height="96.69" fill="white"/>
</clipPath>
<clipPath id="clip1_999_234906">
<rect width="130" height="96.69" fill="white"/>
</clipPath>
<clipPath id="clip2_999_234906">
<rect width="130" height="96.6995" fill="white" transform="translate(0 -0.00390625)"/>
</clipPath>
</defs>
</svg>
