<svg xmlns="http://www.w3.org/2000/svg" version="1.1" xmlns:xlink="http://www.w3.org/1999/xlink" width="512" height="512" x="0" y="0" viewBox="0 0 64 64" style="enable-background:new 0 0 512 512" xml:space="preserve" class=""><g><g fill-rule="evenodd"><path fill="#0f9dff" d="M48 64H16A16 16 0 0 1 0 48V16A16 16 0 0 1 16 0h32a16 16 0 0 1 16 16v32a16 16 0 0 1-16 16" opacity="1" data-original="#0f9dff"></path><path fill="#00b7ff" d="M30 18h18A9 9 0 0 0 48.92.046C48.614.029 48.311 0 48 0H16A16 16 0 0 0 0 16v32a30 30 0 0 1 30-30" opacity="1" data-original="#00b7ff" class=""></path><path fill="#1d83ff" d="M48 32a16 16 0 1 0 16 16V16a16 16 0 0 1-16 16" opacity="1" data-original="#1d83ff"></path></g><path fill="#ffffff" d="M24.576 48.256c15.338 0 23.845-13.024 23.328-24.4a16.524 16.524 0 0 0 3.057-2.864.498.498 0 0 0-.543-.786 16.886 16.886 0 0 1-2.058.521.25.25 0 0 1-.194-.444 8.23 8.23 0 0 0 2.169-2.607.491.491 0 0 0-.657-.661 16.816 16.816 0 0 1-3.998 1.321 8.207 8.207 0 0 0-14.192 5.616 8.736 8.736 0 0 0 .147 1.559.25.25 0 0 1-.261.296 23.274 23.274 0 0 1-15.556-7.375.994.994 0 0 0-1.685.364 7.97 7.97 0 0 0 2.493 8.896.244.244 0 0 1-.186.433 7.916 7.916 0 0 1-1.381-.316.988.988 0 0 0-.967.196.949.949 0 0 0-.315.935c1.738 6.692 6.445 5.839 6.445 6.346 0 .343-.931.343-2.179.346a.986.986 0 0 0-.87 1.44 8.279 8.279 0 0 0 6.317 4.074.247.247 0 0 1 .126.447 16.372 16.372 0 0 1-7.707 2.997.969.969 0 0 0-.309 1.854 22.946 22.946 0 0 0 8.976 1.812z" opacity="1" data-original="#ffffff"></path></g></svg>