<svg width="81" height="81" viewBox="0 0 81 81" fill="none" xmlns="http://www.w3.org/2000/svg">
<path d="M79.0966 62.1528C73.3022 49.8788 69.7851 37.4983 68.5413 32.7436C68.3165 31.8843 67.9359 31.072 67.4285 30.3443L67.4223 27.4738C67.4191 26.0478 66.7267 24.7038 65.5702 23.8784C64.927 23.4194 64.287 22.9415 63.6673 22.4562C54.9813 9.80243 49.7024 6.57753 49.4813 6.44623C49.4186 6.40905 49.35 6.38262 49.2785 6.36844C49.0979 6.33147 48.1376 6.2294 46.8201 7.70421C44.1483 10.3968 38.7919 21.8249 38.3436 24.6645C38.0215 26.7049 34.8761 31.3662 33.6104 33.1405C33.5749 33.1504 33.5408 33.1599 33.5051 33.17C30.3988 34.0435 26.4669 36.0846 25.6086 38.9611C25.1713 40.4267 25.55 41.8989 26.7338 43.3398C26.7596 45.3808 27.1122 49.7239 28.2941 54.3857C28.1171 54.6483 27.9495 54.898 27.7937 55.1308C27.2072 56.0069 26.3872 56.7223 25.4215 57.1993C24.3906 57.7088 23.504 58.3011 22.7858 58.9593C22.2357 59.4636 21.3845 60.3815 20.3985 61.4443C20.0113 61.8619 19.5978 62.3075 19.1691 62.7646C18.42 62.7601 16.345 62.7833 14.1456 63.1142C10.3319 63.688 8.11717 64.8924 7.56275 66.6945C7.04077 68.3904 7.06076 69.7001 7.62227 70.5867C7.64849 70.6282 7.67642 70.6656 7.70393 70.7036C5.66588 71.3919 3.4787 71.9994 1.6188 72.4259C1.1052 72.5437 0.76245 73.0107 0.80328 73.5359C0.844325 74.0618 1.25606 74.4703 1.78212 74.5068C4.18248 74.6753 7.94096 74.7964 8.031 74.7964C9.72844 74.7964 11.404 74.368 12.8934 73.5505C12.9394 73.5254 12.9879 73.4985 13.0346 73.4726C14.48 73.9877 15.9885 74.2522 17.5256 74.2522C17.5439 74.2522 48.5308 74.1279 48.5308 74.1279C49.1609 74.1254 49.716 73.7682 49.9794 73.196C49.9837 73.1867 49.9861 73.177 49.99 73.1678C62.0115 74.6532 69.2665 74.871 73.3517 74.871C74.372 74.871 75.1952 74.8572 75.8453 74.8467C75.9192 74.8455 75.9908 74.8444 76.0595 74.8433C76.7412 74.8324 77.4133 74.6453 77.9852 74.274C79.1587 73.512 79.9744 72.4607 80.416 71.1376C81.723 67.2229 79.2904 62.5173 79.0966 62.1528ZM74.3814 54.5351C72.4745 54.3393 70.3223 55.2036 69.1127 55.7946C68.8737 52.3513 67.3336 45.1698 67.2601 44.8288C67.2195 44.6399 67.0959 44.479 66.924 44.3908L63.8351 42.8068C63.3318 42.549 62.9998 42.0521 62.9594 41.4743C62.9298 41.0488 63.0869 40.6308 63.358 40.3016L64.2389 39.2325C65.2027 38.0618 65.4919 36.504 65.0125 35.0651L64.7241 34.2006C64.5288 33.615 64.4798 32.9907 64.5812 32.3817L65.0478 29.5825L65.7734 30.3443C66.5019 31.1091 67.0276 32.0514 67.2938 33.0696C68.2686 36.7961 70.6307 45.1732 74.3814 54.5351ZM27.2354 67.4523C26.5376 67.1035 25.548 66.7726 24.2847 66.464C25.5347 65.5572 26.7271 64.6254 27.7943 63.6926L31.6574 62.9073C32.0954 63.6253 32.5572 64.2792 33.0403 64.862C34.1491 66.1919 36.1261 68.3916 36.9638 69.3189C34.7414 69.142 29.5659 68.6194 27.2354 67.4523ZM30.7848 61.3238C30.8527 61.4594 30.9204 61.5954 30.9895 61.7273L30.0206 61.9244C30.3165 61.7275 30.5696 61.5255 30.7848 61.3238ZM33.7537 63.6876C33.0007 62.715 32.3032 61.5447 31.6733 60.2012C31.8309 59.9145 31.9203 59.6671 31.9695 59.4924C32.9345 58.6309 37.7978 54.2559 41.362 50.4328C41.1929 50.7824 41.056 51.0787 40.9612 51.3162C40.6812 52.0159 40.7322 52.7708 41.1082 53.4989C41.4793 54.2175 42.1732 54.9122 43.1057 55.5395C42.0138 57.1464 38.4433 61.9525 33.7537 63.6876ZM42.2538 52.9073C42.049 52.5103 42.0176 52.1465 42.1586 51.7948C42.3211 51.388 42.6464 50.7368 43.0586 49.9121C43.642 48.745 44.3679 47.2929 45.0498 45.7C45.0648 45.667 45.1276 45.5162 45.1433 45.4743C45.3769 44.9217 45.6188 44.3893 45.8528 43.8742C46.4784 42.4974 47.0453 41.2465 47.3017 39.9827C47.8713 40.7155 48.6355 41.4569 49.6423 42.0135C51.0449 42.7887 52.6359 43.0425 54.389 42.7785C53.8847 43.9734 53.3466 45.8288 53.3466 48.3148C53.3466 52.8773 55.9051 57.1625 56.0141 57.3428C56.1321 57.5379 56.3424 57.6539 56.5655 57.6539C56.5999 57.6539 56.6345 57.6511 56.6691 57.6455C56.9289 57.6035 57.1369 57.4078 57.1945 57.151C57.2531 56.8899 58.631 50.7274 58.451 47.9185C58.3199 45.8845 57.3344 43.4369 56.7509 42.1439C59.1799 41.2196 60.853 39.7255 61.7242 37.6952C62.9667 34.7984 62.2051 31.6373 61.629 30.3705C60.8685 28.6972 56.4993 23.8434 51.165 22.828C50.4167 22.6853 49.6438 22.9181 49.0986 23.4499C48.6695 23.8683 48.2311 24.3103 47.7667 24.778C47.0158 25.5346 46.2203 26.3357 45.3867 27.1141L45.3743 26.4339C45.3629 25.8614 45.4544 25.2971 45.647 24.7554C47.4886 19.5417 49.2568 15.6108 50.3181 14.3208C54.9637 18.4264 58.5103 22.687 59.1472 23.466L59.3799 24.7771C59.5145 25.5421 59.8832 26.2285 60.4456 26.7616L63.6963 29.8507L63.3099 32.1694C63.1739 32.9858 63.2396 33.823 63.5014 34.608L63.7898 35.4728C64.1261 36.4812 63.9198 37.5918 63.2439 38.4125L62.33 39.5218C61.7261 40.2551 61.5177 41.2258 61.7747 42.1511C61.9978 42.9539 62.5778 43.6108 63.3194 43.9909L66.0631 45.3978C66.4012 47.0028 67.9716 54.6086 67.8491 56.8194C67.7369 58.837 68.0616 61.8831 69.2242 64.6374L54.2068 61.1729C53.7598 60.1678 52.1752 57.2732 48.4442 56.3715C45.4364 55.6454 42.9486 54.2529 42.2538 52.9073ZM39.5565 35.649C35.7746 36.0637 34.528 35.3644 34.1214 34.9033C33.9662 34.7273 33.9029 34.5496 33.8788 34.4039C34.3896 34.2603 34.8617 34.1303 35.302 34.0091C38.4702 33.1369 40.0604 32.6989 42.7769 30.8884C44.9683 29.4278 46.9411 27.4403 48.6817 25.687C49.1424 25.2228 49.5776 24.7844 49.9994 24.3729C50.2429 24.1354 50.5865 24.0312 50.9207 24.0948C55.8488 25.0309 59.8561 29.5862 60.4555 30.9048C60.8535 31.7792 61.6441 34.6128 60.5395 37.1874C59.7743 38.9714 58.2339 40.2748 55.9621 41.0613C53.7757 41.8173 51.866 41.7616 50.285 40.8955C48.6443 39.9967 47.7553 38.4737 47.3582 37.6028C47.3055 37.4874 47.0655 36.9158 46.9815 36.7166C46.9696 36.6884 46.9574 36.6613 46.9436 36.634C46.5506 35.8458 45.9753 35.1712 45.2557 34.6824C44.2656 34.0095 43.2458 33.7787 42.2214 33.9981C41.3055 34.1938 40.4141 34.7473 39.5565 35.649ZM55.7085 42.9766C56.2438 44.2066 57.0557 46.3148 57.1642 48.0017C57.2759 49.7399 56.7069 53.0387 56.3063 55.0858C55.5824 53.4961 54.636 50.9195 54.636 48.315C54.636 45.7971 55.2261 44.0137 55.7085 42.9766ZM39.6173 24.8652C40.0284 22.2622 45.2355 11.112 47.7454 8.60204C47.7544 8.59323 47.763 8.58398 47.7714 8.57453C48.3772 7.89289 48.7988 7.70851 48.9813 7.65844C49.924 8.30033 54.9645 12.0389 62.6599 23.2668C62.6968 23.3208 62.7419 23.3689 62.7933 23.4093C63.4528 23.9272 64.1351 24.4382 64.821 24.9277C65.6402 25.5122 66.1306 26.4651 66.133 27.4764L66.136 28.8553L65.8708 28.5771C65.5151 28.2036 64.9674 28.0929 64.4856 28.314C64.3689 28.3675 64.2662 28.4417 64.1757 28.5281L61.3329 25.8266C60.9721 25.4845 60.7359 25.0444 60.6495 24.5527L60.3874 23.0766C60.3685 22.9707 60.3233 22.871 60.2561 22.7868C60.2157 22.7362 56.1469 17.6706 50.72 12.959C50.495 12.7635 50.1651 12.748 49.9227 12.9212C49.1921 13.4432 47.5069 15.6188 44.4311 24.3247C44.1866 25.0126 44.0701 25.731 44.0849 26.4588L44.1178 28.2465C43.4523 28.8119 42.7663 29.3453 42.0615 29.815C39.7112 31.3816 38.3099 31.8372 35.6416 32.5771C36.9537 30.631 39.29 26.937 39.6173 24.8652ZM28.0217 43.1015C28.0217 42.9457 27.9654 42.7952 27.8631 42.6779C26.8655 41.5332 26.5228 40.4065 26.8443 39.3294C27.4195 37.4014 30.0064 35.7545 32.6481 34.7989C32.7237 35.0982 32.8677 35.4167 33.12 35.7156C33.8766 36.6121 35.3424 37.0628 37.4911 37.0628C37.7967 37.0628 38.1195 37.0513 38.4526 37.0331C38.3153 37.2332 38.1788 37.4405 38.0438 37.6597C37.1428 39.1219 36.4485 40.7866 35.9804 42.6079C35.7337 43.5684 35.1385 45.3735 33.925 46.6736C32.8421 47.8341 30.889 50.5854 29.2747 52.9426C28.4164 49.1552 28.0217 45.2957 28.0217 43.1015ZM8.6948 69.8689C8.37225 69.3243 8.40792 68.3316 8.79516 67.073C9.48325 64.837 14.7771 64.1851 17.9255 64.0712C17.5426 64.4672 17.1552 64.8615 16.7677 65.2445C15.8557 65.1454 15.2779 65.0979 15.2512 65.0957C14.8973 65.0672 14.5852 65.3308 14.5562 65.6861C14.5274 66.0409 14.7915 66.352 15.1466 66.3808C15.1498 66.3811 15.2912 66.3927 15.5398 66.4161C14.6807 67.2043 13.8557 67.8859 13.1336 68.3454C12.1473 68.9731 10.6974 69.6184 9.06549 70.2225C8.96213 70.172 8.81385 70.0703 8.6948 69.8689ZM7.79548 73.5034C6.71198 73.4744 5.16282 73.4199 3.40607 73.3184C7.20087 72.3484 11.5593 70.8755 13.8256 69.4333C16.0745 68.0022 19.1199 64.7186 21.3439 62.3206C22.3104 61.2782 23.1455 60.3782 23.657 59.9093C24.2851 59.3332 25.0712 58.8104 25.9926 58.3548C27.1602 57.7778 28.1534 56.9107 28.8649 55.8474C30.5103 53.3885 33.478 49.0415 34.8669 47.5532C36.205 46.1195 36.8899 44.2471 37.2285 42.9286C37.6643 41.2324 38.3075 39.6875 39.1407 38.336C40.2373 36.5573 41.3955 35.4932 42.4906 35.2587C43.1654 35.1152 43.8326 35.2744 44.5304 35.7485C45.3051 36.2747 45.864 37.0918 46.1041 38.0493C46.1225 38.1228 46.1365 38.1813 46.1408 38.2101C46.2755 39.8256 45.5355 41.4545 44.6782 43.3409C44.4386 43.8685 43.8522 45.2194 43.8447 45.2373C42.5336 48.0305 34.162 55.8225 30.959 58.6649C30.8396 58.7708 30.7652 58.9058 30.7476 59.0644C30.7398 59.1161 30.5355 60.3413 28.5331 61.2862C28.4661 61.3177 28.4048 61.3609 28.3524 61.4134C26.7448 63.0208 24.6313 64.6698 22.3992 66.2226C22.3713 66.2389 22.3453 66.2573 22.3199 66.2775C18.7312 68.7677 14.8483 71.0058 12.2724 72.4193C10.905 73.1705 9.35753 73.5446 7.79548 73.5034ZM17.5748 72.9622C17.5585 72.9622 17.5422 72.9622 17.5256 72.9622C16.5324 72.9622 15.5525 72.8388 14.5966 72.5998C16.9961 71.2394 20.0076 69.4376 22.8664 67.466C24.5574 67.8172 25.8192 68.1943 26.6203 68.5871C25.9028 69.483 24.8017 71.1376 24.711 72.9333L17.5748 72.9622ZM48.8083 72.6561C48.7831 72.7104 48.7053 72.8372 48.5257 72.8382L26.0023 72.9284C26.1128 71.3081 27.3265 69.7325 27.8755 69.0973C31.5042 70.3149 37.6512 70.6641 37.9424 70.68C38.0862 70.6886 38.2246 70.6488 38.3417 70.5682C39.2986 69.9135 40.9591 69.1731 41.4587 69.548C41.5509 69.6171 41.6599 69.6604 41.7742 69.6731C42.6193 69.7679 44.2515 69.6408 45.4714 69.5173C45.9985 69.465 46.5143 69.6734 46.856 70.0764L48.7627 72.3231C48.879 72.4602 48.8332 72.6016 48.8083 72.6561ZM79.1933 70.7288C78.8914 71.6337 78.3617 72.3793 77.613 72.9566C77.1054 73.3478 76.4751 73.5467 75.8343 73.557C75.8311 73.557 75.8279 73.557 75.8246 73.5572C72.586 73.6105 65.0284 73.7337 49.9861 71.8677C49.9251 71.7336 49.8453 71.606 49.7459 71.4889L47.8391 69.2421C47.2228 68.5158 46.291 68.1371 45.342 68.2348C43.8326 68.387 42.6804 68.4459 42.0621 68.4046C41.3925 68.0204 40.4395 68.0928 39.2249 68.6208C38.9305 68.749 38.6552 68.889 38.4173 69.0192C38.3838 68.9764 36.1089 66.4614 34.6215 64.7322C39.5642 62.7113 43.1411 57.8161 44.2207 56.1977C45.3358 56.777 46.6684 57.2694 48.141 57.625C51.8851 58.5297 53.0784 61.8 53.1266 61.9368C53.1992 62.1468 53.3745 62.3042 53.5907 62.354L69.9619 66.1309C70.0047 66.2055 70.0442 66.2818 70.0885 66.3553L71.8076 69.2206C72.0124 69.5623 72.4839 69.6455 72.7957 69.3651C73.0276 69.1564 73.0605 68.8029 72.8999 68.5354L71.1941 65.6918C69.5577 62.9646 69.0598 59.5183 69.1232 57.2365C70.4007 56.5337 73.1896 55.3396 74.9653 55.9712C75.8797 58.1919 76.8699 60.4562 77.9377 62.7176C77.9424 62.7279 77.9478 62.7379 77.9529 62.7481C78.7867 64.2964 80.1189 67.9564 79.1933 70.7288Z" fill="#3D493A"/>
</svg>
