<svg width="81" height="81" viewBox="0 0 81 81" fill="none" xmlns="http://www.w3.org/2000/svg">
<path d="M67.5468 66.4287C68.8703 66.1108 69.9932 65.1796 70.55 63.9375L71.0228 62.8834C71.712 61.3465 71.4522 59.5241 70.361 58.2408C69.9322 57.7367 69.3852 57.3297 68.7786 57.0639L67.0601 56.3108C64.8972 55.3629 62.6379 54.7357 60.3182 54.4299L58.0376 41.064C58.0287 41.0059 58.0214 40.9474 58.0156 40.8891L57.7567 38.301C57.442 35.1525 56.8321 32.0158 55.9441 28.9776L55.6122 27.8419C55.3537 26.9569 54.8653 26.1525 54.1997 25.5146C53.3268 24.6786 52.1687 24.2453 50.9868 24.2895L46.0724 22.0294C46.1883 21.859 46.3023 21.6847 46.4136 21.5022C47.7193 19.3552 48.4795 16.6672 48.4472 14.3108C48.4152 11.9827 47.6091 9.80034 46.1772 8.16571C45.9706 7.92995 45.754 7.71171 45.5293 7.50731C45.5785 7.28354 45.6233 7.04009 45.6199 6.78435C45.5831 4.10986 43.3786 1.9573 40.7023 2.00064C38.0278 2.03784 35.882 4.24388 35.9186 6.91806C35.9225 7.19378 35.9791 7.4234 36.0384 7.62902C35.8165 7.84235 35.6022 8.0695 35.3997 8.31448C34.0138 9.98784 33.2677 12.1914 33.2997 14.5198C33.3323 16.8758 34.1662 19.5423 35.5306 21.6525C35.6093 21.7739 35.6896 21.8908 35.7701 22.0066L30.5275 24.2895C29.3435 24.2437 28.1824 24.6767 27.3079 25.5144C26.6425 26.1521 26.1541 26.9566 25.8956 27.8412L25.5633 28.9773C24.6753 32.0154 24.0654 35.1521 23.7507 38.3006L23.4922 40.8879C23.486 40.9465 23.4787 41.0053 23.471 41.0556L21.3697 53.5607C19.386 53.7352 17.4391 54.3165 15.6842 55.2946C14.5899 55.9041 13.7966 56.9532 13.508 58.1726C13.1158 59.829 13.7142 61.5946 15.0329 62.6714C16.302 63.7072 17.7203 64.5156 19.2344 65.0748L18.9694 72.9882C18.9692 73.0013 18.9692 73.0146 18.9694 73.0278C18.9722 73.1184 18.9436 73.1834 18.9304 73.1987L17.2131 75.1813C16.8384 75.614 16.6943 76.2657 16.8366 76.8817C16.9595 77.4144 17.2767 77.8251 17.7061 78.0083L19.4548 78.754C19.607 78.8185 19.7693 78.851 19.9251 78.851C19.977 78.851 20.0281 78.8474 20.0782 78.8403L24.194 78.3503C24.6067 78.2901 24.9704 78.0165 25.1917 77.6007C25.4585 77.0988 25.491 76.4775 25.2854 75.9448L26.3229 75.7847C26.7845 75.7142 27.1521 75.3295 27.2376 74.8278C27.3529 74.1503 26.9751 73.5061 26.3954 73.3915L23.7738 72.8725C23.7676 72.8554 23.7614 72.8323 23.7587 72.8034L24.8809 68.2038C26.5844 69.1222 28.4287 69.9441 29.7777 70.0825C32.7159 70.3853 39.6888 68.7395 40.8922 68.4479C42 68.7906 48.1014 70.6395 50.7974 70.6395C52.0817 70.6395 54.6737 69.9862 57.2084 69.2428L58.2387 72.8135C58.2357 72.8378 58.2304 72.8578 58.2249 72.8725L55.6035 73.3915C55.0239 73.5061 54.6458 74.1503 54.7611 74.8278C54.8466 75.3297 55.2142 75.7142 55.6751 75.7847L56.7129 75.9448C56.5073 76.4771 56.5398 77.0988 56.8067 77.6007C57.0279 78.0168 57.3916 78.2901 57.8207 78.3525L61.9054 78.8382C61.961 78.8462 62.0171 78.8501 62.0727 78.8501C62.2331 78.8501 62.3932 78.8176 62.5444 78.7536L64.2922 78.0083C64.7216 77.8251 65.0388 77.4144 65.1617 76.8817C65.3041 76.2657 65.1599 75.614 64.7849 75.1813L63.0679 73.199C63.0544 73.1833 63.0254 73.1184 63.0286 73.0278C63.0292 73.0057 63.0286 72.983 63.027 72.9605L62.5997 67.5334C63.2077 67.3284 63.6199 67.1852 63.7533 67.1388C65.0281 66.9636 66.2951 66.7293 67.5468 66.4287ZM24.422 64.8074C23.505 62.1995 23.7182 59.3338 25.0275 56.8846L25.1213 56.7095C30.0892 56.1375 44.6367 57.8837 44.7919 57.9027C44.9659 57.9239 45.1416 57.8691 45.2736 57.7527C45.4051 57.6359 45.4804 57.4683 45.4804 57.2926V56.2217C45.4804 55.8813 45.6316 55.562 45.8953 55.3465C46.1124 55.1689 46.3844 55.0782 46.6662 55.0923L50.3188 55.2706C50.483 55.2762 50.6416 55.2211 50.7624 55.1111L54.9777 51.279C55.13 51.1407 55.3242 51.0703 55.5317 51.0801L56.8195 51.1413C56.9481 51.1474 57.0744 51.1862 57.1841 51.2529C57.3944 51.3817 57.5275 51.5959 57.5492 51.8412C57.5712 52.0866 57.4776 52.3211 57.2932 52.4842L54.5271 54.9361C54.2514 55.1809 53.9447 55.3908 53.6164 55.5601L47.4311 58.7495C47.4199 58.755 47.4096 58.7609 47.3991 58.7674L44.917 60.2412C42.1464 61.8863 39.1389 63.0408 35.9791 63.6731L33.3273 64.2033C30.3934 64.79 27.4042 64.9924 24.422 64.8074ZM25.4361 53.7839C25.3574 53.1727 25.69 52.5663 26.2706 52.3197C26.545 52.2026 26.8552 52.1775 27.146 52.2481L27.6686 52.3751C28.7231 52.6312 29.6351 53.2693 30.2372 54.1723L30.4358 54.4706C30.5284 54.6092 30.6732 54.7044 30.8372 54.7343L32.4325 55.0244C32.9616 55.1207 33.4607 55.3291 33.9006 55.626C32.5054 55.5292 31.1127 55.451 29.8134 55.4077L26.609 54.0728C26.5871 54.0639 26.565 54.0559 26.5426 54.0497C26.1772 53.9443 25.8073 53.8585 25.4361 53.7839ZM30.4399 45.4702L30.6812 46.0834C31.2947 47.6416 31.4809 49.3394 31.2199 50.9935L30.9012 53.0148C30.5041 52.5386 30.0325 52.1369 29.5066 51.8206L30.4399 45.4702ZM32.3527 51.7041H50.0505L50.4384 53.7441L50.1239 54.03L46.7262 53.864C46.1407 53.8361 45.5698 54.0243 45.1168 54.3952C44.5666 54.8453 44.2509 55.511 44.2509 56.2217V56.6013C42.8281 56.4365 39.4531 56.0618 35.806 55.7689C35.0404 54.7515 33.9104 54.0433 32.6526 53.8146L32.0376 53.7027L32.3527 51.7041ZM51.1583 50.947C50.9053 49.6161 50.949 48.2373 51.2809 46.9254L52.0653 52.2655L51.5056 52.7742L51.1583 50.947ZM45.5444 61.2982L48.0108 59.8336L49.2812 59.1786L50.2001 59.0622C53.1621 58.6857 56.2039 58.8513 59.1159 59.5336C58.2538 61.6853 58.2814 64.1314 59.2072 66.2655C58.9631 66.2704 58.7191 66.2766 58.4754 66.2769L54.0995 66.2809C54.0876 66.2809 54.0759 66.2809 54.0643 66.2809C51.2619 66.2809 48.4555 65.9671 45.7233 65.3483L39.651 63.9727C41.7022 63.2999 43.6755 62.4079 45.5444 61.2982ZM68.2847 58.19C68.7212 58.3813 69.1155 58.6745 69.4241 59.0375C70.2098 59.9615 70.397 61.2735 69.9009 62.3802L69.4282 63.4342C69.0258 64.3312 68.2152 65.0034 67.2593 65.2336C65.0542 65.7629 62.8005 66.0909 60.5357 66.2169L60.4374 66.0104C59.5167 64.0761 59.4796 61.8083 60.3145 59.8472C60.6458 59.9424 60.9759 60.042 61.303 60.1512L63.0185 60.7229L63.4072 59.5563L61.6918 58.9847C58.6595 57.9743 55.4274 57.525 52.2286 57.6593L54.1795 56.6533C54.5988 56.4371 54.9903 56.1691 55.3426 55.8565L55.8602 55.3975L57.7224 55.451C60.7841 55.539 63.7595 56.2072 66.5659 57.437L68.2847 58.19ZM57.758 54.2222L57.2045 54.2062L58.1087 53.4049C58.4185 53.1301 58.6275 52.7778 58.7225 52.3911L59.0471 54.294C58.6193 54.2597 58.1895 54.2345 57.758 54.2222ZM53.3481 26.4024C53.8582 26.8914 54.2327 27.5083 54.431 28.1868L54.7631 29.3228C55.63 32.2878 56.225 35.3498 56.5325 38.4232L56.7912 41.0112C56.7992 41.0917 56.8097 41.1713 56.8232 41.261L58.4526 50.8121C58.2934 50.5702 58.0822 50.3618 57.8247 50.2041C57.5392 50.0302 57.2118 49.9293 56.8776 49.9133L55.59 49.8522C55.0586 49.8276 54.5458 50.0105 54.1503 50.3698L53.1612 51.2689L51.6784 41.175C51.3326 38.8219 50.7255 36.5031 49.8734 34.2829L48.17 29.8434C47.8909 29.1162 47.8877 28.3137 48.1613 27.5839C48.5385 26.5782 49.389 25.8353 50.4366 25.5967C51.4841 25.357 52.5726 25.6592 53.3481 26.4024ZM40.7179 3.22953C42.6654 3.19696 44.2678 4.7197 44.3788 6.64081C43.2725 5.96519 42.0323 5.6151 40.7515 5.63107C39.4671 5.64891 38.2386 6.03281 37.1529 6.73856C37.2119 4.81622 38.7763 3.25659 40.7179 3.22953ZM36.3454 9.09828C37.5218 7.6782 39.0925 6.88363 40.7684 6.86058C40.7936 6.86028 40.8185 6.85997 40.8437 6.85997C42.4915 6.85997 44.0542 7.60935 45.2511 8.97565C46.4164 10.306 47.0951 12.0672 47.1965 13.9647C45.7066 12.848 42.8711 10.9548 40.768 10.9548C38.6807 10.9548 35.9837 12.8046 34.5443 13.9226C34.6344 12.1044 35.2602 10.4083 36.3454 9.09828ZM34.5925 15.4622C35.8623 14.3855 38.854 12.1844 40.7677 12.1844C42.6858 12.1844 45.8194 14.4046 47.1571 15.4896C46.9764 17.315 46.3411 19.2522 45.3618 20.8628C44.1285 22.8906 42.5407 24.0657 41.0054 24.0866C39.4721 24.1158 37.8508 22.9773 36.5618 20.9839C35.5011 19.3432 34.7966 17.3403 34.5925 15.4622ZM43.1419 24.7737C42.8508 25.7086 41.9776 26.3891 40.9478 26.3891C39.9159 26.3891 39.0412 25.7052 38.7523 24.7671C39.4687 25.1287 40.2108 25.3167 40.9601 25.3167C40.9807 25.3167 41.0016 25.3167 41.0222 25.3165C41.7454 25.3062 42.4573 25.12 43.1419 24.7737ZM37.4212 23.8687V24.0918C37.4212 26.0363 39.0034 27.6186 40.9482 27.6186C42.8929 27.6186 44.475 26.0366 44.475 24.0918V23.8628C44.7593 23.6148 45.0362 23.3372 45.304 23.0293L49.1145 24.7817C48.1549 25.2774 47.4003 26.1128 47.0109 27.1515C46.6319 28.1628 46.6358 29.2748 47.0228 30.283L48.7263 34.7225C49.5458 36.8581 50.1301 39.0888 50.4624 41.3525L50.8681 44.1146L50.263 46.0121C49.8046 47.4497 49.6632 48.9784 49.843 50.4737H32.5217C32.6681 48.8317 32.4311 47.1718 31.8249 45.6325L30.7986 43.0251L31.0442 41.3525C31.3768 39.0888 31.961 36.8581 32.7805 34.7225L34.4841 30.283C34.8709 29.2748 34.875 28.1628 34.496 27.1515C34.1115 26.126 33.3701 25.3005 32.4279 24.8025L36.552 23.0055C36.834 23.3243 37.1234 23.6139 37.4212 23.8687ZM24.6849 41.2514C24.6972 41.1718 24.7073 41.0922 24.7155 41.0117L24.9744 38.4236C25.2817 35.3502 25.8769 32.288 26.7436 29.323L27.0759 28.1868C27.2742 27.5086 27.6485 26.8917 28.1588 26.4026C28.9343 25.6594 30.024 25.3577 31.0699 25.5967C32.1175 25.835 32.968 26.5779 33.3452 27.5839C33.6188 28.3137 33.6156 29.1159 33.3365 29.8434L31.633 34.2829C30.7814 36.5031 30.1739 38.8219 29.8282 41.175L28.342 51.2929C28.2156 51.2523 28.0887 51.2123 27.9587 51.1807L27.4365 51.0538C26.8911 50.9209 26.3062 50.9692 25.7895 51.1883C24.8096 51.6049 24.1988 52.5672 24.1915 53.5911C23.6711 53.5339 23.1489 53.5053 22.6264 53.5057L24.6849 41.2514ZM14.7047 58.4563C14.914 57.5719 15.4893 56.8109 16.283 56.3689C18.2256 55.2863 20.4249 54.7305 22.6303 54.7305C23.8214 54.7305 25.0143 54.8926 26.1694 55.2214L26.5672 55.3872C25.5353 55.419 24.6707 55.4984 24.0609 55.6388L18.5778 56.904L18.8542 58.1022L23.6029 57.0064C22.5159 59.4328 22.3384 62.1562 23.096 64.6994L23.0084 64.6908C20.3607 64.4286 17.8715 63.4011 15.8105 61.7188C14.854 60.9386 14.42 59.6578 14.7047 58.4563ZM22.5454 72.5882C22.5356 72.6285 22.5298 72.6696 22.5283 72.7108C22.5033 73.3835 22.8934 73.9524 23.4547 74.0627L26.0274 74.5721V74.5865L24.3193 74.8493C24.1272 74.8797 23.9444 75.0122 23.8543 75.1849C23.7587 75.3681 23.7553 75.5882 23.8447 75.7723L24.1169 76.338C24.2066 76.5245 24.2118 76.7731 24.13 76.9714C24.0817 77.0885 24.0254 77.1301 24.032 77.1316L19.9359 77.6228L18.1881 76.8774C18.1475 76.8598 18.0728 76.7733 18.0341 76.605C17.981 76.3757 18.0254 76.1212 18.1423 75.9862L19.8599 74.0034C20.0825 73.7461 20.2054 73.3858 20.199 73.0118L20.451 65.4857C20.8774 65.7796 22.184 66.6627 23.7673 67.5805L22.5454 72.5882ZM41.096 67.2239C40.9885 67.1904 40.8732 67.1868 40.7637 67.2138C40.685 67.2332 32.8445 69.162 29.9026 68.8598C28.2043 68.6855 25.4536 67.1836 23.4611 65.9662C24.4934 66.0559 25.5267 66.1035 26.5599 66.1035C28.91 66.1032 31.2559 65.8711 33.568 65.4085L36.2194 64.8783C36.5355 64.815 36.8484 64.7424 37.1613 64.6693L45.4509 66.547C48.2727 67.1864 51.17 67.5104 54.0636 67.5104H54.1002L58.4761 67.5064C58.5534 67.5064 58.631 67.5034 58.7083 67.5027C55.7646 68.4209 52.2563 69.4097 50.7965 69.4097C48.0769 69.41 41.1655 67.2458 41.096 67.2239ZM61.7988 73.0278C61.7959 73.3961 61.9187 73.7502 62.1381 74.0041L63.8551 75.9866C63.9719 76.1212 64.0165 76.376 63.9633 76.6054C63.9246 76.7735 63.8498 76.8602 63.8093 76.8776L62.0649 77.6197L57.9833 77.1347C57.9719 77.1304 57.9157 77.0892 57.8674 76.9721C57.7857 76.7738 57.7908 76.5254 57.8807 76.3385L58.1517 75.7746C58.2418 75.5889 58.2384 75.3685 58.1428 75.1853C58.0525 75.0122 57.8686 74.8795 57.6755 74.8496L55.969 74.5868C55.969 74.5819 55.969 74.5773 55.969 74.573L58.5418 74.0634C59.104 73.9531 59.494 73.384 59.4691 72.7115C59.4673 72.6617 59.4593 72.6119 59.4455 72.5639L58.3853 68.8908C59.4821 68.5561 60.5238 68.2216 61.3974 67.9346L61.7988 73.0278Z" fill="#3D493A"/>
</svg>
