<svg width="81" height="81" viewBox="0 0 81 81" fill="none" xmlns="http://www.w3.org/2000/svg">
<path d="M74.9092 43.8515C73.1333 39.8819 67.5118 39.6259 65.1762 39.7C64.2457 39.7295 63.4748 40.4185 63.3435 41.3381L63.2014 42.3333L61.9827 42.1183C61.8785 40.5565 61.4407 34.9972 60.3605 32.5231C60.0046 31.7085 59.7577 30.8491 59.6264 29.9693C59.3163 27.8896 58.863 25.437 58.7554 24.8613C58.9444 24.2184 59.6728 21.3541 58.9845 17.453C58.3269 13.7267 58.8534 11.4657 58.9531 11.0906L60.0364 9.35738C60.3371 8.87624 60.5038 8.34715 60.5475 7.81413C60.5796 7.42482 60.6586 7.04045 60.8194 6.6846C61.0218 6.23658 61.3084 5.79385 61.6289 5.72028C61.7824 5.68496 61.9215 5.59297 61.9725 5.44396C62.1307 4.98331 61.7493 4.63445 61.3724 4.72866C60.8123 4.86878 60.4016 5.32859 60.1128 5.81825C59.901 5.44362 59.6175 5.10245 59.2632 4.81895L59.0413 4.64145L59.6073 1.69781C59.6542 1.45358 59.5319 1.19791 59.3008 1.10592C58.9908 0.982858 58.665 1.17453 58.6056 1.48379L58.025 4.50338L57.6563 4.68771L57.1972 1.05744C57.1615 0.776683 56.9029 0.577164 56.6249 0.613688C56.3442 0.649018 56.1455 0.905201 56.181 1.18596L56.6852 5.1731L56.3754 5.32807L54.8113 1.64918C54.7144 1.42132 54.4715 1.27779 54.2295 1.33001C53.9037 1.40016 53.7378 1.74151 53.8613 2.03234L55.4575 5.7872L54.8548 6.0886L52.8504 3.52746C52.6557 3.27878 52.2773 3.25864 52.0582 3.50971C51.8953 3.69642 51.9032 3.97854 52.0559 4.17362L54.2423 6.96724L55.0697 10.0411C54.9339 11.2802 53.7465 22.3227 54.3199 24.7574C54.0588 30.0366 54.1648 33.6395 54.6348 35.4802C53.0808 36.7681 46.5506 39.7094 43.9897 40.8084C43.1271 41.0203 32.7937 43.6467 28.9174 48.6485C25.3173 53.2938 22.6466 57.3485 22.2752 57.9168C21.9147 58.2101 19.9499 59.7758 18.3234 60.4264C16.3342 61.2221 10.6787 66.5892 8.54984 70.5157C6.46572 72.5099 5.01874 75.5687 5.01874 77.0935C5.01874 78.2686 6.47272 79.4226 8.13015 79.563C8.57868 79.6009 9.01629 79.4492 9.32982 79.1464C9.64676 78.8402 9.81539 78.4023 9.79252 77.9449L9.65496 75.1931C9.62577 74.6104 9.8287 74.04 10.2192 73.6065L10.2608 73.5602C11.1694 72.5507 12.2134 71.6661 13.3636 70.931C15.6849 69.4476 18.6031 67.4555 19.5816 66.2362C21.5278 65.5003 28.251 61.0593 32.3053 57.3852C34.7078 55.2077 37.0855 55.6013 38.6571 56.3145C40.0268 56.9361 41.5581 57.4335 43.2085 57.7931C46.1132 58.426 50.3453 59.2066 54.222 59.3881C54.5236 60.1942 55.3389 62.3153 56.0776 63.716C56.1003 63.9403 56.1264 64.1514 56.1554 64.3474C56.2329 64.87 56.2278 65.3799 56.1399 65.8635C55.6244 68.7021 56.032 75.1989 56.2312 77.8604C56.3052 78.8539 57.0393 79.6876 58.0159 79.8882L60.6392 80.4263C61.2343 80.5483 61.8402 80.6098 62.4478 80.6098C62.6653 80.6098 62.8832 80.6019 63.1007 80.5861C63.8986 80.5284 65.0552 80.4007 66.0358 80.1205C66.1805 80.0792 66.2995 79.9762 66.3616 79.8394C66.4235 79.7023 66.4222 79.5449 66.3578 79.4091C65.8004 78.2325 64.3282 77.4549 62.8339 76.9509C62.8982 76.9628 62.9631 76.9751 63.0298 76.9884C64.1199 77.2064 65.38 77.277 66.5555 77.277C67.2993 77.277 68.0093 77.2487 68.6205 77.2116C69.1019 77.1825 69.5237 76.8389 69.6013 76.3627C69.6793 75.8846 69.4165 75.4281 68.9651 75.2547C65.8595 74.0618 63.6135 72.7746 62.6407 71.6302C61.1888 69.9221 60.944 63.8565 60.9768 60.5676C60.9824 59.9958 61.0737 59.4292 61.2487 58.8849C62.0037 56.5424 62.9291 50.3348 63.1903 48.521C64.0056 48.6712 64.6069 49.1006 65.2865 49.5858C66.1875 50.2293 67.1993 50.9482 68.8531 51.0835C68.5737 51.9456 68.3211 53.1342 68.3211 54.6191C68.3211 58.128 70.2885 61.4245 70.3724 61.5631C70.4661 61.7183 70.6332 61.8104 70.8104 61.8104C70.8377 61.8104 70.8652 61.8082 70.8925 61.804C71.0988 61.7703 71.2641 61.6149 71.31 61.4111C71.3552 61.2105 72.4142 56.4751 72.2755 54.313C72.2036 53.1985 71.8017 51.9275 71.404 50.9077C73.0055 50.571 74.2775 49.8219 74.9639 48.7629C75.8052 47.465 75.7866 45.8129 74.9092 43.8515ZM54.8523 36.5852C54.8926 36.9781 54.9006 37.4172 54.8082 37.7407C54.7306 38.0125 54.8881 38.296 55.1598 38.3737C55.2068 38.3872 55.2542 38.3935 55.3008 38.3935C55.5235 38.3935 55.7285 38.2469 55.7929 38.0219C56.0038 37.2834 55.8722 36.3266 55.7775 35.8315C55.7461 35.6676 55.6118 35.1773 55.5688 34.9781C55.2728 33.6059 55.0467 30.7339 55.3467 24.7315C55.3496 24.6767 55.3433 24.6217 55.3288 24.5688C54.835 22.7912 55.7169 13.4911 56.0984 10.0576C56.1055 9.99415 56.1006 9.92982 56.0839 9.86802L55.3129 7.00427L58.4162 5.45266L58.6235 5.61857C59.5895 6.39138 59.8235 7.76532 59.1678 8.81446L58.046 10.6095C58.0231 10.646 58.005 10.6854 57.992 10.7267C57.9596 10.8291 57.209 13.2843 57.976 17.631C58.6959 21.7109 57.7524 24.6412 57.7432 24.6695C57.7155 24.7523 57.7096 24.8409 57.7258 24.9265C57.7311 24.9547 58.2641 27.7785 58.6134 30.1202C58.7578 31.0891 59.0297 32.0355 59.4218 32.9327C60.1804 34.6702 60.6127 38.2155 60.8228 40.4907C58.5786 40.9367 56.8212 40.7124 55.5944 39.8222C54.4375 38.9825 54.0501 37.7376 53.9286 37.1655C54.2768 36.9614 54.5881 36.7664 54.8523 36.5852ZM44.273 41.7933C44.3008 41.7867 44.3281 41.7776 44.3546 41.7662C45.0757 41.4571 49.8551 39.3947 53.0001 37.6881C53.2135 38.4773 53.7332 39.73 54.9793 40.6408C55.9784 41.3711 57.2387 41.7372 58.7444 41.7372C59.4177 41.7372 60.141 41.6626 60.9111 41.516C60.9254 41.6991 60.9377 41.8631 60.9478 42.0041C60.048 41.9841 58.368 42.0997 57.2941 43.1082C56.5838 43.775 56.2614 44.6984 56.336 45.8528C56.5425 49.0532 56.741 51.0559 57.7553 51.8799C58.0649 52.1313 58.4332 52.2578 58.8539 52.2578C58.9598 52.2578 59.0691 52.2497 59.1815 52.2337C60.1691 52.0927 61.1128 51.4244 61.8128 50.7874C61.7622 51.1089 61.7085 51.4465 61.652 51.7942C60.0217 52.0332 57.2064 53.2854 56.201 53.7501L55.4495 52.9987C55.3056 52.8548 55.0902 52.8097 54.9009 52.884C54.8752 52.894 52.2882 53.8734 50.1611 51.858C49.9556 51.6631 49.6313 51.6723 49.4373 51.8777C49.3144 52.0074 49.2731 52.1845 49.3108 52.3463C46.3639 52.6174 44.0173 53.4127 42.4036 53.9608C42.2174 54.0241 42.0395 54.0845 41.8704 54.1408C41.4632 54.2767 41.0175 54.27 40.6156 54.1222C35.3317 52.177 34.5769 46.888 34.4703 45.5519C38.9105 43.1116 44.1974 41.8116 44.273 41.7933ZM12.8125 70.0679C11.5846 70.8526 10.4701 71.7972 9.49998 72.8748L9.45834 72.921C8.88282 73.5604 8.5896 74.3858 8.63261 75.245L8.77018 77.9957C8.77837 78.1603 8.72461 78.3074 8.61862 78.4096C8.51621 78.5084 8.37319 78.5557 8.21685 78.5424C6.97655 78.4373 6.04313 77.5909 6.04313 77.0934C6.04313 75.9466 7.31688 73.0818 9.31309 71.2032C9.35372 71.165 9.38785 71.1204 9.41396 71.0713C10.6951 68.6694 13.4281 65.6781 15.6755 63.6438C15.9848 64.4875 16.6216 65.7885 17.7788 66.5646C16.7141 67.4577 15.0031 68.6682 12.8125 70.0679ZM55.9847 61.0608C55.4725 59.8328 55.0721 58.7339 55.0655 58.7159C54.9945 58.5202 54.8118 58.387 54.6036 58.379C50.7105 58.2322 46.3769 57.4352 43.4268 56.7924C41.8468 56.4482 40.3847 55.9735 39.0807 55.3818C37.5653 54.6942 34.5807 53.9413 31.6179 56.626C27.6871 60.1883 20.6604 64.8389 19.1175 65.3137C19.0102 65.3467 18.9168 65.4141 18.8515 65.5056C18.7794 65.6063 18.6827 65.7199 18.5634 65.8452C17.3092 65.1531 16.7124 63.5696 16.5118 62.9116C17.4476 62.1224 18.2367 61.5642 18.7043 61.3773C20.6425 60.6019 22.8944 58.7351 22.9893 58.6559C23.0289 58.6229 23.0634 58.584 23.0914 58.5407C23.119 58.498 25.8906 54.2263 29.7272 49.2757C30.6511 48.0836 31.9999 47.0257 33.5085 46.1077C33.785 48.1097 34.9983 53.1458 40.2614 55.0833C40.585 55.2024 40.9269 55.262 41.2691 55.262C41.5818 55.262 41.8946 55.2121 42.1938 55.1125C42.3647 55.0556 42.5444 54.9945 42.7325 54.9305C44.572 54.3059 47.0818 53.4556 50.3494 53.3006C52.2404 54.5069 54.1858 54.1553 54.9456 53.9435L56.8652 55.8631C56.2772 57.3004 56.0265 59.26 55.9847 61.0608ZM61.8605 72.2931C63.2352 73.9103 66.237 75.2994 68.5438 76.19C67.0288 76.2815 64.898 76.3173 63.2307 75.9838C62.5439 75.8466 60.4987 75.5018 59.43 76.0077C59.5733 74.5252 59.937 70.7557 60.2792 67.1732C60.5467 69.3097 61.0227 71.3075 61.8605 72.2931ZM60.2743 58.5707C60.0726 59.1966 59.9389 59.8579 59.877 60.5364C59.5103 64.5472 58.3593 76.4428 58.3477 76.5624C58.3207 76.842 58.5238 77.091 58.8031 77.1209C60.1951 77.2697 63.7067 77.9324 65.0447 79.3053C64.3304 79.4477 63.5864 79.524 63.0271 79.5644C62.2961 79.6177 61.5619 79.5697 60.8454 79.4227L58.2223 78.8846C57.6918 78.7757 57.2933 78.3231 57.2527 77.7836C57.0565 75.1615 56.6534 68.7685 57.148 66.0461C57.2557 65.4523 57.2627 64.8302 57.1689 64.1968C57.1386 63.9937 57.1117 63.7732 57.0886 63.5389C57.0878 63.5225 57.0862 63.5063 57.084 63.4901C56.8756 61.3052 56.9995 57.9382 57.9374 55.9688C58.0306 55.773 57.9905 55.5398 57.837 55.3866L56.9739 54.5235C58.2083 53.9683 60.2176 53.1338 61.474 52.865C61.1048 55.0434 60.6607 57.3719 60.2743 58.5707ZM71.2538 54.3782C71.3386 55.6986 70.9123 58.1904 70.6052 59.7654C70.0528 58.542 69.3453 56.5903 69.3453 54.6187C69.3453 53.0714 69.6416 51.8852 69.9321 51.0943C70.0782 51.0871 70.2228 51.0774 70.3653 51.0642C70.7602 52.0427 71.185 53.3112 71.2538 54.3782ZM74.1051 48.2054C73.2074 49.5905 71.0934 50.0839 69.4146 50.0839C67.7464 50.0839 66.8408 49.437 65.882 48.7524C65.0269 48.1418 64.1428 47.5103 62.7779 47.4452C62.518 47.4323 62.2831 47.6238 62.2464 47.8861C62.2439 47.9044 62.1838 48.3336 62.0828 49.0153C61.5735 49.6543 60.2415 51.0478 59.0364 51.2201C58.6788 51.2709 58.5022 51.1677 58.4006 51.0852C57.6606 50.4839 57.4996 47.9887 57.3576 45.787C57.303 44.9418 57.5107 44.3104 57.9927 43.8568C59.0917 42.8222 61.255 43.0403 61.4219 43.0591L63.5443 43.4335C63.6813 43.4576 63.8214 43.4253 63.9337 43.3439C64.046 43.2625 64.1204 43.1391 64.1401 43.0017L64.3572 41.4829C64.4179 41.0565 64.7762 40.7372 65.2087 40.7235C67.3392 40.6556 72.452 40.8662 73.9744 44.2697C74.7009 45.8938 74.745 47.2179 74.1051 48.2054Z" fill="#3D493A"/>
</svg>
