<svg width="81" height="81" viewBox="0 0 81 81" fill="none" xmlns="http://www.w3.org/2000/svg">
<path d="M77.658 68.1385L72.2727 66.8159C72.2459 66.8095 72.2187 66.8045 72.1912 66.8017L67.4349 66.2958L64.0135 59.5569C64.0028 59.5354 63.9905 59.5141 63.977 59.4942L57.5543 49.8604L55.6289 38.4167C55.0501 34.5831 53.1898 30.9944 50.3909 28.312L50.2857 28.2112C49.7419 27.6899 49.0639 27.3545 48.3339 27.2312C46.911 26.9261 45.3013 26.8632 43.7377 26.8053C43.4516 26.7944 43.1687 26.7834 42.888 26.7714V25.7712C43.4189 25.7457 43.9491 25.644 44.4499 25.4205C46.4546 24.5263 47.5252 21.8411 47.8236 20.9798L49.2904 20.2689C49.572 20.1324 49.7063 19.8066 49.6024 19.5115L48.7672 17.1385C48.7958 16.509 48.9019 13.6879 48.605 11.9709C48.3194 10.319 47.0045 8.5839 45.4786 7.84528C43.1128 6.69938 40.1383 6.59363 37.9011 7.5754C35.1415 8.78647 33.6689 11.2676 33.2514 13.9132C31.4724 14.1747 30.1 15.708 30.1 17.5578C30.1 19.5916 31.7545 21.2463 33.7885 21.2463C34.1069 21.2463 34.4187 21.2015 34.7227 21.1215C35.2234 21.9296 35.8301 22.6446 36.5143 23.2465V26.851H35.4265C35.3991 26.851 35.3737 26.859 35.3469 26.8627L35.346 26.8563L33.2937 27.1267C33.2813 27.1283 33.2693 27.1304 33.2576 27.1326C32.0921 27.3573 30.7194 28.0442 29.1772 29.1747C26.9398 30.8146 25.007 32.9005 23.4327 35.3746L19.8929 40.9372L13.7656 44.1902C13.7444 44.2015 13.7242 44.2138 13.7042 44.2277L9.21308 47.3334C6.76237 49.0282 4.61995 51.1015 2.84576 53.4956C1.82712 54.8706 1.49946 56.6733 1.96882 58.3181C2.13788 58.9098 2.40192 59.4656 2.75387 59.97L4.88398 63.021C5.01278 63.2054 5.17292 63.3619 5.35428 63.4861L5.57866 63.7832C6.81708 66.0892 9.04864 67.7371 10.9452 68.8024L8.4348 69.0505C7.64853 69.167 6.98645 69.6702 6.66371 70.3965C6.26595 71.2916 6.47804 72.3434 7.19115 73.0147L7.86739 73.651C8.12528 73.8938 8.44095 74.0764 8.77999 74.1794L10.8978 74.8211C11.2827 74.9377 11.6758 74.9958 12.0686 74.9958C12.5229 74.9958 12.9763 74.9181 13.4143 74.7628L20.2479 72.341C20.8065 72.143 21.2841 71.7551 21.5927 71.2486L21.9971 70.5843C22.2551 70.1613 22.3808 69.6846 22.3728 69.2015L26.1554 71.4594C29.3005 73.3368 32.741 74.4938 36.3806 74.8984L36.5383 74.9158C36.904 74.9565 37.272 74.9767 37.6399 74.9767C38.8726 74.9767 40.1044 74.7502 41.2556 74.3076C44.5185 73.0525 46.859 70.2539 47.5175 66.8208C47.8774 64.9452 48.0117 63.0263 47.9174 61.1167L47.3279 49.2167L48.2693 40.3267C48.3929 40.5241 48.4922 40.7371 48.5564 40.9599L52.0479 53.077C52.0691 53.1505 52.1039 53.219 52.1499 53.2799L65.7905 71.1425C65.9069 71.295 66.0876 71.3842 66.2791 71.3842H77.2642C78.1718 71.3842 78.9102 70.6455 78.9102 69.7377C78.9118 68.9773 78.3962 68.3199 77.658 68.1385ZM37.7444 24.164C38.1653 24.4295 38.6137 24.6775 39.072 24.8905C39.7043 25.1844 40.6403 25.5468 41.6594 25.7032V28.3036C41.6594 29.3829 40.7817 30.261 39.7021 30.261C38.6226 30.261 37.7444 29.3829 37.7444 28.3036V24.164ZM38.3961 8.70132C39.266 8.31956 40.2686 8.13082 41.2962 8.13082C42.5389 8.13082 43.8185 8.40685 44.9438 8.95183C45.4042 9.17468 45.8509 9.53462 46.2366 9.96433C43.8114 10.8333 37.197 13.2816 34.3661 15.112C34.482 12.4805 35.7246 9.87366 38.3961 8.70132ZM33.7888 20.0168C32.433 20.0168 31.3297 18.9136 31.3297 17.5578C31.3297 16.4306 32.0942 15.4799 33.1311 15.1912C33.0988 16.2053 33.2128 17.2179 33.4618 18.1679C33.6284 18.8029 33.8546 19.4109 34.1229 19.9916C34.0129 20.0063 33.9017 20.0168 33.7888 20.0168ZM34.6513 17.8559C34.5434 17.4444 34.4647 17.0196 34.415 16.5884C36.1473 15.0512 43.6024 12.2048 46.9716 11.0073C47.1788 11.3942 47.3275 11.7954 47.3943 12.1802C47.6992 13.9443 47.5359 17.1646 47.5345 17.1969C47.5301 17.2771 47.5414 17.357 47.5682 17.4329L48.261 19.4015L47.0534 19.9867C46.8979 20.0619 46.7813 20.1991 46.7321 20.3648C46.4754 21.2278 45.4756 23.6164 43.9498 24.2971C42.8985 24.7654 41.3101 24.5752 39.5899 23.7758C38.8285 23.4217 38.093 22.9676 37.5189 22.4971C36.1633 21.3856 35.145 19.7373 34.6513 17.8559ZM36.5149 28.0806V28.3036C36.5149 30.061 37.9446 31.4905 39.7021 31.4905C41.4594 31.4905 42.889 30.061 42.889 28.3036V28.0019C43.1543 28.0131 43.4223 28.0234 43.6925 28.0335C44.2122 28.0529 44.7369 28.0735 45.2562 28.1023C45.0096 28.319 44.7873 28.5674 44.6013 28.8492C43.0172 31.2512 43.2259 34.4484 45.1095 36.6238L47.1733 39.0078L46.1012 49.1337C46.0977 49.1654 46.0968 49.197 46.0987 49.229L46.3547 54.3966C44.9039 54.4956 42.9699 54.4716 41.1099 53.9641C38.2012 53.171 34.8055 51.7009 33.743 51.2276C33.6219 48.9463 32.9362 46.7307 31.7303 44.78C30.7137 43.1355 30.3935 41.1154 30.8514 39.2374C31.0356 38.4825 31.3377 37.7659 31.749 37.1078C31.7634 37.0842 31.7767 37.06 31.7881 37.0348L35.8239 28.0806H36.5149ZM9.11811 52.8284L14.467 51.3962C14.7788 51.3129 15.0874 51.2173 15.3951 51.1194C15.1516 52.0252 15.2072 52.9891 15.5644 53.8611L15.9665 54.8429L13.3037 53.9309C11.9678 53.4736 10.5523 53.3592 9.16852 53.5857L9.11811 52.8284ZM17.5116 55.3725L16.9011 53.8815C17.7557 54.2377 19.0104 54.7363 20.5627 55.284C20.8602 55.7558 21.2276 56.2716 21.6723 56.7975L17.5116 55.3725ZM24.4396 57.7455C21.6379 55.6033 20.6475 52.7401 20.6377 52.7112L20.0549 52.9061L19.4715 53.1001C19.482 53.1317 19.552 53.3368 19.6941 53.6601C18.1331 53.0764 16.9974 52.5911 16.4777 52.3617C16.4623 51.9923 16.5124 51.6201 16.6314 51.2642C16.687 51.0972 16.9217 50.7877 17.0773 50.5827C17.1109 50.5387 17.137 50.5025 17.1671 50.4615C18.0533 50.0884 18.917 49.659 19.7469 49.1678C20.1397 49.1847 20.5231 49.2661 20.8879 49.4187L28.2444 52.4905C28.9307 52.7771 30.1752 53.445 30.5398 53.6427C30.652 53.7038 30.7624 53.768 30.8706 53.8357L32.5393 54.8779V59.6722L26.416 58.4226L24.4396 57.7455ZM32.539 53.4281L31.5213 52.7924C31.3919 52.7115 31.2604 52.6348 31.1257 52.5619C30.6412 52.2993 29.437 51.6563 28.7177 51.356L21.3616 48.2844C21.3068 48.2617 21.2505 48.245 21.1953 48.2242C21.7215 47.852 22.2354 47.4619 22.7259 47.0427L29.424 40.7213C29.381 42.3669 29.8129 44.0152 30.6855 45.4268C31.8984 47.3888 32.5396 49.6451 32.5396 51.952L32.539 53.4281ZM3.76329 59.2655C3.48941 58.8732 3.28378 58.4408 3.15253 57.98C2.78706 56.6998 3.04187 55.2969 3.83491 54.2272C5.52856 51.9415 7.57384 49.9624 9.91359 48.344L14.3751 45.2587L20.6137 41.9467C20.7074 41.8968 20.7868 41.8234 20.8442 41.7335L24.4712 36.0343C25.9633 33.6895 27.7915 31.7153 29.9053 30.1661C31.2917 29.1499 32.4926 28.5367 33.4744 28.3427L34.4137 28.2188L30.6842 36.4922C30.2487 37.197 29.925 37.9599 29.7105 38.7598L21.904 46.1279C19.6698 48.037 16.9882 49.4482 14.1489 50.2083L8.31185 51.771C8.02815 51.8469 7.83788 52.1128 7.85724 52.4057L8.20182 57.5724L6.47835 56.9798C6.25766 56.9042 6.01391 56.9595 5.84791 57.1228C5.68163 57.2859 5.622 57.5291 5.69392 57.7505L6.99475 61.7693C7.05376 61.9523 7.02641 62.1486 6.91883 62.3078C6.81125 62.4674 6.63972 62.5667 6.44792 62.5809C6.2306 62.5949 6.0179 62.4954 5.89341 62.3165L3.76329 59.2655ZM20.9485 69.944L20.5439 70.6083C20.3819 70.8739 20.1314 71.0773 19.8385 71.1813L13.0049 73.6033C12.4375 73.8044 11.8326 73.8185 11.2559 73.644L9.13808 73.0021C8.97948 72.9541 8.83194 72.8688 8.71144 72.7553L8.03522 72.1187C7.70201 71.8049 7.60305 71.3133 7.7887 70.8951C7.93963 70.5557 8.24915 70.3206 8.58666 70.2698L13.9618 69.739C14.5331 69.6828 15.0954 69.5518 15.6332 69.3499L19.3128 67.9679C19.7021 67.8219 20.1292 67.8604 20.4853 68.0731C20.7985 68.26 21.0192 68.5581 21.1068 68.9119C21.1944 69.2663 21.1381 69.6327 20.9485 69.944ZM15.2011 68.1987C14.7634 68.3632 14.3057 68.4695 13.841 68.5157L13.233 68.5756C12.1522 68.0948 10.6365 67.3073 9.25551 66.194C10.3522 66.3889 11.634 66.5794 12.4495 66.5794C13.825 66.5794 15.8528 65.9752 16.5818 65.7428L18.5739 66.9321L15.2011 68.1987ZM46.3116 66.5884C45.7338 69.6016 43.6792 72.0579 40.8158 73.1592C39.5042 73.6636 38.0731 73.8492 36.6757 73.6931L36.5181 73.6756C33.0538 73.2908 29.78 72.1897 26.7868 70.4033L21.1162 67.0184C21.116 67.0181 21.1166 67.0187 21.1162 67.0184C21.116 67.018 21.1148 67.0175 21.1144 67.0172L14.3696 62.9908L13.7395 64.0467L15.1411 64.8834C14.2996 65.1099 13.2259 65.3503 12.4491 65.3503C11.1588 65.3503 8.40131 64.7874 7.63778 64.6264C7.39771 64.3393 7.17363 64.0385 6.97138 63.7228C7.36237 63.5973 7.70263 63.3456 7.93839 62.9952C8.25837 62.5206 8.34075 61.9356 8.16431 61.3912L7.24249 58.5431L8.21472 58.8773C8.51319 58.9802 8.84085 58.9267 9.09136 58.735C9.34187 58.5431 9.47897 58.2409 9.45775 57.9265L9.25059 54.8168C10.4712 54.5964 11.7244 54.6901 12.9056 55.0946L26.0546 59.5986C26.0795 59.6072 26.1049 59.6141 26.1308 59.6192L32.3447 60.8871C33.635 61.1503 34.8714 61.6113 36.0197 62.2572L37.6701 63.1855L38.2728 62.1139L36.6225 61.1856C35.7166 60.6764 34.7604 60.2736 33.7686 59.9792V52.5834C35.2021 53.208 38.1452 54.4301 40.7869 55.1506C42.2398 55.5468 43.7227 55.6726 45.0188 55.6726C45.5177 55.6726 45.985 55.6529 46.4162 55.6239L46.6913 61.1773C46.7804 62.9881 46.6529 64.8087 46.3116 66.5884ZM77.2657 70.154H66.5847L53.1987 52.6249L49.7392 40.619C49.5914 40.1042 49.3274 39.6179 48.9766 39.2125L46.039 35.819C44.5148 34.0581 44.3456 31.4706 45.6281 29.5261C46.0909 28.824 46.8693 28.4051 47.7099 28.4051C47.8399 28.4051 47.9678 28.4177 48.0941 28.4374C48.2162 28.4638 48.3385 28.49 48.4559 28.5204C48.8189 28.6341 49.1543 28.829 49.4356 29.0985L49.5406 29.1994C52.1447 31.695 53.8753 35.0333 54.415 38.61L56.3638 50.1935C56.3783 50.279 56.4105 50.3604 56.4588 50.4324L62.9339 60.1455L66.4897 67.1497C66.584 67.3354 66.7658 67.4608 66.9726 67.4825L72.0197 68.0196L77.3648 69.3324C77.5512 69.3781 77.682 69.5448 77.682 69.7372C77.6823 69.9671 77.4954 70.154 77.2657 70.154Z" fill="#3D493A"/>
</svg>
