<svg width="60" height="61" viewBox="0 0 60 61" fill="none" xmlns="http://www.w3.org/2000/svg">
<rect y="0.804688" width="36" height="36" rx="18" fill="#AEA17E"/>
<path d="M58.0185 51.4515L53.9795 50.4596C53.9595 50.4548 53.939 50.451 53.9184 50.449L50.3512 50.0695L47.7852 45.0153C47.7771 44.9992 47.7679 44.9833 47.7577 44.9683L42.9407 37.7429L41.4967 29.1602C41.0626 26.285 39.6674 23.5935 37.5681 21.5817L37.4893 21.506C37.0815 21.1151 36.5729 20.8635 36.0255 20.7711C34.9582 20.5422 33.751 20.4951 32.5783 20.4516C32.3637 20.4435 32.1515 20.4352 31.941 20.4262V19.676C32.3392 19.657 32.7369 19.5806 33.1124 19.413C34.616 18.7424 35.4189 16.7285 35.6427 16.0825L36.7428 15.5493C36.954 15.4469 37.0547 15.2026 36.9768 14.9813L36.3504 13.2015C36.3719 12.7294 36.4515 10.6136 36.2288 9.32582C36.0145 8.08694 35.0284 6.78558 33.884 6.23161C32.1096 5.37219 29.8787 5.29288 28.2009 6.02921C26.1312 6.93751 25.0267 8.79836 24.7136 10.7826C23.3793 10.9787 22.35 12.1286 22.35 13.516C22.35 15.0414 23.5909 16.2824 25.1164 16.2824C25.3552 16.2824 25.589 16.2488 25.817 16.1888C26.1925 16.7949 26.6476 17.3311 27.1607 17.7825V20.4859H26.3449C26.3243 20.4859 26.3053 20.4919 26.2852 20.4947L26.2845 20.4899L24.7453 20.6927C24.736 20.6939 24.727 20.6955 24.7182 20.6971C23.8441 20.8656 22.8145 21.3808 21.6579 22.2287C19.9799 23.4586 18.5302 25.023 17.3495 26.8786L14.6947 31.0506L10.0992 33.4903C10.0833 33.4988 10.0681 33.508 10.0531 33.5184L6.68482 35.8477C4.84678 37.1188 3.23997 38.6738 1.90933 40.4694C1.14535 41.5006 0.899602 42.8527 1.25163 44.0862C1.37842 44.53 1.57645 44.9469 1.84041 45.3252L3.43799 47.6134C3.53459 47.7517 3.6547 47.8691 3.79072 47.9622L3.959 48.1851C4.88782 49.9146 6.56149 51.1505 7.98388 51.9495L6.10111 52.1355C5.51141 52.2229 5.01484 52.6003 4.77279 53.145C4.47447 53.8163 4.63354 54.6052 5.16838 55.1087L5.67555 55.5859C5.86897 55.768 6.10572 55.9049 6.36 55.9822L7.94837 56.4635C8.237 56.551 8.53185 56.5945 8.82648 56.5945C9.1672 56.5945 9.50723 56.5362 9.83575 56.4197L14.9609 54.6034C15.3799 54.4549 15.7381 54.1639 15.9695 53.7841L16.2729 53.2859C16.4663 52.9687 16.5606 52.6111 16.5546 52.2488L19.3916 53.9422C21.7504 55.3503 24.3308 56.218 27.0605 56.5215L27.1787 56.5345C27.453 56.565 27.729 56.5802 28.0049 56.5802C28.9294 56.5802 29.8533 56.4103 30.7167 56.0783C33.1639 55.137 34.9193 53.0381 35.4132 50.4632C35.6831 49.0566 35.7838 47.6174 35.7131 46.1852L35.2709 37.2602L35.977 30.5927C36.0697 30.7407 36.1442 30.9005 36.1923 31.0676L38.8109 40.1554C38.8269 40.2105 38.8529 40.2619 38.8875 40.3076L49.1179 53.7045C49.2052 53.8189 49.3407 53.8858 49.4843 53.8858H57.7231C58.4039 53.8858 58.9577 53.3318 58.9577 52.651C58.9588 52.0807 58.5722 51.5876 58.0185 51.4515ZM28.0833 18.4706C28.399 18.6698 28.7353 18.8558 29.079 19.0155C29.5532 19.236 30.2552 19.5077 31.0196 19.6251V21.5754C31.0196 22.3848 30.3613 23.0434 29.5516 23.0434C28.742 23.0434 28.0833 22.3848 28.0833 21.5754V18.4706ZM28.5721 6.87364C29.2245 6.58733 29.9765 6.44577 30.7471 6.44577C31.6792 6.44577 32.6389 6.65279 33.4828 7.06153C33.8282 7.22867 34.1632 7.49862 34.4525 7.82091C32.6336 8.47262 27.6728 10.3088 25.5496 11.6817C25.6365 9.70804 26.5685 7.7529 28.5721 6.87364ZM25.1166 15.3603C24.0997 15.3603 23.2723 14.5329 23.2723 13.516C23.2723 12.6706 23.8457 11.9576 24.6233 11.7411C24.5991 12.5016 24.6846 13.2611 24.8714 13.9736C24.9963 14.4498 25.166 14.9058 25.3672 15.3414C25.2847 15.3524 25.2013 15.3603 25.1166 15.3603ZM25.7635 13.7396C25.6825 13.4309 25.6235 13.1123 25.5862 12.7889C26.8855 11.636 32.4768 9.50126 35.0037 8.6031C35.1591 8.89334 35.2706 9.19419 35.3207 9.48282C35.5494 10.8059 35.4269 13.2211 35.4259 13.2453C35.4226 13.3055 35.4311 13.3654 35.4511 13.4224L35.9708 14.8988L35.0651 15.3376C34.9484 15.3941 34.861 15.497 34.8241 15.6212C34.6316 16.2685 33.8817 18.06 32.7374 18.5705C31.9489 18.9217 30.7576 18.7791 29.4675 18.1795C28.8964 17.9139 28.3448 17.5734 27.9142 17.2205C26.8975 16.3869 26.1337 15.1507 25.7635 13.7396ZM27.1612 21.4081V21.5754C27.1612 22.8934 28.2334 23.9655 29.5516 23.9655C30.8696 23.9655 31.9417 22.8934 31.9417 21.5754V21.3491C32.1407 21.3575 32.3418 21.3652 32.5444 21.3728C32.9342 21.3873 33.3277 21.4028 33.7171 21.4244C33.5322 21.5869 33.3655 21.7732 33.226 21.9846C32.0379 23.786 32.1944 26.184 33.6072 27.8155L35.155 29.6035L34.3509 37.1979C34.3483 37.2217 34.3476 37.2454 34.349 37.2694L34.541 41.1451C33.4529 41.2194 32.0024 41.2014 30.6075 40.8207C28.4259 40.2259 25.8792 39.1233 25.0822 38.7683C24.9915 37.0574 24.4771 35.3956 23.5727 33.9326C22.8103 32.6993 22.5701 31.1842 22.9136 29.7757C23.0517 29.2096 23.2783 28.6721 23.5868 28.1785C23.5976 28.1608 23.6075 28.1426 23.6161 28.1237L26.6429 21.4081H27.1612ZM6.61359 39.9689L10.6253 38.8948C10.8591 38.8324 11.0905 38.7607 11.3213 38.6872C11.1387 39.3666 11.1804 40.0895 11.4483 40.7435L11.7499 41.4798L9.75275 40.7958C8.75086 40.4529 7.68925 40.3671 6.6514 40.537L6.61359 39.9689ZM12.9087 41.877L12.4509 40.7588C13.0918 41.0259 14.0328 41.3999 15.197 41.8106C15.4202 42.1645 15.6957 42.5514 16.0292 42.9458L12.9087 41.877ZM18.1047 43.6568C16.0035 42.0501 15.2606 39.9027 15.2533 39.8811L14.8161 40.0273L14.3786 40.1727C14.3865 40.1964 14.439 40.3503 14.5456 40.5927C13.3749 40.1549 12.5231 39.791 12.1333 39.619C12.1218 39.3419 12.1593 39.0627 12.2485 38.7958C12.2902 38.6706 12.4663 38.4384 12.583 38.2847C12.6081 38.2516 12.6277 38.2245 12.6503 38.1938C13.315 37.914 13.9628 37.5919 14.5852 37.2235C14.8798 37.2362 15.1673 37.2973 15.4409 37.4116L20.9583 39.7155C21.473 39.9305 22.4064 40.4314 22.6799 40.5796C22.764 40.6255 22.8468 40.6737 22.928 40.7244L24.1795 41.5061V45.1018L19.587 44.1646L18.1047 43.6568ZM24.1793 40.4187L23.416 39.942C23.3189 39.8813 23.2203 39.8237 23.1193 39.7691C22.7559 39.5721 21.8528 39.0899 21.3133 38.8646L15.7962 36.5609C15.7551 36.5439 15.7129 36.5314 15.6715 36.5158C16.0661 36.2366 16.4516 35.9441 16.8195 35.6296L21.843 30.8887C21.8108 32.1228 22.1347 33.3591 22.7892 34.4177C23.6988 35.8892 24.1797 37.5815 24.1797 39.3117L24.1793 40.4187ZM2.59747 44.7968C2.39207 44.5026 2.23785 44.1783 2.13941 43.8326C1.86531 42.8725 2.05641 41.8204 2.65119 41.018C3.92143 39.3038 5.45539 37.8195 7.2102 36.6057L10.5563 34.2916L15.2353 31.8076C15.3056 31.7703 15.3651 31.7152 15.4082 31.6478L18.1284 27.3734C19.2475 25.6148 20.6186 24.1341 22.204 22.9722C23.2438 22.2101 24.1445 21.7502 24.8808 21.6047L25.5853 21.5117L22.7882 27.7168C22.4615 28.2454 22.2188 28.8176 22.0579 29.4175L16.203 34.9436C14.5274 36.3754 12.5162 37.4338 10.3867 38.0039L6.0089 39.1759C5.79612 39.2328 5.65342 39.4323 5.66794 39.6519L5.92637 43.5269L4.63377 43.0825C4.46825 43.0258 4.28544 43.0673 4.16095 43.1897C4.03623 43.3121 3.99151 43.4945 4.04545 43.6605L5.02107 46.6747C5.06533 46.8119 5.04481 46.9591 4.96413 47.0785C4.88344 47.1982 4.7548 47.2727 4.61095 47.2833C4.44796 47.2938 4.28843 47.2192 4.19507 47.085L2.59747 44.7968ZM15.4864 52.8057L15.1829 53.3039C15.0615 53.5031 14.8736 53.6556 14.6539 53.7336L9.52867 55.5501C9.10312 55.7009 8.64943 55.7115 8.21695 55.5806L6.62857 55.0993C6.50962 55.0633 6.39897 54.9992 6.30859 54.9141L5.80142 54.4367C5.55152 54.2013 5.4773 53.8327 5.61654 53.519C5.72973 53.2644 5.96187 53.0881 6.215 53.05L10.2463 52.6519C10.6749 52.6097 11.0965 52.5115 11.4999 52.3601L14.2596 51.3236C14.5516 51.2141 14.8719 51.2429 15.139 51.4025C15.3739 51.5426 15.5394 51.7662 15.6051 52.0316C15.6708 52.2974 15.6286 52.5722 15.4864 52.8057ZM11.1758 51.4967C10.8476 51.62 10.5043 51.6998 10.1557 51.7344L9.69973 51.7794C8.88917 51.4188 7.75242 50.8281 6.71664 49.9932C7.53918 50.1393 8.5005 50.2822 9.11211 50.2822C10.1437 50.2822 11.6646 49.8291 12.2114 49.6548L13.7055 50.5467L11.1758 51.4967ZM34.5087 50.2889C34.0754 52.5489 32.5344 54.3911 30.3868 55.2171C29.4031 55.5954 28.3298 55.7346 27.2818 55.6175L27.1636 55.6043C24.5654 55.3157 22.11 54.4899 19.8651 53.1501L15.6122 50.6115C15.612 50.6113 15.6125 50.6116 15.6122 50.6115C15.612 50.6112 15.6111 50.6108 15.6108 50.6106L10.5522 47.5908L10.0797 48.3827L11.1309 49.0102C10.4997 49.1801 9.69443 49.3604 9.11187 49.3604C8.1441 49.3604 6.07599 48.9382 5.50334 48.8175C5.32329 48.6021 5.15523 48.3765 5.00354 48.1397C5.29678 48.0456 5.55198 47.8569 5.7288 47.594C5.96878 47.2381 6.03058 46.7994 5.89824 46.3911L5.20687 44.255L5.93605 44.5056C6.1599 44.5828 6.40564 44.5427 6.59353 44.3989C6.78141 44.255 6.88424 44.0284 6.86832 43.7925L6.71295 41.4603C7.6284 41.2949 8.56828 41.3653 9.45422 41.6686L19.316 45.0466C19.3346 45.0531 19.3537 45.0582 19.3731 45.062L24.0335 46.013C25.0013 46.2104 25.9285 46.5561 26.7898 47.0406L28.0276 47.7368L28.4796 46.9331L27.2419 46.2369C26.5625 45.8549 25.8453 45.5529 25.1014 45.332V39.7852C26.1766 40.2537 28.3839 41.1702 30.3652 41.7106C31.4548 42.0077 32.567 42.1021 33.5391 42.1021C33.9133 42.1021 34.2637 42.0873 34.5871 42.0656L34.7935 46.2307C34.8603 47.5887 34.7647 48.9542 34.5087 50.2889ZM57.7243 52.9632H49.7135L39.6741 39.8164L37.0794 30.8119C36.9685 30.4258 36.7705 30.0611 36.5074 29.757L34.3042 27.2119C33.1611 25.8913 33.0342 23.9506 33.9961 22.4922C34.3432 21.9657 34.927 21.6515 35.5575 21.6515C35.6549 21.6515 35.7508 21.661 35.8456 21.6757C35.9371 21.6955 36.0289 21.7152 36.1169 21.738C36.3892 21.8233 36.6407 21.9694 36.8517 22.1716L36.9305 22.2472C38.8835 24.1189 40.1815 26.6227 40.5862 29.3052L42.0479 37.9928C42.0587 38.0569 42.0829 38.118 42.1191 38.172L46.9755 45.4568L49.6423 50.7099C49.713 50.8492 49.8494 50.9432 50.0045 50.9595L53.7898 51.3623L57.7986 52.3469C57.9384 52.3813 58.0365 52.5063 58.0365 52.6506C58.0367 52.823 57.8965 52.9632 57.7243 52.9632Z" fill="#1E1E1E"/>
</svg>
