<svg width="60" height="61" viewBox="0 0 60 61" fill="none" xmlns="http://www.w3.org/2000/svg">
<path d="M50.0601 49.97C51.0527 49.7316 51.8949 49.0331 52.3125 48.1015L52.6671 47.311C53.184 46.1583 52.9892 44.7915 52.1708 43.829C51.8492 43.4509 51.4389 43.1457 50.984 42.9464L49.6951 42.3816C48.0729 41.6706 46.3784 41.2003 44.6386 40.9709L42.9283 30.9464C42.9216 30.9029 42.9161 30.859 42.9117 30.8152L42.7176 28.8742C42.4815 26.5128 42.0241 24.1603 41.3581 21.8816L41.1092 21.0298C40.9153 20.3661 40.549 19.7628 40.0498 19.2844C39.3951 18.6574 38.5265 18.3324 37.6401 18.3655L33.9543 16.6705C34.0413 16.5427 34.1267 16.412 34.2102 16.2751C35.1895 14.6648 35.7596 12.6488 35.7354 10.8816C35.7114 9.13547 35.1068 7.49869 34.0329 6.27272C33.878 6.0959 33.7155 5.93222 33.547 5.77892C33.5839 5.61109 33.6175 5.42851 33.615 5.2367C33.5873 3.23083 31.934 1.61641 29.9267 1.64892C27.9209 1.67682 26.3115 3.33135 26.3389 5.33698C26.3419 5.54378 26.3844 5.71599 26.4288 5.87021C26.2624 6.0302 26.1017 6.20056 25.9498 6.3843C24.9103 7.63932 24.3508 9.29201 24.3748 11.0383C24.3993 12.8053 25.0246 14.8052 26.048 16.3878C26.107 16.4789 26.1672 16.5665 26.2276 16.6534L22.2956 18.3655C21.4076 18.3312 20.5368 18.656 19.881 19.2842C19.3819 19.7625 19.0156 20.3659 18.8217 21.0293L18.5725 21.8814C17.9065 24.16 17.4491 26.5125 17.213 28.8739L17.0192 30.8144C17.0145 30.8583 17.009 30.9024 17.0032 30.9402L15.4273 40.3189C13.9395 40.4499 12.4793 40.8858 11.1632 41.6194C10.3424 42.0765 9.74747 42.8633 9.531 43.7779C9.23684 45.0202 9.68569 46.3444 10.6747 47.152C11.6265 47.9288 12.6902 48.5351 13.8258 48.9545L13.6271 54.8896C13.6269 54.8994 13.6269 54.9094 13.6271 54.9193C13.6292 54.9873 13.6077 55.036 13.5978 55.0475L12.3099 56.5344C12.0288 56.859 11.9207 57.3477 12.0275 57.8097C12.1196 58.2093 12.3576 58.5172 12.6796 58.6546L13.9911 59.2139C14.1052 59.2623 14.227 59.2867 14.3439 59.2867C14.3828 59.2867 14.4211 59.284 14.4586 59.2786L17.5455 58.9112C17.855 58.866 18.1278 58.6608 18.2938 58.3489C18.4939 57.9725 18.5183 57.5066 18.3641 57.107L19.1422 56.9869C19.4884 56.9341 19.7641 56.6455 19.8283 56.2693C19.9147 55.7612 19.6313 55.278 19.1966 55.1921L17.2303 54.8028C17.2257 54.79 17.2211 54.7726 17.219 54.751L18.0607 51.3013C19.3383 51.9901 20.7216 52.6065 21.7333 52.7103C23.937 52.9374 29.1666 51.7031 30.0692 51.4843C30.9 51.7414 35.4761 53.1281 37.4981 53.1281C38.4613 53.1281 40.4053 52.6381 42.3063 52.0805L43.079 54.7586C43.0768 54.7768 43.0728 54.7918 43.0687 54.8028L41.1027 55.1921C40.6679 55.278 40.3843 55.7612 40.4708 56.2693C40.5349 56.6457 40.8106 56.9341 41.1564 56.9869L41.9347 57.107C41.7805 57.5063 41.8049 57.9725 42.005 58.3489C42.171 58.661 42.4437 58.866 42.7656 58.9128L45.8291 59.2771C45.8708 59.2831 45.9128 59.286 45.9545 59.286C46.0748 59.286 46.1949 59.2616 46.3083 59.2136L47.6192 58.6546C47.9412 58.5172 48.1791 58.2093 48.2713 57.8097C48.3781 57.3477 48.2699 56.859 47.9887 56.5344L46.701 55.0477C46.6908 55.036 46.6691 54.9873 46.6715 54.9193C46.672 54.9027 46.6715 54.8857 46.6703 54.8688L46.3498 50.7985C46.8058 50.6447 47.115 50.5373 47.215 50.5025C48.1711 50.3711 49.1213 50.1954 50.0601 49.97ZM17.7165 48.754C17.0288 46.7981 17.1886 44.6488 18.1707 42.8119L18.241 42.6806C21.9669 42.2515 32.8776 43.5612 32.9939 43.5755C33.1244 43.5914 33.2562 43.5503 33.3552 43.4629C33.4539 43.3754 33.5103 43.2497 33.5103 43.1179V42.3147C33.5103 42.0594 33.6237 41.8199 33.8215 41.6583C33.9843 41.5251 34.1883 41.4571 34.3997 41.4677L37.1391 41.6014C37.2623 41.6056 37.3812 41.5643 37.4718 41.4818L40.6333 38.6077C40.7475 38.504 40.8932 38.4512 41.0488 38.4585L42.0147 38.5044C42.1111 38.509 42.2058 38.5381 42.2881 38.5881C42.4458 38.6847 42.5456 38.8454 42.562 39.0293C42.5784 39.2134 42.5083 39.3892 42.37 39.5116L40.2953 41.3505C40.0886 41.5341 39.8585 41.6916 39.6123 41.8185L34.9733 44.2106C34.965 44.2147 34.9572 44.2191 34.9493 44.224L33.0878 45.3293C31.0098 46.5632 28.7542 47.429 26.3844 47.9032L24.3955 48.3009C22.1951 48.741 19.9532 48.8927 17.7165 48.754ZM18.4771 40.4864C18.4181 40.028 18.6675 39.5732 19.1029 39.3882C19.3088 39.3004 19.5414 39.2815 19.7595 39.3345L20.1515 39.4298C20.9424 39.6219 21.6264 40.1004 22.078 40.7777L22.2269 41.0014C22.2963 41.1053 22.4049 41.1767 22.528 41.1992L23.7244 41.4167C24.1212 41.4889 24.4956 41.6452 24.8255 41.8679C23.7791 41.7953 22.7345 41.7367 21.7601 41.7043L19.3568 40.703C19.3404 40.6964 19.3238 40.6903 19.3069 40.6857C19.0329 40.6066 18.7555 40.5423 18.4771 40.4864ZM22.2299 34.2511L22.4109 34.711C22.871 35.8796 23.0107 37.153 22.815 38.3935L22.576 39.9096C22.2781 39.5524 21.9244 39.2511 21.53 39.0139L22.2299 34.2511ZM23.6645 38.9265H36.9379L37.2288 40.4565L36.993 40.671L34.4446 40.5464C34.0056 40.5255 33.5774 40.6666 33.2377 40.9448C32.8249 41.2824 32.5882 41.7817 32.5882 42.3147V42.5994C31.5211 42.4758 28.9899 42.1948 26.2545 41.9751C25.6803 41.2121 24.8328 40.6809 23.8895 40.5094L23.4283 40.4255L23.6645 38.9265ZM37.7687 38.3587C37.579 37.3605 37.6118 36.3264 37.8607 35.3425L38.449 39.3475L38.0292 39.7291L37.7687 38.3587ZM33.5583 46.1221L35.4081 45.0236L36.3609 44.5324L37.0501 44.4451C39.2716 44.1627 41.553 44.2869 43.737 44.7987C43.0904 46.4124 43.1111 48.247 43.8054 49.8475C43.6224 49.8513 43.4393 49.8559 43.2566 49.8561L39.9747 49.8591C39.9657 49.8591 39.957 49.8591 39.9482 49.8591C37.8464 49.8591 35.7416 49.6238 33.6925 49.1597L29.1383 48.128C30.6766 47.6234 32.1567 46.9543 33.5583 46.1221ZM50.6136 43.791C50.9409 43.9344 51.2367 44.1543 51.4681 44.4266C52.0574 45.1195 52.1978 46.1035 51.8257 46.9336L51.4712 47.7241C51.1694 48.3968 50.5614 48.901 49.8445 49.0736C48.1906 49.4706 46.5004 49.7166 44.8018 49.8111L44.7281 49.6562C44.0376 48.2055 44.0097 46.5046 44.6359 45.0339C44.8843 45.1053 45.1319 45.1799 45.3772 45.2619L46.6639 45.6906L46.9554 44.8157L45.6689 44.3869C43.3947 43.6292 40.9706 43.2922 38.5715 43.3929L40.0347 42.6384C40.3491 42.4763 40.6427 42.2752 40.9069 42.0408L41.2952 41.6966L42.6918 41.7367C44.9881 41.8027 47.2196 42.3039 49.3244 43.2262L50.6136 43.791ZM42.7185 40.8151L42.3034 40.8031L42.9816 40.2021C43.2139 39.996 43.3707 39.7318 43.4419 39.4418L43.6853 40.869C43.3645 40.8432 43.0422 40.8243 42.7185 40.8151ZM39.4111 19.9502C39.7937 20.317 40.0745 20.7797 40.2232 21.2885L40.4724 22.1405C41.1225 24.3643 41.5688 26.6608 41.7994 28.9659L41.9934 30.9068C41.9994 30.9672 42.0073 31.0269 42.0174 31.0942L43.2395 38.2575C43.1201 38.0761 42.9617 37.9198 42.7685 37.8015C42.5544 37.6711 42.3089 37.5954 42.0583 37.5834L41.0925 37.5376C40.694 37.5191 40.3094 37.6563 40.0127 37.9258L39.2709 38.6001L38.1588 31.0297C37.8995 29.2649 37.4442 27.5258 36.8051 25.8606L35.5275 22.531C35.3182 21.9856 35.3158 21.3837 35.521 20.8364C35.8039 20.0821 36.4418 19.5249 37.2275 19.346C38.0131 19.1662 38.8295 19.3928 39.4111 19.9502ZM29.9384 2.57059C31.3991 2.54616 32.6009 3.68821 32.6841 5.12905C31.8544 4.62233 30.9242 4.35976 29.9636 4.37174C29.0004 4.38512 28.0789 4.67305 27.2647 5.20236C27.309 3.76061 28.4822 2.59088 29.9384 2.57059ZM26.6591 6.97215C27.5414 5.90709 28.7194 5.31116 29.9763 5.29387C29.9952 5.29364 30.0139 5.29342 30.0328 5.29342C31.2687 5.29342 32.4406 5.85545 33.3384 6.88017C34.2123 7.87791 34.7213 9.19887 34.7974 10.622C33.68 9.78443 31.5533 8.36457 29.976 8.36457C28.4105 8.36457 26.3878 9.75192 25.3082 10.5904C25.3758 9.22676 25.8452 7.95468 26.6591 6.97215ZM25.3444 11.7451C26.2967 10.9375 28.5405 9.2867 29.9758 9.2867C31.4143 9.2867 33.7646 10.9519 34.7679 11.7656C34.6323 13.1347 34.1559 14.5876 33.4214 15.7956C32.4964 17.3164 31.3056 18.1977 30.1541 18.2134C29.0041 18.2353 27.7881 17.3814 26.8214 15.8864C26.0259 14.6559 25.4975 13.1537 25.3444 11.7451ZM31.7564 18.7287C31.5381 19.4299 30.8832 19.9403 30.1109 19.9403C29.337 19.9403 28.6809 19.4273 28.4642 18.7238C29.0016 18.9949 29.5581 19.136 30.1201 19.136C30.1356 19.136 30.1512 19.136 30.1666 19.1358C30.7091 19.1281 31.243 18.9884 31.7564 18.7287ZM27.466 18.05V18.2173C27.466 19.6757 28.6526 20.8624 30.1112 20.8624C31.5697 20.8624 32.7563 19.6759 32.7563 18.2173V18.0456C32.9695 17.8596 33.1772 17.6513 33.378 17.4204L36.2359 18.7347C35.5162 19.1065 34.9502 19.733 34.6582 20.5121C34.3739 21.2705 34.3769 22.1045 34.6671 22.8607L35.9447 26.1903C36.5594 27.792 36.9976 29.465 37.2468 31.1628L37.5511 33.2344L37.0972 34.6575C36.7535 35.7357 36.6474 36.8822 36.7823 38.0037H23.7913C23.9011 36.7723 23.7233 35.5273 23.2687 34.3728L22.4989 32.4172L22.6832 31.1628C22.9326 29.465 23.3708 27.792 23.9854 26.1903L25.2631 22.8607C25.5532 22.1045 25.5563 21.2705 25.272 20.5121C24.9836 19.743 24.4276 19.1238 23.721 18.7503L26.814 17.4026C27.0255 17.6417 27.2426 17.8589 27.466 18.05ZM17.9137 31.087C17.9229 31.0273 17.9305 30.9676 17.9367 30.9072L18.1308 28.9662C18.3613 26.6611 18.8077 24.3644 19.4577 22.1407L19.707 21.2885C19.8557 20.7799 20.1364 20.3172 20.5191 19.9504C21.1007 19.393 21.918 19.1667 22.7024 19.346C23.4882 19.5247 24.126 20.0818 24.4089 20.8364C24.6141 21.3837 24.6117 21.9854 24.4024 22.531L23.1248 25.8606C22.4861 27.5258 22.0304 29.2649 21.7712 31.0297L20.6565 38.6181C20.5617 38.5877 20.4665 38.5577 20.369 38.534L19.9774 38.4388C19.5684 38.3391 19.1297 38.3753 18.7422 38.5397C18.0072 38.8521 17.5491 39.5739 17.5436 40.3418C17.1533 40.2989 16.7617 40.2774 16.3698 40.2777L17.9137 31.087ZM10.4285 43.9906C10.5855 43.3274 11.017 42.7566 11.6123 42.4251C13.0692 41.6132 14.7187 41.1963 16.3727 41.1963C17.2661 41.1963 18.1607 41.3179 19.0271 41.5645L19.3254 41.6888C18.5515 41.7127 17.903 41.7722 17.4457 41.8776L13.3334 42.8264L13.5406 43.7251L17.1022 42.9033C16.287 44.723 16.1538 46.7656 16.722 48.673L16.6563 48.6665C14.6705 48.4699 12.8036 47.6992 11.2579 46.4376C10.5405 45.8524 10.215 44.8918 10.4285 43.9906ZM16.3091 54.5896C16.3017 54.6198 16.2974 54.6507 16.2962 54.6816C16.2775 55.1861 16.5701 55.6127 16.991 55.6955L18.9206 56.0775V56.0883L17.6395 56.2854C17.4954 56.3083 17.3583 56.4076 17.2907 56.5371C17.219 56.6745 17.2165 56.8396 17.2836 56.9777L17.4877 57.4019C17.5549 57.5418 17.5589 57.7283 17.4975 57.877C17.4613 57.9648 17.4191 57.996 17.424 57.9971L14.3519 58.3656L13.0411 57.8065C13.0107 57.7933 12.9546 57.7284 12.9256 57.6022C12.8858 57.4303 12.9191 57.2393 13.0067 57.1381L14.295 55.651C14.4619 55.458 14.5541 55.1878 14.5492 54.9073L14.7383 49.2627C15.0581 49.4831 16.038 50.1455 17.2255 50.8338L16.3091 54.5896ZM30.222 50.5663C30.1414 50.5413 30.0549 50.5385 29.9728 50.5588C29.9138 50.5733 24.0334 52.0199 21.8269 51.7933C20.5533 51.6626 18.4903 50.5362 16.9959 49.6231C17.7701 49.6903 18.545 49.7261 19.3199 49.7261C21.0825 49.7259 22.8419 49.5518 24.576 49.2048L26.5646 48.8072C26.8016 48.7597 27.0363 48.7053 27.271 48.6504L33.4882 50.0587C35.6045 50.5382 37.7775 50.7813 39.9477 50.7813H39.9752L43.2571 50.7782C43.3151 50.7782 43.3732 50.776 43.4313 50.7755C41.2235 51.4641 38.5922 52.2057 37.4974 52.2057C35.4577 52.2059 30.2742 50.5828 30.222 50.5663ZM45.7491 54.9193C45.747 55.1955 45.839 55.4611 46.0036 55.6515L47.2913 57.1384C47.379 57.2393 47.4124 57.4304 47.3725 57.6025C47.3435 57.7286 47.2874 57.7936 47.257 57.8067L45.9487 58.3632L42.8875 57.9995C42.879 57.9962 42.8368 57.9653 42.8006 57.8775C42.7393 57.7288 42.7431 57.5425 42.8105 57.4023L43.0138 56.9794C43.0814 56.8401 43.0788 56.6748 43.0071 56.5374C42.9394 56.4076 42.8015 56.3081 42.6567 56.2856L41.3768 56.0885C41.3768 56.0849 41.3768 56.0814 41.3768 56.0782L43.3064 55.696C43.728 55.6132 44.0205 55.1864 44.0019 54.6821C44.0005 54.6447 43.9945 54.6074 43.9842 54.5714L43.189 51.8165C44.0116 51.5655 44.7929 51.3147 45.4481 51.0994L45.7491 54.9193Z" fill="#1E1E1E"/>
</svg>
